<svg width="120" height="81" viewBox="0 0 120 81" fill="none" xmlns="http://www.w3.org/2000/svg">
<path d="M108.303 78.5894H8.94889C6.11677 78.5894 3.82812 76.2947 3.82812 73.4686V11.2344C3.82812 8.40223 6.12281 6.11359 8.94889 6.11359H108.303C111.135 6.11359 113.423 8.40827 113.423 11.2344V73.4626C113.423 76.2947 111.129 78.5894 108.303 78.5894Z" fill="white" stroke="#C4C4C4" stroke-width="0.5" stroke-miterlimit="10"/>
<path d="M116.325 80.2499H6.59058C3.08816 80.2499 0.25 77.4117 0.25 73.9093H118.988V77.5808C118.994 79.0543 117.798 80.2499 116.325 80.2499Z" fill="#EBF3FC" stroke="#C4C4C4" stroke-width="0.5" stroke-miterlimit="10"/>
<path d="M47.8281 74.0421L49.3016 76.1798H70.0322L71.403 74.0421H47.8281Z" fill="#B1CDFB"/>
<path d="M107.875 71.3128H8.93167C7.83867 71.3128 6.95703 70.4252 6.95703 69.3382V12.2609C6.95703 11.1679 7.84471 10.2863 8.93167 10.2863H107.869C108.962 10.2863 109.843 11.174 109.843 12.2609V69.3382C109.849 70.4312 108.968 71.3128 107.875 71.3128Z" stroke="#C4C4C4" stroke-width="0.5" stroke-miterlimit="10"/>
<path d="M75.0439 32.65C75.0439 32.65 78.082 34.3985 79.2173 38.4686C80.3525 42.5386 83.8368 53.1425 83.8368 53.1425C83.8368 53.1425 85.8235 55.4855 86.0409 57.2186C86.2523 58.9517 85.8296 63.1425 85.1895 63.9275C84.5494 64.7065 83.6375 64.5797 83.6375 64.5797L75.2619 63.7826L71.9648 41.7053L75.0439 32.65Z" fill="#B1CDFB"/>
<path d="M46.9251 33.2121C46.9251 33.2121 40.9345 34.3829 39.4414 36.25L44.3499 63.2374L44.2714 71.45H72.6828C72.6828 71.0435 72.9367 44.1943 72.9367 44.1943L75.0414 32.65L64.5402 31.6344L62.5514 29.85L51.3138 30.4976L49.6091 32.4405L46.9251 33.2121Z" fill="#B1CDFB"/>
<g opacity="0.3">
<path d="M49.4368 52.2186C49.3522 52.0254 49.2254 51.814 49.0141 51.7718C48.6699 51.6993 48.4464 52.1039 48.3257 52.436C47.4017 55.0447 46.1819 57.4481 44.5998 59.7186L44.5273 63.221C46.1819 61.8261 47.8124 60.3346 48.8691 58.4505C49.9198 56.5604 50.3244 54.1933 49.4368 52.2186Z" fill="black"/>
</g>
<path d="M39.6812 35.9444C39.6812 35.9444 37.7066 38.6315 36.8914 40.3888C36.0701 42.146 29.2827 56.8864 28.8781 58.4081C28.4674 59.9298 27.4167 64.7245 30.5146 65.8417H36.8914L43.2923 52.8948L43.6184 37.8707L39.6812 35.9444Z" fill="#B1CDFB"/>
<path d="M37.2952 56.4941C37.2891 56.5062 37.1502 56.3673 36.8604 56.2042C36.5645 56.0412 36.1116 55.848 35.5198 55.7211C35.2239 55.6547 34.8978 55.6064 34.5416 55.5822C34.1853 55.5581 33.8109 55.5641 33.4244 55.6547C32.6515 55.8298 31.8845 56.3129 31.2746 57.0013C30.6587 57.6897 30.2843 58.4989 30.0609 59.2598C29.8374 60.0267 29.7408 60.7453 29.6744 61.3431C29.614 61.947 29.5899 62.4361 29.5717 62.7743C29.5597 62.9313 29.5536 63.0641 29.5476 63.1668C29.5416 63.2574 29.5355 63.3057 29.5295 63.3057C29.5234 63.3057 29.5234 63.2574 29.5234 63.1668C29.5234 63.0641 29.5234 62.9313 29.5234 62.7743C29.5295 62.4361 29.5416 61.9409 29.5899 61.3371C29.6382 60.7332 29.7288 60.0025 29.9522 59.2296C30.1696 58.4566 30.556 57.6233 31.1841 56.9228C31.8 56.2223 32.5971 55.7211 33.4002 55.546C33.7988 55.4554 34.1913 55.4554 34.5476 55.4796C34.9099 55.5037 35.236 55.5641 35.5379 55.6366C36.1358 55.7755 36.5887 55.9808 36.8785 56.162C37.0234 56.2525 37.1261 56.3371 37.1925 56.3975C37.265 56.4579 37.2952 56.488 37.2952 56.4941Z" fill="#93BAFA"/>
<path d="M34.2734 53.9154C34.2734 53.9094 34.3459 53.8973 34.4908 53.8792C34.6297 53.8611 34.835 53.8611 35.0826 53.8731C35.3302 53.8852 35.6321 53.9275 35.9522 54C36.2722 54.0785 36.6225 54.1992 36.9667 54.3623C37.3109 54.5314 37.6188 54.7246 37.8845 54.9239C38.1442 55.1292 38.3676 55.3285 38.5307 55.5217C38.6998 55.7089 38.8205 55.8659 38.899 55.9867C38.9775 56.1014 39.0138 56.1678 39.0077 56.1739C38.9896 56.186 38.8145 55.9323 38.4703 55.5821C38.3012 55.407 38.0778 55.2137 37.8181 55.0205C37.5524 54.8333 37.2505 54.6401 36.9123 54.477C36.5742 54.32 36.236 54.1992 35.922 54.1147C35.608 54.0362 35.3181 53.9818 35.0705 53.9637C34.5814 53.9154 34.2734 53.9396 34.2734 53.9154Z" fill="#93BAFA"/>
<path d="M40.035 53.209C40.035 53.215 39.9263 53.209 39.7391 53.1848C39.5519 53.1607 39.2802 53.1305 38.942 53.1063C38.2657 53.058 37.3297 53.046 36.3031 53.1667C35.2766 53.2935 34.3708 53.523 33.7246 53.7344C33.4046 53.837 33.1449 53.9276 32.9638 54.0001C32.7886 54.0665 32.686 54.0967 32.68 54.0906C32.6739 54.0846 32.7705 54.0363 32.9457 53.9578C33.1147 53.8732 33.3744 53.7706 33.6944 53.6559C34.3345 53.4264 35.2524 53.1728 36.285 53.052C37.3176 52.9312 38.2657 52.9554 38.9481 53.0278C39.2862 53.0641 39.558 53.1063 39.7452 53.1426C39.9324 53.1728 40.035 53.1969 40.035 53.209Z" fill="#93BAFA"/>
<path d="M58.204 40.6062C58.204 40.6062 58.1798 40.5821 58.1375 40.5277C58.0892 40.4673 58.0349 40.3888 57.9624 40.2922C57.8054 40.0748 57.588 39.7789 57.3223 39.4045C56.7728 38.6256 56.0059 37.5446 55.1001 36.2705L55.1967 36.2584C54.8525 37.2669 54.4721 38.384 54.0735 39.5555L54.0494 39.628L53.9829 39.5857C53.9407 39.5615 53.8984 39.5314 53.8501 39.5012C53.3247 39.169 52.8598 38.7644 52.4612 38.3297C52.0687 37.8949 51.7426 37.4239 51.4709 36.9589C50.9274 36.0229 50.6013 35.105 50.3779 34.32C50.1544 33.535 50.0397 32.8888 49.9672 32.442C49.931 32.2306 49.9008 32.0555 49.8767 31.9287C49.8646 31.8683 49.8525 31.826 49.8465 31.7959C49.8344 31.7717 49.8284 31.7536 49.8344 31.7536C49.8586 31.7415 49.931 31.9891 50.0156 32.4359C50.1061 32.8828 50.2329 33.5229 50.4624 34.3019C50.6919 35.0748 51.024 35.9867 51.5675 36.9045C51.8392 37.3635 52.1593 37.8224 52.5518 38.2512C52.9443 38.6799 53.3972 39.0724 53.9165 39.3985C53.9588 39.4287 54.0071 39.4528 54.0433 39.483L53.9528 39.5132C54.3573 38.3417 54.7378 37.2306 55.082 36.2222L55.1182 36.1195L55.1786 36.2101C56.0663 37.4963 56.8211 38.5893 57.3646 39.3683C57.6242 39.7487 57.8296 40.0567 57.9805 40.2741C58.047 40.3707 58.1013 40.4553 58.1375 40.5157C58.1919 40.576 58.21 40.6062 58.204 40.6062Z" fill="#93BAFA"/>
<g opacity="0.3">
<path d="M65.5939 51.4939C65.3282 54.1327 65.9139 56.8441 67.2364 59.1388C68.5589 61.4335 70.4912 63.4806 72.9006 64.5796C72.9791 62.2366 72.8644 59.483 72.9429 57.14L65.5939 51.4939Z" fill="black"/>
</g>
<path d="M65.3241 48.4143C65.3241 48.4143 64.2915 48.6981 65.0644 50.8116C65.8374 52.9252 66.097 52.7983 66.6103 54.773C67.1236 56.7476 67.7275 58.5532 68.6272 59.6703C69.527 60.7875 72.8784 63.064 72.8784 63.064L75.8857 60.2259C75.8857 60.2259 75.3905 58.1124 75.5113 56.6752C75.6321 55.238 75.928 51.7174 75.8857 51.1136C75.8434 50.5097 75.1973 49.0544 75.1973 49.0544V48.058L73.6514 43.2996C73.6514 43.2996 72.7939 42.9131 72.492 44.2899L71.9787 42.8285C71.9787 42.8285 71.1635 42.6957 70.9461 44.3744C70.7287 46.0471 71.1152 48.372 71.1152 48.372L70.6864 51.2947L70.0403 53.2694L69.4847 53.3539C69.4847 53.3539 68.6454 53.1244 68.1864 51.5423C67.7275 49.9602 66.4835 48.0701 65.3241 48.4143Z" fill="#ECF4FF"/>
<path d="M74.8818 55.884C74.8757 55.884 74.8757 55.8478 74.8697 55.7753C74.8637 55.6908 74.8576 55.5882 74.8456 55.4613C74.8274 55.1715 74.8093 54.7729 74.7791 54.2778C74.7308 53.2512 74.6704 51.8261 74.5919 50.1594L74.604 50.1956C74.4651 50.0326 74.2175 49.9782 73.9941 50.0386C73.7646 50.093 73.5654 50.2379 73.4385 50.4493C73.1789 50.872 73.1608 51.4215 73.0823 51.9529C72.9192 53.1546 72.7622 54.3019 72.6233 55.3466C72.5509 55.8659 72.4784 56.3671 72.3757 56.8261C72.2791 57.285 72.1402 57.7077 72.0013 58.0821C71.8685 58.4565 71.7477 58.7947 71.6753 59.1026C71.6028 59.4106 71.5726 59.6763 71.5786 59.8997C71.5907 60.3466 71.7175 60.57 71.6994 60.5761C71.6934 60.5761 71.6692 60.5217 71.627 60.413C71.5907 60.2983 71.5424 60.1292 71.5303 59.9058C71.5183 59.6823 71.5424 59.4046 71.6088 59.0906C71.6753 58.7766 71.79 58.4323 71.9168 58.058C72.0436 57.6836 72.1765 57.2669 72.2731 56.814C72.3697 56.3551 72.4422 55.8659 72.5086 55.3406C72.6475 54.2959 72.7985 53.1485 72.9615 51.9468C72.9977 51.6811 73.0279 51.4154 73.0762 51.1497C73.1245 50.884 73.197 50.6244 73.3419 50.3949C73.4808 50.1654 73.7224 49.9903 73.976 49.936C74.2296 49.8756 74.5255 49.9299 74.7006 50.1353L74.7127 50.1534V50.1715C74.7671 51.8382 74.8214 53.2693 74.8516 54.2898C74.8637 54.785 74.8757 55.1836 74.8818 55.4734C74.8818 55.6002 74.8818 55.7089 74.8878 55.7874C74.8878 55.8478 74.8818 55.884 74.8818 55.884Z" fill="#B1CDFB"/>
<path d="M73.2429 50.4735C73.2369 50.4735 73.1886 50.3829 73.1161 50.2017C73.0436 50.0266 72.9531 49.7609 72.8625 49.4288C72.7719 49.0967 72.6934 48.6981 72.6451 48.2452C72.6209 48.0218 72.6028 47.7802 72.633 47.5266C72.6572 47.279 72.7357 47.0133 72.8927 46.7899C73.0255 46.5967 73.2248 46.4397 73.4422 46.3793L73.4905 46.3672L73.5146 46.4095C73.9494 47.1764 74.3299 47.8588 74.5956 48.3418C74.7163 48.5713 74.819 48.7645 74.9035 48.9155C74.976 49.0544 75.0062 49.1269 75.0002 49.1329C74.9941 49.1389 74.9458 49.0665 74.8613 48.9397C74.7707 48.7887 74.656 48.6015 74.5231 48.3781C74.2393 47.901 73.8468 47.2307 73.4059 46.4638L73.4784 46.494C73.2912 46.5484 73.1161 46.6873 72.9953 46.8624C72.8504 47.0616 72.784 47.3032 72.7538 47.5387C72.7296 47.7742 72.7417 48.0097 72.7598 48.2331C72.8021 48.68 72.8685 49.0786 72.947 49.4046C73.0255 49.7368 73.104 49.9964 73.1584 50.1776C73.2188 50.3708 73.2489 50.4674 73.2429 50.4735Z" fill="#B1CDFB"/>
<path d="M72.5229 50.86C72.5168 50.86 72.5047 50.7634 72.4927 50.5883C72.4866 50.3829 72.4745 50.1354 72.4625 49.8395C72.4443 49.2054 72.4202 48.3358 72.4081 47.3697C72.4021 46.4095 72.3658 45.5339 72.4443 44.8999C72.4866 44.5858 72.547 44.3322 72.6074 44.1631C72.6617 43.9941 72.71 43.9095 72.7161 43.9095C72.7402 43.9156 72.5832 44.2839 72.5289 44.9059C72.4685 45.5279 72.5168 46.4035 72.5289 47.3697C72.541 48.3358 72.547 49.2054 72.547 49.8395C72.541 50.1354 72.541 50.3829 72.541 50.5883C72.5349 50.7634 72.5289 50.86 72.5229 50.86Z" fill="#B1CDFB"/>
<path d="M69.9778 58.7828C69.9597 58.7707 70.1469 58.5472 70.3824 58.1427C70.5031 57.9434 70.6179 57.6958 70.7326 57.412C70.8413 57.1282 70.9379 56.8021 70.9983 56.4579C71.0587 56.1076 71.0828 55.7755 71.0828 55.4675C71.0768 55.1596 71.0527 54.8878 71.0104 54.6584C70.9319 54.1994 70.8353 53.9277 70.8534 53.9216C70.8594 53.9216 70.8896 53.982 70.9379 54.1088C70.9862 54.2296 71.0406 54.4168 71.0949 54.6463C71.1493 54.8758 71.1795 55.1596 71.1915 55.4675C71.1976 55.7815 71.1795 56.1258 71.113 56.482C71.0466 56.8383 70.944 57.1704 70.8292 57.4603C70.7085 57.7501 70.5756 57.9977 70.4488 58.197C70.322 58.3963 70.2072 58.5472 70.1167 58.6439C70.0321 58.7344 69.9838 58.7888 69.9778 58.7828Z" fill="#B1CDFB"/>
<path d="M75.2542 57.3033L77.8629 58.209C77.8629 58.209 80.3569 56.9228 82.0719 58.209C83.7929 59.4953 85.2844 62.895 84.8074 64.2658C84.8074 64.2658 83.6238 65.7272 82.718 65.9446C81.8182 66.1619 78.3098 65.3105 76.8484 65.0025C75.3871 64.6946 72.875 63.0581 72.875 63.0581L75.2542 57.3033Z" fill="#ECF4FF"/>
<path d="M75.5795 61.1498C75.5734 61.1498 75.5614 61.0653 75.5493 60.9204C75.5372 60.7453 75.5251 60.5339 75.513 60.2923C75.4828 59.7609 75.4466 59.0242 75.4406 58.209C75.4285 57.3938 75.4527 56.6571 75.501 56.1196C75.5251 55.8539 75.5553 55.6366 75.5795 55.4916C75.6036 55.3467 75.6278 55.2622 75.6338 55.2622C75.6519 55.2682 75.6097 55.5943 75.5855 56.1257C75.5613 56.6571 75.5493 57.3938 75.5614 58.203C75.5734 59.0001 75.5915 59.7187 75.5976 60.2863C75.6036 60.552 75.5976 60.7694 75.5976 60.9204C75.5915 61.0653 75.5855 61.1498 75.5795 61.1498Z" fill="#B1CDFB"/>
<path d="M84.186 58.1063C84.1678 58.1244 83.9021 57.756 83.3164 57.3212C82.7427 56.8925 81.8128 56.4336 80.7137 56.3732C79.6147 56.3128 78.6425 56.663 78.0265 57.0314C77.4046 57.3937 77.0966 57.7319 77.0785 57.7137C77.0724 57.7077 77.1449 57.6232 77.2959 57.4782C77.4408 57.3394 77.6763 57.1461 77.9843 56.9529C78.6002 56.5664 79.5906 56.186 80.7258 56.2524C81.855 56.3128 82.8031 56.7959 83.3707 57.2548C83.6606 57.4843 83.8659 57.6956 83.9988 57.8526C84.1256 58.0096 84.192 58.1002 84.186 58.1063Z" fill="#93BAFA"/>
<path d="M83.8519 55.9325C83.8338 55.9566 83.4896 55.6064 82.765 55.3346C82.0585 55.0569 80.9534 54.9301 79.8242 55.2441C79.2626 55.4011 78.7432 55.6245 78.3024 55.8781C77.8616 56.1317 77.4932 56.4035 77.2034 56.6571C76.9075 56.9047 76.6841 57.1281 76.5331 57.2791C76.3821 57.4301 76.2915 57.5146 76.2855 57.5086C76.2795 57.5025 76.3519 57.4059 76.4969 57.2428C76.6418 57.0798 76.8592 56.8503 77.143 56.5907C77.4329 56.331 77.8012 56.0412 78.242 55.7815C78.6889 55.5218 79.2082 55.2924 79.7879 55.1293C80.9473 54.8032 82.0766 54.9482 82.7891 55.2561C83.1514 55.4071 83.4232 55.5762 83.5923 55.709C83.6828 55.7755 83.7372 55.8359 83.7855 55.8721C83.8338 55.9083 83.858 55.9264 83.8519 55.9325Z" fill="#93BAFA"/>
<path d="M83.8729 54.0424C83.8669 54.0665 83.408 53.9276 82.6531 53.825C82.2727 53.7706 81.8198 53.7404 81.3126 53.7404C80.8053 53.7465 80.2558 53.7887 79.6821 53.8854C79.1084 53.988 78.571 54.139 78.094 54.302C77.6229 54.4771 77.2002 54.6583 76.8681 54.8395C76.1918 55.1957 75.8114 55.4796 75.7932 55.4614C75.7872 55.4554 75.8838 55.3829 76.0529 55.2501C76.1374 55.1837 76.2461 55.1052 76.379 55.0267C76.5118 54.9482 76.6507 54.8455 76.8258 54.761C77.164 54.5677 77.5807 54.3745 78.0577 54.1933C78.5408 54.0182 79.0783 53.8672 79.658 53.7586C80.2377 53.6619 80.7993 53.6197 81.3126 53.6197C81.8258 53.6257 82.2848 53.668 82.6652 53.7344C82.8584 53.7585 83.0275 53.8008 83.1785 53.831C83.3295 53.8612 83.4563 53.8974 83.5589 53.9276C83.7642 54.0001 83.8729 54.0363 83.8729 54.0424Z" fill="#93BAFA"/>
<path d="M63.8825 30.9686C63.8825 30.9686 64.0033 31.192 64.0637 31.6631C64.1301 32.128 64.118 32.8225 63.967 33.686C63.8885 34.1147 63.7859 34.5918 63.6289 35.099C63.4658 35.6063 63.2243 36.1256 62.9465 36.6691C62.3849 37.75 61.6784 38.9336 60.8571 40.1957L60.7605 40.3406V40.1655C60.7605 39.3321 60.7605 38.4565 60.7545 37.5507L60.8451 37.593C60.1446 38.1606 59.4079 38.7585 58.647 39.3684L58.6651 39.3382C58.1579 40.9565 57.8197 42.756 57.6868 44.628C57.4695 47.4964 57.6446 50.2379 57.7774 52.7258C57.8922 55.2198 57.9707 57.4601 58.0492 59.3442C58.1216 61.2283 58.1941 62.756 58.2484 63.8068C58.2786 64.3261 58.3028 64.7367 58.3209 65.0205C58.3269 65.1534 58.339 65.2621 58.339 65.3345C58.3451 65.407 58.339 65.4432 58.339 65.4432C58.339 65.4432 58.333 65.407 58.3209 65.3345C58.3149 65.256 58.3028 65.1534 58.2907 65.0205C58.2666 64.7427 58.2303 64.3382 58.1941 63.8068C58.1216 62.756 58.0431 61.2283 57.9525 59.3442C57.868 57.4601 57.7653 55.2138 57.6567 52.7258C57.5178 50.2379 57.3366 47.4903 57.554 44.6099C57.6868 42.7259 58.025 40.9203 58.5443 39.2899L58.5504 39.2717L58.5624 39.2597C59.3233 38.6498 60.0661 38.0519 60.7666 37.4903L60.8571 37.4179V37.5326C60.8571 38.4384 60.8571 39.314 60.8511 40.1474L60.7545 40.1172C62.3728 37.6051 63.6893 35.4251 63.8946 33.6618C64.0576 32.8044 64.0757 32.116 64.0214 31.651C63.9972 31.4215 63.955 31.2464 63.9248 31.1317C63.9006 31.029 63.8825 30.9686 63.8825 30.9686Z" fill="#93BAFA"/>
<path d="M59.6486 52.285H59.5641C59.2259 52.2971 58.918 52.6051 58.918 52.9493C58.918 53.2875 59.2199 53.6015 59.5581 53.6135C59.8962 53.6256 60.2223 53.3358 60.2465 52.9916C60.2706 52.6474 59.9868 52.3152 59.6486 52.285Z" fill="white"/>
<path d="M59.5581 44.1569C59.8962 44.169 60.2223 43.8791 60.2465 43.5349C60.2706 43.1968 59.9868 42.8646 59.6486 42.8284H59.5641C59.2259 42.8405 58.918 43.1485 58.918 43.4927C58.918 43.8308 59.2199 44.1448 59.5581 44.1569Z" fill="white"/>
<path d="M49.3895 20.3225C48.5622 19.4106 47.7289 18.4807 47.125 17.4058C46.5211 16.3309 46.1649 15.0749 46.3641 13.8611C46.4789 13.1486 46.7808 12.4722 46.8291 11.7536C46.8955 10.7633 46.4789 9.73069 46.8291 8.80074C47.3786 7.35146 49.3291 7.12803 50.5127 6.12562C51.4366 5.34663 51.8834 4.07852 52.8979 3.42031C53.7856 2.84663 54.9209 2.85871 55.9656 3.00968C57.0103 3.1546 58.061 3.42031 59.1057 3.28142C59.8484 3.17876 60.5549 2.87683 61.2856 2.70171C62.0163 2.52055 62.8315 2.47224 63.4776 2.85267C64.1298 3.23311 64.4921 4.15098 64.0694 4.77296C65.2832 4.21137 66.817 5.15943 67.1491 6.4517C67.4813 7.74397 66.817 9.1389 65.7904 9.99035C64.7639 10.8418 63.4354 11.2403 62.125 11.4879C58.4112 12.1884 54.3895 11.7899 51.189 9.78504" fill="#93BAFA"/>
<path d="M62.4626 32.8045C62.2814 31.3975 62.1305 30.226 62.1244 30.081C62.1244 30.081 66.8164 29.0243 66.5628 24.2779C66.436 21.9832 65.7959 17.2791 65.1679 13.0279C64.4916 8.4627 60.4155 5.18976 55.814 5.49773L55.3551 5.52792C50.4396 6.14386 48.2174 10.6668 48.9722 15.5641L51.6232 31.9832C51.6232 31.9832 52.7524 35.6124 55.1739 36.2465L58.2295 40.6124L58.7367 38.7344L61.0133 36.7537C61.0133 36.7537 61.5387 36.1861 62.1365 35.081C62.6256 34.1752 62.523 33.2453 62.4626 32.8045Z" fill="#ECF4FF"/>
<path d="M62.1403 30.0087C62.1403 30.0087 59.1572 30.4556 55.8359 28.6621C55.8359 28.6621 57.5268 31.9773 62.2309 31.2346L62.1403 30.0087Z" fill="#CEE0FD"/>
<path d="M49.5625 19.0482C49.478 19.0181 46.2413 18.2995 46.5613 21.5362C46.8814 24.7729 50.3898 23.7161 50.3838 23.6255C50.3777 23.535 49.5625 19.0482 49.5625 19.0482Z" fill="#ECF4FF"/>
<path d="M48.95 22.5687C48.9319 22.5627 48.8957 22.611 48.8051 22.6654C48.7206 22.7137 48.5636 22.762 48.3884 22.7137C48.0322 22.6231 47.694 22.1098 47.6215 21.5241C47.5853 21.2282 47.6155 20.9444 47.7 20.7028C47.7725 20.4552 47.9114 20.2741 48.0805 20.2258C48.2496 20.1714 48.3824 20.262 48.4307 20.3465C48.4851 20.4311 48.4669 20.4975 48.4851 20.5035C48.4971 20.5096 48.5515 20.4431 48.5092 20.3103C48.4911 20.2499 48.4428 20.1774 48.3643 20.1231C48.2797 20.0687 48.165 20.0446 48.0442 20.0688C47.7967 20.111 47.5974 20.3646 47.5068 20.6303C47.4041 20.9021 47.3558 21.2221 47.3981 21.5543C47.4826 22.2064 47.8752 22.7801 48.3582 22.8707C48.5938 22.9069 48.7749 22.8224 48.8655 22.7318C48.95 22.6472 48.9621 22.5687 48.95 22.5687Z" fill="#B1CDFB"/>
<path d="M64.8977 8.60751C64.6743 9.89374 62.0656 11.0773 59.8977 11.0109C57.8989 10.9505 56.9146 9.96016 55.4653 9.25968C54.5475 8.81282 54.5475 8.81282 53.3035 9.01813C52.295 9.18118 51.7757 10.3708 51.2081 11.2222C52.283 13.5713 51.8482 16.3007 51.3953 18.849C51.347 19.1329 51.2805 19.4348 51.0692 19.622C50.7069 19.942 50.1151 19.7488 49.7588 19.4227C49.1851 18.8974 48.9255 18.1184 48.7383 17.3696C48.3095 15.6546 48.1465 13.8551 48.4182 12.1099C48.69 10.3647 49.4146 8.66185 50.6103 7.35751C52.1018 5.72707 54.2878 4.78504 56.4919 4.67031C58.702 4.55557 60.9182 5.23794 62.7661 6.45171C63.6115 7.00726 64.4146 7.70171 64.8977 8.60751Z" fill="#93BAFA"/>
<path d="M72.1687 42.5327C72.1627 42.5266 72.1929 42.436 72.2533 42.273C72.3257 42.0858 72.4163 41.8563 72.519 41.5906C72.7484 41.0109 73.0624 40.2138 73.3885 39.3261C73.7207 38.4385 74.0045 37.6293 74.2098 37.0435C74.3064 36.7718 74.3909 36.5363 74.4574 36.3491C74.5178 36.1861 74.554 36.0955 74.56 36.1015C74.5661 36.1015 74.548 36.1981 74.4996 36.3672C74.4574 36.5363 74.3849 36.7778 74.2943 37.0737C74.1132 37.6655 73.8354 38.4807 73.5093 39.3745C73.1772 40.2621 72.8511 41.0592 72.6035 41.6269C72.4767 41.9107 72.374 42.1402 72.3016 42.2972C72.2231 42.4481 72.1808 42.5387 72.1687 42.5327Z" fill="#93BAFA"/>
<path d="M42.4632 42.762C42.427 42.768 42.1733 41.6449 41.8895 40.256C41.6057 38.8671 41.4064 37.7318 41.4366 37.7258C41.4668 37.7197 41.7265 38.8429 42.0103 40.2318C42.2941 41.6267 42.4994 42.756 42.4632 42.762Z" fill="#93BAFA"/>
<path d="M42.0198 56.7838C42.0922 56.8201 41.1562 49.4409 41.1562 49.4409C41.1562 49.4409 41.748 43.837 42.0802 43.5773L42.0862 41.6027C42.0862 41.6027 43.0041 41.0471 43.2456 41.9409C43.2456 41.9409 44.0608 41.2343 44.1997 42.9131C44.3447 44.5918 44.3688 46.3068 44.3688 46.3068L46.1744 50.8297L46.4703 50.9807C46.4703 50.9807 46.8567 47.436 47.0862 46.9167C47.3096 46.3974 47.4666 45.1293 48.3241 45.3165C49.1816 45.5097 49.2541 46.2162 49.0971 47.3696C48.9401 48.523 48.7529 49.7186 48.8253 50.4614C48.8978 51.2041 49.236 52.8527 49.1333 54.157C49.0306 55.4614 48.312 56.8382 47.5633 57.8044C46.8145 58.7706 45.3773 60.7694 44.5983 61.3732C44.3386 61.5906 42.0198 56.7838 42.0198 56.7838Z" fill="#ECF4FF"/>
<path d="M42.9303 50.7753C42.9242 50.7753 42.9242 50.6606 42.9363 50.4613C42.9544 50.2318 42.9725 49.948 42.9967 49.6038C43.051 48.8792 43.1356 47.8828 43.2382 46.7777C43.2926 46.2282 43.3409 45.7028 43.3832 45.2258C43.4073 44.9903 43.4194 44.7608 43.3892 44.5615C43.359 44.3562 43.2805 44.1811 43.1658 44.0543C42.9242 43.7946 42.6223 43.7282 42.4291 43.7282C42.2298 43.7282 42.1271 43.7826 42.1211 43.7705C42.1211 43.7644 42.1452 43.7524 42.1936 43.7342C42.2419 43.7161 42.3204 43.692 42.4291 43.6859C42.6283 43.6739 42.9605 43.7222 43.2322 43.9999C43.3651 44.1388 43.4617 44.3321 43.4919 44.5555C43.5281 44.7729 43.516 45.0084 43.4979 45.2499C43.4556 45.733 43.4073 46.2524 43.359 46.8019C43.2564 47.9069 43.1597 48.9033 43.0812 49.6219C43.045 49.9661 43.0088 50.2499 42.9846 50.4734C42.9544 50.6666 42.9363 50.7753 42.9303 50.7753Z" fill="#B1CDFB"/>
<path d="M43.8979 47.756C43.9161 47.7681 43.7168 47.9493 43.5779 48.3358C43.433 48.7222 43.3786 49.2959 43.276 49.93C43.1793 50.564 43.0827 51.1316 43.0103 51.5423C42.9378 51.9529 42.8834 52.2065 42.8653 52.2065C42.8472 52.2065 42.8714 51.9469 42.9257 51.5302C42.9801 51.1135 43.0586 50.5399 43.1552 49.9118C43.2578 49.2838 43.3243 48.7041 43.4933 48.3056C43.5779 48.1063 43.6745 47.9614 43.753 47.8768C43.8375 47.7862 43.8919 47.75 43.8979 47.756Z" fill="#B1CDFB"/>
<path d="M43.2343 41.8441C43.2404 41.8441 43.2645 41.9226 43.2947 42.0736C43.3249 42.2246 43.3672 42.442 43.4155 42.7137C43.5061 43.2572 43.6027 44.0181 43.6691 44.8574C43.7295 45.6968 43.7416 46.4637 43.7355 47.0132C43.7295 47.291 43.7235 47.5144 43.7114 47.6654C43.6993 47.8224 43.6933 47.9069 43.6812 47.9069C43.6631 47.9069 43.657 47.5627 43.645 47.0132C43.6329 46.4637 43.6027 45.7028 43.5423 44.8635C43.4819 44.0241 43.3974 43.2693 43.3249 42.7258C43.2645 42.1883 43.2162 41.8502 43.2343 41.8441Z" fill="#B1CDFB"/>
<path d="M48.4538 48.7645C48.4719 48.7947 48.1881 48.9215 47.8439 48.8189C47.4997 48.7162 47.3366 48.4505 47.3668 48.4384C47.397 48.4143 47.5721 48.6136 47.8801 48.7041C48.182 48.7947 48.4417 48.7343 48.4538 48.7645Z" fill="#B1CDFB"/>
<path d="M42.1196 55.8661L37.343 57.8709H34.4928C34.4928 57.8709 31.6788 58.7465 31.244 61.3854C30.8092 64.0243 30.7488 65.383 31.9867 65.709C33.2247 66.0351 36.721 66.0714 38.4541 65.4977C40.1872 64.924 44.7222 61.2586 44.7222 61.2586L45.157 58.6076L42.1196 55.8661Z" fill="#ECF4FF"/>
<path d="M43.2357 58.7827C43.2296 58.7888 43.1813 58.7465 43.1028 58.6559C43.0183 58.5714 42.9156 58.4385 42.7948 58.2634C42.5593 57.9132 42.2997 57.3757 42.1306 56.7538C41.9494 56.1318 41.877 55.5521 41.8347 55.1294C41.7985 54.7067 41.7985 54.447 41.8166 54.447C41.8347 54.447 41.8649 54.7067 41.9192 55.1173C41.9796 55.5339 42.0702 56.1016 42.2453 56.7175C42.4144 57.3335 42.656 57.8588 42.8673 58.2151C43.0787 58.5714 43.2538 58.7646 43.2357 58.7827Z" fill="#B1CDFB"/>
<path d="M45.3166 59.6159C45.2924 59.6038 45.5037 59.2415 45.5883 58.5893C45.6306 58.2632 45.6245 57.8707 45.5339 57.4541C45.4434 57.0314 45.2441 56.5966 44.9482 56.192C44.6583 55.7874 44.3323 55.4311 44.0545 55.0869C43.7767 54.7487 43.5533 54.4106 43.4083 54.1086C43.2634 53.8067 43.197 53.541 43.1668 53.3538C43.1426 53.1666 43.1547 53.064 43.1608 53.064C43.1849 53.0579 43.1789 53.4867 43.4868 54.0664C43.6378 54.3562 43.8612 54.6763 44.1451 55.0084C44.4228 55.3466 44.755 55.6968 45.0508 56.1135C45.3528 56.5241 45.5581 56.983 45.6487 57.4178C45.7393 57.8526 45.7332 58.2632 45.6789 58.5893C45.6245 58.9215 45.5339 59.1811 45.4615 59.3502C45.4252 59.4347 45.389 59.5012 45.3649 59.5434C45.3347 59.5978 45.3226 59.6219 45.3166 59.6159Z" fill="#B1CDFB"/>
<path d="M73.2734 18.7645L75.3447 15.1171C74.4268 13.6316 73.9015 11.8804 73.9015 10.0084C73.9015 4.62198 78.2674 0.25 83.6599 0.25C89.0464 0.25 93.4184 4.61594 93.4184 10.0084C93.4184 15.3949 89.0524 19.7669 83.6599 19.7669C81.4075 19.7669 79.3362 19.006 77.6877 17.7258L77.6937 17.7319L73.2734 18.7645Z" fill="white" stroke="#C4C4C4" stroke-width="0.5" stroke-miterlimit="10"/>
<path d="M86.3125 9.59781C86.3125 10.1232 86.7412 10.5519 87.2666 10.5519C87.792 10.5519 88.2207 10.1232 88.2207 9.59781C88.2207 9.07245 87.792 8.64371 87.2666 8.64371C86.7412 8.64371 86.3125 9.07245 86.3125 9.59781Z" fill="#C4C4C4"/>
<path d="M82.4766 9.59781C82.4766 10.1232 82.9053 10.5519 83.4307 10.5519C83.956 10.5519 84.3848 10.1232 84.3848 9.59781C84.3848 9.07245 83.956 8.64371 83.4307 8.64371C82.9053 8.64371 82.4766 9.07245 82.4766 9.59781Z" fill="#C4C4C4"/>
<path d="M78.6918 9.12078C78.4261 9.57972 78.5831 10.1594 79.042 10.4251C79.501 10.6908 80.0807 10.5338 80.3464 10.0749C80.6121 9.61595 80.4551 9.03624 79.9961 8.77054C79.5372 8.51088 78.9514 8.66788 78.6918 9.12078Z" fill="#C4C4C4"/>
</svg>
