<svg width="25" height="21" viewBox="0 0 25 21" fill="none" xmlns="http://www.w3.org/2000/svg">
<path d="M6.25 0L18.75 0C20.1172 0 21.25 1.13281 21.25 2.5V6.875H22.6562C22.8516 6.52344 23.2812 6.25 23.75 6.25C24.4141 6.25 25 6.83594 25 7.5C25 8.20313 24.4141 8.75 23.75 8.75C23.2812 8.75 22.8516 8.51563 22.6562 8.125H21.25L21.25 13.75C21.25 15.1563 20.1172 16.25 18.75 16.25H14.5703L9.72656 19.8828C9.53125 20.0391 9.29687 20.0391 9.0625 19.9609C8.86719 19.8438 8.75 19.6484 8.75 19.375V16.25H6.25C4.84375 16.25 3.75 15.1562 3.75 13.75L3.75 8.125H2.30469C2.10937 8.51562 1.67969 8.75 1.25 8.75C0.546875 8.75 0 8.20312 0 7.5C0 6.83594 0.546875 6.25 1.25 6.25C1.67969 6.25 2.10937 6.52344 2.30469 6.875L3.75 6.875L3.75 2.5C3.75 1.13281 4.84375 0 6.25 0ZM6.25 5L6.25 10C6.25 10.7031 6.79687 11.25 7.5 11.25L17.5 11.25C18.1641 11.25 18.75 10.7031 18.75 10V5C18.75 4.33594 18.1641 3.75 17.5 3.75L7.5 3.75C6.79687 3.75 6.25 4.33594 6.25 5ZM8.75 8.75C8.04687 8.75 7.5 8.20313 7.5 7.5C7.5 6.83594 8.04687 6.25 8.75 6.25C9.41406 6.25 10 6.83594 10 7.5C10 8.20313 9.41406 8.75 8.75 8.75ZM16.25 8.75C15.5469 8.75 15 8.20313 15 7.5C15 6.83594 15.5469 6.25 16.25 6.25C16.9141 6.25 17.5 6.83594 17.5 7.5C17.5 8.20313 16.9141 8.75 16.25 8.75Z" fill="#3B82F6"/>
</svg>
