<svg width="106" height="80" viewBox="0 0 106 80" fill="none" xmlns="http://www.w3.org/2000/svg">
<g opacity="0.85">
<path d="M105.4 77.2952C105.4 78.6527 92.8215 79.7505 77.3024 79.7505C61.7834 79.7505 49.2051 78.6527 49.2051 77.2952C49.2051 75.9376 61.7834 74.8398 77.3024 74.8398C92.8135 74.8398 105.4 75.9376 105.4 77.2952Z" fill="black" fill-opacity="0.15"/>
</g>
<path d="M3.30762 20.6528H98.7188C99.5173 20.6535 100.287 20.9908 100.856 21.5962C101.427 22.2021 101.749 23.0271 101.75 23.8901V34.4731C101.749 35.3359 101.426 36.1603 100.856 36.7661C100.287 37.3716 99.5174 37.7098 98.7188 37.7104H3.30762C2.90985 37.713 2.51469 37.6314 2.14551 37.4712C1.77655 37.311 1.43991 37.0747 1.15527 36.7749C0.870405 36.4747 0.642857 36.1165 0.487305 35.7212C0.370615 35.4246 0.296052 35.1116 0.265625 34.7925L0.25 34.4722V23.8911C0.251034 23.4619 0.331839 23.0373 0.487305 22.6421C0.642856 22.2468 0.870404 21.8886 1.15527 21.5884C1.44001 21.2884 1.77639 21.0513 2.14551 20.8911C2.51469 20.7309 2.90985 20.6503 3.30762 20.6528Z" fill="white" stroke="#C7C7C7" stroke-width="0.5"/>
<path d="M63.8987 26.025C63.8997 28.9547 63.3575 31.8559 62.303 34.5628C61.2486 37.2697 59.7027 39.7292 57.7535 41.8009C55.8044 43.8725 53.4903 45.5156 50.9434 46.6363C48.3966 47.7569 45.6669 48.3332 42.9104 48.3322C41.8867 48.3343 40.8648 48.2437 39.8555 48.0616C34.8742 47.2908 30.3204 44.6396 27.0273 40.5931C23.7342 36.5466 21.9219 31.3752 21.9219 26.025C21.9219 20.6748 23.7342 15.5034 27.0273 11.4569C30.3204 7.41037 34.8742 4.7592 39.8555 3.98838C40.8648 3.80629 41.8867 3.71577 42.9104 3.71781C45.6669 3.71678 48.3966 4.29307 50.9434 5.41375C53.4903 6.53443 55.8044 8.17753 57.7535 10.2491C59.7027 12.3208 61.2486 14.7803 62.3031 17.4872C63.3575 20.1941 63.8997 23.0953 63.8987 26.025Z" fill="#EBF3FC"/>
<path d="M57.7889 26.0249C57.7853 31.374 55.9718 36.5434 52.6794 40.5891C49.387 44.6348 44.8353 47.287 39.8555 48.0615C34.8742 47.2907 30.3204 44.6395 27.0273 40.593C23.7342 36.5465 21.9219 31.3751 21.9219 26.0249C21.9219 20.6747 23.7342 15.5033 27.0273 11.4568C30.3204 7.41027 34.8742 4.7591 39.8555 3.98828C44.8353 4.76277 49.387 7.415 52.6794 11.4607C55.9718 15.5065 57.7854 20.6758 57.7889 26.0249Z" fill="white"/>
<path d="M42.9248 0.25C49.3345 0.264876 55.4805 2.98079 60.0137 7.80762C64.5475 12.6351 67.0974 19.1798 67.0996 26.0068L67.084 26.8828C66.9355 31.2553 65.7151 35.5158 63.5371 39.2383L63.4395 39.4043L63.5752 39.54L83.6016 59.7393V59.7402C84.459 60.6217 84.9557 61.8315 84.9795 63.1055C85.0032 64.3793 84.5516 65.6091 83.7275 66.5264L83.7217 66.5322L83.7168 66.54C83.5904 66.7027 83.4426 66.8443 83.2793 66.9619L83.2617 66.9756C82.4194 67.7045 81.3574 68.0785 80.2773 68.0293C79.1974 67.9801 78.169 67.5113 77.3877 66.708L77.3857 66.7061L57.5352 46.6934L57.377 46.5342L57.2021 46.6738C53.6128 49.5242 49.348 51.2525 44.8877 51.667C40.4273 52.0814 35.9454 51.1651 31.9463 49.0205C27.9472 46.8758 24.5879 43.5868 22.248 39.5215C19.9081 35.456 18.6805 30.7758 18.7051 26.0078C18.7377 19.1824 21.3039 12.6492 25.8408 7.82715C30.3771 3.00588 36.5167 0.284887 42.9248 0.25ZM42.9248 4.84766C38.1851 4.83705 33.602 6.63709 30.0107 9.91602C26.8917 12.7177 24.661 16.4697 23.6182 20.6611C22.5752 24.853 22.7704 29.2842 24.1777 33.3545C25.5851 37.425 28.137 40.9398 31.4902 43.4199C34.8437 45.9001 38.8359 47.2247 42.9248 47.2129C48.2124 47.2012 53.2767 44.9609 57.0068 40.9883C60.7365 37.016 62.8291 31.636 62.8291 26.0303C62.829 20.4247 60.7365 15.0455 57.0068 11.0732C53.2767 7.10045 48.2125 4.85932 42.9248 4.84766Z" fill="white" stroke="#C4C4C4" stroke-width="0.5"/>
<path d="M94.5319 74.2467C94.364 74.5499 94.1647 74.8323 93.9379 75.0885C93.7116 75.4192 93.5985 75.5996 93.5985 75.5996C93.1621 76.0955 92.6678 76.5299 92.1276 76.8923C90.841 77.7454 89.3251 78.1225 87.8159 77.9648C86.3067 77.8071 84.8889 77.1235 83.7832 76.0205L78.522 70.8796L63.1343 55.8779C62.4046 55.1569 61.9716 54.1593 61.9292 53.1013C61.8868 52.0433 62.2385 51.0102 62.908 50.2259L65.0861 47.7006L66.2741 46.3477L67.2075 45.2654C67.5398 44.875 67.9418 44.5587 68.3901 44.335C68.8385 44.1112 69.3242 43.9845 69.8191 43.9621C70.3139 43.9397 70.808 44.0221 71.2726 44.2046C71.7372 44.3871 72.1631 44.6659 72.5253 45.0249L88.3938 60.5077L93.1742 65.1675C94.3176 66.3053 95.0719 67.8156 95.3177 69.4597C95.5636 71.1039 95.2871 72.7882 94.5319 74.2467Z" fill="#8FBBFB"/>
<path d="M102 23.8902V34.4726C102 35.3973 101.654 36.2839 101.038 36.9378C100.423 37.5917 99.5891 37.9593 98.719 37.96H85.2266V20.4028H98.719C99.5891 20.4035 100.423 20.7712 101.038 21.425C101.654 22.0789 102 22.9655 102 23.8902Z" fill="#679EEF"/>
<path d="M98.9591 33.437L95.6069 30.0558C95.9996 29.3847 96.2081 28.6104 96.209 27.8201C96.2086 26.6672 95.778 25.5614 95.0117 24.7454C94.2453 23.9294 93.2057 23.4698 92.1209 23.4673C91.0364 23.4731 89.9979 23.9336 89.2311 24.7487C88.4642 25.5637 88.0309 26.6675 88.0255 27.8201C88.0213 28.6254 88.2286 29.416 88.624 30.103C89.0194 30.79 89.5872 31.3461 90.2637 31.7089C90.9402 32.0717 91.6985 32.2267 92.4533 32.1566C93.2081 32.0864 93.9296 31.7939 94.5366 31.3119L97.859 34.6614C97.997 34.8033 98.1791 34.8865 98.3709 34.8952C98.5626 34.904 98.7508 34.8376 98.8996 34.7088C98.9303 34.6868 98.9578 34.6602 98.9814 34.6298C99.1266 34.4682 99.2058 34.252 99.2016 34.0285C99.1974 33.805 99.1103 33.5924 98.9591 33.437ZM92.1209 31.3278C91.4457 31.3297 90.7863 31.1109 90.2321 30.701C89.6778 30.2911 89.2557 29.7099 89.0228 29.0363C88.7899 28.3627 88.7575 27.6293 88.9301 26.9355C89.1028 26.2417 89.472 25.6212 89.9877 25.158C90.5813 24.616 91.3384 24.3188 92.1209 24.3206C92.9952 24.3206 93.8336 24.6897 94.4519 25.3468C95.0701 26.0038 95.4174 26.895 95.4174 27.8242C95.4174 28.7534 95.0701 29.6446 94.4519 30.3016C93.8336 30.9587 92.9952 31.3278 92.1209 31.3278Z" fill="white"/>
<path d="M94.5314 74.2469C94.3634 74.5501 94.1642 74.8324 93.9374 75.0887C93.7111 75.4194 93.5979 75.5997 93.5979 75.5997C93.1616 76.0956 92.6673 76.5301 92.1271 76.8925C90.8404 77.7455 89.3245 78.1226 87.8153 77.9649C86.3062 77.8072 84.8884 77.1237 83.7826 76.0206L79.2852 71.6313L86.781 62.492L88.3933 60.5078L93.1736 65.1677C94.3171 66.3055 95.0713 67.8157 95.3172 69.4599C95.5631 71.104 95.2866 72.7884 94.5314 74.2469Z" fill="#679EEF"/>
<path d="M68.5439 46.0366C69.2882 46.1172 69.9897 46.4565 70.5381 47.0054L70.54 47.0073L86.4092 62.4907L91.1895 67.1509C92.2924 68.2491 93.0216 69.7087 93.2598 71.3003C93.4976 72.8906 93.2311 74.5195 92.5029 75.9292C92.3493 76.2067 92.1673 76.4651 91.9619 76.7007C90.7285 77.5098 89.2817 77.8668 87.8418 77.7163C86.3913 77.5647 85.0264 76.9071 83.96 75.8433L83.958 75.8423L78.6963 70.7007L63.3086 55.6987C62.6264 55.024 62.2186 54.0875 62.1787 53.0913C62.1388 52.0944 62.4712 51.1231 63.0986 50.3882L63.0977 50.3872L65.2734 47.8647L65.2744 47.8657L66.4365 46.5415C67.0704 46.1343 67.8096 45.9572 68.5439 46.0366Z" fill="#D2E4FF" stroke="#C4C4C4" stroke-width="0.5"/>
<path d="M91.1865 67.1479V67.1489C92.2907 68.2475 93.0216 69.7076 93.2598 71.3003C93.4976 72.8908 93.2303 74.5194 92.502 75.9292C92.3477 76.2078 92.1645 76.4663 91.958 76.7026C90.7255 77.5101 89.2802 77.8665 87.8418 77.7163C86.3913 77.5648 85.0255 76.9072 83.959 75.8433L83.957 75.8413L79.624 71.6118L86.8008 62.8608L91.1865 67.1479Z" fill="#C1D4F0" stroke="#C4C4C4" stroke-width="0.5"/>
<path d="M76.2737 65.3116C76.1853 65.3119 76.1 65.2768 76.0348 65.2133L64.4938 53.9952C64.4246 53.9278 64.3834 53.834 64.3792 53.7343C64.3751 53.6346 64.4084 53.5373 64.4718 53.4637C64.5352 53.3901 64.6235 53.3463 64.7173 53.3419C64.8111 53.3375 64.9026 53.3729 64.9719 53.4403L76.5128 64.6584C76.5654 64.7095 76.6023 64.7764 76.6186 64.8502C76.6348 64.924 76.6297 65.0013 76.6038 65.072C76.578 65.1426 76.5327 65.2033 76.4738 65.2461C76.4149 65.2888 76.3452 65.3117 76.2739 65.3116H76.2737Z" fill="#EBF3FC"/>
<path d="M79.7209 68.6588C79.6328 68.6591 79.5479 68.624 79.4833 68.5605L76.9502 66.1105C76.9157 66.0775 76.8877 66.0375 76.8678 65.9929C76.8479 65.9483 76.8366 65.9 76.8344 65.8507C76.8322 65.8014 76.8392 65.7522 76.8551 65.7058C76.8709 65.6594 76.8953 65.6168 76.9267 65.5805C76.99 65.5074 77.0779 65.4638 77.1712 65.4592C77.2645 65.4545 77.3559 65.4891 77.4253 65.5556L79.9584 68.0056C80.011 68.0566 80.0478 68.1234 80.0641 68.1971C80.0804 68.2707 80.0754 68.3479 80.0497 68.4185C80.024 68.4891 79.9789 68.5498 79.9202 68.5927C79.8615 68.6356 79.792 68.6586 79.7208 68.6588H79.7209Z" fill="white"/>
<path d="M48.7188 34.0312L41.5 26.7578L34.2266 34.0312C33.8984 34.3594 33.3516 34.3594 32.9688 34.0312C32.6406 33.6484 32.6406 33.1016 32.9688 32.7734L40.2422 25.5L32.9688 18.2812C32.6406 17.9531 32.6406 17.4062 32.9688 17.0234C33.3516 16.6953 33.8984 16.6953 34.2266 17.0234L41.5 24.2969L48.7188 17.0234C49.0469 16.6953 49.5938 16.6953 49.9766 17.0234C50.3047 17.4062 50.3047 17.9531 49.9766 18.2812L42.7031 25.5L49.9766 32.7734C50.3047 33.1016 50.3047 33.6484 49.9766 34.0312C49.5938 34.3594 49.0469 34.3594 48.7188 34.0312Z" fill="#679EEF"/>
</svg>
