<svg width="40" height="40" viewBox="0 0 40 40" fill="none" xmlns="http://www.w3.org/2000/svg">
<path d="M7.59044 28.0801C7.75892 27.2014 7.18317 26.3525 6.30449 26.1841C5.4258 26.0156 4.57691 26.5913 4.40844 27.47C4.23997 28.3487 4.81571 29.1976 5.69439 29.3661C6.57308 29.5346 7.42197 28.9588 7.59044 28.0801Z" fill="#3B82F6"/>
<path d="M35.5667 28.1621C35.7723 27.2914 35.2331 26.4189 34.3624 26.2132C33.4917 26.0076 32.6191 26.5468 32.4135 27.4176C32.2079 28.2883 32.7471 29.1608 33.6178 29.3664C34.4886 29.572 35.3611 29.0328 35.5667 28.1621Z" fill="#3B82F6"/>
<path d="M6 3.1999V34.0399C6 35.0399 6.8 35.8399 7.8 35.8399H32.2C33.2 35.8399 34 35.0399 34 34.0399V8.9999L26.4 1.3999H7.8C6.8 1.3999 6 2.1999 6 3.1999Z" fill="#F5F7FC"/>
<path d="M28.22 6.71977C28.5 6.71977 28.7 6.93977 28.7 7.19977V26.6198L11.28 26.7398V7.19977C11.28 6.91977 11.5 6.71977 11.76 6.71977H28.22ZM28.22 6.25977H11.78C11.26 6.25977 10.84 6.67977 10.84 7.19977V27.1998L29.18 27.0598V7.19977C29.16 6.67977 28.74 6.25977 28.22 6.25977Z" fill="#76A8F9"/>
<path d="M26.6399 30.9796H13.3599C11.9599 30.9796 10.8199 29.8396 10.8199 28.4396V25.6396C10.8199 24.2396 11.9599 23.0996 13.3599 23.0996H26.6399C28.0399 23.0996 29.1799 24.2396 29.1799 25.6396V28.4396C29.1599 29.8396 28.0199 30.9796 26.6399 30.9796Z" fill="#76A8F9"/>
<path d="M17.1799 29.3797L16.3999 28.0397L15.6199 29.3797H14.3999L15.7999 26.9797L14.4799 24.6997H15.6999L16.4199 25.9397L17.1399 24.6997H18.3599L16.9999 26.9797L18.3999 29.3797H17.1799Z" fill="#EDF5FA"/>
<path d="M21.6199 28.3597V29.3797H18.8799V24.6997H19.9399V28.3397H21.6199V28.3597Z" fill="#EDF5FA"/>
<path d="M21.9799 28.3196L22.8999 27.7796C23.0599 28.1596 23.3599 28.4196 23.8799 28.4196C24.3799 28.4196 24.5199 28.2196 24.5199 28.0396C24.5199 27.7596 24.2599 27.6396 23.5599 27.4396C22.8599 27.2396 22.1799 26.9196 22.1799 26.0196C22.1799 25.1196 22.9399 24.5996 23.7399 24.5996C24.4999 24.5996 25.0999 24.9596 25.4399 25.6596L24.5399 26.1796C24.3799 25.8396 24.1599 25.6396 23.7399 25.6396C23.3999 25.6396 23.2399 25.7996 23.2399 25.9996C23.2399 26.2196 23.3599 26.3596 24.0799 26.5796C24.7799 26.7996 25.5799 27.0396 25.5799 28.0196C25.5799 28.9196 24.8599 29.4596 23.8399 29.4596C22.8799 29.4796 22.2399 28.9996 21.9799 28.3196Z" fill="#EDF5FA"/>
<path d="M19.32 10.3198H14.12V12.1598H19.32V10.3198Z" fill="#B1CDFB"/>
<path d="M26.06 10.3198H20.86V12.1598H26.06V10.3198Z" fill="#B1CDFB"/>
<path d="M19.32 13.98H14.12V15.82H19.32V13.98Z" fill="#B1CDFB"/>
<path d="M26.06 13.98H20.86V15.82H26.06V13.98Z" fill="#B1CDFB"/>
<path d="M19.32 17.6396H14.12V19.4796H19.32V17.6396Z" fill="#B1CDFB"/>
<path d="M26.06 17.6396H20.86V19.4796H26.06V17.6396Z" fill="#B1CDFB"/>
<path d="M26.38 1.3999L33.98 8.9999H28.1C27.14 8.9999 26.36 8.2199 26.36 7.2599V1.3999H26.38Z" fill="#CEE0FD"/>
<path d="M33.98 29.3998H6.00001C5.1 29.3998 4.38 28.6798 4.38 27.7798V36.3798C4.38 37.2798 5.1 37.9998 6.00001 37.9998H34C34.9 37.9998 35.62 37.2798 35.62 36.3798V27.7798C35.62 28.6798 34.88 29.3998 33.98 29.3998Z" fill="#5895F7"/>
<path d="M21.8399 33.6997V31.1597H18.1599V33.6997H16.5399L19.9999 36.6197L23.4399 33.6997H21.8399Z" fill="white"/>
</svg>
