<svg width="118" height="72" viewBox="0 0 118 72" fill="none" xmlns="http://www.w3.org/2000/svg">
<path d="M110.668 14.0644L113.181 65.6553C113.247 66.9979 112.329 68.1239 111.171 68.1239H104.976L110.668 14.0644Z" fill="#EBF3FC"/>
<path d="M110.304 9.50673V66.7602C110.304 67.7455 109.565 68.5467 108.64 68.5467H22.9914C22.0777 68.5467 21.3271 67.7455 21.3271 66.7602V9.50673C21.3271 8.52146 22.0668 7.72026 22.9914 7.72026H108.64C109.554 7.72026 110.304 8.52146 110.304 9.50673Z" fill="white" stroke="#C4C4C4" stroke-width="0.2" stroke-miterlimit="10"/>
<path d="M37.0605 22.9534H26.8447V65.1898H37.0605V22.9534Z" fill="#EBF3FC"/>
<path d="M48.4125 22.9534H38.1968V65.0923H48.4125V22.9534Z" fill="#CEE0FD"/>
<path d="M59.7646 22.9534H49.5488V65.0923H59.7646V22.9534Z" fill="#EBF3FC"/>
<path d="M71.1166 22.9534H60.9009V64.8974H71.1166V22.9534Z" fill="#CEE0FD"/>
<path d="M82.4579 22.9534H72.2422V64.8974H82.4579V22.9534Z" fill="#EBF3FC"/>
<path d="M93.8095 22.9534H83.5938V64.8974H93.8095V22.9534Z" fill="#CEE0FD"/>
<path d="M105.162 22.9534H94.9458V64.8974H105.162V22.9534Z" fill="#EBF3FC"/>
<path d="M110.689 9.13804V14.0644H21.3164V9.13804C21.3164 8.15278 22.0594 7.35158 22.988 7.35158H109.017C109.946 7.35158 110.689 8.15278 110.689 9.13804Z" fill="#EBF3FC"/>
<path d="M27.3149 9.59278C27.3149 10.0583 26.9544 10.4481 26.5173 10.4481C26.0803 10.4481 25.7197 10.0692 25.7197 9.59278C25.7197 9.11639 26.0803 8.73744 26.5173 8.73744C26.9544 8.74827 27.3149 9.12722 27.3149 9.59278Z" fill="#F5F7FC"/>
<path d="M30.0135 7.35159C30.0791 7.08091 30.1009 6.78858 30.0791 6.48542C29.9807 5.15369 28.9537 4.09264 27.6972 4.03851C26.2987 3.9952 25.1296 5.197 25.1296 6.70197C25.1296 6.92933 25.1515 7.14588 25.2061 7.36242C25.4028 8.17445 25.9491 8.8349 26.6702 9.14888C26.7904 9.20302 26.8887 9.32212 26.9215 9.46287C26.9215 9.4737 26.9215 9.4737 26.9215 9.48452C26.987 9.84182 26.6483 10.1233 26.3315 9.98257C25.3154 9.52783 24.5505 8.54257 24.332 7.36242C24.2992 7.16753 24.2774 6.97264 24.2774 6.77775C24.2446 4.82888 25.7087 3.19399 27.5442 3.15069C29.4126 3.10738 30.9531 4.72061 30.9531 6.70197C30.9531 6.92933 30.9313 7.14588 30.8985 7.36242H30.0135V7.35159Z" fill="#CDDFFC"/>
<path d="M35.0503 9.59278C35.0503 10.0583 34.6897 10.4481 34.2527 10.4481C33.8156 10.4481 33.4551 10.0692 33.4551 9.59278C33.4551 9.11639 33.8156 8.73744 34.2527 8.73744C34.6897 8.74827 35.0503 9.12722 35.0503 9.59278Z" fill="#F5F7FC"/>
<path d="M37.76 7.35158C37.8255 7.0809 37.8474 6.78857 37.8255 6.48541C37.7272 5.15368 36.7002 4.09263 35.4437 4.0385C34.0233 3.97353 32.8542 5.18617 32.8542 6.6803C32.8542 6.90767 32.8761 7.12421 32.9307 7.34075C33.1274 8.15278 33.6737 8.81323 34.3948 9.12722C34.515 9.18136 34.6133 9.30045 34.6461 9.4412C34.6461 9.45203 34.6461 9.45203 34.6461 9.46286C34.7116 9.82015 34.3729 10.1017 34.0561 9.9609C33.04 9.50617 32.2752 8.5209 32.0566 7.34075C32.0239 7.14587 32.002 6.95098 32.002 6.75609C31.9692 4.80722 33.4333 3.17233 35.2689 3.12902C37.1372 3.08571 38.6777 4.69895 38.6777 6.6803C38.6777 6.90767 38.6559 7.12421 38.6231 7.34075H37.76V7.35158Z" fill="#CDDFFC"/>
<path d="M42.7856 9.59278C42.7856 10.0583 42.4251 10.4481 41.988 10.4481C41.551 10.4481 41.1904 10.0692 41.1904 9.59278C41.1904 9.11639 41.551 8.73744 41.988 8.73744C42.4251 8.74827 42.7856 9.12722 42.7856 9.59278Z" fill="#F5F7FC"/>
<path d="M45.4953 7.35158C45.5609 7.0809 45.5827 6.78857 45.5609 6.48541C45.4625 5.15368 44.4355 4.09263 43.179 4.0385C41.7587 3.97353 40.5896 5.18617 40.5896 6.6803C40.5896 6.90767 40.6114 7.12421 40.6661 7.34075C40.8627 8.15278 41.409 8.81323 42.1301 9.12722C42.2503 9.18136 42.3487 9.30045 42.3814 9.4412C42.3814 9.45203 42.3814 9.45203 42.3814 9.46286C42.447 9.82015 42.1083 10.1017 41.7914 9.9609C40.7753 9.50617 40.0105 8.5209 39.792 7.34075C39.7592 7.14587 39.7374 6.95098 39.7374 6.75609C39.7046 4.80722 41.1687 3.17233 43.0042 3.12902C44.8725 3.08571 46.4131 4.69895 46.4131 6.6803C46.4131 6.90767 46.3912 7.12421 46.3585 7.34075H45.4953V7.35158Z" fill="#CDDFFC"/>
<path d="M50.5215 9.59278C50.5215 10.0583 50.1609 10.4481 49.7239 10.4481C49.2868 10.4481 48.9263 10.0692 48.9263 9.59278C48.9263 9.11639 49.2868 8.73744 49.7239 8.73744C50.1718 8.74827 50.5215 9.12722 50.5215 9.59278Z" fill="#F5F7FC"/>
<path d="M53.2312 7.35158C53.2967 7.0809 53.3186 6.78857 53.2967 6.48541C53.1984 5.15368 52.1713 4.09263 50.9149 4.0385C49.4945 3.97353 48.3254 5.18617 48.3254 6.6803C48.3254 6.90767 48.3473 7.12421 48.4019 7.34075C48.5986 8.15278 49.1449 8.81323 49.866 9.12722C49.9862 9.18136 50.0845 9.30045 50.1173 9.4412C50.1173 9.45203 50.1173 9.45203 50.1173 9.46286C50.1828 9.82015 49.8441 10.1017 49.5273 9.9609C48.5112 9.50617 47.7463 8.5209 47.5278 7.34075C47.495 7.14587 47.4732 6.95098 47.4732 6.75609C47.4404 4.80722 48.9045 3.17233 50.74 3.12902C52.6084 3.08571 54.1489 4.69895 54.1489 6.6803C54.1489 6.90767 54.1271 7.12421 54.0943 7.34075H53.2312V7.35158Z" fill="#CDDFFC"/>
<path d="M58.268 9.59278C58.268 10.0583 57.9075 10.4481 57.4704 10.4481C57.0334 10.4481 56.6729 10.0692 56.6729 9.59278C56.6729 9.11639 57.0334 8.73744 57.4704 8.73744C57.9075 8.74827 58.268 9.12722 58.268 9.59278Z" fill="#F5F7FC"/>
<path d="M60.9665 7.35158C61.0321 7.0809 61.0539 6.78857 61.0321 6.48541C60.9337 5.15368 59.9067 4.09263 58.6502 4.0385C57.2298 3.97353 56.0608 5.18617 56.0608 6.6803C56.0608 6.90767 56.0826 7.12421 56.1373 7.34075C56.3339 8.15278 56.8802 8.81323 57.6013 9.12722C57.7215 9.18136 57.8198 9.30045 57.8526 9.4412C57.8526 9.45203 57.8526 9.45203 57.8526 9.46286C57.9182 9.82015 57.5795 10.1017 57.2626 9.9609C56.2465 9.50617 55.4817 8.5209 55.2632 7.34075C55.2304 7.14587 55.2085 6.95098 55.2085 6.75609C55.1758 4.80722 56.6398 3.17233 58.4754 3.12902C60.3437 3.08571 61.8843 4.69895 61.8843 6.6803C61.8843 6.90767 61.8624 7.12421 61.8297 7.34075H60.9665V7.35158Z" fill="#CDDFFC"/>
<path d="M66.0039 9.59278C66.0039 10.0583 65.6433 10.4481 65.2063 10.4481C64.7692 10.4481 64.4087 10.0692 64.4087 9.59278C64.4087 9.11639 64.7692 8.73744 65.2063 8.73744C65.6433 8.74827 66.0039 9.12722 66.0039 9.59278Z" fill="#F5F7FC"/>
<path d="M68.7024 7.35158C68.7679 7.0809 68.7898 6.78857 68.7679 6.48541C68.6696 5.15368 67.6425 4.09263 66.3861 4.0385C64.9657 3.97353 63.7966 5.18617 63.7966 6.6803C63.7966 6.90767 63.8185 7.12421 63.8731 7.34075C64.0698 8.15278 64.6161 8.81323 65.3372 9.12722C65.4574 9.18136 65.5557 9.30045 65.5885 9.4412C65.5885 9.45203 65.5885 9.45203 65.5885 9.46286C65.654 9.82015 65.3153 10.1017 64.9985 9.9609C63.9824 9.50617 63.2175 8.5209 62.999 7.34075C62.9662 7.14587 62.9444 6.95098 62.9444 6.75609C62.9116 4.80722 64.3757 3.17233 66.2112 3.12902C68.0796 3.08571 69.6201 4.69895 69.6201 6.6803C69.6201 6.90767 69.5983 7.12421 69.5655 7.34075H68.7024V7.35158Z" fill="#CDDFFC"/>
<path d="M73.7392 9.59278C73.7392 10.0583 73.3787 10.4481 72.9416 10.4481C72.5046 10.4481 72.144 10.0692 72.144 9.59278C72.144 9.11639 72.5046 8.73744 72.9416 8.73744C73.3787 8.74827 73.7392 9.12722 73.7392 9.59278Z" fill="#F5F7FC"/>
<path d="M76.4489 7.35158C76.5145 7.0809 76.5363 6.78857 76.5145 6.48541C76.4162 5.15368 75.3891 4.09263 74.1326 4.0385C72.7123 3.97353 71.5432 5.18617 71.5432 6.6803C71.5432 6.90767 71.565 7.12421 71.6197 7.34075C71.8163 8.15278 72.3626 8.81323 73.0838 9.12722C73.2039 9.18136 73.3023 9.30045 73.335 9.4412C73.335 9.45203 73.335 9.45203 73.335 9.46286C73.4006 9.82015 73.0619 10.1017 72.745 9.9609C71.7289 9.50617 70.9641 8.5209 70.7456 7.34075C70.7128 7.14587 70.691 6.95098 70.691 6.75609C70.6582 4.80722 72.1223 3.17233 73.9578 3.12902C75.8262 3.08571 77.3667 4.69895 77.3667 6.6803C77.3667 6.90767 77.3449 7.12421 77.3121 7.34075H76.4489V7.35158Z" fill="#CDDFFC"/>
<path d="M81.4746 9.59278C81.4746 10.0583 81.114 10.4481 80.677 10.4481C80.24 10.4481 79.8794 10.0692 79.8794 9.59278C79.8794 9.11639 80.24 8.73744 80.677 8.73744C81.125 8.74827 81.4746 9.12722 81.4746 9.59278Z" fill="#F5F7FC"/>
<path d="M84.1843 7.35158C84.2498 7.0809 84.2717 6.78857 84.2498 6.48541C84.1515 5.15368 83.1245 4.09263 81.868 4.0385C80.4476 3.97353 79.2785 5.18617 79.2785 6.6803C79.2785 6.90767 79.3004 7.12421 79.355 7.34075C79.5517 8.15278 80.098 8.81323 80.8191 9.12722C80.9393 9.18136 81.0376 9.30045 81.0704 9.4412C81.0704 9.45203 81.0704 9.45203 81.0704 9.46286C81.136 9.82015 80.7972 10.1017 80.4804 9.9609C79.4643 9.50617 78.6995 8.5209 78.481 7.34075C78.4482 7.14587 78.4263 6.95098 78.4263 6.75609C78.3935 4.80722 79.8576 3.17233 81.6932 3.12902C83.5615 3.08571 85.1021 4.69895 85.1021 6.6803C85.1021 6.90767 85.0802 7.12421 85.0474 7.34075H84.1843V7.35158Z" fill="#CDDFFC"/>
<path d="M89.2099 9.59278C89.2099 10.0583 88.8494 10.4481 88.4123 10.4481C87.9753 10.4481 87.6147 10.0692 87.6147 9.59278C87.6147 9.11639 87.9753 8.73744 88.4123 8.73744C88.8603 8.74827 89.2099 9.12722 89.2099 9.59278Z" fill="#F5F7FC"/>
<path d="M91.9196 7.35158C91.9852 7.0809 92.007 6.78857 91.9852 6.48541C91.8869 5.15368 90.8598 4.09263 89.6033 4.0385C88.183 3.97353 87.0139 5.18617 87.0139 6.6803C87.0139 6.90767 87.0357 7.12421 87.0904 7.34075C87.287 8.15278 87.8333 8.81323 88.5545 9.12722C88.6746 9.18136 88.773 9.30045 88.8057 9.4412C88.8057 9.45203 88.8057 9.45203 88.8057 9.46286C88.8713 9.82015 88.5326 10.1017 88.2158 9.9609C87.1996 9.50617 86.4348 8.5209 86.2163 7.34075C86.1835 7.14587 86.1617 6.95098 86.1617 6.75609C86.1289 4.80722 87.593 3.17233 89.4285 3.12902C91.2969 3.08571 92.8374 4.69895 92.8374 6.6803C92.8374 6.90767 92.8156 7.12421 92.7828 7.34075H91.9196V7.35158Z" fill="#CDDFFC"/>
<path d="M96.9565 9.59278C96.9565 10.0583 96.596 10.4481 96.1589 10.4481C95.7219 10.4481 95.3613 10.0692 95.3613 9.59278C95.3613 9.11639 95.7219 8.73744 96.1589 8.73744C96.596 8.74827 96.9565 9.12722 96.9565 9.59278Z" fill="#F5F7FC"/>
<path d="M99.6551 7.35167C99.7207 7.081 99.7425 6.78867 99.7207 6.48551C99.6223 5.15378 98.5953 4.09273 97.3388 4.03859C95.9184 3.97363 94.7494 5.18626 94.7494 6.68039C94.7494 6.90776 94.7712 7.1243 94.8259 7.34085C95.0225 8.15288 95.5688 8.81333 96.2899 9.12731C96.4101 9.18145 96.5084 9.30054 96.5412 9.4413C96.5412 9.45212 96.5412 9.45212 96.5412 9.46295C96.6068 9.82024 96.2681 10.1017 95.9512 9.961C94.946 9.52791 94.1812 8.54265 93.9736 7.35167C93.9408 7.15679 93.919 6.9619 93.919 6.76701C93.8862 4.81814 95.3503 3.18325 97.1859 3.13994C99.0542 3.09664 100.595 4.70987 100.595 6.69122C100.595 6.91859 100.573 7.13513 100.54 7.35167H99.6551Z" fill="#CDDFFC"/>
<path d="M104.692 9.59278C104.692 10.0583 104.332 10.4481 103.895 10.4481C103.458 10.4481 103.097 10.0692 103.097 9.59278C103.097 9.11639 103.458 8.73744 103.895 8.73744C104.332 8.74827 104.692 9.12722 104.692 9.59278Z" fill="#F5F7FC"/>
<path d="M107.402 7.35158C107.468 7.0809 107.489 6.78857 107.468 6.48541C107.369 5.15368 106.342 4.09263 105.086 4.0385C103.665 3.97353 102.496 5.18617 102.496 6.6803C102.496 6.90767 102.518 7.12421 102.573 7.34075C102.769 8.15278 103.316 8.81323 104.037 9.12722C104.157 9.18136 104.255 9.30045 104.288 9.4412C104.288 9.45203 104.288 9.45203 104.288 9.46286C104.354 9.82015 104.015 10.1017 103.698 9.9609C102.682 9.50617 101.917 8.5209 101.699 7.34075C101.666 7.14587 101.644 6.95098 101.644 6.75609C101.611 4.80722 103.075 3.17233 104.911 3.12902C106.779 3.08571 108.32 4.69895 108.32 6.6803C108.32 6.90767 108.298 7.12421 108.265 7.34075H107.402V7.35158Z" fill="#CDDFFC"/>
<path d="M28.4946 18.2761H29.1393V20.5065H30.5378V21.0262H28.5056V18.2761H28.4946Z" fill="#93BAFA"/>
<path d="M32.9853 18.9149V21.0262H32.3953V20.7771C32.2314 20.9612 31.991 21.0586 31.7288 21.0586C31.1934 21.0586 30.811 20.7555 30.811 20.1059V18.9149H31.4338V20.0192C31.4338 20.3765 31.5977 20.5281 31.8709 20.5281C32.1549 20.5281 32.3625 20.3441 32.3625 19.9543V18.9041H32.9853V18.9149Z" fill="#93BAFA"/>
<path d="M35.7386 19.8135V21.0262H35.1158V19.911C35.1158 19.5645 34.9519 19.4129 34.6788 19.4129C34.3838 19.4129 34.1653 19.597 34.1653 19.9868V21.037H33.5425V18.9257H34.1325V19.1747C34.2964 18.9907 34.5477 18.8932 34.8427 18.8932C35.3562 18.8824 35.7386 19.1747 35.7386 19.8135Z" fill="#93BAFA"/>
<path d="M42.2832 21.0262V19.3696L41.4637 20.7338H41.1687L40.3602 19.4129V21.0262H39.7593V18.2761H40.2946L41.3326 19.9868L42.3597 18.2761H42.8841L42.895 21.0262H42.2832Z" fill="#93BAFA"/>
<path d="M45.397 19.8244V21.037H44.8179V20.7771C44.6977 20.972 44.4792 21.0695 44.1623 21.0695C43.6597 21.0695 43.3647 20.7988 43.3647 20.4307C43.3647 20.0517 43.627 19.8027 44.2825 19.8027H44.7742C44.7742 19.5429 44.6103 19.3805 44.2825 19.3805C44.0531 19.3805 43.8236 19.4562 43.6707 19.5753L43.4522 19.1423C43.6816 18.9798 44.0312 18.8824 44.3699 18.8824C45.0146 18.8824 45.397 19.1747 45.397 19.8244ZM44.7742 20.3549V20.1383H44.3481C44.0531 20.1383 43.9657 20.2466 43.9657 20.3874C43.9657 20.5389 44.0968 20.6472 44.3153 20.6472C44.5229 20.6472 44.7086 20.5498 44.7742 20.3549Z" fill="#93BAFA"/>
<path d="M47.2763 18.8824V19.4454C47.2217 19.4454 47.1889 19.4346 47.1343 19.4346C46.7956 19.4346 46.5661 19.6186 46.5661 20.0192V21.0153H45.9434V18.9041H46.5334V19.1856C46.6972 18.9798 46.9485 18.8824 47.2763 18.8824Z" fill="#93BAFA"/>
<path d="M53.7006 21.0262V19.3696L52.8812 20.7338H52.5862L51.7777 19.4129V21.0262H51.1768V18.2761H51.7121L52.7501 19.9868L53.7771 18.2761H54.3016L54.3125 21.0262H53.7006Z" fill="#93BAFA"/>
<path d="M54.8369 18.2761C54.8369 18.0812 54.9899 17.9296 55.2193 17.9296C55.4488 17.9296 55.6017 18.0704 55.6017 18.2653C55.6017 18.471 55.4488 18.6226 55.2193 18.6226C54.9899 18.6117 54.8369 18.471 54.8369 18.2761ZM54.9134 18.9149H55.5362V21.0262H54.9134V18.9149Z" fill="#93BAFA"/>
<path d="M58.1912 20.1383H56.5741C56.6288 20.3982 56.8582 20.5606 57.186 20.5606C57.4154 20.5606 57.5793 20.4956 57.7214 20.3549L58.0491 20.7122C57.8525 20.9396 57.5575 21.0586 57.1641 21.0586C56.4212 21.0586 55.9404 20.5931 55.9404 19.9651C55.9404 19.3371 56.4321 18.8716 57.0767 18.8716C57.6995 18.8716 58.1912 19.2938 58.1912 19.9651C58.2021 20.0192 58.1912 20.095 58.1912 20.1383ZM56.5632 19.7811H57.6121C57.5684 19.5104 57.3608 19.3371 57.0877 19.3371C56.8145 19.348 56.6069 19.5104 56.5632 19.7811ZM57.1969 18.6442H56.7162L57.2515 18.0812H57.918L57.1969 18.6442Z" fill="#93BAFA"/>
<path d="M62.3867 20.6689L62.7473 20.2466C62.9002 20.4523 63.0641 20.5498 63.2608 20.5498C63.523 20.5498 63.6541 20.3982 63.6541 20.095V18.785H62.6817V18.2761H64.2988V20.0626C64.2988 20.7447 63.9491 21.0803 63.2936 21.0803C62.9112 21.0695 62.5834 20.9287 62.3867 20.6689Z" fill="#93BAFA"/>
<path d="M67.0302 18.9149V21.0262H66.4402V20.7771C66.2763 20.9612 66.036 21.0586 65.7737 21.0586C65.2384 21.0586 64.856 20.7555 64.856 20.1059V18.9149H65.4787V20.0192C65.4787 20.3765 65.6426 20.5281 65.9158 20.5281C66.1998 20.5281 66.4074 20.3441 66.4074 19.9543V18.9041H67.0302V18.9149Z" fill="#93BAFA"/>
<path d="M69.6853 20.1383H68.0683C68.1229 20.3982 68.3523 20.5606 68.6801 20.5606C68.9096 20.5606 69.0735 20.4956 69.2155 20.3549L69.5433 20.7122C69.3466 20.9395 69.0516 21.0586 68.6583 21.0586C67.9153 21.0586 67.4346 20.5931 67.4346 19.9651C67.4346 19.3371 67.9262 18.8716 68.5709 18.8716C69.1936 18.8716 69.6853 19.2938 69.6853 19.9651C69.6962 20.0192 69.6853 20.095 69.6853 20.1383ZM68.0573 19.7811H69.1062C69.0625 19.5104 68.8549 19.3371 68.5818 19.3371C68.3086 19.348 68.1011 19.5104 68.0573 19.7811Z" fill="#93BAFA"/>
<path d="M76.9949 18.2761L75.7931 21.0262H75.1594L73.9575 18.2761H74.6568L75.4981 20.2466L76.3503 18.2761H76.9949Z" fill="#93BAFA"/>
<path d="M77.1479 18.2761C77.1479 18.0812 77.3009 17.9296 77.5304 17.9296C77.7598 17.9296 77.9128 18.0704 77.9128 18.2653C77.9128 18.471 77.7598 18.6226 77.5304 18.6226C77.3009 18.6117 77.1479 18.471 77.1479 18.2761ZM77.2244 18.9149H77.8472V21.0262H77.2244V18.9149Z" fill="#93BAFA"/>
<path d="M80.4913 20.1383H78.8852C78.9398 20.3982 79.1692 20.5606 79.497 20.5606C79.7265 20.5606 79.8904 20.4956 80.0324 20.3549L80.3602 20.7122C80.1635 20.9396 79.8685 21.0586 79.4752 21.0586C78.7322 21.0586 78.2515 20.5931 78.2515 19.9651C78.2515 19.3371 78.7431 18.8716 79.3878 18.8716C80.0105 18.8716 80.5022 19.2938 80.5022 19.9651C80.5131 20.0193 80.5022 20.095 80.4913 20.1383ZM78.8742 19.7811H79.9231C79.8794 19.5104 79.6718 19.3371 79.3987 19.3371C79.1146 19.348 78.9179 19.5104 78.8742 19.7811Z" fill="#93BAFA"/>
<path d="M84.8066 20.7556L85.0252 20.2792C85.2546 20.4524 85.6042 20.5715 85.9429 20.5715C86.3253 20.5715 86.4783 20.4416 86.4783 20.2792C86.4783 19.7595 84.8613 20.1168 84.8613 19.099C84.8613 18.6335 85.2437 18.2437 86.0303 18.2437C86.38 18.2437 86.7405 18.3303 86.9918 18.4927L86.7952 18.9799C86.5329 18.8392 86.2707 18.7634 86.0303 18.7634C85.6479 18.7634 85.5059 18.9041 85.5059 19.0774C85.5059 19.5862 87.1229 19.2398 87.1229 20.2467C87.1229 20.7123 86.7405 21.102 85.9429 21.102C85.5059 21.0695 85.0579 20.9396 84.8066 20.7556Z" fill="#93BAFA"/>
<path d="M89.4062 19.8244V21.037H88.8272V20.7771C88.707 20.972 88.4885 21.0695 88.1716 21.0695C87.669 21.0695 87.374 20.7988 87.374 20.4307C87.374 20.0517 87.6362 19.8027 88.2918 19.8027H88.7835C88.7835 19.5429 88.6196 19.3805 88.2918 19.3805C88.0624 19.3805 87.8329 19.4562 87.6799 19.5753L87.4614 19.1423C87.6909 18.9799 88.0405 18.8824 88.3792 18.8824C89.0348 18.8824 89.4062 19.1747 89.4062 19.8244ZM88.7835 20.3549V20.1383H88.3574C88.0624 20.1383 87.9749 20.2466 87.9749 20.3874C87.9749 20.5389 88.1061 20.6472 88.3246 20.6472C88.5431 20.6472 88.7179 20.5498 88.7835 20.3549ZM88.5649 18.6442H88.0842L88.6196 18.0812H89.2861L88.5649 18.6442Z" fill="#93BAFA"/>
<path d="M92.2909 19.9651C92.2909 20.6256 91.8211 21.0586 91.2311 21.0586C90.947 21.0586 90.7176 20.972 90.5646 20.788V21.037H89.9746V18.1137H90.5974V19.1423C90.7613 18.969 90.9798 18.8824 91.242 18.8824C91.832 18.8824 92.2909 19.3047 92.2909 19.9651ZM91.6681 19.9651C91.6681 19.597 91.4387 19.3805 91.1218 19.3805C90.805 19.3805 90.5755 19.597 90.5755 19.9651C90.5755 20.3332 90.805 20.5498 91.1218 20.5498C91.4387 20.5498 91.6681 20.3332 91.6681 19.9651Z" fill="#93BAFA"/>
<path d="M95.2739 18.2761H96.5413C97.4482 18.2761 98.071 18.8174 98.071 19.6511C98.071 20.4848 97.4482 21.0262 96.5413 21.0262H95.2739V18.2761ZM96.4976 20.5065C97.0439 20.5065 97.4154 20.1817 97.4154 19.6511C97.4154 19.1206 97.0549 18.7958 96.4976 18.7958H95.9076V20.5065H96.4976Z" fill="#93BAFA"/>
<path d="M98.3442 19.9651C98.3442 19.3263 98.8359 18.8716 99.5242 18.8716C100.202 18.8716 100.693 19.3263 100.693 19.9651C100.693 20.6039 100.202 21.0586 99.5242 21.0586C98.8468 21.0586 98.3442 20.6039 98.3442 19.9651ZM100.071 19.9651C100.071 19.597 99.8411 19.3805 99.5242 19.3805C99.2183 19.3805 98.9779 19.597 98.9779 19.9651C98.9779 20.3332 99.2183 20.5498 99.5242 20.5498C99.8302 20.5498 100.071 20.3332 100.071 19.9651Z" fill="#93BAFA"/>
<path d="M104.714 19.8135V21.0262H104.091V19.911C104.091 19.5645 103.938 19.4129 103.687 19.4129C103.414 19.4129 103.217 19.5862 103.217 19.9651V21.0262H102.595V19.911C102.595 19.5645 102.452 19.4129 102.19 19.4129C101.917 19.4129 101.72 19.5862 101.72 19.9651V21.0262H101.098V18.9149H101.688V19.1639C101.852 18.9799 102.081 18.8932 102.354 18.8932C102.649 18.8932 102.9 19.0123 103.053 19.2397C103.228 19.0232 103.501 18.8932 103.818 18.8932C104.354 18.8824 104.714 19.1747 104.714 19.8135Z" fill="#93BAFA"/>
<path d="M35.9137 33.9212H28.6916C28.6916 33.9212 28.3311 33.185 28.3311 32.492C28.3311 31.0629 28.3311 26.7537 28.3311 26.7537H35.5531C35.5531 26.7537 35.5531 31.1062 35.5531 32.557C35.5531 33.1525 35.9137 33.9212 35.9137 33.9212Z" fill="white"/>
<path d="M29.5659 28.4535C30.4181 28.3886 31.2594 28.3669 32.1117 28.3669C32.9639 28.3669 33.8052 28.3886 34.6574 28.4535C33.8052 28.5185 32.9639 28.5402 32.1117 28.5402C31.2704 28.5402 30.4181 28.5293 29.5659 28.4535Z" fill="#92B9F9"/>
<path d="M29.5659 29.4063C30.3307 29.3414 31.0955 29.3197 31.8604 29.3197C32.6252 29.3197 33.39 29.3414 34.1548 29.4063C33.39 29.4713 32.6252 29.4929 31.8604 29.4929C31.0955 29.4821 30.3307 29.4713 29.5659 29.4063Z" fill="#92B9F9"/>
<path d="M29.5659 30.3483C30.2324 30.2833 30.8989 30.2617 31.5654 30.2617C32.2318 30.2617 32.8983 30.2833 33.5757 30.3483C32.9092 30.4132 32.2428 30.4349 31.5654 30.4349C30.9098 30.4349 30.2433 30.4132 29.5659 30.3483Z" fill="#92B9F9"/>
<path d="M29.5659 31.2902C30.4181 31.2253 31.2594 31.2036 32.1117 31.2036C32.9639 31.2036 33.8052 31.2253 34.6574 31.2902C33.8052 31.3552 32.9639 31.3768 32.1117 31.3768C31.2704 31.3768 30.4181 31.3552 29.5659 31.2902Z" fill="#92B9F9"/>
<path d="M35.9137 43.5898H28.6916C28.6916 43.5898 28.3311 42.8535 28.3311 42.1606C28.3311 40.7314 28.3311 36.4223 28.3311 36.4223H35.5531C35.5531 36.4223 35.5531 40.7747 35.5531 42.2256C35.5531 42.8211 35.9137 43.5898 35.9137 43.5898Z" fill="white"/>
<path d="M29.5659 38.1221C30.4181 38.0571 31.2594 38.0355 32.1117 38.0355C32.9639 38.0355 33.8052 38.0571 34.6574 38.1221C33.8052 38.1871 32.9639 38.2087 32.1117 38.2087C31.2704 38.2087 30.4181 38.1979 29.5659 38.1221Z" fill="#92B9F9"/>
<path d="M29.5659 39.0641C30.3307 38.9991 31.0955 38.9774 31.8604 38.9774C32.6252 38.9774 33.39 38.9991 34.1548 39.0641C33.39 39.129 32.6252 39.1507 31.8604 39.1507C31.0955 39.1507 30.3307 39.1398 29.5659 39.0641Z" fill="#92B9F9"/>
<path d="M29.5659 40.0168C30.2324 39.9519 30.8989 39.9302 31.5654 39.9302C32.2318 39.9302 32.8983 39.9519 33.5757 40.0168C32.9092 40.0818 32.2428 40.1035 31.5654 40.1035C30.9098 40.1035 30.2433 40.0818 29.5659 40.0168Z" fill="#92B9F9"/>
<path d="M29.5659 40.9588C30.4181 40.8938 31.2594 40.8722 32.1117 40.8722C32.9639 40.8722 33.8052 40.8938 34.6574 40.9588C33.8052 41.0238 32.9639 41.0454 32.1117 41.0454C31.2704 41.0454 30.4181 41.0238 29.5659 40.9588Z" fill="#92B9F9"/>
<path d="M35.9137 53.2583H28.6916C28.6916 53.2583 28.3311 52.5221 28.3311 51.8292C28.3311 50.4 28.3311 46.0908 28.3311 46.0908H35.5531C35.5531 46.0908 35.5531 50.4433 35.5531 51.8941C35.5531 52.4896 35.9137 53.2583 35.9137 53.2583Z" fill="white"/>
<path d="M29.5659 47.7907C30.4181 47.7257 31.2594 47.7041 32.1117 47.7041C32.9639 47.7041 33.8052 47.7257 34.6574 47.7907C33.8052 47.8556 32.9639 47.8773 32.1117 47.8773C31.2704 47.8773 30.4181 47.8665 29.5659 47.7907Z" fill="#92B9F9"/>
<path d="M29.5659 48.7326C30.3307 48.6677 31.0955 48.646 31.8604 48.646C32.6252 48.646 33.39 48.6677 34.1548 48.7326C33.39 48.7976 32.6252 48.8192 31.8604 48.8192C31.0955 48.8192 30.3307 48.8084 29.5659 48.7326Z" fill="#92B9F9"/>
<path d="M29.5659 49.6854C30.2324 49.6204 30.8989 49.5988 31.5654 49.5988C32.2318 49.5988 32.8983 49.6204 33.5757 49.6854C32.9092 49.7504 32.2428 49.772 31.5654 49.772C30.9098 49.7612 30.2433 49.7504 29.5659 49.6854Z" fill="#92B9F9"/>
<path d="M29.5659 50.6274C30.4181 50.5624 31.2594 50.5407 32.1117 50.5407C32.9639 50.5407 33.8052 50.5624 34.6574 50.6274C33.8052 50.6923 32.9639 50.714 32.1117 50.714C31.2704 50.714 30.4181 50.6923 29.5659 50.6274Z" fill="#92B9F9"/>
<path d="M35.9137 63.0352H28.6916C28.6916 63.0352 28.3311 62.299 28.3311 61.606C28.3311 60.1769 28.3311 55.8677 28.3311 55.8677H35.5531C35.5531 55.8677 35.5531 60.2202 35.5531 61.671C35.5531 62.2665 35.9137 63.0352 35.9137 63.0352Z" fill="white"/>
<path d="M29.5659 57.5675C30.4181 57.5026 31.2594 57.4809 32.1117 57.4809C32.9639 57.4809 33.8052 57.5026 34.6574 57.5675C33.8052 57.6325 32.9639 57.6541 32.1117 57.6541C31.2704 57.6541 30.4181 57.6433 29.5659 57.5675Z" fill="#92B9F9"/>
<path d="M29.5659 58.5095C30.3307 58.4445 31.0955 58.4229 31.8604 58.4229C32.6252 58.4229 33.39 58.4445 34.1548 58.5095C33.39 58.5744 32.6252 58.5961 31.8604 58.5961C31.0955 58.5961 30.3307 58.5853 29.5659 58.5095Z" fill="#92B9F9"/>
<path d="M29.5659 59.4623C30.2324 59.3973 30.8989 59.3756 31.5654 59.3756C32.2318 59.3756 32.8983 59.3973 33.5757 59.4623C32.9092 59.5272 32.2428 59.5489 31.5654 59.5489C30.9098 59.538 30.2433 59.5272 29.5659 59.4623Z" fill="#92B9F9"/>
<path d="M29.5659 60.4042C30.4181 60.3393 31.2594 60.3176 32.1117 60.3176C32.9639 60.3176 33.8052 60.3393 34.6574 60.4042C33.8052 60.4692 32.9639 60.4908 32.1117 60.4908C31.2704 60.4908 30.4181 60.4692 29.5659 60.4042Z" fill="#92B9F9"/>
<path d="M58.4317 34.7116H51.2097C51.2097 34.7116 50.8491 33.9753 50.8491 33.2824C50.8491 31.8532 50.8491 27.5441 50.8491 27.5441H58.0712C58.0712 27.5441 58.0712 31.8965 58.0712 33.3474C58.0821 33.9429 58.4317 34.7116 58.4317 34.7116Z" fill="white"/>
<path d="M52.0947 29.2439C52.9469 29.1789 53.7882 29.1573 54.6405 29.1573C55.4927 29.1573 56.334 29.1789 57.1862 29.2439C56.334 29.3089 55.4927 29.3305 54.6405 29.3305C53.7992 29.3305 52.9469 29.3089 52.0947 29.2439Z" fill="#92B9F9"/>
<path d="M52.0947 30.1859C52.8595 30.1209 53.6244 30.0992 54.3892 30.0992C55.154 30.0992 55.9188 30.1209 56.6836 30.1859C55.9188 30.2508 55.154 30.2725 54.3892 30.2725C53.6244 30.2725 52.8595 30.2617 52.0947 30.1859Z" fill="#92B9F9"/>
<path d="M52.0947 31.1278C52.7612 31.0629 53.4277 31.0412 54.0942 31.0412C54.7607 31.0412 55.4271 31.0629 56.1045 31.1278C55.4381 31.1928 54.7716 31.2144 54.0942 31.2144C53.4277 31.2144 52.7612 31.2036 52.0947 31.1278Z" fill="#92B9F9"/>
<path d="M52.0947 32.0806C52.9469 32.0156 53.7882 31.994 54.6405 31.994C55.4927 31.994 56.334 32.0156 57.1862 32.0806C56.334 32.1456 55.4927 32.1672 54.6405 32.1672C53.7992 32.1564 52.9469 32.1456 52.0947 32.0806Z" fill="#92B9F9"/>
<path d="M58.4317 44.2719H51.2097C51.2097 44.2719 50.8491 43.5356 50.8491 42.8427C50.8491 41.4135 50.8491 37.1044 50.8491 37.1044H58.0712C58.0712 37.1044 58.0712 41.4568 58.0712 42.9077C58.0821 43.5032 58.4317 44.2719 58.4317 44.2719Z" fill="white"/>
<path d="M52.0947 38.9125C52.9469 38.8475 53.7882 38.8259 54.6405 38.8259C55.4927 38.8259 56.334 38.8475 57.1862 38.9125C56.334 38.9774 55.4927 38.9991 54.6405 38.9991C53.7992 38.9991 52.9469 38.9774 52.0947 38.9125Z" fill="#92B9F9"/>
<path d="M52.0947 39.8544C52.8595 39.7895 53.6244 39.7678 54.3892 39.7678C55.154 39.7678 55.9188 39.7895 56.6836 39.8544C55.9188 39.9194 55.154 39.9411 54.3892 39.9411C53.6244 39.9411 52.8595 39.9302 52.0947 39.8544Z" fill="#92B9F9"/>
<path d="M52.0947 40.7964C52.7612 40.7314 53.4277 40.7098 54.0942 40.7098C54.7607 40.7098 55.4271 40.7314 56.1045 40.7964C55.4381 40.8614 54.7716 40.883 54.0942 40.883C53.4277 40.883 52.7612 40.8722 52.0947 40.7964Z" fill="#92B9F9"/>
<path d="M52.0947 41.7383C52.9469 41.6734 53.7882 41.6517 54.6405 41.6517C55.4927 41.6517 56.334 41.6734 57.1862 41.7383C56.334 41.8033 55.4927 41.825 54.6405 41.825C53.7992 41.825 52.9469 41.8141 52.0947 41.7383Z" fill="#92B9F9"/>
<path d="M58.4317 54.0487H51.2097C51.2097 54.0487 50.8491 53.3125 50.8491 52.6195C50.8491 51.1904 50.8491 46.8812 50.8491 46.8812H58.0712C58.0712 46.8812 58.0712 51.2337 58.0712 52.6845C58.0821 53.28 58.4317 54.0487 58.4317 54.0487Z" fill="white"/>
<path d="M52.0947 48.5811C52.9469 48.5161 53.7882 48.4944 54.6405 48.4944C55.4927 48.4944 56.334 48.5161 57.1862 48.5811C56.334 48.646 55.4927 48.6677 54.6405 48.6677C53.7882 48.6677 52.9469 48.646 52.0947 48.5811Z" fill="#92B9F9"/>
<path d="M52.0947 49.523C52.8595 49.458 53.6244 49.4364 54.3892 49.4364C55.154 49.4364 55.9188 49.458 56.6836 49.523C55.9188 49.588 55.154 49.6096 54.3892 49.6096C53.6134 49.6096 52.8595 49.588 52.0947 49.523Z" fill="#92B9F9"/>
<path d="M52.0947 50.465C52.7612 50.4 53.4277 50.2701 54.0942 50.2701C54.7607 50.2701 55.4271 50.4 56.1045 50.465C55.4381 50.5299 54.7716 50.5516 54.0942 50.5516C53.4277 50.5516 52.7612 50.5408 52.0947 50.465Z" fill="#92B9F9"/>
<path d="M52.0947 51.4069C52.9579 51.342 53.7882 51.3203 54.6405 51.3203C55.4927 51.3203 56.334 51.342 57.1862 51.4069C56.334 51.4719 55.4927 51.4935 54.6405 51.4935C53.7992 51.4935 52.9469 51.4827 52.0947 51.4069Z" fill="#92B9F9"/>
<path d="M81.1578 30.8788H73.9357C73.9357 30.8788 73.5752 30.1426 73.5752 29.4496C73.5752 28.0204 73.5752 23.7113 73.5752 23.7113H80.7972C80.7972 23.7113 80.7972 28.0638 80.7972 29.5146C80.7972 30.1101 81.1578 30.8788 81.1578 30.8788Z" fill="white"/>
<path d="M74.8208 25.4111C75.673 25.3462 76.5143 25.3245 77.3665 25.3245C78.2188 25.3245 79.0601 25.3462 79.9123 25.4111C79.0601 25.4761 78.2188 25.4977 77.3665 25.4977C76.5143 25.4977 75.673 25.4761 74.8208 25.4111Z" fill="#92B9F9"/>
<path d="M74.8208 26.3531C75.5856 26.2881 76.3504 26.2665 77.1152 26.2665C77.8801 26.2665 78.6449 26.2881 79.4097 26.3531C78.6449 26.418 77.8801 26.4397 77.1152 26.4397C76.3504 26.4397 75.5856 26.418 74.8208 26.3531Z" fill="#92B9F9"/>
<path d="M74.8208 27.295C75.4873 27.2301 76.1538 27.2084 76.8202 27.2084C77.4867 27.2084 78.1532 27.2301 78.8306 27.295C78.1641 27.36 77.4977 27.3817 76.8202 27.3817C76.1538 27.3817 75.4873 27.3708 74.8208 27.295Z" fill="#92B9F9"/>
<path d="M74.8208 28.237C75.673 28.172 76.5143 28.1504 77.3665 28.1504C78.2188 28.1504 79.0601 28.172 79.9123 28.237C79.0601 28.302 78.2188 28.3236 77.3665 28.3236C76.5143 28.3236 75.673 28.3128 74.8208 28.237Z" fill="#92B9F9"/>
<path d="M81.1578 40.5474H73.9357C73.9357 40.5474 73.5752 39.8111 73.5752 39.1182C73.5752 37.689 73.5752 33.3798 73.5752 33.3798H80.7972C80.7972 33.3798 80.7972 37.7323 80.7972 39.1832C80.7972 39.7786 81.1578 40.5474 81.1578 40.5474Z" fill="white"/>
<path d="M74.8208 35.0797C75.673 35.0147 76.5143 34.9931 77.3665 34.9931C78.2188 34.9931 79.0601 35.0147 79.9123 35.0797C79.0601 35.1447 78.2188 35.1663 77.3665 35.1663C76.5143 35.1663 75.673 35.1447 74.8208 35.0797Z" fill="#92B9F9"/>
<path d="M74.8208 36.0217C75.5856 35.9567 76.3504 35.935 77.1152 35.935C77.8801 35.935 78.6449 35.9567 79.4097 36.0217C78.6449 36.0866 77.8801 36.1083 77.1152 36.1083C76.3504 36.1083 75.5856 36.0866 74.8208 36.0217Z" fill="#92B9F9"/>
<path d="M74.8208 36.9636C75.4873 36.8986 76.1538 36.877 76.8202 36.877C77.4867 36.877 78.1532 36.8986 78.8306 36.9636C78.1641 37.0286 77.4977 37.0502 76.8202 37.0502C76.1538 37.0502 75.4873 37.0286 74.8208 36.9636Z" fill="#92B9F9"/>
<path d="M74.8208 37.9056C75.673 37.8406 76.5143 37.8189 77.3665 37.8189C78.2188 37.8189 79.0601 37.8406 79.9123 37.9056C79.0601 37.9705 78.2188 37.9922 77.3665 37.9922C76.5143 37.9922 75.673 37.9814 74.8208 37.9056Z" fill="#92B9F9"/>
<path d="M81.1578 50.2159H73.9357C73.9357 50.2159 73.5752 49.4797 73.5752 48.7868C73.5752 47.3576 73.5752 43.0484 73.5752 43.0484H80.7972C80.7972 43.0484 80.7972 47.4009 80.7972 48.8517C80.7972 49.4472 81.1578 50.2159 81.1578 50.2159Z" fill="white"/>
<path d="M74.8208 44.7483C75.673 44.6833 76.5143 44.6617 77.3665 44.6617C78.2188 44.6617 79.0601 44.6833 79.9123 44.7483C79.0601 44.8132 78.2188 44.8349 77.3665 44.8349C76.5143 44.8349 75.673 44.8132 74.8208 44.7483Z" fill="#92B9F9"/>
<path d="M74.8208 45.6902C75.5856 45.6253 76.3504 45.6036 77.1152 45.6036C77.8801 45.6036 78.6449 45.6253 79.4097 45.6902C78.6449 45.7552 77.8801 45.7768 77.1152 45.7768C76.3504 45.7768 75.5856 45.7552 74.8208 45.6902Z" fill="#92B9F9"/>
<path d="M74.8208 46.6322C75.4873 46.5672 76.1538 46.5456 76.8202 46.5456C77.4867 46.5456 78.1532 46.5672 78.8306 46.6322C78.1641 46.6971 77.4977 46.7188 76.8202 46.7188C76.1538 46.7188 75.4873 46.6971 74.8208 46.6322Z" fill="#92B9F9"/>
<path d="M74.8208 47.5741C75.673 47.5092 76.5143 47.4875 77.3665 47.4875C78.2188 47.4875 79.0601 47.5092 79.9123 47.5741C79.0601 47.6391 78.2188 47.6608 77.3665 47.6608C76.5143 47.6608 75.673 47.6499 74.8208 47.5741Z" fill="#92B9F9"/>
<path d="M69.8492 39.5296H62.6272C62.6272 39.5296 62.2666 38.7934 62.2666 38.1004C62.2666 36.6713 62.2666 32.3621 62.2666 32.3621H69.4886C69.4886 32.3621 69.4886 36.7146 69.4886 38.1654C69.4886 38.7609 69.8492 39.5296 69.8492 39.5296Z" fill="white"/>
<path d="M63.5122 34.062C64.3644 33.997 65.2057 33.9753 66.0579 33.9753C66.9102 33.9753 67.7515 33.997 68.6037 34.062C67.7515 34.1269 66.9102 34.1486 66.0579 34.1486C65.2057 34.1486 64.3535 34.1269 63.5122 34.062Z" fill="#92B9F9"/>
<path d="M63.5122 35.0039C64.277 34.9389 65.0418 34.9173 65.8067 34.9173C66.5715 34.9173 67.3363 34.9389 68.1011 35.0039C67.3363 35.0689 66.5715 35.0905 65.8067 35.0905C65.0309 35.0905 64.277 35.0797 63.5122 35.0039Z" fill="#92B9F9"/>
<path d="M63.5122 35.9459C64.1787 35.8809 64.8452 35.8593 65.5116 35.8593C66.1781 35.8593 66.8446 35.8809 67.522 35.9459C66.8555 36.0108 66.1891 36.0325 65.5116 36.0325C64.8452 36.0325 64.1787 36.0217 63.5122 35.9459Z" fill="#92B9F9"/>
<path d="M63.5122 36.8986C64.3644 36.8337 65.2057 36.812 66.0579 36.812C66.9102 36.812 67.7515 36.8337 68.6037 36.8986C67.7515 36.9636 66.9102 36.9853 66.0579 36.9853C65.2057 36.9744 64.3535 36.9636 63.5122 36.8986Z" fill="#92B9F9"/>
<path d="M69.8492 49.1982H62.6272C62.6272 49.1982 62.2666 48.462 62.2666 47.769C62.2666 46.3399 62.2666 42.0307 62.2666 42.0307H69.4886C69.4886 42.0307 69.4886 46.3832 69.4886 47.834C69.4886 48.4295 69.8492 49.1982 69.8492 49.1982Z" fill="white"/>
<path d="M63.5122 43.7305C64.3644 43.6656 65.2057 43.6439 66.0579 43.6439C66.9102 43.6439 67.7515 43.6656 68.6037 43.7305C67.7515 43.7955 66.9102 43.8171 66.0579 43.8171C65.2057 43.8171 64.3535 43.7955 63.5122 43.7305Z" fill="#92B9F9"/>
<path d="M63.5122 44.6725C64.277 44.6075 65.0418 44.5859 65.8067 44.5859C66.5715 44.5859 67.3363 44.6075 68.1011 44.6725C67.3363 44.7374 66.5715 44.7591 65.8067 44.7591C65.0309 44.7591 64.277 44.7483 63.5122 44.6725Z" fill="#92B9F9"/>
<path d="M63.5122 45.6144C64.1787 45.5495 64.8452 45.5278 65.5116 45.5278C66.1781 45.5278 66.8446 45.5495 67.522 45.6144C66.8555 45.6794 66.1891 45.7011 65.5116 45.7011C64.8452 45.7011 64.1787 45.6902 63.5122 45.6144Z" fill="#92B9F9"/>
<path d="M63.5122 46.5672C64.3644 46.5023 65.2057 46.4806 66.0579 46.4806C66.9102 46.4806 67.7515 46.5023 68.6037 46.5672C67.7515 46.6322 66.9102 46.6538 66.0579 46.6538C65.2057 46.643 64.3535 46.6322 63.5122 46.5672Z" fill="#92B9F9"/>
<path d="M69.8492 58.8668H62.6272C62.6272 58.8668 62.2666 58.1305 62.2666 57.4376C62.2666 56.0084 62.2666 51.6992 62.2666 51.6992H69.4886C69.4886 51.6992 69.4886 56.0517 69.4886 57.5026C69.4886 58.098 69.8492 58.8668 69.8492 58.8668Z" fill="white"/>
<path d="M63.5122 53.3991C64.3644 53.3341 65.2057 53.3125 66.0579 53.3125C66.9102 53.3125 67.7515 53.3341 68.6037 53.3991C67.7515 53.4641 66.9102 53.4857 66.0579 53.4857C65.2057 53.4857 64.3535 53.4641 63.5122 53.3991Z" fill="#92B9F9"/>
<path d="M63.5122 54.3411C64.277 54.2761 65.0418 54.2544 65.8067 54.2544C66.5715 54.2544 67.3363 54.2761 68.1011 54.3411C67.3363 54.406 66.5715 54.4277 65.8067 54.4277C65.0309 54.4277 64.277 54.4168 63.5122 54.3411Z" fill="#92B9F9"/>
<path d="M63.5122 55.283C64.1787 55.218 64.8452 55.1964 65.5116 55.1964C66.1781 55.1964 66.8446 55.218 67.522 55.283C66.8555 55.348 66.1891 55.3696 65.5116 55.3696C64.8452 55.3696 64.1787 55.3588 63.5122 55.283Z" fill="#92B9F9"/>
<path d="M63.5122 56.225C64.3644 56.16 65.2057 56.1383 66.0579 56.1383C66.9102 56.1383 67.7515 56.16 68.6037 56.225C67.7515 56.2899 66.9102 56.3116 66.0579 56.3116C65.2057 56.3116 64.3535 56.3008 63.5122 56.225Z" fill="#92B9F9"/>
<path d="M47.1236 30.8788H39.9016C39.9016 30.8788 39.541 30.1426 39.541 29.4496C39.541 28.0204 39.541 23.7113 39.541 23.7113H46.7631C46.7631 23.7113 46.7631 28.0638 46.7631 29.5146C46.7631 30.1101 47.1236 30.8788 47.1236 30.8788Z" fill="white"/>
<path d="M40.7866 25.4111C41.6388 25.3462 42.4801 25.3245 43.3324 25.3245C44.1846 25.3245 45.015 25.3462 45.8781 25.4111C45.0259 25.4761 44.1846 25.4977 43.3324 25.4977C42.4801 25.4977 41.6279 25.4761 40.7866 25.4111Z" fill="#92B9F9"/>
<path d="M40.7866 26.3531C41.5514 26.2881 42.3163 26.2665 43.0811 26.2665C43.8459 26.2665 44.6107 26.2881 45.3755 26.3531C44.6107 26.418 43.8568 26.4397 43.0811 26.4397C42.3163 26.4397 41.5514 26.418 40.7866 26.3531Z" fill="#92B9F9"/>
<path d="M40.7866 27.295C41.4531 27.2301 42.1196 27.2084 42.7861 27.2084C43.4525 27.2084 44.119 27.2301 44.7964 27.295C44.13 27.36 43.4744 27.3817 42.7861 27.3817C42.1196 27.3817 41.4531 27.3708 40.7866 27.295Z" fill="#92B9F9"/>
<path d="M40.7866 28.237C41.6388 28.172 42.4801 28.1504 43.3324 28.1504C44.1846 28.1504 45.015 28.172 45.8781 28.237C45.0259 28.302 44.1846 28.3236 43.3324 28.3236C42.4801 28.3236 41.6279 28.3128 40.7866 28.237Z" fill="#92B9F9"/>
<path d="M47.1236 40.5474H39.9016C39.9016 40.5474 39.541 39.8111 39.541 39.1182C39.541 37.689 39.541 33.3798 39.541 33.3798H46.7631C46.7631 33.3798 46.7631 37.7323 46.7631 39.1832C46.7631 39.7786 47.1236 40.5474 47.1236 40.5474Z" fill="white"/>
<path d="M40.7866 35.0797C41.6388 35.0147 42.4801 34.9931 43.3324 34.9931C44.1846 34.9931 45.0259 35.0147 45.8781 35.0797C45.0259 35.1447 44.1846 35.1663 43.3324 35.1663C42.4801 35.1663 41.6279 35.1447 40.7866 35.0797Z" fill="#92B9F9"/>
<path d="M40.7866 36.0217C41.5514 35.9567 42.3163 35.935 43.0811 35.935C43.8459 35.935 44.6107 35.9567 45.3755 36.0217C44.6107 36.0866 43.8568 36.1083 43.0811 36.1083C42.3163 36.1083 41.5514 36.0866 40.7866 36.0217Z" fill="#92B9F9"/>
<path d="M40.7866 36.9636C41.4531 36.8986 42.1196 36.877 42.7861 36.877C43.4635 36.877 44.1081 36.8986 44.7964 36.9636C44.13 37.0286 43.4635 37.0502 42.7861 37.0502C42.1196 37.0502 41.4531 37.0286 40.7866 36.9636Z" fill="#92B9F9"/>
<path d="M40.7866 37.9056C41.6388 37.8406 42.4801 37.8189 43.3324 37.8189C44.1846 37.8189 45.0259 37.8406 45.8781 37.9056C45.0259 37.9705 44.1846 37.9922 43.3324 37.9922C42.4801 37.9922 41.6279 37.9814 40.7866 37.9056Z" fill="#92B9F9"/>
<path d="M47.1236 59.8845H39.9016C39.9016 59.8845 39.541 59.1483 39.541 58.4553C39.541 57.0262 39.541 52.717 39.541 52.717H46.7631C46.7631 52.717 46.7631 57.0695 46.7631 58.5203C46.7631 59.105 47.1236 59.8845 47.1236 59.8845Z" fill="white"/>
<path d="M40.7866 54.4168C41.6388 54.3519 42.4801 54.3302 43.3324 54.3302C44.1846 54.3302 45.015 54.3519 45.8781 54.4168C45.0259 54.4818 44.1846 54.5035 43.3324 54.5035C42.4801 54.5035 41.6279 54.4818 40.7866 54.4168Z" fill="#92B9F9"/>
<path d="M40.7866 55.3588C41.5514 55.2938 42.3163 55.2722 43.0811 55.2722C43.8568 55.2722 44.5888 55.2938 45.3755 55.3588C44.6107 55.4238 43.8459 55.4454 43.0811 55.4454C42.3163 55.4454 41.5514 55.4238 40.7866 55.3588Z" fill="#92B9F9"/>
<path d="M40.7866 56.3008C41.4531 56.2358 42.1196 56.2141 42.7861 56.2141C43.4525 56.2141 44.119 56.2358 44.7964 56.3008C44.13 56.3657 43.4744 56.3874 42.7861 56.3874C42.1196 56.3874 41.4531 56.3657 40.7866 56.3008Z" fill="#92B9F9"/>
<path d="M40.7866 57.2427C41.6388 57.1777 42.4801 57.0478 43.3324 57.0478C44.1846 57.0478 45.0259 57.1777 45.8781 57.2427C45.0259 57.3077 44.1846 57.3293 43.3324 57.3293C42.4801 57.3293 41.6279 57.3185 40.7866 57.2427Z" fill="#92B9F9"/>
<path d="M103.884 34.7116H96.6618C96.6618 34.7116 96.3013 33.9753 96.3013 33.2824C96.3013 31.8532 96.3013 27.5441 96.3013 27.5441H103.523C103.523 27.5441 103.523 31.8965 103.523 33.3474C103.523 33.9429 103.884 34.7116 103.884 34.7116Z" fill="white"/>
<path d="M97.5469 29.2439C98.3991 29.1789 99.2404 29.1573 100.093 29.1573C100.945 29.1573 101.786 29.1789 102.638 29.2439C101.786 29.3089 100.945 29.3305 100.093 29.3305C99.2404 29.3305 98.3991 29.3089 97.5469 29.2439Z" fill="#92B9F9"/>
<path d="M97.5469 30.1859C98.3117 30.1209 99.0765 30.0992 99.8413 30.0992C100.606 30.0992 101.371 30.1209 102.136 30.1859C101.371 30.2508 100.606 30.2725 99.8413 30.2725C99.0765 30.2725 98.3117 30.2617 97.5469 30.1859Z" fill="#92B9F9"/>
<path d="M97.5469 31.1278C98.2134 31.0629 98.8798 31.0412 99.5463 31.0412C100.213 31.0412 100.879 31.0629 101.557 31.1278C100.89 31.1928 100.224 31.2144 99.5463 31.2144C98.8798 31.2144 98.2134 31.2036 97.5469 31.1278Z" fill="#92B9F9"/>
<path d="M97.5469 32.0806C98.3991 32.0156 99.2404 31.994 100.093 31.994C100.945 31.994 101.786 32.0156 102.638 32.0806C101.786 32.1456 100.945 32.1672 100.093 32.1672C99.2404 32.1564 98.3991 32.1456 97.5469 32.0806Z" fill="#92B9F9"/>
<path d="M103.884 63.7173H96.6618C96.6618 63.7173 96.3013 62.981 96.3013 62.2881C96.3013 60.8589 96.3013 56.5498 96.3013 56.5498H103.523C103.523 56.5498 103.523 60.9022 103.523 62.3531C103.523 62.9486 103.884 63.7173 103.884 63.7173Z" fill="white"/>
<path d="M97.5469 58.2496C98.3991 58.1847 99.2404 58.163 100.093 58.163C100.945 58.163 101.786 58.1847 102.638 58.2496C101.786 58.3146 100.945 58.3362 100.093 58.3362C99.2404 58.3362 98.3991 58.3146 97.5469 58.2496Z" fill="#92B9F9"/>
<path d="M97.5469 59.1916C98.3117 59.1266 99.0765 59.105 99.8413 59.105C100.606 59.105 101.371 59.1266 102.136 59.1916C101.371 59.2565 100.606 59.2782 99.8413 59.2782C99.0765 59.2782 98.3117 59.2565 97.5469 59.1916Z" fill="#92B9F9"/>
<path d="M97.5469 60.1335C98.2134 60.0686 98.8798 60.0469 99.5463 60.0469C100.213 60.0469 100.879 60.0686 101.557 60.1335C100.89 60.1985 100.224 60.2202 99.5463 60.2202C98.8798 60.2202 98.2134 60.2093 97.5469 60.1335Z" fill="#92B9F9"/>
<path d="M97.5469 61.0755C98.3991 61.0105 99.2404 60.9889 100.093 60.9889C100.945 60.9889 101.786 61.0105 102.638 61.0755C101.786 61.1405 100.945 61.1621 100.093 61.1621C99.2404 61.1621 98.3991 61.1513 97.5469 61.0755Z" fill="#92B9F9"/>
<path d="M103.884 53.7781H96.6618C96.6618 53.7781 96.3013 53.0418 96.3013 52.3489C96.3013 50.9197 96.3013 46.6105 96.3013 46.6105H103.523C103.523 46.6105 103.523 50.963 103.523 52.4138C103.523 53.0093 103.884 53.7781 103.884 53.7781Z" fill="white"/>
<path d="M97.5469 48.3212C98.3991 48.2562 99.2404 48.2346 100.093 48.2346C100.945 48.2346 101.786 48.2562 102.638 48.3212C101.786 48.3862 100.945 48.4078 100.093 48.4078C99.2404 48.397 98.3991 48.3862 97.5469 48.3212Z" fill="#92B9F9"/>
<path d="M97.5469 49.2632C98.3117 49.1982 99.0765 49.1765 99.8413 49.1765C100.606 49.1765 101.371 49.1982 102.136 49.2632C101.371 49.3281 100.606 49.3498 99.8413 49.3498C99.0765 49.3498 98.3117 49.3281 97.5469 49.2632Z" fill="#92B9F9"/>
<path d="M97.5469 50.2051C98.2134 50.1402 98.8798 50.1185 99.5463 50.1185C100.213 50.1185 100.879 50.1402 101.557 50.2051C100.89 50.2701 100.224 50.2917 99.5463 50.2917C98.8798 50.2917 98.2134 50.2701 97.5469 50.2051Z" fill="#92B9F9"/>
<path d="M97.5469 51.1471C98.3991 51.0821 99.2404 51.0605 100.093 51.0605C100.945 51.0605 101.786 51.0821 102.638 51.1471C101.786 51.212 100.945 51.2337 100.093 51.2337C99.2404 51.2337 98.3991 51.212 97.5469 51.1471Z" fill="#92B9F9"/>
<path d="M92.4771 44.4451H85.2551C85.2551 44.4451 84.8945 43.7089 84.8945 43.0159C84.8945 41.5868 84.8945 37.2776 84.8945 37.2776H92.1166C92.1166 37.2776 92.1166 41.6301 92.1166 43.0809C92.1166 43.6764 92.4771 44.4451 92.4771 44.4451Z" fill="white"/>
<path d="M86.1294 38.9774C86.9816 38.9125 87.8229 38.8908 88.6751 38.8908C89.5274 38.8908 90.3687 38.9125 91.2209 38.9774C90.3687 39.0424 89.5274 39.0641 88.6751 39.0641C87.8338 39.0641 86.9816 39.0424 86.1294 38.9774Z" fill="#92B9F9"/>
<path d="M86.1294 39.9194C86.8942 39.8544 87.659 39.8328 88.4238 39.8328C89.1887 39.8328 89.9535 39.8544 90.7183 39.9194C89.9535 39.9844 89.1887 40.006 88.4238 40.006C87.659 40.006 86.8942 39.9844 86.1294 39.9194Z" fill="#92B9F9"/>
<path d="M86.1294 40.8614C86.7959 40.7964 87.4624 40.7747 88.1288 40.7747C88.7953 40.7747 89.4618 40.7964 90.1392 40.8614C89.4727 40.9263 88.8062 40.948 88.1288 40.948C87.4733 40.948 86.8068 40.9263 86.1294 40.8614Z" fill="#92B9F9"/>
<path d="M86.1294 41.8033C86.9816 41.7383 87.8229 41.7167 88.6751 41.7167C89.5274 41.7167 90.3687 41.7383 91.2209 41.8033C90.3687 41.8683 89.5274 41.8899 88.6751 41.8899C87.8338 41.8899 86.9816 41.8791 86.1294 41.8033Z" fill="#92B9F9"/>
<path d="M92.4771 34.5059H85.2551C85.2551 34.5059 84.8945 33.7696 84.8945 33.0767C84.8945 31.6475 84.8945 27.3383 84.8945 27.3383H92.1166C92.1166 27.3383 92.1166 31.6908 92.1166 33.1417C92.1166 33.7371 92.4771 34.5059 92.4771 34.5059Z" fill="white"/>
<path d="M86.1289 29.0382C86.9811 28.9732 87.8224 28.9516 88.6746 28.9516C89.5269 28.9516 90.3682 28.9732 91.2204 29.0382C90.3682 29.1032 89.5269 29.1248 88.6746 29.1248C87.8333 29.1248 86.9811 29.114 86.1289 29.0382Z" fill="#92B9F9"/>
<path d="M86.1289 29.991C86.8937 29.926 87.6585 29.9044 88.4234 29.9044C89.1882 29.9044 89.953 29.926 90.7178 29.991C89.953 30.0559 89.1882 30.0776 88.4234 30.0776C87.6585 30.0668 86.8937 30.0559 86.1289 29.991Z" fill="#92B9F9"/>
<path d="M86.1289 30.9329C86.7954 30.868 87.4619 30.8463 88.1283 30.8463C88.7948 30.8463 89.4613 30.868 90.1387 30.9329C89.4722 30.9979 88.8058 31.0195 88.1283 31.0195C87.4728 31.0195 86.8063 30.9979 86.1289 30.9329Z" fill="#92B9F9"/>
<path d="M86.1289 31.8749C86.9811 31.8099 87.8224 31.7883 88.6746 31.7883C89.5269 31.7883 90.3682 31.8099 91.2204 31.8749C90.3682 31.9398 89.5269 31.9615 88.6746 31.9615C87.8333 31.9615 86.9811 31.9398 86.1289 31.8749Z" fill="#92B9F9"/>
<path d="M10.6745 63.5224L10.4669 66.7056C10.4669 66.7056 13.6573 67.7558 13.6791 68.3513L7.44043 68.3946L7.57154 63.4249L10.6745 63.5224Z" fill="#B1CDFB"/>
<g opacity="0.6">
<path d="M8.54416 66.3808C8.42392 66.4133 8.33648 66.5432 8.35834 66.6624C8.3802 66.7815 8.5223 66.879 8.64253 66.8465C8.76277 66.8249 8.87208 66.6624 8.83928 66.5432C8.80649 66.4241 8.64253 66.3266 8.5223 66.3808" fill="white"/>
</g>
<g opacity="0.6">
<path d="M7.44043 68.3946L7.45136 67.8965L13.4825 68.0589C13.4825 68.0589 13.6791 68.1456 13.7119 68.3946H7.44043Z" fill="white"/>
</g>
<path d="M10.5656 66.6731C10.5656 66.7056 10.4126 66.7164 10.2596 66.8031C10.1065 66.8897 10.0191 67.0197 9.99723 67.0089C9.96444 66.998 10.0191 66.8247 10.2049 66.7164C10.3907 66.6081 10.5766 66.6514 10.5656 66.6731Z" fill="#77A7F8"/>
<path d="M11.2099 66.9654C11.2209 66.9979 11.0788 67.0412 10.9804 67.1712C10.8711 67.2904 10.8383 67.4312 10.8055 67.4312C10.7727 67.4312 10.7618 67.2579 10.893 67.1062C11.0351 66.9438 11.2099 66.9329 11.2099 66.9654Z" fill="#77A7F8"/>
<path d="M11.5596 67.756C11.5268 67.7668 11.4941 67.6044 11.5815 67.4419C11.6689 67.2794 11.811 67.2144 11.822 67.2469C11.8438 67.2686 11.7455 67.3552 11.6799 67.496C11.6034 67.626 11.5924 67.7452 11.5596 67.756Z" fill="#77A7F8"/>
<path d="M10.5326 65.9477C10.5216 65.9802 10.3795 65.9261 10.2046 65.9369C10.0298 65.9369 9.89859 65.991 9.87673 65.9694C9.85487 65.9477 9.99697 65.8394 10.1937 65.8394C10.4123 65.8177 10.5544 65.9261 10.5326 65.9477Z" fill="#77A7F8"/>
<path d="M10.5657 65.2983C10.5657 65.3091 10.4455 65.3308 10.2487 65.2874C10.1503 65.2658 10.041 65.2333 9.92079 65.1791C9.86614 65.1466 9.80056 65.1141 9.74591 65.0816C9.71311 65.06 9.68032 65.0383 9.65846 65.0058C9.62567 64.9733 9.60381 64.8975 9.64753 64.8433C9.68032 64.8 9.73498 64.7783 9.7787 64.7783C9.82242 64.7783 9.86614 64.7892 9.89893 64.8C9.96452 64.8217 10.0301 64.8433 10.0957 64.8758C10.2159 64.93 10.3034 65.0058 10.3799 65.0708C10.522 65.2116 10.5657 65.3199 10.5548 65.3308C10.5438 65.3416 10.4783 65.2441 10.3252 65.125C10.2487 65.0708 10.1613 65.0058 10.052 64.9625C9.99731 64.9408 9.94266 64.9192 9.87707 64.8975C9.81149 64.8758 9.75684 64.8758 9.73498 64.9083C9.72404 64.9192 9.72404 64.9192 9.74591 64.9408C9.75684 64.9625 9.78963 64.9733 9.81149 64.995C9.86614 65.0275 9.92079 65.06 9.97545 65.0925C10.0848 65.1466 10.1831 65.1899 10.2706 65.2116C10.4455 65.2766 10.5657 65.2874 10.5657 65.2983Z" fill="#1A2E35"/>
<path d="M10.5213 65.3418C10.5104 65.3418 10.4558 65.2334 10.4448 65.0385C10.4448 64.941 10.4558 64.8218 10.4995 64.7027C10.5213 64.6377 10.5432 64.5836 10.5869 64.5186C10.6306 64.4536 10.6744 64.3777 10.7946 64.3669C10.8602 64.3669 10.9039 64.4211 10.9258 64.4536C10.9476 64.4969 10.9476 64.5294 10.9586 64.5727C10.9695 64.6485 10.9695 64.7135 10.9476 64.7785C10.9258 64.9085 10.8711 65.0168 10.8055 65.0926C10.6744 65.2443 10.5541 65.2768 10.5432 65.2659C10.5323 65.2551 10.6416 65.1901 10.7399 65.0493C10.7837 64.9735 10.8274 64.876 10.8493 64.7569C10.8602 64.7027 10.8602 64.6377 10.8493 64.5727C10.8383 64.5077 10.8165 64.4536 10.7946 64.4536C10.7618 64.4536 10.7072 64.4969 10.6853 64.5511C10.6525 64.6052 10.6197 64.6594 10.5979 64.7135C10.5541 64.8218 10.5323 64.9302 10.5323 65.0168C10.5104 65.2226 10.5432 65.3418 10.5213 65.3418Z" fill="#1A2E35"/>
<path d="M17.2956 63.7065L16.7384 66.8463C16.7384 66.8463 19.7977 68.2322 19.754 68.8277L13.5371 68.1997L14.2036 63.2734L17.2956 63.7065Z" fill="#B1CDFB"/>
<g opacity="0.6">
<path d="M14.859 66.3158C14.7388 66.3266 14.6295 66.4566 14.6404 66.5758C14.6513 66.6949 14.7716 66.8032 14.9027 66.7924C15.023 66.7816 15.1541 66.6407 15.1323 66.5108C15.1104 66.3916 14.9574 66.2725 14.8372 66.3158" fill="white"/>
</g>
<g opacity="0.6">
<path d="M13.5371 68.1889L13.6027 67.6908L19.5791 68.5029C19.5791 68.5029 19.7649 68.6111 19.7758 68.8602L13.5371 68.1889Z" fill="white"/>
</g>
<path d="M16.8371 66.8247C16.8371 66.8572 16.6841 66.8463 16.5201 66.9222C16.3562 66.998 16.2578 67.1171 16.236 67.0955C16.2141 67.0846 16.2797 66.9113 16.4764 66.8247C16.6732 66.738 16.8481 66.803 16.8371 66.8247Z" fill="#77A7F8"/>
<path d="M17.4486 67.182C17.4486 67.2145 17.3174 67.247 17.1972 67.3553C17.077 67.4636 17.0332 67.5936 17.0005 67.5936C16.9677 67.5936 16.9786 67.4203 17.1316 67.2795C17.2737 67.1386 17.4595 67.1495 17.4486 67.182Z" fill="#77A7F8"/>
<path d="M17.7108 68.005C17.678 68.005 17.6561 67.8534 17.7654 67.7017C17.8638 67.5501 18.0168 67.5068 18.0278 67.5284C18.0387 67.5501 17.9403 67.6259 17.8529 67.7559C17.7654 67.875 17.7436 68.005 17.7108 68.005Z" fill="#77A7F8"/>
<path d="M16.8916 66.0993C16.8697 66.121 16.7386 66.0668 16.5746 66.056C16.3997 66.0451 16.2576 66.0776 16.2467 66.056C16.2358 66.0343 16.3779 65.9368 16.5855 65.9585C16.7823 65.9585 16.9025 66.0776 16.8916 66.0993Z" fill="#77A7F8"/>
<path d="M16.9899 65.4607C16.9899 65.4715 16.8697 65.4715 16.6839 65.4174C16.5964 65.3849 16.4871 65.3416 16.3778 65.2766C16.3232 65.2441 16.2685 65.2007 16.2138 65.1574C16.192 65.1358 16.1592 65.1141 16.1264 65.0708C16.0936 65.0383 16.0936 64.9516 16.1373 64.9083C16.1811 64.865 16.2357 64.8541 16.2794 64.8541C16.3232 64.8541 16.3559 64.8758 16.3887 64.8866C16.4543 64.9083 16.5199 64.9408 16.5746 64.9841C16.6839 65.0491 16.7713 65.1358 16.8369 65.2116C16.9571 65.3632 16.9899 65.4824 16.979 65.4824C16.9681 65.4932 16.9025 65.3849 16.7713 65.2549C16.7057 65.1899 16.6183 65.1249 16.5199 65.0599C16.4652 65.0274 16.4106 65.0058 16.345 64.9841C16.2794 64.9625 16.2248 64.9516 16.2029 64.9733C16.192 64.9841 16.192 64.9841 16.2029 65.0058C16.2138 65.0274 16.2357 65.0491 16.2685 65.0708C16.3232 65.1141 16.3669 65.1574 16.4215 65.1899C16.5199 65.2549 16.6183 65.3091 16.7057 65.3416C16.8806 65.4174 16.9899 65.439 16.9899 65.4607Z" fill="#1A2E35"/>
<path d="M16.9459 65.4933C16.9349 65.4933 16.8912 65.385 16.9021 65.19C16.9131 65.0926 16.9349 64.9734 16.9896 64.8651C17.0224 64.8109 17.0552 64.7459 17.0989 64.6918C17.1426 64.6376 17.1973 64.5618 17.3175 64.5618C17.3831 64.5726 17.4268 64.6268 17.4377 64.6701C17.4487 64.7134 17.4487 64.7459 17.4487 64.7893C17.4487 64.8651 17.4377 64.9301 17.4159 64.9951C17.3831 65.125 17.3066 65.2225 17.241 65.2984C17.0989 65.4392 16.9677 65.4608 16.9677 65.45C16.9568 65.4283 17.077 65.385 17.1863 65.255C17.241 65.19 17.2956 65.0926 17.3284 64.9842C17.3394 64.9301 17.3503 64.8651 17.3503 64.8109C17.3503 64.7459 17.3284 64.6918 17.3066 64.6918C17.2738 64.6918 17.2191 64.7243 17.1863 64.7784C17.1426 64.8326 17.1098 64.8868 17.0879 64.9301C17.0333 65.0384 17.0005 65.1359 16.9896 65.2334C16.9459 65.3742 16.9568 65.4933 16.9459 65.4933Z" fill="#1A2E35"/>
<path d="M17.4486 65.5904L19.7321 51.5152L14.6078 51.2012L13.7119 65.5904H17.4486Z" fill="#93BAFA"/>
<path d="M12.6193 36.5955L6.42432 37.3859L6.47895 38.8908L7.04709 65.7528L10.9804 65.8069L12.8706 42.9293L12.6193 36.5955Z" fill="#93BAFA"/>
<path d="M15.7553 35.9783L19.7323 51.5152L14.8047 52.403L12.6742 45.0406L10.8823 36.8445L15.7553 35.9783Z" fill="#93BAFA"/>
<path d="M13.2966 38.4686C13.3185 38.4686 13.1437 40.6123 12.9033 43.2433C12.6629 45.8851 12.4553 48.0181 12.4335 48.0181C12.4116 48.0181 12.5864 45.8743 12.8268 43.2433C13.0563 40.6015 13.2748 38.4577 13.2966 38.4686Z" fill="#5794F6"/>
<path d="M15.2852 54.3519C15.2634 54.3627 14.6625 52.2731 13.9414 49.7071C13.2202 47.1302 12.6521 45.0514 12.6739 45.0406C12.6958 45.0298 13.2967 47.1194 14.0178 49.6854C14.739 52.2514 15.3071 54.3411 15.2852 54.3519Z" fill="#5794F6"/>
<path d="M9.31949 37.5266C9.31949 37.5266 9.34134 37.5699 9.35227 37.6674C9.36319 37.7648 9.37412 37.8947 9.35227 38.068C9.33042 38.2412 9.26486 38.4361 9.1556 38.631C9.04634 38.8259 8.87153 39.0208 8.65301 39.1615C8.42356 39.3023 8.1832 39.3672 7.95375 39.3889C7.72431 39.4105 7.51671 39.378 7.35282 39.3239C7.18894 39.2698 7.06875 39.2048 6.99227 39.1507C6.91579 39.0965 6.87208 39.0641 6.88301 39.0532C6.89394 39.0424 7.05782 39.1832 7.37468 39.2698C7.69153 39.3564 8.1832 39.3672 8.60931 39.0965C9.03542 38.8259 9.24301 38.382 9.29764 38.068C9.36319 37.7432 9.29764 37.5374 9.31949 37.5266Z" fill="#5794F6"/>
<path d="M16.1484 37.9597C16.1484 37.9705 16.0391 37.9814 15.8752 37.938C15.7113 37.9056 15.4819 37.8081 15.2743 37.6457C15.0667 37.4725 14.9356 37.2776 14.87 37.1152C14.8045 36.9528 14.7935 36.8445 14.8045 36.8445C14.8154 36.8445 14.8482 36.942 14.9247 37.0827C15.0011 37.2343 15.1323 37.4183 15.3289 37.5808C15.5256 37.7432 15.7332 37.8406 15.8971 37.8839C16.0391 37.938 16.1484 37.9489 16.1484 37.9597Z" fill="#5794F6"/>
<path d="M14.6079 21.9573C14.6079 21.9573 15.6567 22.5203 15.7114 23.7546C15.7442 24.415 15.8971 26.7862 15.8971 26.7862L17.6234 25.1838L19.3716 27.9988C19.3716 27.9988 16.8258 31.4743 16.5636 31.6475C16.3014 31.8207 15.2416 32.2647 14.7717 32.0481C14.3238 31.8316 14.6079 21.9573 14.6079 21.9573Z" fill="#B1CDFB"/>
<path d="M9.01364 19.6186L8.50012 20.9504L5.38623 22.8884L6.95956 32.6761C6.95956 32.6761 5.69216 34.809 5.72493 36.379C5.73586 36.7471 6.44605 37.375 6.44605 37.375C6.44605 37.375 9.86586 37.6132 12.4444 37.3642C14.9355 37.1152 15.8314 36.2274 15.8314 36.2274L16.2903 35.2638L15.8642 34.0078L15.2414 24.0902C15.2414 24.0902 15.012 22.412 14.6296 21.9573L13.526 21.1236L12.9251 20.0734L9.01364 19.6186Z" fill="#B1CDFB"/>
<path d="M13.5042 21.1236C13.5042 21.1236 13.5042 21.1669 13.5151 21.2535C13.5151 21.351 13.5151 21.4701 13.5151 21.6108C13.5151 21.9356 13.5042 22.3795 13.5042 22.9209V22.9967L13.4496 22.9426C13.1983 22.6827 12.9251 22.4012 12.6301 22.0872L12.6957 22.0656C12.652 22.4337 12.5973 22.8451 12.5427 23.2674L12.5318 23.3215L12.4772 23.289C12.4225 23.2565 12.357 23.2241 12.3023 23.1808C11.2644 22.5528 10.3138 21.9898 9.62549 21.5675C9.28679 21.3618 9.01364 21.1994 8.81697 21.0695C8.72956 21.0153 8.65308 20.972 8.59845 20.9287C8.54382 20.8962 8.52197 20.8746 8.52197 20.8746C8.52197 20.8746 8.55475 20.8854 8.59845 20.9179C8.65308 20.9504 8.72957 20.9937 8.8279 21.0478C9.03549 21.1669 9.30864 21.3293 9.64734 21.5242C10.3466 21.9356 11.2862 22.4986 12.3351 23.1158C12.3897 23.1483 12.4553 23.1916 12.5099 23.2241L12.4553 23.2565C12.5099 22.8343 12.5646 22.4337 12.6192 22.0547L12.6301 21.9789L12.6847 22.0331C12.9797 22.3471 13.2529 22.6286 13.5042 22.8992L13.4496 22.9209C13.4714 22.3795 13.4823 21.9356 13.4933 21.6108C13.5042 21.4592 13.5042 21.3402 13.5042 21.2535C13.4933 21.1669 13.5042 21.1236 13.5042 21.1236Z" fill="#77A7F8"/>
<path d="M8.15055 29.926C8.16148 29.8935 8.18333 29.8611 8.21611 29.8394L8.52204 29.6229C8.57666 29.5904 8.59852 29.5254 8.59852 29.4713L8.50018 28.0421V28.0313C8.50018 27.8689 8.55481 24.7399 8.19426 23.7221C7.84463 22.7368 7.01426 22.2821 5.45185 22.8559C5.40815 22.8668 5.05852 23.1374 5.03667 23.1699C4.73074 23.6571 4.56685 24.2202 4.55593 24.8048L4.45759 28.1612C4.45759 28.1612 4.16259 31.2686 4.11889 31.68C4.00963 32.7302 4.40296 34.4193 5.29889 34.5383C5.70315 34.5925 8.32537 34.0403 8.84981 33.8887C8.92629 33.8671 9.21037 33.5423 9.21037 33.4665L9.52722 30.2617C9.53815 30.0993 9.41796 29.9585 9.25407 29.9585L8.15055 29.926Z" fill="#B1CDFB"/>
<path d="M8.57651 25.4003C8.57651 25.4003 8.58744 25.4653 8.59836 25.5952C8.60929 25.7359 8.60929 25.9092 8.62022 26.1149C8.63114 26.5588 8.65299 27.1651 8.66392 27.8364C8.67485 28.172 8.67485 28.4968 8.67485 28.7892C8.68577 29.0815 8.65299 29.363 8.53281 29.5579C8.41262 29.7528 8.25966 29.8611 8.1504 29.926C8.04114 29.991 7.97559 30.0126 7.97559 30.0018C7.97559 29.991 8.04114 29.9693 8.13947 29.8935C8.23781 29.8177 8.37984 29.7095 8.4891 29.5254C8.59836 29.3414 8.62022 29.0815 8.60929 28.7892C8.59836 28.4968 8.59836 28.172 8.58744 27.8364C8.57651 27.1651 8.56559 26.5588 8.56559 26.1149C8.56559 25.9092 8.56559 25.7359 8.56559 25.5952C8.57651 25.4653 8.57651 25.4003 8.57651 25.4003Z" fill="#77A7F8"/>
<path d="M5.26611 34.5492C5.26611 34.5492 5.29889 34.5383 5.35352 34.5275C5.41908 34.5167 5.50648 34.5059 5.61574 34.495C5.84519 34.4626 6.18389 34.4193 6.58815 34.3543C7.00333 34.2893 7.48408 34.1919 8.01945 34.0728C8.15056 34.0403 8.29259 34.0078 8.43463 33.9753C8.57667 33.9429 8.7187 33.9104 8.84982 33.8454C8.98093 33.7913 9.09019 33.683 9.12296 33.5423C9.16667 33.4015 9.17759 33.2499 9.18852 33.0875C9.25408 32.4596 9.3087 31.8641 9.36333 31.3119C9.39611 31.0412 9.41796 30.7814 9.43982 30.5432C9.45074 30.4241 9.47259 30.305 9.45074 30.1967C9.43982 30.0884 9.36333 30.0126 9.265 29.991C9.16667 29.9693 9.06833 29.9802 8.98093 29.991C8.88259 29.991 8.79519 30.0018 8.71871 30.0018C8.55482 30.0126 8.41278 30.0126 8.29259 30.0235C8.18333 30.0235 8.09593 30.0343 8.01945 30.0343C7.95389 30.0343 7.92111 30.0343 7.92111 30.0343C7.92111 30.0343 7.95389 30.0235 8.01945 30.0235C8.085 30.0126 8.17241 30.0126 8.28167 30.0018C8.40185 29.991 8.54389 29.9802 8.70778 29.9693C8.79519 29.9585 8.88259 29.9585 8.97 29.9477C9.06833 29.9477 9.16667 29.926 9.27593 29.9477C9.33056 29.9585 9.38519 29.9802 9.42889 30.0343C9.47259 30.0776 9.49445 30.1426 9.50537 30.1967C9.52722 30.3158 9.50537 30.4349 9.49445 30.554C9.47259 30.7922 9.45074 31.052 9.41796 31.3227C9.36333 31.8641 9.3087 32.4704 9.25407 33.0984C9.23222 33.2499 9.23222 33.4123 9.17759 33.5639C9.15574 33.6397 9.11204 33.7155 9.05741 33.7696C9.00278 33.8346 8.9263 33.8779 8.86074 33.9104C8.7187 33.9753 8.56574 33.997 8.43463 34.0403C8.29259 34.0728 8.16148 34.1053 8.01945 34.1377C7.48408 34.2568 6.99241 34.3435 6.57722 34.4084C6.16204 34.4734 5.82334 34.5059 5.59389 34.5275C5.47371 34.5383 5.3863 34.5492 5.32074 34.5492C5.29889 34.5492 5.26611 34.56 5.26611 34.5492Z" fill="#77A7F8"/>
<path d="M6.85013 31.4526C6.83921 31.4526 6.85013 31.3444 6.89384 31.182C6.93754 31.0195 7.03587 30.803 7.18884 30.5865C7.35272 30.3808 7.53847 30.2292 7.69143 30.1426C7.84439 30.0559 7.94272 30.0343 7.95365 30.0451C7.96458 30.0668 7.56032 30.2183 7.25439 30.6298C6.94847 31.0412 6.87198 31.4635 6.85013 31.4526Z" fill="#77A7F8"/>
<path d="M6.23848 30.7164C6.22756 30.7164 6.29311 30.6081 6.4133 30.4782C6.54441 30.3483 6.752 30.1967 7.01422 30.0884C7.27645 29.9802 7.53867 29.9477 7.71348 29.9585C7.89922 29.9585 8.00848 29.991 8.00848 30.0018C8.00848 30.0126 7.89922 30.0018 7.71348 30.0126C7.53867 30.0235 7.28737 30.0559 7.03608 30.1642C6.78478 30.2617 6.57719 30.4024 6.44608 30.5215C6.31497 30.6406 6.24941 30.7164 6.23848 30.7164Z" fill="#77A7F8"/>
<path d="M24.6707 21.7408C24.6379 21.6325 24.4194 21.5892 24.4194 21.5892L24.4631 21.5242C24.5287 21.4376 24.5396 21.3185 24.4959 21.2211C24.485 21.2102 24.485 21.1886 24.474 21.1777C24.4085 21.0586 24.2337 20.9937 24.2337 20.9937C24.2337 20.9937 24.3975 20.788 24.3648 20.6905C24.3211 20.5498 24.1025 20.3657 23.9059 20.3874C23.6874 20.409 23.2175 20.5281 22.8898 20.6256C22.7587 20.6689 22.6275 20.5823 22.6057 20.4523C22.562 20.2033 22.4855 19.8027 22.3325 19.5212C22.1687 19.2072 21.9501 19.1856 21.819 19.2072C21.7535 19.218 21.7207 19.283 21.7425 19.3371C21.8081 19.5104 21.9174 19.846 21.9392 19.9868C21.9611 20.1492 21.7862 21.3293 21.7862 21.3293L21.5022 21.9248L20.6062 22.9209L17.7437 25.4003L19.2405 27.8039L21.8627 24.5341L22.0375 24.3068L22.6603 23.6463L23.0537 23.2782L24.3757 22.7801C24.3757 22.7801 24.6379 22.4878 24.6161 22.3795C24.5942 22.2713 24.4959 22.2063 24.4959 22.2063L24.6707 21.9898C24.6925 22.0006 24.7144 21.849 24.6707 21.7408Z" fill="#ECF4FF"/>
<path d="M24.3648 21.0262C24.3648 21.0262 24.3539 21.037 24.332 21.037C24.3102 21.0478 24.2883 21.0586 24.2446 21.0803C24.1681 21.1128 24.0698 21.1669 23.9387 21.2211C23.8076 21.286 23.6546 21.351 23.4907 21.4376C23.4033 21.4809 23.3159 21.5242 23.2176 21.5567C23.1193 21.5892 22.9991 21.6 22.9007 21.535C22.857 21.5026 22.8243 21.4484 22.8133 21.3943C22.8024 21.3402 22.8024 21.286 22.8243 21.2319C22.857 21.1236 22.9335 21.0478 22.9991 20.9937C23.0756 20.9395 23.163 20.8962 23.2285 20.8529C23.305 20.8096 23.3706 20.7771 23.4361 20.7447C23.5563 20.6797 23.6656 20.6256 23.7311 20.5931C23.7639 20.5714 23.7967 20.5606 23.8185 20.5498C23.8404 20.5389 23.8513 20.5389 23.8513 20.5389C23.8513 20.5389 23.8404 20.5498 23.8294 20.5606C23.8076 20.5714 23.7857 20.5931 23.753 20.6039C23.6765 20.6472 23.5781 20.7014 23.458 20.7663C23.3924 20.7988 23.3268 20.8421 23.2504 20.8746C23.1739 20.9179 23.0974 20.9504 23.0209 21.0153C22.9444 21.0695 22.8789 21.1453 22.857 21.2427C22.8352 21.3402 22.8461 21.4484 22.9335 21.5134C22.9772 21.5459 23.0209 21.5567 23.0756 21.5567C23.1302 21.5567 23.1739 21.5459 23.2285 21.535C23.3268 21.5026 23.4143 21.4592 23.5017 21.4159C23.6765 21.3402 23.8294 21.2644 23.9606 21.2102C24.0917 21.1561 24.19 21.102 24.2665 21.0695C24.2993 21.0586 24.332 21.0478 24.3539 21.037C24.3539 21.0262 24.3648 21.0262 24.3648 21.0262Z" fill="#B0CCFA"/>
<path d="M24.4411 21.6433C24.3974 21.665 24.3318 21.6866 24.2553 21.7083C24.1024 21.7624 23.8838 21.849 23.6544 21.9248C23.5998 21.9465 23.5342 21.9681 23.4796 21.9789C23.425 21.9898 23.3703 21.9898 23.3157 21.9789C23.2174 21.9465 23.1518 21.8599 23.1409 21.7841C23.13 21.7083 23.1627 21.6433 23.1846 21.6108C23.2064 21.5783 23.2283 21.5567 23.2283 21.5567C23.2283 21.5567 23.2174 21.5567 23.2064 21.5675C23.1955 21.5783 23.1846 21.5892 23.1627 21.6C23.13 21.6325 23.0972 21.6974 23.1081 21.7841C23.119 21.8707 23.1846 21.9681 23.2938 22.0006C23.3485 22.0223 23.414 22.0114 23.4687 22.0006C23.5233 21.9898 23.5888 21.9681 23.6435 21.9465C23.8838 21.8707 24.0914 21.7841 24.2444 21.7191C24.3427 21.7083 24.4083 21.6758 24.4411 21.6433Z" fill="#B0CCFA"/>
<path d="M24.485 22.1955C24.4413 22.2063 24.3757 22.2171 24.3102 22.228C24.1572 22.2605 23.9606 22.3038 23.7311 22.3579C23.6765 22.3687 23.6219 22.3904 23.5672 22.3904C23.5126 22.4012 23.458 22.3904 23.4143 22.3687C23.3706 22.3471 23.3378 22.3146 23.3269 22.2821C23.3159 22.2388 23.3159 22.2063 23.3269 22.163C23.3487 22.098 23.4033 22.0547 23.4361 22.0331C23.4689 22.0114 23.4907 22.0006 23.4907 22.0006C23.4907 22.0006 23.4689 22.0006 23.4252 22.0223C23.3924 22.0439 23.3269 22.0764 23.305 22.1522C23.2941 22.1847 23.2832 22.2388 23.2941 22.2821C23.305 22.3254 23.3487 22.3687 23.3924 22.3904C23.4361 22.412 23.5017 22.4229 23.5563 22.412C23.6109 22.4012 23.6656 22.3904 23.7202 22.3796C23.9496 22.3254 24.1572 22.2821 24.2993 22.2388C24.3648 22.2171 24.4304 22.2063 24.4741 22.1955C24.5178 22.1847 24.5396 22.1738 24.5396 22.1738C24.5506 22.1847 24.5287 22.1847 24.485 22.1955Z" fill="#B0CCFA"/>
<path d="M24.3322 22.6828C24.2119 22.6828 24.048 22.672 23.8621 22.672C23.8184 22.672 23.7747 22.672 23.731 22.672C23.6873 22.672 23.6435 22.672 23.6107 22.6612C23.5779 22.6503 23.5452 22.6395 23.5233 22.607C23.5014 22.5853 23.5014 22.5528 23.5014 22.5204C23.5124 22.4662 23.5561 22.4337 23.5779 22.4229C23.6107 22.412 23.6217 22.4012 23.6217 22.4012C23.6217 22.4012 23.5998 22.4012 23.567 22.412C23.5342 22.4229 23.4905 22.4554 23.4686 22.5204C23.4577 22.5528 23.4686 22.5962 23.4905 22.6178C23.5124 22.6503 23.5561 22.672 23.5889 22.6828C23.6326 22.6937 23.6763 22.6937 23.72 22.6937C23.7638 22.6937 23.8075 22.6937 23.8512 22.6937C24.037 22.6937 24.201 22.6937 24.3212 22.6937C24.4415 22.6937 24.518 22.6937 24.518 22.6828C24.5289 22.6937 24.4524 22.6937 24.3322 22.6828Z" fill="#B0CCFA"/>
<path d="M22.9883 22.0981C23.1741 22.1306 23.3052 22.2064 23.3162 22.1955C23.3162 22.1955 23.185 22.0981 22.9992 22.0656C22.8024 22.0331 22.6494 22.0872 22.6494 22.0872C22.6494 22.0981 22.8024 22.0656 22.9883 22.0981Z" fill="#B0CCFA"/>
<path d="M8.9048 14.4541L9.11239 19.7594L12.6305 22.0223L12.9146 20.1275V19.4995C12.9146 19.4995 14.4333 19.3371 14.5317 17.843C14.5754 17.1176 14.5426 15.6126 14.4989 14.2484C14.4442 12.7435 13.1878 11.5525 11.6691 11.5633C10.0957 11.5958 8.83924 12.895 8.9048 14.4541Z" fill="#ECF4FF"/>
<path d="M12.9145 19.5104C12.9145 19.5104 11.9531 19.5429 10.9697 18.8607C10.9697 18.8607 11.3849 19.9651 12.8927 19.9001L12.9145 19.5104Z" fill="#B0CCFA"/>
<path d="M14.6625 12.6135C14.9793 12.3862 15.1214 11.9531 15.023 11.5741C14.9247 11.1952 14.5969 10.892 14.2254 10.7946C13.843 10.6971 13.4278 10.7838 13.111 11.0111C13.111 10.8379 12.9689 10.6755 12.7941 10.6322C12.6193 10.5889 12.4336 10.6214 12.2697 10.6971C11.9747 10.8271 11.7343 11.0653 11.6032 11.3468C11.4393 11.0869 11.1225 10.9353 10.8165 10.957C10.5106 10.9786 10.2265 11.1735 10.0954 11.455C10.0517 11.5633 10.0189 11.6824 9.95339 11.7907C9.88784 11.8881 9.7458 11.9639 9.60376 11.9639C9.4071 11.9639 9.21043 12.0722 9.03562 12.1913C8.78432 12.3537 8.45654 12.7976 8.45654 13.2848C8.46747 14.3675 8.80617 14.9197 8.83895 15.9483C8.83895 16.0132 8.83895 16.089 8.88265 16.1432C8.98099 16.2947 9.22136 16.2189 9.35247 16.0998C9.68025 15.8183 9.85506 15.3961 9.94247 14.9738C10.0299 14.5516 10.0408 14.1185 10.1173 13.6962C10.1173 13.6854 10.1173 13.6746 10.1282 13.6638C10.161 13.4905 10.2375 13.3173 10.3467 13.1765C10.4778 13.2632 10.598 13.3498 10.7401 13.4147C11.2317 13.6421 11.8764 13.4905 12.226 13.0791C12.5647 13.3498 13.0017 13.4905 13.4388 13.4797C13.8758 13.4689 14.3019 13.3714 14.6188 13.0899C14.6843 13.0358 14.7608 12.9383 14.8045 12.8192C14.8264 12.7218 14.7499 12.6352 14.6625 12.6135Z" fill="#93BAFA"/>
<path d="M9.37447 15.1904C9.35262 15.1795 8.34744 14.8331 8.33651 15.8617C8.32559 16.8902 9.36355 16.6953 9.36355 16.6629C9.36355 16.6304 9.37447 15.1904 9.37447 15.1904Z" fill="#ECF4FF"/>
<path d="M9.05783 16.2626C9.05783 16.2626 9.03597 16.2734 9.0141 16.2843C8.98131 16.2951 8.93759 16.3059 8.88294 16.2843C8.77363 16.2409 8.68619 16.0676 8.68619 15.8835C8.68619 15.786 8.70805 15.6994 8.74084 15.6235C8.77363 15.5477 8.82829 15.4935 8.88294 15.4935C8.93759 15.4827 8.98131 15.5152 8.99224 15.5477C9.00317 15.5802 9.00317 15.6019 9.00317 15.6019C9.00317 15.6019 9.02503 15.5802 9.0141 15.5477C9.0141 15.526 9.00317 15.5044 8.97038 15.4827C8.94852 15.4611 8.9048 15.4502 8.87201 15.4502C8.79549 15.4502 8.71898 15.526 8.68619 15.6019C8.64247 15.6777 8.62061 15.786 8.62061 15.8835C8.62061 16.0893 8.72991 16.2843 8.87201 16.3276C8.94852 16.3492 9.00317 16.3276 9.03597 16.3059C9.0469 16.2843 9.05783 16.2626 9.05783 16.2626Z" fill="#B0CCFA"/>
<path d="M8.55518 14.2268C8.55518 14.2159 8.66444 14.1835 8.82832 14.0968C8.99221 14.0102 9.21073 13.8695 9.4074 13.6529C9.60406 13.4364 9.72425 13.209 9.78981 13.0358C9.85536 12.8626 9.88814 12.7435 9.89906 12.7435C9.90999 12.7435 9.89906 12.8626 9.84443 13.0466C9.78981 13.2307 9.65869 13.4797 9.46203 13.6962C9.26536 13.9128 9.02499 14.0644 8.85018 14.1402C8.67536 14.2159 8.55518 14.2376 8.55518 14.2268Z" fill="#3A81F5"/>
<path d="M13.8213 12.5594C13.8104 12.5702 13.7557 12.4944 13.6246 12.4186C13.5044 12.3429 13.3078 12.2562 13.0783 12.2671C12.8598 12.2779 12.6631 12.3862 12.5539 12.4728C12.4337 12.5702 12.39 12.646 12.3791 12.6352C12.3681 12.6352 12.4118 12.5377 12.5211 12.4295C12.6304 12.3212 12.827 12.2021 13.0783 12.1913C13.3296 12.1805 13.5372 12.2779 13.6574 12.3753C13.7885 12.462 13.8322 12.5486 13.8213 12.5594Z" fill="#3A81F5"/>
<path d="M14.4877 10.957C14.4877 10.9678 14.3347 10.9029 14.0834 10.9462C13.9523 10.9678 13.8103 11.022 13.6682 11.1302C13.5371 11.2385 13.4169 11.4117 13.3623 11.6174L13.3514 11.6824L13.3077 11.6283C13.1875 11.4875 13.0127 11.3792 12.816 11.3468C12.6193 11.3035 12.3899 11.3359 12.2042 11.455C11.9856 11.5958 11.8436 11.8232 11.8108 12.0505L11.7999 12.1263L11.7453 12.0614C11.5595 11.8556 11.2973 11.7474 11.0679 11.7474C10.8275 11.7365 10.6308 11.8232 10.4888 11.9206C10.3468 12.018 10.2593 12.1371 10.2156 12.2129C10.161 12.2887 10.1501 12.3429 10.1392 12.3429C10.1392 12.3429 10.1501 12.2887 10.1938 12.2021C10.2375 12.1155 10.3249 11.9964 10.4669 11.8881C10.609 11.7799 10.8166 11.6824 11.0788 11.6932C11.3301 11.6932 11.6142 11.8015 11.8108 12.0289L11.7453 12.0505C11.778 11.8015 11.931 11.5525 12.1714 11.4009C12.379 11.271 12.6303 11.2385 12.8379 11.2818C13.0564 11.3251 13.2421 11.4442 13.3732 11.5958L13.3077 11.6066C13.3623 11.3792 13.4934 11.206 13.6464 11.0869C13.7993 10.9678 13.9523 10.9245 14.0943 10.9029C14.2255 10.8812 14.3347 10.9029 14.4003 10.9137C14.4549 10.9353 14.4877 10.957 14.4877 10.957Z" fill="#3A81F5"/>
<path d="M18.7706 25.9525L17.7435 26.4289L17.2628 26.9161C17.2628 26.9161 18.3882 26.7862 18.4209 26.9703C18.4537 27.1543 18.4537 27.3709 18.3772 27.425C18.3008 27.4791 18.1915 27.6632 18.1915 27.6632C18.1915 27.6632 18.4646 27.9663 18.3554 28.1179C18.2461 28.2695 18.1915 28.4319 18.1915 28.4319L18.0276 28.4211C18.0276 28.4211 18.0495 29.0057 17.9183 29.0815C17.7982 29.1573 17.82 29.1573 17.6561 29.1898C17.4922 29.2223 17.1426 29.2331 17.1426 29.2331L16.9569 29.2223C16.9569 29.2223 15.9954 30.4241 15.6458 30.4024C15.2961 30.37 14.6624 30.3591 14.6624 30.3591L9.24316 33.4773L9.49446 30.6839L9.52724 30.1751L14.8482 28.2803L16.7383 26.1907L17.6233 25.7576L18.9126 25.4761C18.9126 25.4653 19.0219 25.7576 18.7706 25.9525Z" fill="#ECF4FF"/>
<path d="M18.4646 27.2734C18.4646 27.3167 18.4537 27.36 18.4319 27.4033C18.4209 27.425 18.3991 27.4466 18.3882 27.4574C18.3772 27.4683 18.3663 27.4791 18.3554 27.4899C18.3117 27.5441 18.268 27.609 18.2243 27.674V27.6307C18.2789 27.6848 18.3226 27.7498 18.3554 27.8147C18.3882 27.8797 18.4209 27.9555 18.4209 28.0421C18.4209 28.0854 18.3882 28.1287 18.3772 28.1504C18.3554 28.1829 18.3445 28.2045 18.3226 28.237C18.2898 28.302 18.257 28.3561 18.2352 28.4211L18.2243 28.4427H18.2024C18.1478 28.4427 18.0932 28.4319 18.0385 28.4319L18.0822 28.3994C18.0822 28.5401 18.0822 28.6701 18.0713 28.8C18.0604 28.865 18.0495 28.9299 18.0276 28.9949C18.0167 29.0274 18.0057 29.0599 17.962 29.0923L17.8856 29.1465C17.8309 29.1898 17.7545 29.2006 17.6998 29.2114C17.6343 29.2223 17.5796 29.2331 17.5141 29.2331C17.3939 29.2439 17.2737 29.2547 17.1645 29.2547C17.0989 29.2439 17.0333 29.2439 16.9787 29.2331L17.0006 29.2223C16.7274 29.5471 16.4652 29.8394 16.2139 30.0668C16.0828 30.1859 15.9626 30.2833 15.8315 30.3483C15.7987 30.3699 15.7659 30.3808 15.7222 30.3916C15.6895 30.4024 15.6457 30.3916 15.613 30.3916C15.5474 30.3916 15.4819 30.3808 15.4272 30.3808C15.1869 30.3699 15.0011 30.3591 14.87 30.3483C14.8154 30.3483 14.7607 30.3374 14.728 30.3374C14.6952 30.3374 14.6733 30.3374 14.6733 30.3266C14.6733 30.3266 14.6952 30.3266 14.728 30.3266C14.7607 30.3266 14.8154 30.3266 14.87 30.3266C15.0011 30.3266 15.1869 30.3374 15.4272 30.3374C15.4928 30.3374 15.5474 30.3374 15.613 30.3483C15.6785 30.3591 15.7441 30.3374 15.7987 30.305C15.9189 30.24 16.05 30.1317 16.1702 30.0235C16.4106 29.7961 16.6728 29.5038 16.935 29.1789L16.9459 29.1681H16.9569C17.0115 29.1681 17.077 29.1789 17.1426 29.1789C17.2519 29.1681 17.372 29.1681 17.4922 29.1573C17.5469 29.1465 17.6124 29.1465 17.667 29.1356C17.7326 29.1248 17.7872 29.114 17.8309 29.0815L17.9074 29.0274C17.9183 29.0165 17.9402 28.9949 17.9402 28.9624C17.962 28.9083 17.973 28.8433 17.973 28.7783C17.9839 28.6484 17.9948 28.5185 17.9839 28.3886V28.3453H18.0276C18.0822 28.3453 18.1369 28.3561 18.1915 28.3561L18.1587 28.3777C18.1806 28.3128 18.2133 28.2478 18.2461 28.1829C18.2789 28.1179 18.3335 28.0529 18.3335 28.0096C18.3335 27.9555 18.3117 27.8905 18.2789 27.8256C18.2461 27.7606 18.2024 27.7065 18.1587 27.6523L18.1369 27.6307L18.1478 27.609C18.1915 27.5441 18.2352 27.4791 18.2898 27.4141C18.3007 27.4033 18.3226 27.3817 18.3335 27.3708C18.3445 27.36 18.3554 27.3492 18.3554 27.3383C18.3663 27.3059 18.3772 27.2734 18.3772 27.2409C18.3882 27.1651 18.3772 27.0893 18.3663 27.0135L18.3554 26.9594C18.3554 26.9486 18.3554 26.9486 18.3335 26.9377C18.3117 26.9269 18.268 26.9161 18.2352 26.9053C17.9183 26.862 17.5796 26.8944 17.2409 26.9269L17.1317 26.9377L17.2082 26.862C17.2191 26.8511 17.2191 26.8511 17.23 26.8403C17.383 26.6779 17.5469 26.5263 17.6998 26.3747H17.7107C18.0604 26.2123 18.41 26.0608 18.7378 25.8983H18.7269C18.8689 25.7901 18.9126 25.606 18.858 25.4544L18.9017 25.4761C18.4537 25.5735 18.0167 25.671 17.6124 25.7576H17.6233C17.3065 25.9092 17.0115 26.0499 16.7383 26.1799L16.7493 26.169C16.1702 26.8078 15.6895 27.3167 15.3617 27.6848C15.1978 27.858 15.0667 27.9988 14.9793 28.0962C14.9356 28.1395 14.9028 28.172 14.8809 28.2045C14.8591 28.2262 14.8482 28.237 14.8482 28.237C14.8482 28.237 14.8591 28.2262 14.8809 28.1937C14.9028 28.1612 14.9356 28.1287 14.9793 28.0854C15.0667 27.988 15.1978 27.8364 15.3507 27.6632C15.6785 27.295 16.1483 26.7645 16.7165 26.1257H16.7274C17.0006 25.9958 17.2956 25.8442 17.6124 25.6926C18.0167 25.606 18.4537 25.5086 18.9017 25.4111L18.9345 25.4003L18.9454 25.4328C18.9782 25.5302 18.9782 25.6277 18.9563 25.7143C18.9345 25.8117 18.8689 25.8983 18.7924 25.9525C18.4537 26.1041 18.115 26.2665 17.7654 26.4289L17.7763 26.418C17.6233 26.5696 17.4704 26.732 17.3065 26.8836C17.2956 26.8944 17.2956 26.8944 17.2846 26.9053L17.2519 26.8403C17.4267 26.8186 17.5906 26.8078 17.7654 26.797C17.9402 26.7862 18.1041 26.7862 18.268 26.8078C18.3117 26.8186 18.3554 26.8295 18.3991 26.8511C18.4209 26.862 18.4428 26.8944 18.4537 26.9269" fill="#B0CCFA"/>
<path d="M18.1913 27.6415C18.1804 27.6523 18.1257 27.609 18.0165 27.5765C17.9181 27.5441 17.7543 27.5224 17.5904 27.5332C17.4265 27.5549 17.2735 27.5982 17.1643 27.6307C17.055 27.6632 16.9894 27.6848 16.9785 27.674C16.9785 27.6632 17.0331 27.6307 17.1424 27.5874C17.2517 27.5441 17.4046 27.4899 17.5794 27.4683C17.7543 27.4466 17.9291 27.4791 18.0383 27.5332C18.1585 27.5765 18.2022 27.6307 18.1913 27.6415Z" fill="#B0CCFA"/>
<path d="M18.0388 28.4428C18.0279 28.4428 18.0497 28.367 17.9623 28.3128C17.8858 28.2695 17.7218 28.2587 17.5688 28.2695C17.2409 28.302 17.0113 28.4428 17.0004 28.432C16.9895 28.4212 17.2081 28.2262 17.5578 28.1937C17.6453 28.1829 17.7218 28.1937 17.7983 28.1937C17.8748 28.2045 17.9404 28.2154 17.9951 28.2587C18.0497 28.302 18.0607 28.3562 18.0607 28.3887C18.0497 28.4212 18.0388 28.4428 18.0388 28.4428Z" fill="#B0CCFA"/>
<path d="M17.5142 28.8541C17.5142 28.865 17.4705 28.8866 17.3831 28.8975C17.3066 28.9083 17.1863 28.8975 17.0879 28.9408C16.9786 28.9733 16.924 29.0599 16.924 29.1249C16.924 29.1899 16.9677 29.2332 16.9568 29.2332C16.9568 29.2441 16.8912 29.2224 16.8693 29.1249C16.8584 29.0816 16.8693 29.0166 16.9021 28.9733C16.9349 28.9191 16.9896 28.8866 17.0552 28.865C17.1863 28.8216 17.2956 28.8433 17.3721 28.8433C17.4596 28.8433 17.5142 28.8433 17.5142 28.8541Z" fill="#B0CCFA"/>
<path d="M14.1817 34.8199C12.2588 35.123 10.2484 35.0364 8.33638 34.7008C8.16156 34.6683 7.93212 34.6575 7.85564 34.8199C7.80101 34.9281 7.84471 35.0581 7.93212 35.1447C8.01953 35.2205 8.13971 35.2638 8.24897 35.2962C9.07934 35.5236 9.96434 35.502 10.8275 35.4695C12.4227 35.4045 14.0288 35.1014 15.5256 34.56L14.1817 34.8199Z" fill="#77A7F8"/>
</svg>
