<svg width="61" height="40" viewBox="0 0 61 40" fill="none" xmlns="http://www.w3.org/2000/svg">
<path d="M52.9857 18.6659C51.404 18.6659 49.9542 19.1481 48.7152 19.9991C49.0052 19.2048 49.1633 18.3539 49.1633 17.4462C49.1633 13.7019 46.3427 10.6384 42.8367 10.6384C41.3341 10.6384 39.9633 11.2058 38.8825 12.1418C38.1971 6.86584 34.0057 2.80957 28.9181 2.80957C23.3559 2.80957 18.8481 7.66007 18.8481 13.6452C18.8481 13.9572 18.8481 14.2409 18.8745 14.5245C18.3473 14.4111 17.7937 14.3543 17.2401 14.3543C13.1542 14.3543 9.77994 17.6731 9.33181 21.9563C8.54098 21.6159 7.69742 21.4457 6.80115 21.4457C3.05788 21.4457 0 24.7077 0 28.764C0 32.7919 3.03152 36.0823 6.80115 36.0823H52.933C57.388 36.0823 60.9994 32.1962 60.9994 27.4025C61.0522 22.552 57.4407 18.6659 52.9857 18.6659Z" fill="#76A8F9"/>
<path d="M40.0312 26.8598H34.8375V37.1908H26.8211V26.8598H21.6273L30.8293 12.5488L40.0312 26.8598Z" fill="white"/>
</svg>
