<?xml version="1.0" encoding="utf-8"?>
<!-- Generator: Adobe Illustrator 24.1.0, SVG Export Plug-In . SVG Version: 6.00 Build 0)  -->
<svg version="1.1" id="Layer_1" xmlns="http://www.w3.org/2000/svg" xmlns:xlink="http://www.w3.org/1999/xlink" x="0px" y="0px"
	 viewBox="0 0 543.3 134.3" style="enable-background:new 0 0 543.3 134.3;" xml:space="preserve">
<style type="text/css">
	.st0{fill:#3D338C;}
	.st1{fill:#EE2D2A;}
	.st2{fill:url(#SVGID_1_);}
</style>
<path class="st0" d="M38.7,0c4-0.1,7.9,0.3,11.8,1.2c2.7,0.7,5.3,1.5,7.9,2.5l-4.4,19.8c-1.9-0.8-3.9-1.4-6-1.7
	c-2.2-0.3-4.5-0.5-6.7-0.5c-2.6-0.1-5.3,0.4-7.7,1.3c-1.9,0.7-3.6,1.9-4.9,3.5c-1.2,1.5-2.1,3.3-2.5,5.3c-0.5,2.2-0.8,4.4-0.8,6.6
	v4.4h31.2v21H25.3v68.2H0v-94c0-11.5,3.2-20.7,9.8-27.5S25.9,0,38.7,0z M106.9,133.3c-7.3-0.1-13.3-0.9-17.9-2.4
	c-4.1-1.2-7.8-3.3-10.9-6.2c-2.7-2.7-4.5-6-5.4-9.7c-1-4.2-1.5-8.5-1.4-12.8V4.1L96.5,0v97.2c0,2,0.2,4.1,0.5,6.1
	c0.3,1.7,1,3.2,2,4.6c1.1,1.4,2.5,2.4,4.2,3.1c2.3,0.9,4.8,1.4,7.3,1.5L106.9,133.3z"/>
<path class="st0" d="M202.8,86.9c0.1,6.5-1,13.1-3.1,19.3c-1.9,5.5-4.9,10.6-8.8,14.9c-3.9,4.1-8.6,7.4-13.8,9.6
	c-11.6,4.5-24.4,4.5-36,0c-5.2-2.2-10-5.4-13.8-9.6c-4-4.3-7-9.4-9-14.9c-2.2-6.2-3.3-12.7-3.2-19.3c-0.1-6.5,1.1-13,3.4-19.1
	c2-5.5,5.1-10.5,9.2-14.8c3.9-4.1,8.7-7.3,13.9-9.5C147,41.2,153,40,159,40.1c6.1-0.1,12.1,1.1,17.7,3.4c5.2,2.2,9.9,5.4,13.8,9.5
	c4,4.3,7,9.3,9,14.8C201.8,73.9,202.9,80.3,202.8,86.9z M177,86.9c0-7.8-1.6-13.9-4.7-18.4c-3.1-4.5-7.6-6.7-13.3-6.7
	c-5.8,0-10.2,2.2-13.4,6.7c-3.2,4.5-4.8,10.6-4.8,18.4c0,7.8,1.6,14,4.8,18.6c3,4.5,8,7.1,13.4,6.9c5.3,0.2,10.4-2.4,13.3-6.9
	C175.5,100.9,177,94.7,177,86.9z"/>
<path class="st1" d="M484.1,20.2l25.3-4.1v26.3h30.4v21h-30.4v31.4c0,5.3,0.9,9.6,2.8,12.7s5.6,4.7,11.3,4.8c2.8,0,5.6-0.3,8.4-0.8
	c2.7-0.5,5.3-1.2,7.9-2.1l3.6,19.7c-3.3,1.3-6.7,2.4-10.2,3.2c-4.5,1-9.1,1.5-13.8,1.4c-6.9,0-12.6-0.9-17.1-2.8
	c-4.2-1.6-8-4.3-10.9-7.8c-2.8-3.5-4.8-7.7-5.7-12.1c-1.1-5.2-1.7-10.5-1.6-15.8V20.2z"/>
<path class="st1" d="M355.6,27.4c5.2,4.6,13,4.6,18.2,0c2.6-2.4,4-5.9,3.9-9.4c0.2-3.6-1.2-7-3.9-9.4c-5.2-4.6-13-4.6-18.2,0
	c-2.6,2.3-3.9,5.4-3.9,9.4C351.7,22,353,25.1,355.6,27.4z"/>
<linearGradient id="SVGID_1_" gradientUnits="userSpaceOnUse" x1="232.83" y1="364.2951" x2="493.0634" y2="364.2951" gradientTransform="matrix(1 0 0 -1 -21.32 451.6298)">
	<stop  offset="0" style="stop-color:#3D338C"/>
	<stop  offset="6.000000e-02" style="stop-color:#5C327B"/>
	<stop  offset="0.16" style="stop-color:#833166"/>
	<stop  offset="0.26" style="stop-color:#A43053"/>
	<stop  offset="0.36" style="stop-color:#BF2F44"/>
	<stop  offset="0.48" style="stop-color:#D42E38"/>
	<stop  offset="0.61" style="stop-color:#E32D30"/>
	<stop  offset="0.76" style="stop-color:#EB2D2B"/>
	<stop  offset="1" style="stop-color:#EE2D2A"/>
</linearGradient>
<path class="st2" d="M469.9,64.6c-1.1-4.7-3.3-9.1-6.3-12.9c-3.2-3.8-7.3-6.7-12-8.4c-5-2-11.3-3-18.9-3c-7.2,0-14.3,0.5-21.4,1.6
	c-5.6,0.8-11.2,2-16.6,3.5V110c-1.9,0.9-3.9,1.3-6,1.2c-9.8,0-12.2-6.6-12.2-10V51.4c0-5-4.2-9.2-11.6-9.2s-11.8,4.2-11.8,9.2v49.9
	c0,0.2,0,0.4,0,0.6c-0.3,3.5-3,9.4-11.7,9.4c-9.8,0-12.2-6.6-12.2-10V51.4c0-5-4.2-9.2-11.6-9.2h-0.3c-7.4,0-11.6,4.2-11.6,9.2v49.9
	c0,3.3-2.4,10-12.2,10c-9.2,0-11.7-6.6-11.7-10V51.4c0-4.8-3.2-9.2-12-9.2c-8.4,0-11.7,4.2-11.7,9.2v49.9c0,3.5-2.5,9.8-12,9.8
	s-11.7-6.3-11.7-9.8V51.4c0-5-3.7-9.2-11.7-9.2c-7.9,0-11.5,4.2-11.5,9.2v49.9c0,6.3,5.9,33,33.7,33c16.9,0,24.7-9.3,24.7-9.3
	c6.7,6,15.3,9.3,24.2,9.3c10.8,0,18.3-3.1,23.5-7.5c5.2,4.4,12.7,7.5,23.5,7.5c8.3,0,16.4-2.9,22.9-8.1c5.2,4.7,13,8.1,24.3,8.1
	c4.7,0,9.3-0.9,13.7-2.7h18V62.7c1.6-0.2,3.4-0.4,5.4-0.6s4-0.3,5.8-0.3c5.9,0,9.9,1.7,12,5.1c2.1,3.4,3.2,9.2,3.2,17.3v47.3h25.3
	V81.3C471.8,75.7,471.2,70.1,469.9,64.6z"/>
</svg>
