<svg width="175" height="43" viewBox="0 0 175 43" fill="none" xmlns="http://www.w3.org/2000/svg">
<path d="M10.8564 19.0592C11.3051 18.3897 11.5295 17.5748 11.5295 16.6145C11.5295 15.6542 11.3105 14.8476 10.871 14.1562C10.4315 13.4647 9.80886 12.9325 9.0003 12.5607C8.19175 12.1889 7.23317 12.0023 6.12323 12.0023H0V25.854H3.58207V21.1129H5.41691L8.12669 25.854H12.0354L8.96047 20.5806C9.77699 20.2321 10.409 19.7245 10.8551 19.0592H10.8564ZM3.58207 14.6994H5.34787C5.88292 14.6994 6.33433 14.7708 6.7021 14.9121C7.06854 15.0547 7.34602 15.266 7.53455 15.5486C7.72308 15.8298 7.81735 16.1851 7.81735 16.6145C7.81735 17.0439 7.72308 17.3938 7.53455 17.6668C7.34602 17.9398 7.06987 18.1428 6.70608 18.2759C6.3423 18.4089 5.88956 18.4748 5.3492 18.4748H3.58339V14.7008L3.58207 14.6994Z" fill="#1F1F1F"/>
<path d="M13.4918 25.8526H23.8264V23.1336H17.0739V20.287H23.298V17.5611H17.0739V14.72H23.8264V12.001H13.4918V25.8526Z" fill="#1F1F1F"/>
<path d="M36.5402 19.1497C36.1565 18.8068 35.6839 18.5118 35.121 18.2635C34.558 18.0152 33.9114 17.8176 33.1772 17.6681L31.9027 17.3979C31.5654 17.3306 31.2614 17.2511 30.9906 17.1605C30.7197 17.07 30.49 16.9657 30.2988 16.8464C30.1077 16.727 29.9629 16.5885 29.8647 16.4307C29.7651 16.2729 29.7213 16.0905 29.7306 15.8833C29.7359 15.6309 29.8156 15.4059 29.9696 15.2097C30.1236 15.0136 30.3559 14.8585 30.6639 14.7461C30.9733 14.6336 31.3583 14.5773 31.8217 14.5773C32.5214 14.5773 33.0604 14.7159 33.4388 14.993C33.8172 15.2701 34.0309 15.657 34.0787 16.1536H37.5094C37.5001 15.2921 37.2612 14.5348 36.7925 13.8804C36.3238 13.226 35.6666 12.7184 34.8209 12.3549C33.9738 11.9914 32.9768 11.8103 31.8283 11.8103C30.6799 11.8103 29.7027 11.9914 28.8251 12.3522C27.9475 12.713 27.2598 13.2151 26.7619 13.8598C26.2654 14.5046 26.0184 15.2564 26.0237 16.1124C26.0184 17.1633 26.3862 17.996 27.1244 18.612C27.8626 19.2279 28.8729 19.6724 30.1568 19.9482L31.7062 20.2856C32.2465 20.4036 32.6913 20.5298 33.0418 20.6684C33.3923 20.8056 33.6512 20.9688 33.8198 21.1554C33.9884 21.3433 34.0747 21.5669 34.0801 21.829C34.0747 22.1088 33.9805 22.3571 33.7986 22.5725C33.6154 22.7893 33.3538 22.958 33.0126 23.0801C32.6727 23.2022 32.2611 23.2626 31.7792 23.2626C31.2534 23.2626 30.7914 23.1857 30.3931 23.0335C29.9948 22.8798 29.6828 22.6548 29.4558 22.3571C29.2287 22.0594 29.1013 21.6877 29.0721 21.2404H25.6414C25.656 22.3228 25.9188 23.2187 26.43 23.9252C26.9412 24.6331 27.6581 25.1612 28.5795 25.5083C29.5009 25.8554 30.583 26.0282 31.8217 26.0282C33.0604 26.0282 34.1119 25.8622 34.9882 25.5275C35.8631 25.1941 36.5363 24.714 37.0036 24.0871C37.4723 23.4601 37.7086 22.7097 37.7126 21.8345C37.7073 21.2802 37.6064 20.7795 37.4085 20.3323C37.2107 19.8864 36.9199 19.4913 36.5363 19.1484L36.5402 19.1497Z" fill="#1F1F1F"/>
<path d="M51.5762 12.001H39.0482V14.72H43.5504V25.8526H47.082V14.72H51.5762V12.001Z" fill="#1F1F1F"/>
<path d="M55.8394 12.001L50.838 25.8526H54.6883L55.6641 22.9443H60.7823L61.7595 25.8526H65.6097L60.6084 12.001H55.8394ZM56.5165 20.4022L58.1628 15.4923H58.2783L59.9286 20.4022H56.5165Z" fill="#1F1F1F"/>
<path d="M76.178 20.6451C76.178 21.1225 76.0638 21.5491 75.8368 21.9236C75.6098 22.2981 75.2951 22.5917 74.8928 22.803C74.4892 23.0143 74.0205 23.1213 73.4842 23.1213C72.9478 23.1213 72.4791 23.0143 72.0728 22.803C71.6679 22.5904 71.3519 22.2981 71.1275 21.9236C70.9032 21.5491 70.7903 21.1225 70.7903 20.6451V12.001H67.2083V20.9359C67.2083 21.9689 67.4685 22.8661 67.9902 23.6302C68.512 24.3957 69.2422 24.9856 70.1836 25.4027C71.1249 25.8197 72.2242 26.0282 73.4842 26.0282C74.7441 26.0282 75.8222 25.8197 76.7635 25.4027C77.7048 24.9856 78.4377 24.3957 78.9635 23.6302C79.4892 22.8661 79.7521 21.9675 79.7521 20.9359V12.001H76.1767V20.6451H76.178Z" fill="#1F1F1F"/>
<path d="M92.8549 19.0592C93.3037 18.3897 93.5281 17.5748 93.5281 16.6145C93.5281 15.6542 93.3077 14.8476 92.8695 14.1562C92.4301 13.4647 91.8061 12.9325 90.9988 12.5607C90.1903 12.1889 89.2304 12.0023 88.1204 12.0023H81.9985V25.854H85.5806V21.1129H87.4168L90.1266 25.854H94.0352L90.9603 20.5806C91.7769 20.2308 92.4088 19.7245 92.8563 19.0592H92.8549ZM85.5793 14.6994H87.3451C87.8801 14.6994 88.3329 14.7708 88.6993 14.9121C89.0658 15.0547 89.3432 15.266 89.5304 15.5486C89.719 15.8298 89.8119 16.1851 89.8119 16.6145C89.8119 17.0439 89.7176 17.3938 89.5304 17.6668C89.3419 17.9398 89.0657 18.1428 88.702 18.2759C88.3369 18.4089 87.8841 18.4748 87.3438 18.4748H85.5779V14.7008L85.5793 14.6994Z" fill="#1F1F1F"/>
<path d="M99.8451 12.001L94.8438 25.8526H98.6953L99.6712 22.9443H104.789L105.767 25.8526H109.618L104.617 12.001H99.8478H99.8451ZM100.522 20.4022L102.169 15.4923H102.284L103.934 20.4022H100.522Z" fill="#1F1F1F"/>
<path d="M120.256 19.9824H120.133L114.3 12.001H111.215V25.8526H114.799V17.8588H114.892L120.791 25.8526H123.831V12.001H120.256V19.9824Z" fill="#1F1F1F"/>
<path d="M125.59 14.72H130.092V25.8526H133.624V14.72H138.119V12.001H125.59V14.72Z" fill="#1F1F1F"/>
<path d="M142.479 23.0636C142.101 22.7234 141.666 22.5533 141.173 22.5533C140.651 22.5533 140.206 22.7234 139.837 23.0636C139.468 23.4052 139.286 23.814 139.29 24.2914C139.286 24.7784 139.467 25.1941 139.837 25.5371C140.206 25.8787 140.651 26.0501 141.173 26.0501C141.506 26.0501 141.813 25.9706 142.096 25.8142C142.377 25.6564 142.607 25.4438 142.782 25.1776C142.959 24.9115 143.049 24.6165 143.053 24.2914C143.049 23.814 142.856 23.4052 142.478 23.0636H142.479Z" fill="#1F1F1F"/>
<path d="M145.147 10.3863C147.679 10.5235 154.792 10.8953 157.939 10.8953C161.086 10.8953 168.081 10.529 170.675 10.389C171.048 10.3685 171.209 9.89105 170.929 9.63725C170.179 8.95681 168.864 7.88676 167.095 6.91411C163.432 4.90159 159.934 4.68621 159.934 4.68621C159.934 4.68621 160.532 2.72308 160.704 1.75043C160.767 1.39923 160.273 0.0781288 157.8 0.0781288C156.371 0.0781288 155.038 0.945145 155.184 1.81902C155.319 2.62705 155.979 4.66975 155.979 4.66975C155.979 4.66975 152.503 4.97018 149.121 6.7344C147.19 7.74134 145.712 8.94995 144.908 9.67978C144.644 9.91986 144.794 10.3685 145.144 10.3877L145.147 10.3863Z" fill="#EE781F"/>
<path d="M174.939 14.3523L174.866 14.0985C174.632 13.2809 173.799 12.8145 173.008 13.0559L171.325 13.5704L170.887 11.2615C170.887 11.2615 163.045 11.7938 157.954 11.7938C152.862 11.7938 144.921 11.2615 144.921 11.2615L144.494 13.5265L142.951 13.0545C142.16 12.8131 141.328 13.2795 141.093 14.0972L141.02 14.351C140.787 15.1686 141.238 16.0274 142.03 16.2702L144.093 16.9012C144.138 18.6188 144.336 21.8056 145.167 23.8648C145.564 24.8484 146.879 30.2426 158.275 30.2426C168.737 30.2426 170.555 24.9472 170.887 24.0541C171.692 21.8852 171.783 18.6847 171.763 16.9314L173.93 16.2688C174.721 16.0274 175.172 15.1672 174.939 14.3496V14.3523Z" fill="#EE781F"/>
<path d="M155.386 13.5319C154.702 13.1546 153.891 12.9653 152.952 12.9653H147.774V25.9198H150.804V21.8975H152.862C153.82 21.8975 154.649 21.7137 155.347 21.3474C156.046 20.9811 156.583 20.4639 156.96 19.7944C157.339 19.1264 157.527 18.3444 157.527 17.4513C157.527 16.5582 157.341 15.7804 156.97 15.1082C156.599 14.436 156.071 13.9105 155.387 13.5333L155.386 13.5319ZM154.146 18.4912C153.986 18.7889 153.753 19.0193 153.445 19.184C153.137 19.3486 152.754 19.4309 152.298 19.4309H150.803V15.4909H152.298C152.75 15.4909 153.131 15.5705 153.442 15.731C153.753 15.8915 153.988 16.1179 154.146 16.4114C154.305 16.705 154.385 17.0507 154.385 17.4527C154.385 17.8546 154.305 18.1962 154.146 18.4939V18.4912Z" fill="white"/>
<path d="M168.098 15.5088V12.9668H159.358V25.9199H168.098V23.3778H162.387V20.715H167.652V18.1661H162.387V15.5088H168.098Z" fill="white"/>
<path d="M24.9145 39.9732C25.0186 39.9732 25.1109 40.0135 25.1913 40.0939L25.9437 40.9101C25.5273 41.4259 25.0139 41.821 24.4035 42.0954C23.7979 42.3698 23.0692 42.5071 22.2175 42.5071C21.4557 42.5071 20.7696 42.3769 20.1592 42.1167C19.5535 41.8565 19.0354 41.4945 18.6048 41.0308C18.1743 40.5671 17.843 40.0135 17.6112 39.37C17.3841 38.7264 17.2705 38.0238 17.2705 37.262C17.2705 36.4907 17.3935 35.7857 17.6396 35.1469C17.8856 34.5034 18.231 33.9498 18.6758 33.4861C19.1253 33.0224 19.66 32.6628 20.2799 32.4073C20.8997 32.147 21.5858 32.0169 22.3381 32.0169C23.0857 32.0169 23.7482 32.1399 24.3254 32.386C24.9074 32.632 25.4019 32.9538 25.8088 33.3513L25.1701 34.2384C25.1322 34.2952 25.0825 34.3449 25.021 34.3875C24.9642 34.4301 24.8838 34.4514 24.7797 34.4514C24.7087 34.4514 24.6354 34.4324 24.5597 34.3946C24.484 34.352 24.4012 34.3023 24.3112 34.2455C24.2213 34.184 24.1173 34.1178 23.999 34.0468C23.8807 33.9758 23.7434 33.912 23.5873 33.8552C23.4312 33.7937 23.249 33.744 23.0408 33.7061C22.8373 33.6635 22.6007 33.6423 22.331 33.6423C21.8721 33.6423 21.4509 33.7251 21.0677 33.8907C20.6891 34.0515 20.3627 34.2881 20.0882 34.6004C19.8138 34.908 19.6009 35.2865 19.4494 35.736C19.298 36.1808 19.2223 36.6895 19.2223 37.262C19.2223 37.8393 19.3028 38.3526 19.4636 38.8022C19.6293 39.2517 19.8516 39.6302 20.1308 39.9378C20.41 40.2453 20.7388 40.4819 21.1174 40.6475C21.4959 40.8084 21.9028 40.8888 22.3381 40.8888C22.5984 40.8888 22.8326 40.8746 23.0408 40.8462C23.2537 40.8179 23.4477 40.7729 23.6228 40.7114C23.8026 40.6499 23.9706 40.5718 24.1267 40.4772C24.2876 40.3778 24.4461 40.2571 24.6022 40.1152C24.6496 40.0726 24.6992 40.0395 24.7513 40.0158C24.8033 39.9874 24.8578 39.9732 24.9145 39.9732Z" fill="#3B82F6"/>
<path d="M40.4907 37.262C40.4907 38.0143 40.3653 38.7123 40.1145 39.3558C39.8685 39.9945 39.5184 40.5481 39.0641 41.0166C38.6099 41.485 38.0634 41.8517 37.4246 42.1167C36.7858 42.3769 36.0761 42.5071 35.2953 42.5071C34.5193 42.5071 33.8119 42.3769 33.1732 42.1167C32.5344 41.8517 31.9855 41.485 31.5265 41.0166C31.0723 40.5481 30.7198 39.9945 30.469 39.3558C30.2182 38.7123 30.0928 38.0143 30.0928 37.262C30.0928 36.5097 30.2182 35.8141 30.469 35.1753C30.7198 34.5318 31.0723 33.9758 31.5265 33.5074C31.9855 33.039 32.5344 32.6746 33.1732 32.4144C33.8119 32.1494 34.5193 32.0169 35.2953 32.0169C35.8158 32.0169 36.3055 32.0784 36.7645 32.2015C37.2235 32.3197 37.6446 32.4901 38.0279 32.7125C38.4111 32.9301 38.7542 33.1975 39.057 33.5145C39.3646 33.8268 39.6248 34.1769 39.8377 34.5649C40.0507 34.9529 40.2115 35.374 40.3204 35.8283C40.4339 36.2825 40.4907 36.7604 40.4907 37.262ZM38.5389 37.262C38.5389 36.6989 38.4632 36.195 38.3118 35.7502C38.1604 35.3007 37.9451 34.9198 37.6659 34.6075C37.3867 34.2952 37.0461 34.0563 36.6439 33.8907C36.2464 33.7251 35.7969 33.6423 35.2953 33.6423C34.7938 33.6423 34.3419 33.7251 33.9397 33.8907C33.5422 34.0563 33.2016 34.2952 32.9177 34.6075C32.6385 34.9198 32.4232 35.3007 32.2718 35.7502C32.1204 36.195 32.0447 36.6989 32.0447 37.262C32.0447 37.8251 32.1204 38.3314 32.2718 38.7809C32.4232 39.2256 32.6385 39.6042 32.9177 39.9165C33.2016 40.224 33.5422 40.4606 33.9397 40.6262C34.3419 40.7918 34.7938 40.8746 35.2953 40.8746C35.7969 40.8746 36.2464 40.7918 36.6439 40.6262C37.0461 40.4606 37.3867 40.224 37.6659 39.9165C37.9451 39.6042 38.1604 39.2256 38.3118 38.7809C38.4632 38.3314 38.5389 37.8251 38.5389 37.262Z" fill="#3B82F6"/>
<path d="M54.271 32.1305V42.3935H53.2915C53.1401 42.3935 53.0124 42.3698 52.9083 42.3225C52.8089 42.2705 52.7119 42.1853 52.6173 42.067L47.2586 35.225C47.287 35.5373 47.3012 35.8259 47.3012 36.0909V42.3935H45.6191V32.1305H46.6199C46.7003 32.1305 46.7689 32.1352 46.8257 32.1447C46.8872 32.1494 46.9393 32.1636 46.9818 32.1873C47.0292 32.2062 47.0741 32.2369 47.1167 32.2795C47.1593 32.3174 47.2066 32.3694 47.2586 32.4357L52.6386 39.3061C52.6244 39.1405 52.6125 38.9772 52.6031 38.8163C52.5936 38.6555 52.5889 38.5064 52.5889 38.3692V32.1305H54.271Z" fill="#3B82F6"/>
<path d="M66.747 33.699H63.6525V42.3935H61.7432V33.699H58.6487V32.1305H66.747V33.699Z" fill="#3B82F6"/>
<path d="M76.0632 38.5183L74.814 35.1043C74.7525 34.9529 74.6886 34.7731 74.6224 34.5649C74.5561 34.3567 74.4899 34.132 74.4236 33.8907C74.3621 34.132 74.2982 34.3591 74.232 34.572C74.1658 34.7802 74.1019 34.9624 74.0404 35.1185L72.7983 38.5183H76.0632ZM79.4345 42.3935H77.9582C77.7926 42.3935 77.6577 42.3533 77.5536 42.2728C77.4496 42.1877 77.3715 42.0836 77.3194 41.9606L76.5529 39.8668H72.3015L71.5349 41.9606C71.4971 42.0694 71.4238 42.1687 71.3149 42.2586C71.2061 42.3485 71.0712 42.3935 70.9104 42.3935H69.4199L73.4584 32.1305H75.4031L79.4345 42.3935Z" fill="#3B82F6"/>
<path d="M87.3169 40.903C87.6718 40.903 87.9699 40.8604 88.2112 40.7753C88.4526 40.6901 88.6442 40.5765 88.7861 40.4346C88.9328 40.2926 89.0369 40.127 89.0984 39.9378C89.1647 39.7485 89.1978 39.5474 89.1978 39.3345C89.1978 39.1121 89.1623 38.9133 89.0913 38.7383C89.0204 38.5585 88.9092 38.4071 88.7578 38.284C88.6063 38.1563 88.41 38.0593 88.1687 37.993C87.9321 37.9268 87.6458 37.8937 87.3099 37.8937H85.3864V40.903H87.3169ZM85.3864 33.6068V36.5735H86.9053C87.5583 36.5735 88.0504 36.4552 88.3816 36.2187C88.7175 35.9821 88.8855 35.6059 88.8855 35.0901C88.8855 34.5555 88.7341 34.1746 88.4313 33.9474C88.1284 33.7203 87.6553 33.6068 87.0118 33.6068H85.3864ZM87.0118 32.1305C87.6837 32.1305 88.2586 32.1944 88.7365 32.3221C89.2144 32.4499 89.6047 32.632 89.9075 32.8686C90.2151 33.1052 90.4399 33.3915 90.5818 33.7274C90.7238 34.0634 90.7947 34.4419 90.7947 34.863C90.7947 35.1043 90.7593 35.3362 90.6883 35.5586C90.6173 35.7762 90.5061 35.9821 90.3547 36.1761C90.208 36.3653 90.0187 36.538 89.7869 36.6942C89.5598 36.8503 89.2877 36.9828 88.9707 37.0917C90.3807 37.4087 91.0857 38.1705 91.0857 39.3771C91.0857 39.8124 91.0029 40.2146 90.8373 40.5836C90.6717 40.9527 90.4304 41.2721 90.1134 41.5418C89.7964 41.8068 89.406 42.015 88.9423 42.1664C88.4786 42.3178 87.9486 42.3935 87.3524 42.3935H83.4772V32.1305H87.0118Z" fill="#3B82F6"/>
<path d="M98.1885 42.3935H96.2721V32.1305H98.1885V42.3935Z" fill="#3B82F6"/>
<path d="M109.95 40.8178V42.3935H103.938V32.1305H105.847V40.8178H109.95Z" fill="#3B82F6"/>
<path d="M116.251 42.3935H114.335V32.1305H116.251V42.3935Z" fill="#3B82F6"/>
<path d="M131.114 37.262C131.114 38.0143 130.988 38.7052 130.738 39.3345C130.487 39.9638 130.134 40.5056 129.68 40.9598C129.226 41.414 128.679 41.7666 128.041 42.0173C127.402 42.2681 126.692 42.3935 125.911 42.3935H122.001V32.1305H125.911C126.692 32.1305 127.402 32.2582 128.041 32.5137C128.679 32.7645 129.226 33.117 129.68 33.5713C130.134 34.0208 130.487 34.5602 130.738 35.1895C130.988 35.8188 131.114 36.5097 131.114 37.262ZM129.155 37.262C129.155 36.6989 129.079 36.195 128.928 35.7502C128.781 35.3007 128.566 34.9222 128.282 34.6146C128.003 34.3023 127.662 34.0634 127.26 33.8978C126.862 33.7322 126.413 33.6494 125.911 33.6494H123.917V40.8746H125.911C126.413 40.8746 126.862 40.7918 127.26 40.6262C127.662 40.4606 128.003 40.224 128.282 39.9165C128.566 39.6042 128.781 39.2256 128.928 38.7809C129.079 38.3314 129.155 37.8251 129.155 37.262Z" fill="#3B82F6"/>
<path d="M141.202 38.5183L139.953 35.1043C139.892 34.9529 139.828 34.7731 139.762 34.5649C139.695 34.3567 139.629 34.132 139.563 33.8907C139.501 34.132 139.437 34.3591 139.371 34.572C139.305 34.7802 139.241 34.9624 139.18 35.1185L137.937 38.5183H141.202ZM144.574 42.3935H143.097C142.932 42.3935 142.797 42.3533 142.693 42.2728C142.589 42.1877 142.511 42.0836 142.459 41.9606L141.692 39.8668H137.441L136.674 41.9606C136.636 42.0694 136.563 42.1687 136.454 42.2586C136.345 42.3485 136.21 42.3935 136.05 42.3935H134.559L138.598 32.1305H140.542L144.574 42.3935Z" fill="#3B82F6"/>
<path d="M157.73 37.262C157.73 38.0143 157.604 38.7052 157.353 39.3345C157.103 39.9638 156.75 40.5056 156.296 40.9598C155.842 41.414 155.295 41.7666 154.656 42.0173C154.018 42.2681 153.308 42.3935 152.527 42.3935H148.616V32.1305H152.527C153.308 32.1305 154.018 32.2582 154.656 32.5137C155.295 32.7645 155.842 33.117 156.296 33.5713C156.75 34.0208 157.103 34.5602 157.353 35.1895C157.604 35.8188 157.73 36.5097 157.73 37.262ZM155.771 37.262C155.771 36.6989 155.695 36.195 155.544 35.7502C155.397 35.3007 155.182 34.9222 154.898 34.6146C154.619 34.3023 154.278 34.0634 153.876 33.8978C153.478 33.7322 153.029 33.6494 152.527 33.6494H150.533V40.8746H152.527C153.029 40.8746 153.478 40.7918 153.876 40.6262C154.278 40.4606 154.619 40.224 154.898 39.9165C155.182 39.6042 155.397 39.2256 155.544 38.7809C155.695 38.3314 155.771 37.8251 155.771 37.262Z" fill="#3B82F6"/>
</svg>
