<svg width="89" height="69" viewBox="0 0 89 69" fill="none" xmlns="http://www.w3.org/2000/svg">
<g opacity="0.8">
<path opacity="0.7" d="M81.372 53.368C78.4913 48.2302 59.5514 44.651 39.058 45.3715C18.5646 46.0921 4.28555 50.8461 7.16634 55.9839C10.0471 61.1217 28.9948 64.7009 49.4804 63.9804C69.9738 63.2598 84.2528 58.5058 81.372 53.368Z" fill="url(#paint0_radial_6878_75590)" fill-opacity="0.3"/>
</g>
<path d="M55.6479 51.0492C55.1171 51.245 54.5784 51.4173 54.0319 51.5661C53.4854 51.7149 52.9233 51.848 52.3534 51.9499C51.7835 52.0595 51.2057 52.1378 50.6202 52.2005C50.0347 52.2631 49.4413 52.2945 48.8324 52.3023C45.7018 52.3571 42.6649 51.7306 39.8543 50.5558C37.036 49.3731 34.4519 47.6344 32.2347 45.465C30.0175 43.2955 28.175 40.6953 26.84 37.8053C25.505 34.9152 24.6853 31.7354 24.5057 28.4068C24.4823 28.0152 24.4745 27.6158 24.4667 27.232C24.4589 25.5403 24.615 23.8956 24.9273 22.3214C25.263 20.6297 25.7861 19.0163 26.4575 17.4968C26.5512 17.2776 26.6527 17.0661 26.7542 16.8546C26.8556 16.6432 26.9649 16.4317 27.0742 16.2281C27.5505 15.3117 28.0892 14.4424 28.6825 13.62C29.0338 13.1344 29.4007 12.6645 29.7911 12.2102C30.3376 11.568 30.9231 10.965 31.5399 10.3932C32.2581 9.7275 33.0232 9.1166 33.8273 8.56836C31.9224 9.8763 30.0175 11.1843 28.1126 12.4922C26.6605 13.4869 25.3489 14.6773 24.1935 16.0166C23.038 17.3637 22.0465 18.8753 21.2502 20.5122C20.4539 22.1569 19.8449 23.9269 19.4702 25.7909C19.0877 27.6628 18.9393 29.6286 19.0408 31.665C19.2048 34.8761 19.9933 37.9384 21.2736 40.7188C22.5618 43.4991 24.334 46.0054 26.4809 48.0887C28.62 50.172 31.1183 51.848 33.8429 52.9837C36.5598 54.1115 39.503 54.7146 42.5321 54.6519C43.1177 54.6441 43.6954 54.6049 44.2653 54.5501C44.8352 54.4953 45.3973 54.4091 45.9438 54.3073C46.2014 54.2603 46.4591 54.2055 46.7167 54.1428C47.0056 54.0802 47.2866 54.0018 47.5677 53.9314C47.8643 53.8452 48.161 53.7591 48.4577 53.6651C48.6841 53.5946 48.9105 53.5163 49.1369 53.4301L55.6479 51.0492Z" fill="#37CD57"/>
<path d="M45.9358 4.98886C49.0039 5.05152 51.9628 5.7564 54.6718 6.97819C57.3731 8.19215 59.8479 9.92303 61.9558 12.0455C64.0637 14.1601 65.8281 16.6664 67.1162 19.4468C68.4044 22.2271 69.2163 25.2738 69.4427 28.4849C69.6613 31.696 69.2709 34.7662 68.3575 37.57C67.4441 40.3817 66.0154 42.9349 64.1652 45.0966C62.3149 47.266 60.043 49.0361 57.4589 50.2892C54.8592 51.5423 51.9472 52.2629 48.8322 52.3177C45.7016 52.3725 42.6646 51.746 39.8541 50.5712C37.0358 49.3885 34.4516 47.6498 32.2345 45.4803C30.0173 43.3109 28.1748 40.7107 26.8398 37.8206C25.5048 34.9306 24.6851 31.7508 24.5055 28.4222C24.3259 25.1015 24.81 21.9452 25.8327 19.0943C26.8476 16.2513 28.3934 13.7059 30.353 11.5912C32.3047 9.48444 34.6546 7.80055 37.3012 6.65708C39.94 5.52144 42.852 4.92621 45.9358 4.98886Z" fill="#37CD57"/>
<path opacity="0.7" d="M55.6479 51.0492C55.1171 51.245 54.5784 51.4173 54.0319 51.5661C53.4854 51.7149 52.9233 51.848 52.3534 51.9499C51.7835 52.0595 51.2057 52.1378 50.6202 52.2005C50.0347 52.2631 49.4413 52.2945 48.8324 52.3023C45.7018 52.3571 42.6649 51.7306 39.8543 50.5558C37.036 49.3731 34.4519 47.6344 32.2347 45.465C30.0175 43.2955 28.175 40.6953 26.84 37.8053C25.505 34.9152 24.6853 31.7354 24.5057 28.4068C24.4823 28.0152 24.4745 27.6158 24.4667 27.232C24.4589 25.5403 24.615 23.8956 24.9273 22.3214C25.263 20.6297 25.7861 19.0163 26.4575 17.4968C26.5512 17.2776 26.6527 17.0661 26.7542 16.8546C26.8556 16.6432 26.9649 16.4317 27.0742 16.2281C27.5505 15.3117 28.0892 14.4424 28.6825 13.62C29.0338 13.1344 29.4007 12.6645 29.7911 12.2102C30.3376 11.568 30.9231 10.965 31.5399 10.3932C32.2581 9.7275 33.0232 9.1166 33.8273 8.56836C31.9224 9.8763 30.0175 11.1843 28.1126 12.4922C26.6605 13.4869 25.3489 14.6773 24.1935 16.0166C23.038 17.3637 22.0465 18.8753 21.2502 20.5122C20.4539 22.1569 19.8449 23.9269 19.4702 25.7909C19.0877 27.6628 18.9393 29.6286 19.0408 31.665C19.2048 34.8761 19.9933 37.9384 21.2736 40.7188C22.5618 43.4991 24.334 46.0054 26.4809 48.0887C28.62 50.172 31.1183 51.848 33.8429 52.9837C36.5598 54.1115 39.503 54.7146 42.5321 54.6519C43.1177 54.6441 43.6954 54.6049 44.2653 54.5501C44.8352 54.4953 45.3973 54.4091 45.9438 54.3073C46.2014 54.2603 46.4591 54.2055 46.7167 54.1428C47.0056 54.0802 47.2866 54.0018 47.5677 53.9314C47.8643 53.8452 48.161 53.7591 48.4577 53.6651C48.6841 53.5946 48.9105 53.5163 49.1369 53.4301L55.6479 51.0492Z" fill="url(#paint1_linear_6878_75590)"/>
<g opacity="0.1">
<path d="M45.9358 4.98886C49.0039 5.05152 51.9628 5.7564 54.6718 6.97819C57.3731 8.19215 59.8479 9.92303 61.9558 12.0455C64.0637 14.1601 65.8281 16.6664 67.1162 19.4468C68.4044 22.2271 69.2163 25.2738 69.4427 28.4849C69.6613 31.696 69.2709 34.7662 68.3575 37.57C67.4441 40.3817 66.0154 42.9349 64.1652 45.0966C62.3149 47.266 60.043 49.0361 57.4589 50.2892C54.8592 51.5423 51.9472 52.2629 48.8322 52.3177C45.7016 52.3725 42.6646 51.746 39.8541 50.5712C37.0358 49.3885 34.4516 47.6498 32.2345 45.4803C30.0173 43.3109 28.1748 40.7107 26.8398 37.8206C25.5048 34.9306 24.6851 31.7508 24.5055 28.4222C24.3259 25.1015 24.81 21.9452 25.8327 19.0943C26.8476 16.2513 28.3934 13.7059 30.353 11.5912C32.3047 9.48444 34.6546 7.80055 37.3012 6.65708C39.94 5.52144 42.852 4.92621 45.9358 4.98886Z" fill="url(#paint2_linear_6878_75590)"/>
</g>
<g opacity="0.4">
<path d="M55.6478 51.0491C54.992 51.2997 54.3284 51.5347 53.6492 51.7227C53.4775 51.7696 53.3135 51.8166 53.1418 51.8636L52.6265 51.9811L52.3689 52.0438L52.1112 52.0908L51.596 52.1847C51.4242 52.2161 51.2446 52.2396 51.0729 52.2631L50.8075 52.3022L50.6747 52.3179L50.6435 52.3257H50.6045L50.542 52.3335L50.0189 52.3884L49.7535 52.4119L49.4881 52.4275L48.9572 52.4589H48.8869H48.8557H48.8401H48.8167H48.6839H48.4185L47.8954 52.4667C47.8096 52.4667 47.7237 52.4667 47.63 52.4667L47.3646 52.451L46.8337 52.4275C46.6541 52.4197 46.4746 52.4119 46.3028 52.3884L45.7719 52.3335L45.5065 52.3101C45.4206 52.3022 45.3269 52.2944 45.241 52.2787L44.1871 52.1143L43.1488 51.895C41.7669 51.5738 40.4163 51.1118 39.1203 50.54C38.9564 50.4695 38.8003 50.399 38.6363 50.3285L38.1523 50.0936L37.6682 49.8586C37.5121 49.7725 37.356 49.6863 37.1998 49.6002L36.7314 49.3417L36.6143 49.2791L36.4972 49.2086L36.2708 49.0676L35.818 48.7856C35.7399 48.7387 35.6696 48.6917 35.5916 48.6447L35.373 48.4959C34.1941 47.697 33.0777 46.8041 32.055 45.8173L32.0082 45.7703L31.9847 45.7468L31.9691 45.739L31.9535 45.7233L31.8598 45.6293L31.6725 45.4414L31.3055 45.0654C31.2431 45.0028 31.1806 44.9401 31.1182 44.8775L30.9386 44.6738L30.5795 44.2744C30.3375 44.0081 30.1189 43.7262 29.8924 43.452C29.7832 43.3111 29.666 43.1779 29.5567 43.037L29.2367 42.6062C28.3857 41.4627 27.6284 40.2488 26.9726 38.98L26.5042 38.0166L26.4886 37.9853L26.4808 37.9696L26.473 37.9461L26.4496 37.8835L26.3949 37.766L26.2934 37.5232L26.0826 37.0376C26.0124 36.881 25.9499 36.7087 25.8875 36.5442L25.7001 36.043C25.5674 35.7062 25.4659 35.3694 25.3566 35.0248C24.9272 33.662 24.5993 32.2679 24.3885 30.8582L24.2636 29.793C24.248 29.7069 24.248 29.6129 24.2402 29.5267L24.2246 29.2604L24.1855 28.7279L24.1699 28.4616V28.4459V28.4224V28.3911V28.3284V28.1953L24.1543 27.6705L24.1465 27.4043V27.2711V27.2555V27.2241V27.1928V27.1301L24.1621 26.6054L24.1777 26.0807C24.1777 25.9945 24.1855 25.9005 24.1933 25.8144L24.2167 25.5481L24.2558 25.0077L24.2792 24.7414C24.287 24.6552 24.3026 24.5612 24.3104 24.4751L24.3807 23.9425L24.4119 23.6762C24.4275 23.5901 24.4353 23.4961 24.451 23.4099L24.6461 22.3604L24.6617 22.2978L24.6774 22.2273L24.7086 22.102L24.7632 21.8435C24.8023 21.6712 24.8491 21.4989 24.8882 21.3266L24.9506 21.0682C24.974 20.982 24.9975 20.8959 25.0209 20.8097C25.0677 20.6374 25.1146 20.4651 25.1692 20.3006C25.3722 19.6192 25.6142 18.9457 25.8875 18.2878L25.9889 18.045C26.0202 17.9667 26.0592 17.8805 26.0982 17.8022L26.2075 17.5594L26.2622 17.4341L26.3246 17.3088L26.551 16.831L26.5823 16.7684L26.6135 16.7136L26.676 16.5961L26.8009 16.3611L26.8633 16.2436L26.8946 16.1888L26.9102 16.1497L26.9258 16.1183L27.0585 15.8912C27.1444 15.7346 27.2303 15.5858 27.3239 15.4291C27.5113 15.1237 27.6909 14.8182 27.8939 14.5284C27.9953 14.3796 28.089 14.2308 28.1905 14.0898L28.5028 13.6591L28.5809 13.5494L28.6667 13.4398L28.8307 13.2283L29.1586 12.8132L29.5021 12.406L29.6739 12.2023L29.7129 12.1553C29.7285 12.1318 29.7441 12.124 29.7597 12.1083L29.8456 12.0144C29.9627 11.8891 30.0798 11.7559 30.2047 11.6306L30.5795 11.2468C31.0791 10.7534 31.61 10.2757 32.1487 9.83707C32.6952 9.39064 33.2729 8.98338 33.8584 8.59961C33.2963 9.01471 32.742 9.4533 32.2267 9.92322C32.094 10.0407 31.9691 10.1582 31.8364 10.2835L31.6412 10.4636C31.5788 10.5185 31.5163 10.5889 31.4539 10.6438C31.204 10.8866 30.962 11.145 30.72 11.3956L30.3687 11.7872C30.2516 11.9204 30.1423 12.0535 30.0252 12.1867L29.9393 12.2885C29.9237 12.3041 29.9081 12.3198 29.9003 12.3355L29.8612 12.3903L29.6973 12.5939L29.3772 13.0012L29.0649 13.4241L28.9088 13.6356L28.8307 13.7374L28.7604 13.8471L28.4716 14.2856C28.3779 14.4266 28.2842 14.5833 28.1905 14.7321C28.0032 15.0297 27.8392 15.3273 27.6596 15.6328C27.5738 15.7816 27.4957 15.946 27.4098 16.0948L27.2849 16.3298L27.2693 16.3611C27.2771 16.3533 27.2693 16.369 27.2615 16.369L27.2537 16.3846L27.2225 16.4473L27.1678 16.5648L27.0507 16.7997L26.996 16.9172L26.9648 16.9799L26.9414 17.0347L26.7228 17.5203L26.6682 17.6377L26.6213 17.7552L26.5198 17.998C26.4886 18.0763 26.4496 18.1547 26.4183 18.2408L26.3246 18.4836C26.0826 19.1337 25.8562 19.7915 25.6689 20.4651C25.622 20.6296 25.583 20.8019 25.5361 20.9664C25.5127 21.0525 25.4893 21.1308 25.4737 21.217L25.4112 21.4676C25.3722 21.6321 25.3332 21.8044 25.3019 21.9767L25.2473 22.2351L25.2239 22.3604L25.216 22.3918V22.4074V22.4231L25.2082 22.4858L25.0443 23.5118C25.0287 23.5979 25.0209 23.6841 25.0131 23.7702L24.9818 24.0287L24.9272 24.5456L24.896 24.804L24.8803 25.0625L24.8491 25.5794L24.8335 25.8379C24.8257 25.924 24.8179 26.0102 24.8179 26.0963L24.8101 26.6211L24.8023 27.1458V27.2085V27.2398V27.2555L24.8101 27.3886L24.8179 27.6549L24.8335 28.1796L24.8413 28.3128V28.3754V28.4068V28.4303L24.8647 28.6887L24.9116 29.2056L24.935 29.4641C24.9428 29.5502 24.9506 29.6364 24.9584 29.7225L25.0989 30.7564C25.3175 32.127 25.6298 33.4819 26.0592 34.7977C26.1685 35.1266 26.27 35.4634 26.3949 35.7767L26.5823 36.2623C26.6447 36.4267 26.6994 36.5834 26.7775 36.7479L26.9882 37.2334L27.0975 37.4762L27.1522 37.5937L27.1756 37.6564C27.1756 37.6564 27.1834 37.672 27.1756 37.6642L27.1834 37.6799L27.199 37.7112L27.6596 38.6432C28.292 39.8728 29.0259 41.0555 29.8456 42.1754L30.1579 42.5905C30.2594 42.7315 30.3765 42.8646 30.4858 42.9978C30.7044 43.2641 30.9152 43.5382 31.1494 43.7967L31.4929 44.1804L31.6646 44.3762C31.7193 44.4389 31.7896 44.5015 31.8442 44.5642L32.2111 44.9401L32.3907 45.1281L32.4844 45.2221L32.5703 45.3082C33.5539 46.2794 34.6313 47.1644 35.7711 47.9555L35.9819 48.1043C36.0522 48.1513 36.1303 48.1982 36.2005 48.2452L36.6377 48.5272L36.8563 48.6682L36.9656 48.7387L37.0749 48.8013L37.5277 49.0598C37.676 49.1459 37.8244 49.2399 37.9805 49.3182L38.4411 49.5532L38.9017 49.796C39.0579 49.8743 39.2218 49.9448 39.378 50.0153C40.6349 50.6027 41.9465 51.0726 43.2893 51.425C44.6321 51.7853 46.0139 51.9968 47.3958 52.0908L47.6534 52.1143C47.7393 52.1221 47.8252 52.1221 47.9189 52.1221L48.4419 52.1377L48.7074 52.1456H48.8401H48.8557H48.8713H48.9025H48.965L49.4881 52.1377L49.7457 52.1299L50.0111 52.1143L50.5342 52.0829L50.5967 52.0751H50.6279H50.6591L50.7918 52.0594L51.0495 52.0359C51.2212 52.0203 51.393 52.0046 51.5725 51.9811L52.0956 51.9028L52.3532 51.8636L52.6109 51.8166L53.1261 51.7227C53.2979 51.6913 53.4696 51.6443 53.6414 51.6052C54.305 51.4642 54.9842 51.2606 55.6478 51.0491Z" fill="url(#paint3_linear_6878_75590)"/>
</g>
<path d="M50.7998 31.6644C50.8076 31.6566 50.8154 31.6566 50.8232 31.6488C50.831 31.6409 50.8388 31.6409 50.8466 31.6331C50.8544 31.6253 50.8622 31.6174 50.8622 31.6174C50.9325 31.5391 51.0262 31.4216 51.1355 31.2807C51.237 31.1397 51.3463 30.983 51.4556 30.8264C51.5571 30.6776 51.6585 30.5288 51.7288 30.4113C51.8069 30.2938 51.8615 30.2077 51.8771 30.1842C51.885 30.1763 51.885 30.1607 51.9006 30.145C51.9084 30.1294 51.924 30.1059 51.9474 30.0824C51.9708 30.0589 51.9942 30.0354 52.0177 30.0119C52.0489 29.9884 52.0801 29.9649 52.1192 29.9492C51.6429 30.1842 51.1745 30.4191 50.6983 30.6541C50.6593 30.6698 50.628 30.6933 50.5968 30.7168C50.5656 30.7403 50.5421 30.7637 50.5265 30.7872C50.5031 30.8107 50.4875 30.8342 50.4797 30.8499C50.4719 30.8656 50.4641 30.8812 50.4563 30.8891C50.4407 30.9204 50.386 30.9987 50.3079 31.1162C50.2299 31.2337 50.1362 31.3746 50.0347 31.5313C49.9332 31.6801 49.8239 31.8367 49.7224 31.9777C49.6209 32.1187 49.5272 32.2362 49.457 32.3145C49.4492 32.3223 49.4414 32.3301 49.4414 32.3301C49.4335 32.338 49.4257 32.338 49.4179 32.3458C49.4101 32.3536 49.4023 32.3536 49.3945 32.3615C49.3867 32.3693 49.3789 32.3693 49.3711 32.3771C49.8395 32.15 50.3079 31.9151 50.7842 31.6879C50.7842 31.6723 50.792 31.6644 50.7998 31.6644Z" fill="#C6C6C6"/>
<path d="M59.7469 28.3269C59.6454 26.737 59.2394 25.2254 58.6071 23.8548C57.9669 22.4764 57.0925 21.2389 56.0464 20.1894C54.9924 19.1399 53.7667 18.2941 52.4239 17.6989C51.0811 17.1036 49.6212 16.7668 48.0988 16.7512C47.607 16.7434 47.1229 16.7747 46.6545 16.8373C46.1861 16.9 45.7177 16.994 45.2727 17.1115C44.8277 17.2368 44.3905 17.3856 43.9689 17.5657C43.5473 17.7458 43.1414 17.9573 42.751 18.1923C42.306 18.4586 41.8532 18.7327 41.4082 18.999C41.7986 18.764 42.1967 18.5604 42.6183 18.3802C43.0321 18.2001 43.4693 18.0513 43.9143 17.926C44.25 17.832 44.5857 17.7615 44.937 17.6989C45.0541 17.6832 45.1712 17.6597 45.2883 17.644C45.7567 17.5814 46.2329 17.5579 46.7248 17.5579C48.2315 17.5735 49.6758 17.9025 51.0108 18.4899C52.3458 19.0773 53.5637 19.9231 54.6021 20.957C55.6404 21.9908 56.5148 23.2283 57.1471 24.591C57.7795 25.9538 58.1777 27.4575 58.2792 29.0318C58.3572 30.2379 58.2557 31.4049 57.9903 32.5014C57.7327 33.5978 57.3111 34.6317 56.7646 35.5637C56.2181 36.4957 55.5311 37.3337 54.7426 38.0464C53.9463 38.7591 53.0485 39.3465 52.057 39.7773C52.5332 39.5658 53.0094 39.3622 53.4935 39.1507C54.4928 38.7121 55.3984 38.1247 56.1947 37.4042C56.991 36.6915 57.678 35.8456 58.2323 34.9058C58.7866 33.9659 59.2004 32.9321 59.4658 31.82C59.7235 30.7157 59.825 29.5409 59.7469 28.3269Z" fill="#C6C6C6"/>
<path d="M41.7123 23.6747C41.7982 23.3928 41.9153 23.1108 42.0558 22.8602C42.1963 22.6096 42.3525 22.3746 42.5164 22.1866C42.6804 21.9987 42.8599 21.842 43.0239 21.748C42.7975 21.8812 42.5711 22.0065 42.3447 22.1396C42.1417 22.2571 41.9465 22.3746 41.7435 22.4921L41.6732 22.5312C41.642 22.5469 41.6108 22.5704 41.5874 22.5861C41.4468 22.6801 41.3063 22.8132 41.1736 22.962C41.1502 22.9855 41.1346 23.009 41.1111 23.0325C40.9706 23.2048 40.8301 23.4084 40.713 23.6277C40.5725 23.8784 40.4554 24.1525 40.3773 24.4344C40.2914 24.7164 40.2446 25.0062 40.2368 25.2881C40.229 25.5936 40.229 25.8677 40.2602 26.1418C40.2914 26.4238 40.3461 26.6979 40.4554 27.019C40.5647 27.3323 40.7208 27.6925 40.955 28.1076C41.1892 28.5306 41.4937 29.0162 41.8918 29.6114C42.2666 30.1596 42.6725 30.6687 43.0629 31.123C43.4611 31.5772 43.8514 31.9767 44.1949 32.3134C44.5462 32.6502 44.8507 32.9243 45.0849 33.1201C45.3191 33.3159 45.4831 33.4412 45.5377 33.4804C45.7017 33.6057 45.8656 33.731 46.0374 33.8485C46.2091 33.966 46.3809 34.0835 46.5526 34.1931C46.7244 34.3028 46.9039 34.4046 47.0835 34.5064C47.2631 34.6082 47.4426 34.7022 47.6222 34.7883C47.8798 34.9137 48.1609 35.0468 48.4575 35.1721C48.7542 35.2974 49.0587 35.4227 49.371 35.5246C49.6833 35.6264 50.0033 35.7204 50.3234 35.783C50.6435 35.8457 50.9636 35.877 51.2759 35.877C51.2993 35.877 51.3227 35.877 51.3461 35.877C51.3696 35.877 51.393 35.877 51.4164 35.877C51.4398 35.877 51.4632 35.877 51.4867 35.877C51.5101 35.877 51.5335 35.877 51.5569 35.8692C51.6897 35.8613 51.8068 35.8457 51.9239 35.8222C52.041 35.8065 52.1503 35.783 52.2518 35.7517C52.3532 35.7282 52.4547 35.6969 52.5484 35.6655C52.6421 35.6342 52.728 35.595 52.8139 35.5559C53.2901 35.3366 53.7741 35.1173 54.2504 34.8902C54.1645 34.9293 54.0786 34.9685 53.9849 34.9998C53.8912 35.0311 53.7897 35.0625 53.6882 35.0938C53.5868 35.1173 53.4697 35.1408 53.3525 35.1643C53.2354 35.1799 53.1105 35.1956 52.9856 35.2113C52.9622 35.2113 52.9388 35.2113 52.9154 35.2191C52.8919 35.2269 52.8685 35.2191 52.8451 35.2191C52.8217 35.2191 52.7982 35.2191 52.7748 35.2191C52.7514 35.2191 52.728 35.2191 52.7046 35.2191C52.3923 35.2191 52.0644 35.1878 51.7443 35.1251C51.4242 35.0625 51.0963 34.9763 50.784 34.8667C50.4718 34.7648 50.1595 34.6395 49.8628 34.5142C49.5661 34.3889 49.2851 34.2558 49.0197 34.1226C48.8323 34.0365 48.6527 33.9347 48.4732 33.8407C48.2936 33.7389 48.114 33.637 47.9423 33.5274C47.7705 33.4177 47.591 33.3003 47.4192 33.1828C47.2475 33.0653 47.0835 32.94 46.9118 32.8068C46.8571 32.7677 46.6932 32.6424 46.4589 32.4387C46.2247 32.2351 45.9125 31.961 45.5611 31.6242C45.2098 31.2874 44.8195 30.8802 44.4135 30.4259C44.0154 29.9717 43.6094 29.4547 43.2268 28.9065C42.8209 28.3113 42.5164 27.8179 42.2822 27.3949C42.048 26.972 41.8918 26.6117 41.7825 26.2984C41.6732 25.9773 41.6186 25.6954 41.5874 25.4134C41.5561 25.1315 41.5561 24.8574 41.564 24.5519C41.5718 24.2465 41.6264 23.9567 41.7123 23.6747Z" fill="#C6C6C6"/>
<path d="M52.1109 42.4096C51.7206 42.488 51.3146 42.5584 50.9086 42.5976C50.5027 42.6446 50.0889 42.6681 49.6673 42.6681C49.0896 42.6759 48.5197 42.6446 47.942 42.5741C47.3721 42.5036 46.7943 42.394 46.2322 42.253C45.6701 42.112 45.108 41.9319 44.5615 41.7126C44.015 41.4933 43.4764 41.2427 42.9533 40.9529L35.8333 42.8717L37.1605 35.259C36.8482 34.7264 36.575 34.1782 36.3251 33.6221C36.0831 33.0582 35.8723 32.4865 35.6928 31.8991C35.5132 31.3117 35.3727 30.7164 35.2712 30.1134C35.1619 29.5103 35.0916 28.9072 35.0604 28.2963C34.9901 26.9727 35.0916 25.6883 35.3414 24.4743C35.5991 23.2604 36.005 22.1091 36.5437 21.0517C37.0824 19.9944 37.7538 19.0233 38.5345 18.1696C39.3152 17.3159 40.1974 16.5718 41.1811 15.9609C40.7361 16.2351 40.2989 16.5092 39.8539 16.7911C39.1279 17.2454 38.4486 17.7701 37.8319 18.3654C37.6289 18.5612 37.4259 18.7648 37.2307 18.9763C36.5515 19.7203 35.9582 20.5505 35.4586 21.4433C35.3883 21.5687 35.318 21.7018 35.2556 21.8349C34.7169 22.8844 34.3109 24.0279 34.0611 25.2262C33.8893 26.0564 33.7879 26.9179 33.7566 27.8029C33.7488 28.2024 33.7488 28.6096 33.7722 29.0247C33.8035 29.6278 33.8737 30.2309 33.983 30.8261C34.0845 31.4213 34.225 32.0087 34.4046 32.5961C34.5764 33.1757 34.7871 33.7474 35.0292 34.3035C35.2712 34.8596 35.5444 35.4078 35.8567 35.9326L34.5373 43.4748L41.6027 41.5716C42.1179 41.8536 42.6566 42.1042 43.1953 42.3235C43.7418 42.5349 44.2883 42.7151 44.8504 42.8561C45.4125 42.997 45.9746 43.1067 46.5445 43.1693C47.1144 43.2398 47.6843 43.2712 48.2543 43.2633C48.668 43.2555 49.0818 43.232 49.4878 43.1928C49.8937 43.1458 50.2919 43.0832 50.6822 43.0049C51.0726 42.9265 51.4551 42.8247 51.8299 42.7072C51.9392 42.6759 52.0407 42.6368 52.15 42.6054C52.3451 42.5349 52.5481 42.4645 52.7355 42.3861C52.7979 42.3626 52.8604 42.3391 52.9229 42.3078L54.3672 41.7048C54.008 41.8536 53.6411 41.9867 53.2586 42.1042C52.8916 42.2295 52.5013 42.3313 52.1109 42.4096Z" fill="#C6C6C6"/>
<path d="M55.8498 31.6403C55.8185 31.5933 55.7795 31.5463 55.7405 31.515C55.6936 31.4759 55.6468 31.4445 55.5921 31.4132C55.5843 31.4054 55.5765 31.4054 55.5687 31.3975C55.5609 31.3897 55.5531 31.3897 55.5453 31.3819C55.5375 31.374 55.5297 31.374 55.5219 31.3662C55.5141 31.3584 55.5062 31.3505 55.4906 31.3505C55.4282 31.3035 55.2486 31.2096 55.0144 31.0843C54.7802 30.9589 54.4835 30.8101 54.1791 30.6613C53.8746 30.5125 53.5623 30.3559 53.2969 30.2306C53.0314 30.1053 52.805 30.0034 52.6801 29.9564C52.6567 29.9486 52.6255 29.9329 52.602 29.9251C52.5786 29.9173 52.5474 29.9094 52.524 29.9016C52.5005 29.8938 52.4771 29.8938 52.4459 29.886C52.4225 29.886 52.3991 29.8781 52.3756 29.886C52.2898 29.886 52.2195 29.9016 52.157 29.9251C52.0946 29.9486 52.0477 29.9799 52.0009 30.0191C51.9619 30.0504 51.9306 30.0896 51.9072 30.1209C51.8838 30.1522 51.8682 30.1757 51.8682 30.1836C51.8526 30.2149 51.7979 30.2932 51.7198 30.4107C51.6418 30.5282 51.5481 30.6692 51.4466 30.8258C51.3451 30.9746 51.2358 31.1391 51.1265 31.2801C51.025 31.421 50.9313 31.5385 50.8533 31.6168C50.8377 31.6325 50.822 31.6482 50.8064 31.656C50.7908 31.6638 50.7752 31.6795 50.7518 31.6873C50.7362 31.6951 50.7127 31.703 50.6971 31.703C50.6737 31.703 50.6581 31.7108 50.6347 31.7108C50.5566 31.7108 50.4707 31.6951 50.3614 31.656C50.2599 31.6247 50.1428 31.5698 50.0023 31.5072C49.8696 31.4445 49.7212 31.3662 49.5573 31.2722C49.3934 31.1861 49.2138 31.0843 49.0108 30.9668L48.8156 30.8571C48.6048 30.7396 48.3941 30.5908 48.1833 30.442C47.9803 30.2854 47.7773 30.1209 47.5899 29.9486C47.4026 29.7841 47.2308 29.6118 47.0825 29.4552C46.9263 29.2986 46.7936 29.1576 46.6921 29.0401L46.6843 29.0323C46.6843 29.0244 46.6765 29.0244 46.6687 29.0166C46.6609 29.0088 46.6609 29.0088 46.6531 29.0009C46.6453 28.9931 46.6375 28.9853 46.6297 28.9774C46.6219 28.9696 46.6063 28.9539 46.5984 28.9461C46.5906 28.9383 46.5828 28.9226 46.5672 28.9148C46.5594 28.907 46.5516 28.8913 46.5438 28.8835C46.536 28.8756 46.5282 28.8678 46.5204 28.8521C46.4267 28.7425 46.3174 28.6015 46.2081 28.4605C46.0988 28.3196 45.9895 28.1629 45.8802 28.0141C45.7787 27.8653 45.6772 27.7243 45.5991 27.6068C45.5211 27.4894 45.4586 27.3875 45.4274 27.3171C45.4118 27.2857 45.4118 27.2466 45.4274 27.1996C45.443 27.1526 45.4742 27.0978 45.5133 27.0351C45.5523 26.9724 45.5991 26.9098 45.6538 26.8471C45.7084 26.7845 45.7631 26.714 45.8099 26.6513C45.849 26.6043 45.8802 26.5652 45.9192 26.5182C45.9583 26.4712 45.9895 26.432 46.0285 26.385C46.0598 26.3381 46.0988 26.2911 46.13 26.2441C46.1613 26.1971 46.1925 26.1501 46.2237 26.1031C46.3174 25.9543 46.372 25.8133 46.4033 25.688C46.4345 25.5627 46.4423 25.4452 46.4423 25.3512C46.4423 25.2572 46.4267 25.1789 46.4111 25.1241C46.3955 25.0693 46.3798 25.0379 46.3798 25.0301C46.3798 25.0223 46.3018 24.85 46.1847 24.5915C46.0676 24.3331 45.9114 23.9806 45.7475 23.6282C45.5835 23.2679 45.4118 22.9076 45.2713 22.6022C45.1307 22.3046 45.0214 22.0774 44.9668 21.9913C44.9277 21.9286 44.8731 21.866 44.8106 21.819C44.7404 21.7642 44.6623 21.725 44.5686 21.6858C44.4749 21.6467 44.3734 21.6232 44.2563 21.5997C44.1392 21.584 44.0143 21.5684 43.8894 21.5684C43.8426 21.5684 43.7879 21.5684 43.7333 21.5684C43.6786 21.5684 43.6318 21.5762 43.5771 21.584C43.5225 21.5919 43.4756 21.5997 43.421 21.6075C43.3663 21.6154 43.3195 21.6232 43.2648 21.6388C43.0853 21.678 42.8901 21.7955 42.6949 21.9756C42.4998 22.1558 42.3124 22.3907 42.1406 22.6648C41.9689 22.939 41.8284 23.2444 41.7191 23.5655C41.6098 23.8866 41.5473 24.2156 41.5395 24.5367C41.5317 24.8421 41.5317 25.1241 41.5629 25.3982C41.5941 25.6802 41.6488 25.9621 41.7581 26.2832C41.8674 26.6043 42.0235 26.9568 42.2577 27.3797C42.4919 27.8026 42.7964 28.2961 43.2024 28.8913C43.5771 29.4474 43.9831 29.9564 44.3891 30.4107C44.7872 30.865 45.1776 31.2722 45.5367 31.609C45.888 31.9458 46.2003 32.2199 46.4345 32.4235C46.6687 32.6272 46.8327 32.7525 46.8873 32.7916C47.0512 32.9248 47.223 33.0423 47.3948 33.1676C47.5665 33.285 47.7383 33.4025 47.9178 33.5122C48.0896 33.6218 48.2691 33.7315 48.4487 33.8255C48.6283 33.9273 48.8078 34.0213 48.9952 34.1074C49.2606 34.2327 49.5417 34.3737 49.8384 34.499C50.135 34.6243 50.4473 34.7496 50.7596 34.8514C51.0719 34.9533 51.3998 35.0472 51.7198 35.1099C52.0399 35.1726 52.3678 35.2117 52.6801 35.2039C52.7035 35.2039 52.727 35.2039 52.7504 35.2039C52.7738 35.2039 52.7972 35.2039 52.8206 35.2039C52.8441 35.2039 52.8675 35.2039 52.8909 35.2039C52.9143 35.2039 52.9377 35.2039 52.9612 35.1961C53.2578 35.1726 53.5155 35.1256 53.7497 35.0551C53.9839 34.9924 54.1869 34.9063 54.3664 34.8123C54.546 34.7183 54.7099 34.6087 54.8583 34.4912C55.0066 34.3737 55.1393 34.2562 55.2642 34.1309C55.4126 33.9821 55.5297 33.8098 55.6155 33.6218C55.7014 33.4339 55.7717 33.2381 55.8107 33.0423C55.8576 32.8465 55.881 32.6663 55.8966 32.5018C55.9122 32.3374 55.9122 32.1964 55.9122 32.0867C55.9122 31.9771 55.9044 31.8831 55.8888 31.8048C55.9044 31.75 55.881 31.6951 55.8498 31.6403Z" fill="white"/>
<path d="M62.2365 28.3119C62.1116 26.3695 61.6197 24.5133 60.8312 22.8216C60.0505 21.1377 58.9731 19.6105 57.6928 18.326C56.4046 17.0416 54.8979 15.9921 53.2506 15.2637C51.6033 14.5275 49.8077 14.1124 47.9496 14.0889C46.0838 14.0654 44.3194 14.4414 42.7345 15.1463C41.1419 15.8511 39.7288 16.8771 38.5578 18.1616C37.3867 19.446 36.4577 20.9811 35.8566 22.6963C35.2476 24.4115 34.9666 26.3069 35.0759 28.2962C35.1071 28.9071 35.1774 29.5102 35.2867 30.1132C35.396 30.7163 35.5365 31.3115 35.7082 31.8989C35.8878 32.4863 36.0986 33.0581 36.3406 33.622C36.5826 34.1859 36.8637 34.7341 37.176 35.2588L35.8488 42.8716L42.9688 40.9527C43.4918 41.2425 44.0305 41.4931 44.577 41.7124C45.1235 41.9317 45.6856 42.1119 46.2477 42.2528C46.8098 42.3938 47.3797 42.5035 47.9574 42.5739C48.5274 42.6444 49.1051 42.6758 49.6828 42.6679C51.5643 42.6444 53.3209 42.2215 54.8979 41.4775C56.4671 40.7334 57.8489 39.6683 58.981 38.3682C60.113 37.068 60.9952 35.5251 61.5573 33.8256C62.1116 32.126 62.3614 30.262 62.2365 28.3119ZM59.1761 32.8153C58.7155 34.2015 57.9895 35.4546 57.0682 36.512C56.147 37.5693 55.015 38.4386 53.7346 39.0339C52.4543 39.6369 51.0178 39.9816 49.4954 39.9972C49.4798 39.9972 49.4642 39.9972 49.4408 39.9972C49.4252 39.9972 49.4095 39.9972 49.3861 39.9972C49.3705 39.9972 49.3549 39.9972 49.3315 39.9972C49.3159 39.9972 49.3003 39.9972 49.2768 39.9972H49.1519C49.1441 39.9972 49.1363 39.9972 49.1285 39.9972C49.1207 39.9972 49.1129 39.9972 49.1051 39.9972C49.0973 39.9972 49.0895 39.9972 49.0817 39.9972C49.0738 39.9972 49.066 39.9972 49.0582 39.9972L48.9333 39.9894C48.9255 39.9894 48.9177 39.9894 48.9099 39.9894C48.9021 39.9894 48.8865 39.9894 48.8709 39.9894C48.8552 39.9894 48.8396 39.9894 48.8084 39.9894C48.785 39.9894 48.7538 39.9894 48.7147 39.9815C48.7069 39.9815 48.6991 39.9815 48.6913 39.9815C48.6835 39.9815 48.6757 39.9815 48.6601 39.9815C48.6445 39.9815 48.6288 39.9815 48.6132 39.9815C48.5898 39.9815 48.5664 39.9815 48.5352 39.9737C48.5274 39.9737 48.5195 39.9737 48.5039 39.9737C48.4961 39.9737 48.4883 39.9737 48.4727 39.9737C48.4649 39.9737 48.4571 39.9737 48.4415 39.9737C48.4337 39.9737 48.4259 39.9737 48.4102 39.9737L48.098 39.9424C48.0902 39.9424 48.0824 39.9424 48.0745 39.9424C48.0667 39.9424 48.0589 39.9424 48.0511 39.9424C48.0433 39.9424 48.0355 39.9424 48.0277 39.9424C48.0199 39.9424 48.0121 39.9424 48.0043 39.9424L47.8013 39.9111C47.7935 39.9111 47.7857 39.9111 47.7779 39.9111C47.7701 39.9111 47.7623 39.9111 47.7545 39.9111C47.7467 39.9111 47.7388 39.9111 47.731 39.9032C47.7232 39.9032 47.7154 39.9032 47.6998 39.8954C47.692 39.8954 47.6842 39.8954 47.6764 39.8876C47.6686 39.8876 47.6608 39.8876 47.653 39.8797C47.6452 39.8797 47.6374 39.8797 47.6295 39.8719C47.6217 39.8719 47.6139 39.8719 47.6061 39.8641C47.5983 39.8641 47.5905 39.8641 47.5827 39.8562C47.5749 39.8562 47.5671 39.8562 47.5593 39.8484C47.5515 39.8484 47.5437 39.8484 47.5359 39.8406C47.5281 39.8406 47.5202 39.8406 47.5124 39.8327C47.5046 39.8327 47.4968 39.8327 47.489 39.8327C47.4812 39.8327 47.4734 39.8327 47.4656 39.8249C47.4578 39.8249 47.45 39.8249 47.4422 39.8171C47.4344 39.8171 47.4266 39.8171 47.4188 39.8092L47.3095 39.7857C47.3017 39.7857 47.2938 39.7857 47.286 39.7779C47.2782 39.7779 47.2704 39.7779 47.2626 39.7701C47.2548 39.7701 47.247 39.7701 47.2392 39.7623C47.2314 39.7623 47.2236 39.7623 47.2158 39.7544C47.208 39.7544 47.2002 39.7544 47.1924 39.7466C47.1845 39.7466 47.1767 39.7466 47.1689 39.7388C47.1611 39.7388 47.1533 39.7388 47.1455 39.7309C47.1377 39.7309 47.1299 39.7309 47.1221 39.7231L47.005 39.6996C46.9972 39.6996 46.9894 39.6996 46.9816 39.6918C46.9738 39.6918 46.966 39.6918 46.9581 39.6839C46.9503 39.6839 46.9425 39.6839 46.9347 39.6761C46.9269 39.6761 46.9191 39.6683 46.9113 39.6683L46.4975 39.5586C46.4897 39.5586 46.4819 39.5586 46.4741 39.5508C46.4663 39.5508 46.4585 39.5508 46.4507 39.543C46.4429 39.543 46.4351 39.543 46.4351 39.5351C46.4273 39.5351 46.4195 39.5351 46.4195 39.5273L46.1228 39.4411C46.115 39.4411 46.1072 39.4333 46.0994 39.4333C46.0916 39.4333 46.0838 39.4255 46.076 39.4255C46.0681 39.4255 46.0603 39.4176 46.0525 39.4176C46.0447 39.4176 46.0369 39.4098 46.0291 39.4098L45.8339 39.3472C45.8261 39.3472 45.8183 39.3393 45.8105 39.3393C45.8027 39.3393 45.7949 39.3315 45.7871 39.3315C45.7793 39.3315 45.7715 39.3237 45.7637 39.3237C45.7559 39.3237 45.7481 39.3158 45.7403 39.3158C45.7324 39.3158 45.7246 39.308 45.7168 39.308C45.709 39.308 45.7012 39.3002 45.6934 39.3002C45.6856 39.3002 45.6778 39.2923 45.67 39.2923C45.6622 39.2923 45.6544 39.2845 45.6466 39.2845L45.5373 39.2453C45.5295 39.2453 45.5217 39.2375 45.5138 39.2375C45.506 39.2375 45.4982 39.2297 45.4904 39.2297C45.4826 39.2297 45.4748 39.2218 45.467 39.2218C45.4592 39.2218 45.4514 39.214 45.4436 39.214C45.4358 39.214 45.428 39.2062 45.428 39.2062C45.4202 39.2062 45.4124 39.1983 45.4124 39.1983C45.4045 39.1983 45.3967 39.1905 45.3889 39.1905C45.3811 39.1905 45.3733 39.1827 45.3655 39.1827L45.0688 39.0574C45.061 39.0574 45.0532 39.0495 45.0454 39.0495C45.0376 39.0495 45.0298 39.0417 45.022 39.0417C45.0142 39.0417 45.0064 39.0339 44.9986 39.0339C44.9908 39.0339 44.983 39.026 44.9752 39.026L44.6785 38.8929C44.6707 38.8929 44.6629 38.8851 44.6629 38.8851C44.6551 38.8851 44.6473 38.8772 44.6473 38.8772C44.6395 38.8772 44.6317 38.8694 44.6317 38.8694C44.6238 38.8694 44.616 38.8616 44.616 38.8616L44.538 38.8224C44.5302 38.8146 44.5224 38.8146 44.5145 38.8067C44.5067 38.7989 44.4989 38.7989 44.4911 38.7911C44.4833 38.7833 44.4755 38.7833 44.4677 38.7754C44.4599 38.7676 44.4521 38.7676 44.4443 38.7598L44.171 38.6188C44.1632 38.6109 44.1554 38.6109 44.1476 38.6031C44.1398 38.5953 44.132 38.5953 44.1164 38.5875C44.1008 38.5796 44.093 38.5718 44.0695 38.564C44.0539 38.5561 44.0305 38.5405 43.9993 38.5248C43.9915 38.517 43.9837 38.517 43.9759 38.5091C43.9681 38.5013 43.9602 38.5013 43.9524 38.4935C43.9446 38.4856 43.929 38.4856 43.9212 38.4778C43.9134 38.47 43.8978 38.4621 43.8822 38.4543C43.8431 38.4308 43.7963 38.4073 43.7573 38.376C43.7104 38.3525 43.6714 38.3212 43.6245 38.2977C43.5777 38.2742 43.5309 38.2428 43.484 38.2115C43.4372 38.1802 43.3825 38.1489 43.3357 38.1175L39.0262 39.2688L39.7913 34.6166C39.7367 34.5305 39.682 34.4443 39.6274 34.3582C39.5727 34.272 39.5181 34.1859 39.4634 34.0997C39.4088 34.0136 39.3541 33.9196 39.3073 33.8334C39.2526 33.7394 39.2058 33.6533 39.1511 33.5593C39.1433 33.5436 39.1355 33.5358 39.1277 33.5201C39.1199 33.5045 39.1121 33.4966 39.1043 33.481C39.0965 33.4653 39.0887 33.4575 39.0809 33.4418C39.0731 33.4262 39.0652 33.4183 39.0574 33.4027L38.9403 33.1755C38.9325 33.1677 38.9325 33.152 38.9247 33.1442C38.9169 33.1285 38.9091 33.1207 38.9091 33.105C38.9013 33.0894 38.8935 33.0737 38.8857 33.0581C38.8779 33.0424 38.8623 33.0189 38.8545 32.9954C38.8467 32.9876 38.8467 32.9719 38.8388 32.9641C38.831 32.9484 38.8232 32.9406 38.8154 32.9249C38.8076 32.9092 38.7998 32.8857 38.7842 32.8623C38.7764 32.8388 38.7608 32.8074 38.7452 32.7761C38.7452 32.7683 38.7374 32.7604 38.7374 32.7526C38.7374 32.7448 38.7295 32.7369 38.7295 32.7291C38.7295 32.7213 38.7217 32.7134 38.7217 32.7056C38.7217 32.6978 38.7139 32.6899 38.7139 32.6821L38.6827 32.6116C38.6827 32.6038 38.6749 32.596 38.6749 32.5881C38.6749 32.5803 38.6671 32.5725 38.6671 32.5646C38.6671 32.5568 38.6593 32.549 38.6593 32.5411C38.6593 32.5333 38.6515 32.5255 38.6515 32.5176L38.6046 32.408C38.5968 32.4002 38.5968 32.3845 38.589 32.3767C38.5812 32.3688 38.5812 32.3532 38.5734 32.3453C38.5656 32.3375 38.5656 32.3218 38.5578 32.314C38.55 32.3062 38.55 32.2905 38.5422 32.2827C38.5422 32.2749 38.5344 32.267 38.5344 32.267C38.5344 32.2592 38.5266 32.2514 38.5266 32.2514C38.5266 32.2435 38.5188 32.2357 38.5188 32.2279C38.5188 32.22 38.5109 32.2122 38.5109 32.2044C38.5109 32.1965 38.5031 32.1887 38.5031 32.1809C38.5031 32.173 38.4953 32.1652 38.4953 32.1574C38.4953 32.1495 38.4875 32.1417 38.4875 32.1339C38.4875 32.126 38.4797 32.1182 38.4797 32.1104L38.4329 31.9929C38.4329 31.9851 38.4251 31.9772 38.4251 31.9616C38.4251 31.9537 38.4173 31.9459 38.4173 31.9302C38.4173 31.9146 38.4095 31.9146 38.4095 31.8989C38.4095 31.8911 38.4017 31.8754 38.4017 31.8676C38.4017 31.8598 38.3938 31.8519 38.3938 31.8441C38.3938 31.8363 38.386 31.8284 38.386 31.8206C38.386 31.8128 38.3782 31.8049 38.3782 31.7971C38.3782 31.7893 38.3704 31.7814 38.3704 31.7736C38.3704 31.7658 38.3626 31.7579 38.3626 31.7423C38.3626 31.7344 38.3548 31.7266 38.3548 31.7109C38.3548 31.7031 38.347 31.6953 38.347 31.6796C38.347 31.6718 38.3392 31.664 38.3392 31.6483L38.2377 31.3507C38.2377 31.3428 38.2299 31.335 38.2299 31.3272C38.2299 31.3193 38.2221 31.3115 38.2221 31.3037C38.2221 31.2959 38.2143 31.288 38.2143 31.2724C38.2143 31.2645 38.2065 31.2489 38.1987 31.2332C38.1987 31.2254 38.1909 31.2175 38.1909 31.2097C38.1909 31.2019 38.1831 31.194 38.1831 31.1862C38.1831 31.1784 38.1752 31.1705 38.1752 31.1627C38.1752 31.1549 38.1674 31.147 38.1674 31.1392C38.1674 31.1314 38.1596 31.1235 38.1596 31.1079C38.1596 31.1001 38.1518 31.0922 38.1518 31.0766C38.1518 31.0687 38.144 31.0609 38.144 31.0452C38.144 31.0374 38.1362 31.0296 38.1362 31.0217L38.0503 30.7163L37.9957 30.5048C37.9957 30.497 37.9879 30.4892 37.9879 30.4813C37.9879 30.4735 37.9801 30.4657 37.9801 30.4578C37.9801 30.45 37.9723 30.4422 37.9723 30.4265C37.9723 30.4187 37.9645 30.4108 37.9645 30.3952C37.9645 30.3873 37.9567 30.3795 37.9567 30.3717C37.9567 30.3638 37.9488 30.356 37.9488 30.3482C37.9488 30.3403 37.9488 30.3325 37.941 30.3247C37.941 30.3169 37.941 30.309 37.9332 30.3012C37.9332 30.2934 37.9254 30.2855 37.9254 30.2777C37.9254 30.2699 37.9176 30.262 37.9176 30.2542C37.9176 30.2464 37.9176 30.2385 37.9098 30.2307C37.9098 30.2229 37.9098 30.215 37.902 30.2072L37.8708 30.0741C37.8708 30.0662 37.8708 30.0584 37.863 30.0584C37.863 30.0506 37.863 30.0427 37.8552 30.0427C37.8552 30.0349 37.8552 30.0271 37.8474 30.0271C37.8474 30.0192 37.8474 30.0114 37.8474 30.0114L37.8239 29.9018C37.8239 29.8939 37.8239 29.8861 37.8161 29.8783C37.8161 29.8704 37.8161 29.8626 37.8083 29.8548C37.8083 29.8469 37.8083 29.8391 37.8005 29.8313C37.8005 29.8234 37.8005 29.8156 37.7927 29.8078L37.7537 29.5885C37.7537 29.5806 37.7537 29.5728 37.7537 29.565C37.7537 29.5571 37.7537 29.5493 37.7537 29.5415C37.7537 29.5337 37.7537 29.5258 37.7537 29.518C37.7537 29.5102 37.7537 29.5023 37.7537 29.4945L37.7302 29.3613C37.7302 29.3535 37.7302 29.3457 37.7302 29.3457C37.7302 29.3379 37.7302 29.33 37.7302 29.33C37.7302 29.3222 37.7302 29.3144 37.7302 29.3144C37.7302 29.3065 37.7302 29.2987 37.7302 29.2987L37.7146 29.1577C37.7146 29.1499 37.7146 29.142 37.7146 29.1342C37.7146 29.1264 37.7146 29.1107 37.7068 29.0951C37.7068 29.0794 37.699 29.0637 37.699 29.0324C37.699 29.0089 37.6912 28.9776 37.6912 28.9306C37.6912 28.9228 37.6912 28.9149 37.6912 28.9071C37.6912 28.8993 37.6912 28.8914 37.6912 28.8758C37.6912 28.8679 37.6912 28.8523 37.6912 28.8366C37.6912 28.8209 37.6912 28.8053 37.6834 28.7818C37.6834 28.7739 37.6834 28.7661 37.6834 28.7661C37.6834 28.7583 37.6834 28.7505 37.6834 28.7505C37.6834 28.7426 37.6834 28.7348 37.6834 28.7348C37.6834 28.727 37.6834 28.7191 37.6834 28.7191C37.6834 28.7113 37.6834 28.7035 37.6834 28.6956C37.6834 28.6878 37.6834 28.68 37.6834 28.6721C37.6834 28.6643 37.6834 28.6565 37.6834 28.6486C37.6834 28.6408 37.6834 28.633 37.6834 28.6251L37.6756 28.5077C37.6756 28.492 37.6756 28.4685 37.6678 28.4528C37.6678 28.4372 37.6678 28.4137 37.66 28.398C37.66 28.3823 37.66 28.3588 37.66 28.3432C37.66 28.3275 37.66 28.304 37.66 28.2884C37.5663 26.675 37.8005 25.1321 38.2845 23.738C38.7764 22.3439 39.5259 21.0907 40.4783 20.0491C41.4308 19.0074 42.5784 18.1616 43.8744 17.5898C45.1625 17.0181 46.599 16.7048 48.1136 16.7205C49.6281 16.7361 51.0881 17.0729 52.4387 17.6682C53.7815 18.2634 55.0072 19.1171 56.0611 20.1587C57.1151 21.2082 57.9895 22.4457 58.6218 23.8241C59.262 25.2026 59.6602 26.7141 59.7617 28.2962C59.8475 29.9174 59.6445 31.429 59.1761 32.8153Z" fill="white"/>
<g opacity="0.1">
<path d="M55.8498 31.6403C55.8185 31.5933 55.7795 31.5463 55.7405 31.515C55.6936 31.4759 55.6468 31.4445 55.5921 31.4132C55.5843 31.4054 55.5765 31.4054 55.5687 31.3975C55.5609 31.3897 55.5531 31.3897 55.5453 31.3819C55.5375 31.374 55.5297 31.374 55.5219 31.3662C55.5141 31.3584 55.5062 31.3505 55.4906 31.3505C55.4282 31.3035 55.2486 31.2096 55.0144 31.0843C54.7802 30.9589 54.4835 30.8101 54.1791 30.6613C53.8746 30.5125 53.5623 30.3559 53.2969 30.2306C53.0314 30.1053 52.805 30.0034 52.6801 29.9564C52.6567 29.9486 52.6255 29.9329 52.602 29.9251C52.5786 29.9173 52.5474 29.9094 52.524 29.9016C52.5005 29.8938 52.4771 29.8938 52.4459 29.886C52.4225 29.886 52.3991 29.8781 52.3756 29.886C52.2898 29.886 52.2195 29.9016 52.157 29.9251C52.0946 29.9486 52.0477 29.9799 52.0009 30.0191C51.9619 30.0504 51.9306 30.0896 51.9072 30.1209C51.8838 30.1522 51.8682 30.1757 51.8682 30.1836C51.8526 30.2149 51.7979 30.2932 51.7198 30.4107C51.6418 30.5282 51.5481 30.6692 51.4466 30.8258C51.3451 30.9746 51.2358 31.1391 51.1265 31.2801C51.025 31.421 50.9313 31.5385 50.8533 31.6168C50.8377 31.6325 50.822 31.6482 50.8064 31.656C50.7908 31.6638 50.7752 31.6795 50.7518 31.6873C50.7362 31.6951 50.7127 31.703 50.6971 31.703C50.6737 31.703 50.6581 31.7108 50.6347 31.7108C50.5566 31.7108 50.4707 31.6951 50.3614 31.656C50.2599 31.6247 50.1428 31.5698 50.0023 31.5072C49.8696 31.4445 49.7212 31.3662 49.5573 31.2722C49.3934 31.1861 49.2138 31.0843 49.0108 30.9668L48.8156 30.8571C48.6048 30.7396 48.3941 30.5908 48.1833 30.442C47.9803 30.2854 47.7773 30.1209 47.5899 29.9486C47.4026 29.7841 47.2308 29.6118 47.0825 29.4552C46.9263 29.2986 46.7936 29.1576 46.6921 29.0401L46.6843 29.0323C46.6843 29.0244 46.6765 29.0244 46.6687 29.0166C46.6609 29.0088 46.6609 29.0088 46.6531 29.0009C46.6453 28.9931 46.6375 28.9853 46.6297 28.9774C46.6219 28.9696 46.6063 28.9539 46.5984 28.9461C46.5906 28.9383 46.5828 28.9226 46.5672 28.9148C46.5594 28.907 46.5516 28.8913 46.5438 28.8835C46.536 28.8756 46.5282 28.8678 46.5204 28.8521C46.4267 28.7425 46.3174 28.6015 46.2081 28.4605C46.0988 28.3196 45.9895 28.1629 45.8802 28.0141C45.7787 27.8653 45.6772 27.7243 45.5991 27.6068C45.5211 27.4894 45.4586 27.3875 45.4274 27.3171C45.4118 27.2857 45.4118 27.2466 45.4274 27.1996C45.443 27.1526 45.4742 27.0978 45.5133 27.0351C45.5523 26.9724 45.5991 26.9098 45.6538 26.8471C45.7084 26.7845 45.7631 26.714 45.8099 26.6513C45.849 26.6043 45.8802 26.5652 45.9192 26.5182C45.9583 26.4712 45.9895 26.432 46.0285 26.385C46.0598 26.3381 46.0988 26.2911 46.13 26.2441C46.1613 26.1971 46.1925 26.1501 46.2237 26.1031C46.3174 25.9543 46.372 25.8133 46.4033 25.688C46.4345 25.5627 46.4423 25.4452 46.4423 25.3512C46.4423 25.2572 46.4267 25.1789 46.4111 25.1241C46.3955 25.0693 46.3798 25.0379 46.3798 25.0301C46.3798 25.0223 46.3018 24.85 46.1847 24.5915C46.0676 24.3331 45.9114 23.9806 45.7475 23.6282C45.5835 23.2679 45.4118 22.9076 45.2713 22.6022C45.1307 22.3046 45.0214 22.0774 44.9668 21.9913C44.9277 21.9286 44.8731 21.866 44.8106 21.819C44.7404 21.7642 44.6623 21.725 44.5686 21.6858C44.4749 21.6467 44.3734 21.6232 44.2563 21.5997C44.1392 21.584 44.0143 21.5684 43.8894 21.5684C43.8426 21.5684 43.7879 21.5684 43.7333 21.5684C43.6786 21.5684 43.6318 21.5762 43.5771 21.584C43.5225 21.5919 43.4756 21.5997 43.421 21.6075C43.3663 21.6154 43.3195 21.6232 43.2648 21.6388C43.0853 21.678 42.8901 21.7955 42.6949 21.9756C42.4998 22.1558 42.3124 22.3907 42.1406 22.6648C41.9689 22.939 41.8284 23.2444 41.7191 23.5655C41.6098 23.8866 41.5473 24.2156 41.5395 24.5367C41.5317 24.8421 41.5317 25.1241 41.5629 25.3982C41.5941 25.6802 41.6488 25.9621 41.7581 26.2832C41.8674 26.6043 42.0235 26.9568 42.2577 27.3797C42.4919 27.8026 42.7964 28.2961 43.2024 28.8913C43.5771 29.4474 43.9831 29.9564 44.3891 30.4107C44.7872 30.865 45.1776 31.2722 45.5367 31.609C45.888 31.9458 46.2003 32.2199 46.4345 32.4235C46.6687 32.6272 46.8327 32.7525 46.8873 32.7916C47.0512 32.9248 47.223 33.0423 47.3948 33.1676C47.5665 33.285 47.7383 33.4025 47.9178 33.5122C48.0896 33.6218 48.2691 33.7315 48.4487 33.8255C48.6283 33.9273 48.8078 34.0213 48.9952 34.1074C49.2606 34.2327 49.5417 34.3737 49.8384 34.499C50.135 34.6243 50.4473 34.7496 50.7596 34.8514C51.0719 34.9533 51.3998 35.0472 51.7198 35.1099C52.0399 35.1726 52.3678 35.2117 52.6801 35.2039C52.7035 35.2039 52.727 35.2039 52.7504 35.2039C52.7738 35.2039 52.7972 35.2039 52.8206 35.2039C52.8441 35.2039 52.8675 35.2039 52.8909 35.2039C52.9143 35.2039 52.9377 35.2039 52.9612 35.1961C53.2578 35.1726 53.5155 35.1256 53.7497 35.0551C53.9839 34.9924 54.1869 34.9063 54.3664 34.8123C54.546 34.7183 54.7099 34.6087 54.8583 34.4912C55.0066 34.3737 55.1393 34.2562 55.2642 34.1309C55.4126 33.9821 55.5297 33.8098 55.6155 33.6218C55.7014 33.4339 55.7717 33.2381 55.8107 33.0423C55.8576 32.8465 55.881 32.6663 55.8966 32.5018C55.9122 32.3374 55.9122 32.1964 55.9122 32.0867C55.9122 31.9771 55.9044 31.8831 55.8888 31.8048C55.9044 31.75 55.881 31.6951 55.8498 31.6403Z" fill="url(#paint4_linear_6878_75590)"/>
<path d="M62.2365 28.3119C62.1116 26.3695 61.6197 24.5133 60.8312 22.8216C60.0505 21.1377 58.9731 19.6105 57.6928 18.326C56.4046 17.0416 54.8979 15.9921 53.2506 15.2637C51.6033 14.5275 49.8077 14.1124 47.9496 14.0889C46.0838 14.0654 44.3194 14.4414 42.7345 15.1463C41.1419 15.8511 39.7288 16.8771 38.5578 18.1616C37.3867 19.446 36.4577 20.9811 35.8566 22.6963C35.2476 24.4115 34.9666 26.3069 35.0759 28.2962C35.1071 28.9071 35.1774 29.5102 35.2867 30.1132C35.396 30.7163 35.5365 31.3115 35.7082 31.8989C35.8878 32.4863 36.0986 33.0581 36.3406 33.622C36.5826 34.1859 36.8637 34.7341 37.176 35.2588L35.8488 42.8716L42.9688 40.9527C43.4918 41.2425 44.0305 41.4931 44.577 41.7124C45.1235 41.9317 45.6856 42.1119 46.2477 42.2528C46.8098 42.3938 47.3797 42.5035 47.9574 42.5739C48.5274 42.6444 49.1051 42.6758 49.6828 42.6679C51.5643 42.6444 53.3209 42.2215 54.8979 41.4775C56.4671 40.7334 57.8489 39.6683 58.981 38.3682C60.113 37.068 60.9952 35.5251 61.5573 33.8256C62.1116 32.126 62.3614 30.262 62.2365 28.3119ZM59.1761 32.8153C58.7155 34.2015 57.9895 35.4546 57.0682 36.512C56.147 37.5693 55.015 38.4386 53.7346 39.0339C52.4543 39.6369 51.0178 39.9816 49.4954 39.9972C49.4798 39.9972 49.4642 39.9972 49.4408 39.9972C49.4252 39.9972 49.4095 39.9972 49.3861 39.9972C49.3705 39.9972 49.3549 39.9972 49.3315 39.9972C49.3159 39.9972 49.3003 39.9972 49.2768 39.9972H49.1519C49.1441 39.9972 49.1363 39.9972 49.1285 39.9972C49.1207 39.9972 49.1129 39.9972 49.1051 39.9972C49.0973 39.9972 49.0895 39.9972 49.0817 39.9972C49.0738 39.9972 49.066 39.9972 49.0582 39.9972L48.9333 39.9894C48.9255 39.9894 48.9177 39.9894 48.9099 39.9894C48.9021 39.9894 48.8865 39.9894 48.8709 39.9894C48.8552 39.9894 48.8396 39.9894 48.8084 39.9894C48.785 39.9894 48.7538 39.9894 48.7147 39.9815C48.7069 39.9815 48.6991 39.9815 48.6913 39.9815C48.6835 39.9815 48.6757 39.9815 48.6601 39.9815C48.6445 39.9815 48.6288 39.9815 48.6132 39.9815C48.5898 39.9815 48.5664 39.9815 48.5352 39.9737C48.5274 39.9737 48.5195 39.9737 48.5039 39.9737C48.4961 39.9737 48.4883 39.9737 48.4727 39.9737C48.4649 39.9737 48.4571 39.9737 48.4415 39.9737C48.4337 39.9737 48.4259 39.9737 48.4102 39.9737L48.098 39.9424C48.0902 39.9424 48.0824 39.9424 48.0745 39.9424C48.0667 39.9424 48.0589 39.9424 48.0511 39.9424C48.0433 39.9424 48.0355 39.9424 48.0277 39.9424C48.0199 39.9424 48.0121 39.9424 48.0043 39.9424L47.8013 39.9111C47.7935 39.9111 47.7857 39.9111 47.7779 39.9111C47.7701 39.9111 47.7623 39.9111 47.7545 39.9111C47.7467 39.9111 47.7388 39.9111 47.731 39.9032C47.7232 39.9032 47.7154 39.9032 47.6998 39.8954C47.692 39.8954 47.6842 39.8954 47.6764 39.8876C47.6686 39.8876 47.6608 39.8876 47.653 39.8797C47.6452 39.8797 47.6374 39.8797 47.6295 39.8719C47.6217 39.8719 47.6139 39.8719 47.6061 39.8641C47.5983 39.8641 47.5905 39.8641 47.5827 39.8562C47.5749 39.8562 47.5671 39.8562 47.5593 39.8484C47.5515 39.8484 47.5437 39.8484 47.5359 39.8406C47.5281 39.8406 47.5202 39.8406 47.5124 39.8327C47.5046 39.8327 47.4968 39.8327 47.489 39.8327C47.4812 39.8327 47.4734 39.8327 47.4656 39.8249C47.4578 39.8249 47.45 39.8249 47.4422 39.8171C47.4344 39.8171 47.4266 39.8171 47.4188 39.8092L47.3095 39.7857C47.3017 39.7857 47.2938 39.7857 47.286 39.7779C47.2782 39.7779 47.2704 39.7779 47.2626 39.7701C47.2548 39.7701 47.247 39.7701 47.2392 39.7623C47.2314 39.7623 47.2236 39.7623 47.2158 39.7544C47.208 39.7544 47.2002 39.7544 47.1924 39.7466C47.1845 39.7466 47.1767 39.7466 47.1689 39.7388C47.1611 39.7388 47.1533 39.7388 47.1455 39.7309C47.1377 39.7309 47.1299 39.7309 47.1221 39.7231L47.005 39.6996C46.9972 39.6996 46.9894 39.6996 46.9816 39.6918C46.9738 39.6918 46.966 39.6918 46.9581 39.6839C46.9503 39.6839 46.9425 39.6839 46.9347 39.6761C46.9269 39.6761 46.9191 39.6683 46.9113 39.6683L46.4975 39.5586C46.4897 39.5586 46.4819 39.5586 46.4741 39.5508C46.4663 39.5508 46.4585 39.5508 46.4507 39.543C46.4429 39.543 46.4351 39.543 46.4351 39.5351C46.4273 39.5351 46.4195 39.5351 46.4195 39.5273L46.1228 39.4411C46.115 39.4411 46.1072 39.4333 46.0994 39.4333C46.0916 39.4333 46.0838 39.4255 46.076 39.4255C46.0681 39.4255 46.0603 39.4176 46.0525 39.4176C46.0447 39.4176 46.0369 39.4098 46.0291 39.4098L45.8339 39.3472C45.8261 39.3472 45.8183 39.3393 45.8105 39.3393C45.8027 39.3393 45.7949 39.3315 45.7871 39.3315C45.7793 39.3315 45.7715 39.3237 45.7637 39.3237C45.7559 39.3237 45.7481 39.3158 45.7403 39.3158C45.7324 39.3158 45.7246 39.308 45.7168 39.308C45.709 39.308 45.7012 39.3002 45.6934 39.3002C45.6856 39.3002 45.6778 39.2923 45.67 39.2923C45.6622 39.2923 45.6544 39.2845 45.6466 39.2845L45.5373 39.2453C45.5295 39.2453 45.5217 39.2375 45.5138 39.2375C45.506 39.2375 45.4982 39.2297 45.4904 39.2297C45.4826 39.2297 45.4748 39.2218 45.467 39.2218C45.4592 39.2218 45.4514 39.214 45.4436 39.214C45.4358 39.214 45.428 39.2062 45.428 39.2062C45.4202 39.2062 45.4124 39.1983 45.4124 39.1983C45.4045 39.1983 45.3967 39.1905 45.3889 39.1905C45.3811 39.1905 45.3733 39.1827 45.3655 39.1827L45.0688 39.0574C45.061 39.0574 45.0532 39.0495 45.0454 39.0495C45.0376 39.0495 45.0298 39.0417 45.022 39.0417C45.0142 39.0417 45.0064 39.0339 44.9986 39.0339C44.9908 39.0339 44.983 39.026 44.9752 39.026L44.6785 38.8929C44.6707 38.8929 44.6629 38.8851 44.6629 38.8851C44.6551 38.8851 44.6473 38.8772 44.6473 38.8772C44.6395 38.8772 44.6317 38.8694 44.6317 38.8694C44.6238 38.8694 44.616 38.8616 44.616 38.8616L44.538 38.8224C44.5302 38.8146 44.5224 38.8146 44.5145 38.8067C44.5067 38.7989 44.4989 38.7989 44.4911 38.7911C44.4833 38.7833 44.4755 38.7833 44.4677 38.7754C44.4599 38.7676 44.4521 38.7676 44.4443 38.7598L44.171 38.6188C44.1632 38.6109 44.1554 38.6109 44.1476 38.6031C44.1398 38.5953 44.132 38.5953 44.1164 38.5875C44.1008 38.5796 44.093 38.5718 44.0695 38.564C44.0539 38.5561 44.0305 38.5405 43.9993 38.5248C43.9915 38.517 43.9837 38.517 43.9759 38.5091C43.9681 38.5013 43.9602 38.5013 43.9524 38.4935C43.9446 38.4856 43.929 38.4856 43.9212 38.4778C43.9134 38.47 43.8978 38.4621 43.8822 38.4543C43.8431 38.4308 43.7963 38.4073 43.7573 38.376C43.7104 38.3525 43.6714 38.3212 43.6245 38.2977C43.5777 38.2742 43.5309 38.2428 43.484 38.2115C43.4372 38.1802 43.3825 38.1489 43.3357 38.1175L39.0262 39.2688L39.7913 34.6166C39.7367 34.5305 39.682 34.4443 39.6274 34.3582C39.5727 34.272 39.5181 34.1859 39.4634 34.0997C39.4088 34.0136 39.3541 33.9196 39.3073 33.8334C39.2526 33.7394 39.2058 33.6533 39.1511 33.5593C39.1433 33.5436 39.1355 33.5358 39.1277 33.5201C39.1199 33.5045 39.1121 33.4966 39.1043 33.481C39.0965 33.4653 39.0887 33.4575 39.0809 33.4418C39.0731 33.4262 39.0652 33.4183 39.0574 33.4027L38.9403 33.1755C38.9325 33.1677 38.9325 33.152 38.9247 33.1442C38.9169 33.1285 38.9091 33.1207 38.9091 33.105C38.9013 33.0894 38.8935 33.0737 38.8857 33.0581C38.8779 33.0424 38.8623 33.0189 38.8545 32.9954C38.8467 32.9876 38.8467 32.9719 38.8388 32.9641C38.831 32.9484 38.8232 32.9406 38.8154 32.9249C38.8076 32.9092 38.7998 32.8857 38.7842 32.8623C38.7764 32.8388 38.7608 32.8074 38.7452 32.7761C38.7452 32.7683 38.7374 32.7604 38.7374 32.7526C38.7374 32.7448 38.7295 32.7369 38.7295 32.7291C38.7295 32.7213 38.7217 32.7134 38.7217 32.7056C38.7217 32.6978 38.7139 32.6899 38.7139 32.6821L38.6827 32.6116C38.6827 32.6038 38.6749 32.596 38.6749 32.5881C38.6749 32.5803 38.6671 32.5725 38.6671 32.5646C38.6671 32.5568 38.6593 32.549 38.6593 32.5411C38.6593 32.5333 38.6515 32.5255 38.6515 32.5176L38.6046 32.408C38.5968 32.4002 38.5968 32.3845 38.589 32.3767C38.5812 32.3688 38.5812 32.3532 38.5734 32.3453C38.5656 32.3375 38.5656 32.3218 38.5578 32.314C38.55 32.3062 38.55 32.2905 38.5422 32.2827C38.5422 32.2749 38.5344 32.267 38.5344 32.267C38.5344 32.2592 38.5266 32.2514 38.5266 32.2514C38.5266 32.2435 38.5188 32.2357 38.5188 32.2279C38.5188 32.22 38.5109 32.2122 38.5109 32.2044C38.5109 32.1965 38.5031 32.1887 38.5031 32.1809C38.5031 32.173 38.4953 32.1652 38.4953 32.1574C38.4953 32.1495 38.4875 32.1417 38.4875 32.1339C38.4875 32.126 38.4797 32.1182 38.4797 32.1104L38.4329 31.9929C38.4329 31.9851 38.4251 31.9772 38.4251 31.9616C38.4251 31.9537 38.4173 31.9459 38.4173 31.9302C38.4173 31.9146 38.4095 31.9146 38.4095 31.8989C38.4095 31.8911 38.4017 31.8754 38.4017 31.8676C38.4017 31.8598 38.3938 31.8519 38.3938 31.8441C38.3938 31.8363 38.386 31.8284 38.386 31.8206C38.386 31.8128 38.3782 31.8049 38.3782 31.7971C38.3782 31.7893 38.3704 31.7814 38.3704 31.7736C38.3704 31.7658 38.3626 31.7579 38.3626 31.7423C38.3626 31.7344 38.3548 31.7266 38.3548 31.7109C38.3548 31.7031 38.347 31.6953 38.347 31.6796C38.347 31.6718 38.3392 31.664 38.3392 31.6483L38.2377 31.3507C38.2377 31.3428 38.2299 31.335 38.2299 31.3272C38.2299 31.3193 38.2221 31.3115 38.2221 31.3037C38.2221 31.2959 38.2143 31.288 38.2143 31.2724C38.2143 31.2645 38.2065 31.2489 38.1987 31.2332C38.1987 31.2254 38.1909 31.2175 38.1909 31.2097C38.1909 31.2019 38.1831 31.194 38.1831 31.1862C38.1831 31.1784 38.1752 31.1705 38.1752 31.1627C38.1752 31.1549 38.1674 31.147 38.1674 31.1392C38.1674 31.1314 38.1596 31.1235 38.1596 31.1079C38.1596 31.1001 38.1518 31.0922 38.1518 31.0766C38.1518 31.0687 38.144 31.0609 38.144 31.0452C38.144 31.0374 38.1362 31.0296 38.1362 31.0217L38.0503 30.7163L37.9957 30.5048C37.9957 30.497 37.9879 30.4892 37.9879 30.4813C37.9879 30.4735 37.9801 30.4657 37.9801 30.4578C37.9801 30.45 37.9723 30.4422 37.9723 30.4265C37.9723 30.4187 37.9645 30.4108 37.9645 30.3952C37.9645 30.3873 37.9567 30.3795 37.9567 30.3717C37.9567 30.3638 37.9488 30.356 37.9488 30.3482C37.9488 30.3403 37.9488 30.3325 37.941 30.3247C37.941 30.3169 37.941 30.309 37.9332 30.3012C37.9332 30.2934 37.9254 30.2855 37.9254 30.2777C37.9254 30.2699 37.9176 30.262 37.9176 30.2542C37.9176 30.2464 37.9176 30.2385 37.9098 30.2307C37.9098 30.2229 37.9098 30.215 37.902 30.2072L37.8708 30.0741C37.8708 30.0662 37.8708 30.0584 37.863 30.0584C37.863 30.0506 37.863 30.0427 37.8552 30.0427C37.8552 30.0349 37.8552 30.0271 37.8474 30.0271C37.8474 30.0192 37.8474 30.0114 37.8474 30.0114L37.8239 29.9018C37.8239 29.8939 37.8239 29.8861 37.8161 29.8783C37.8161 29.8704 37.8161 29.8626 37.8083 29.8548C37.8083 29.8469 37.8083 29.8391 37.8005 29.8313C37.8005 29.8234 37.8005 29.8156 37.7927 29.8078L37.7537 29.5885C37.7537 29.5806 37.7537 29.5728 37.7537 29.565C37.7537 29.5571 37.7537 29.5493 37.7537 29.5415C37.7537 29.5337 37.7537 29.5258 37.7537 29.518C37.7537 29.5102 37.7537 29.5023 37.7537 29.4945L37.7302 29.3613C37.7302 29.3535 37.7302 29.3457 37.7302 29.3457C37.7302 29.3379 37.7302 29.33 37.7302 29.33C37.7302 29.3222 37.7302 29.3144 37.7302 29.3144C37.7302 29.3065 37.7302 29.2987 37.7302 29.2987L37.7146 29.1577C37.7146 29.1499 37.7146 29.142 37.7146 29.1342C37.7146 29.1264 37.7146 29.1107 37.7068 29.0951C37.7068 29.0794 37.699 29.0637 37.699 29.0324C37.699 29.0089 37.6912 28.9776 37.6912 28.9306C37.6912 28.9228 37.6912 28.9149 37.6912 28.9071C37.6912 28.8993 37.6912 28.8914 37.6912 28.8758C37.6912 28.8679 37.6912 28.8523 37.6912 28.8366C37.6912 28.8209 37.6912 28.8053 37.6834 28.7818C37.6834 28.7739 37.6834 28.7661 37.6834 28.7661C37.6834 28.7583 37.6834 28.7505 37.6834 28.7505C37.6834 28.7426 37.6834 28.7348 37.6834 28.7348C37.6834 28.727 37.6834 28.7191 37.6834 28.7191C37.6834 28.7113 37.6834 28.7035 37.6834 28.6956C37.6834 28.6878 37.6834 28.68 37.6834 28.6721C37.6834 28.6643 37.6834 28.6565 37.6834 28.6486C37.6834 28.6408 37.6834 28.633 37.6834 28.6251L37.6756 28.5077C37.6756 28.492 37.6756 28.4685 37.6678 28.4528C37.6678 28.4372 37.6678 28.4137 37.66 28.398C37.66 28.3823 37.66 28.3588 37.66 28.3432C37.66 28.3275 37.66 28.304 37.66 28.2884C37.5663 26.675 37.8005 25.1321 38.2845 23.738C38.7764 22.3439 39.5259 21.0907 40.4783 20.0491C41.4308 19.0074 42.5784 18.1616 43.8744 17.5898C45.1625 17.0181 46.599 16.7048 48.1136 16.7205C49.6281 16.7361 51.0881 17.0729 52.4387 17.6682C53.7815 18.2634 55.0072 19.1171 56.0611 20.1587C57.1151 21.2082 57.9895 22.4457 58.6218 23.8241C59.262 25.2026 59.6602 26.7141 59.7617 28.2962C59.8475 29.9174 59.6445 31.429 59.1761 32.8153Z" fill="url(#paint5_linear_6878_75590)"/>
</g>
<defs>
<radialGradient id="paint0_radial_6878_75590" cx="0" cy="0" r="1" gradientUnits="userSpaceOnUse" gradientTransform="translate(44.2649 54.6729) scale(37.4825 9.39618)">
<stop stop-color="#1D1D1B"/>
<stop offset="1" stop-color="#1D1D1B" stop-opacity="0"/>
</radialGradient>
<linearGradient id="paint1_linear_6878_75590" x1="37.3361" y1="54.6723" x2="37.3361" y2="8.57335" gradientUnits="userSpaceOnUse">
<stop stop-color="#1D1D1B"/>
<stop offset="1" stop-color="#1D1D1B" stop-opacity="0"/>
</linearGradient>
<linearGradient id="paint2_linear_6878_75590" x1="35.653" y1="48.3474" x2="58.4363" y2="9.01137" gradientUnits="userSpaceOnUse">
<stop stop-color="#1D1D1B"/>
<stop offset="1" stop-color="#1D1D1B" stop-opacity="0"/>
</linearGradient>
<linearGradient id="paint3_linear_6878_75590" x1="39.8962" y1="52.4765" x2="39.8962" y2="8.57327" gradientUnits="userSpaceOnUse">
<stop stop-color="white" stop-opacity="0"/>
<stop offset="0.7" stop-color="white"/>
<stop offset="0.9576" stop-color="white" stop-opacity="0.1413"/>
<stop offset="1" stop-color="white" stop-opacity="0"/>
</linearGradient>
<linearGradient id="paint4_linear_6878_75590" x1="46.3458" y1="32.5978" x2="50.6412" y2="25.1817" gradientUnits="userSpaceOnUse">
<stop stop-color="#1D1D1B"/>
<stop offset="1" stop-color="#1D1D1B" stop-opacity="0"/>
</linearGradient>
<linearGradient id="paint5_linear_6878_75590" x1="39.1972" y1="44.8219" x2="55.5831" y2="16.5313" gradientUnits="userSpaceOnUse">
<stop stop-color="#1D1D1B"/>
<stop offset="1" stop-color="#1D1D1B" stop-opacity="0"/>
</linearGradient>
</defs>
</svg>
