<svg width="82" height="77" viewBox="0 0 82 77" fill="none" xmlns="http://www.w3.org/2000/svg">
<path d="M70.0877 71.4302C69.8477 73.0502 68.2277 74.3402 66.5177 74.3402H15.3677C13.6277 74.3402 12.0077 73.0202 11.7377 71.4302L3.27769 20.0702C3.00769 18.4802 4.20769 17.1602 5.94769 17.1602H75.1577C76.8977 17.1602 78.0977 18.4802 77.8577 20.0702L70.0877 71.4302Z" fill="#CEE0FD"/>
<path d="M57.2778 0H14.1978V60.69H66.8778V9.75L57.2778 0Z" fill="#F2F8FF"/>
<path d="M57.2778 0L66.9378 9.66H57.2778V0Z" fill="#D9E8F9"/>
<path d="M55.1478 19.2002L50.8578 14.9102L40.5678 25.2002L30.2778 14.9102L25.9878 19.2002L36.2778 29.4902L25.9878 39.7802L30.2778 44.0702L40.5678 33.7802L50.8578 44.0702L55.1478 39.7802L44.8578 29.4902L55.1478 19.2002Z" fill="#679EEF"/>
<path d="M2.07812 23.8701H37.1777C37.8172 23.8701 38.4817 24.1216 39.0352 24.5322C39.5885 24.9429 40.016 25.5015 40.1963 26.0977V26.0986L42.1768 32.4893V32.4902C42.4017 33.1971 42.8966 33.8234 43.5059 34.2715C44.0387 34.6633 44.6704 34.9275 45.3057 34.9873L45.5781 35L78.998 34.9395C80.2246 34.9396 81.061 35.9098 80.8701 37.1387L74.9307 74.3389C74.7359 75.562 73.5286 76.5996 72.2773 76.5996H11.498C10.2949 76.5996 9.159 75.7116 8.83789 74.5674L8.78516 74.335L0.234375 26.0654V26.0645C0.124312 25.4446 0.283882 24.8983 0.614258 24.5078C0.945012 24.117 1.45801 23.8701 2.07812 23.8701Z" fill="white" stroke="#C4C4C4" stroke-width="0.4"/>
<path d="M78.9977 34.7402H75.1877C75.2777 35.6102 75.3077 36.5102 75.3077 37.3802C75.3077 57.3002 53.9777 73.4702 27.6677 73.4702C20.6177 73.4702 13.9277 72.3002 7.89771 70.2302L8.61771 74.3402C8.85771 75.6902 10.1477 76.7702 11.5277 76.7702H72.3077C73.6577 76.7702 74.9477 75.6602 75.1577 74.3402L81.0677 37.1702C81.2777 35.8202 80.3477 34.7402 78.9977 34.7402Z" fill="#EBF3FC"/>
<g opacity="0.3">
<path d="M5.97769 30.8399C6.15769 32.0399 6.33769 33.2699 6.51769 34.4699C6.93769 37.3499 7.38769 40.2299 7.80769 43.1099C8.31769 46.6199 8.85769 50.1299 9.36769 53.6399C9.81769 56.6399 10.2677 59.6699 10.7177 62.6699C10.8677 63.6599 11.0177 64.6799 11.1677 65.6699C11.2277 66.1499 11.2877 66.6299 11.3777 67.0799C11.3777 67.1099 11.3777 67.1099 11.3777 67.1399C11.4377 67.5599 11.9477 67.7699 12.3377 67.6799C12.7877 67.5599 12.9377 67.1399 12.8777 66.7199C12.6977 65.5199 12.5177 64.2899 12.3377 63.0899C11.9177 60.2099 11.4677 57.3299 11.0477 54.4499C10.5377 50.9399 9.99769 47.4299 9.48769 43.9199C9.03769 40.9199 8.58769 37.8899 8.13769 34.8899C7.98769 33.8999 7.83769 32.8799 7.68769 31.8899C7.62769 31.4099 7.56769 30.9299 7.47769 30.4799C7.47769 30.4499 7.47769 30.4499 7.47769 30.4199C7.41769 29.9999 6.90769 29.7899 6.51769 29.8799C6.06769 29.9999 5.91769 30.4199 5.97769 30.8399Z" fill="white"/>
</g>
</svg>
