<svg width="367" height="126" viewBox="0 0 367 126" fill="none" xmlns="http://www.w3.org/2000/svg">
<rect x="0.5" y="0.5" width="366" height="124.382" rx="3.5" stroke="#E4E4E4"/>
<path d="M72.8635 51.4644H77.7355V52.9624H72.8635V51.4644ZM73.0035 55.6644H78.5335V57.1904H71.1835V47.3904H78.3375V48.9164H73.0035V55.6644ZM82.482 57.2884C81.8567 57.2884 81.2547 57.2091 80.676 57.0504C80.1067 56.8824 79.654 56.6818 79.318 56.4484L79.99 55.1184C80.326 55.3331 80.7273 55.5104 81.194 55.6504C81.6607 55.7904 82.1273 55.8604 82.594 55.8604C83.1447 55.8604 83.5413 55.7858 83.784 55.6364C84.036 55.4871 84.162 55.2864 84.162 55.0344C84.162 54.8291 84.078 54.6751 83.91 54.5724C83.742 54.4604 83.5227 54.3764 83.252 54.3204C82.9813 54.2644 82.678 54.2131 82.342 54.1664C82.0153 54.1198 81.684 54.0591 81.348 53.9844C81.0213 53.9004 80.7227 53.7838 80.452 53.6344C80.1813 53.4758 79.962 53.2658 79.794 53.0044C79.626 52.7431 79.542 52.3978 79.542 51.9684C79.542 51.4924 79.6773 51.0818 79.948 50.7364C80.2187 50.3818 80.5967 50.1111 81.082 49.9244C81.5767 49.7284 82.16 49.6304 82.832 49.6304C83.336 49.6304 83.8447 49.6864 84.358 49.7984C84.8713 49.9104 85.296 50.0691 85.632 50.2744L84.96 51.6044C84.6053 51.3898 84.246 51.2451 83.882 51.1704C83.5273 51.0864 83.1727 51.0444 82.818 51.0444C82.286 51.0444 81.8893 51.1238 81.628 51.2824C81.376 51.4411 81.25 51.6418 81.25 51.8844C81.25 52.1084 81.334 52.2764 81.502 52.3884C81.67 52.5004 81.8893 52.5891 82.16 52.6544C82.4307 52.7198 82.7293 52.7758 83.056 52.8224C83.392 52.8598 83.7233 52.9204 84.05 53.0044C84.3767 53.0884 84.6753 53.2051 84.946 53.3544C85.226 53.4944 85.45 53.6951 85.618 53.9564C85.786 54.2178 85.87 54.5584 85.87 54.9784C85.87 55.4451 85.73 55.8511 85.45 56.1964C85.1793 56.5418 84.792 56.8124 84.288 57.0084C83.784 57.1951 83.182 57.2884 82.482 57.2884ZM90.6531 57.2884C89.8691 57.2884 89.1691 57.1251 88.5531 56.7984C87.9464 56.4624 87.4704 56.0051 87.1251 55.4264C86.7798 54.8478 86.6071 54.1898 86.6071 53.4524C86.6071 52.7058 86.7798 52.0478 87.1251 51.4784C87.4704 50.8998 87.9464 50.4471 88.5531 50.1204C89.1691 49.7938 89.8691 49.6304 90.6531 49.6304C91.3811 49.6304 92.0204 49.7798 92.5711 50.0784C93.1311 50.3678 93.5558 50.7971 93.8451 51.3664L92.5011 52.1504C92.2771 51.7958 92.0018 51.5344 91.6751 51.3664C91.3578 51.1984 91.0124 51.1144 90.6391 51.1144C90.2098 51.1144 89.8224 51.2078 89.4771 51.3944C89.1318 51.5811 88.8611 51.8518 88.6651 52.2064C88.4691 52.5518 88.3711 52.9671 88.3711 53.4524C88.3711 53.9378 88.4691 54.3578 88.6651 54.7124C88.8611 55.0578 89.1318 55.3238 89.4771 55.5104C89.8224 55.6971 90.2098 55.7904 90.6391 55.7904C91.0124 55.7904 91.3578 55.7064 91.6751 55.5384C92.0018 55.3704 92.2771 55.1091 92.5011 54.7544L93.8451 55.5384C93.5558 56.0984 93.1311 56.5324 92.5711 56.8404C92.0204 57.1391 91.3811 57.2884 90.6531 57.2884ZM95.2039 57.1904V49.7144H96.8699V51.7724L96.6739 51.1704C96.8979 50.6664 97.2479 50.2838 97.7239 50.0224C98.2092 49.7611 98.8112 49.6304 99.5299 49.6304V51.2964C99.4552 51.2778 99.3852 51.2684 99.3199 51.2684C99.2545 51.2591 99.1892 51.2544 99.1239 51.2544C98.4612 51.2544 97.9339 51.4504 97.5419 51.8424C97.1499 52.2251 96.9539 52.7991 96.9539 53.5644V57.1904H95.2039ZM100.86 57.1904V49.7144H102.61V57.1904H100.86ZM101.742 48.4824C101.416 48.4824 101.145 48.3798 100.93 48.1744C100.725 47.9691 100.622 47.7218 100.622 47.4324C100.622 47.1338 100.725 46.8864 100.93 46.6904C101.145 46.4851 101.416 46.3824 101.742 46.3824C102.069 46.3824 102.335 46.4804 102.54 46.6764C102.755 46.8631 102.862 47.1011 102.862 47.3904C102.862 47.6984 102.76 47.9598 102.554 48.1744C102.349 48.3798 102.078 48.4824 101.742 48.4824ZM108.897 57.2884C108.263 57.2884 107.698 57.1484 107.203 56.8684C106.709 56.5884 106.317 56.1684 106.027 55.6084C105.747 55.0391 105.607 54.3204 105.607 53.4524C105.607 52.5751 105.752 51.8564 106.041 51.2964C106.34 50.7364 106.737 50.3211 107.231 50.0504C107.735 49.7704 108.291 49.6304 108.897 49.6304C109.635 49.6304 110.283 49.7891 110.843 50.1064C111.413 50.4238 111.861 50.8671 112.187 51.4364C112.523 52.0058 112.691 52.6778 112.691 53.4524C112.691 54.2271 112.523 54.8991 112.187 55.4684C111.861 56.0378 111.413 56.4858 110.843 56.8124C110.283 57.1298 109.635 57.2884 108.897 57.2884ZM104.753 57.1904V46.8024H106.503V51.4504L106.363 53.4384L106.419 55.4264V57.1904H104.753ZM108.701 55.7904C109.121 55.7904 109.495 55.6971 109.821 55.5104C110.157 55.3238 110.423 55.0531 110.619 54.6984C110.815 54.3438 110.913 53.9284 110.913 53.4524C110.913 52.9671 110.815 52.5518 110.619 52.2064C110.423 51.8518 110.157 51.5811 109.821 51.3944C109.495 51.2078 109.121 51.1144 108.701 51.1144C108.281 51.1144 107.903 51.2078 107.567 51.3944C107.231 51.5811 106.965 51.8518 106.769 52.2064C106.573 52.5518 106.475 52.9671 106.475 53.4524C106.475 53.9284 106.573 54.3438 106.769 54.6984C106.965 55.0531 107.231 55.3238 107.567 55.5104C107.903 55.6971 108.281 55.7904 108.701 55.7904ZM117.711 57.2884C116.88 57.2884 116.152 57.1251 115.527 56.7984C114.911 56.4624 114.43 56.0051 114.085 55.4264C113.749 54.8478 113.581 54.1898 113.581 53.4524C113.581 52.7058 113.744 52.0478 114.071 51.4784C114.407 50.8998 114.864 50.4471 115.443 50.1204C116.031 49.7938 116.698 49.6304 117.445 49.6304C118.173 49.6304 118.822 49.7891 119.391 50.1064C119.96 50.4238 120.408 50.8718 120.735 51.4504C121.062 52.0291 121.225 52.7104 121.225 53.4944C121.225 53.5691 121.22 53.6531 121.211 53.7464C121.211 53.8398 121.206 53.9284 121.197 54.0124H114.967V52.8504H120.273L119.587 53.2144C119.596 52.7851 119.508 52.4071 119.321 52.0804C119.134 51.7538 118.878 51.4971 118.551 51.3104C118.234 51.1238 117.865 51.0304 117.445 51.0304C117.016 51.0304 116.638 51.1238 116.311 51.3104C115.994 51.4971 115.742 51.7584 115.555 52.0944C115.378 52.4211 115.289 52.8084 115.289 53.2564V53.5364C115.289 53.9844 115.392 54.3811 115.597 54.7264C115.802 55.0718 116.092 55.3378 116.465 55.5244C116.838 55.7111 117.268 55.8044 117.753 55.8044C118.173 55.8044 118.551 55.7391 118.887 55.6084C119.223 55.4778 119.522 55.2724 119.783 54.9924L120.721 56.0704C120.385 56.4624 119.96 56.7658 119.447 56.9804C118.943 57.1858 118.364 57.2884 117.711 57.2884ZM129.981 57.2884C129.15 57.2884 128.422 57.1251 127.797 56.7984C127.181 56.4624 126.7 56.0051 126.355 55.4264C126.019 54.8478 125.851 54.1898 125.851 53.4524C125.851 52.7058 126.014 52.0478 126.341 51.4784C126.677 50.8998 127.134 50.4471 127.713 50.1204C128.301 49.7938 128.968 49.6304 129.715 49.6304C130.443 49.6304 131.092 49.7891 131.661 50.1064C132.23 50.4238 132.678 50.8718 133.005 51.4504C133.332 52.0291 133.495 52.7104 133.495 53.4944C133.495 53.5691 133.49 53.6531 133.481 53.7464C133.481 53.8398 133.476 53.9284 133.467 54.0124H127.237V52.8504H132.543L131.857 53.2144C131.866 52.7851 131.778 52.4071 131.591 52.0804C131.404 51.7538 131.148 51.4971 130.821 51.3104C130.504 51.1238 130.135 51.0304 129.715 51.0304C129.286 51.0304 128.908 51.1238 128.581 51.3104C128.264 51.4971 128.012 51.7584 127.825 52.0944C127.648 52.4211 127.559 52.8084 127.559 53.2564V53.5364C127.559 53.9844 127.662 54.3811 127.867 54.7264C128.072 55.0718 128.362 55.3378 128.735 55.5244C129.108 55.7111 129.538 55.8044 130.023 55.8044C130.443 55.8044 130.821 55.7391 131.157 55.6084C131.493 55.4778 131.792 55.2724 132.053 54.9924L132.991 56.0704C132.655 56.4624 132.23 56.7658 131.717 56.9804C131.213 57.1858 130.634 57.2884 129.981 57.2884ZM135.022 57.1904V46.8024H136.772V57.1904H135.022ZM146.06 57.2884C145.276 57.2884 144.576 57.1251 143.96 56.7984C143.353 56.4624 142.877 56.0051 142.532 55.4264C142.187 54.8478 142.014 54.1898 142.014 53.4524C142.014 52.7058 142.187 52.0478 142.532 51.4784C142.877 50.8998 143.353 50.4471 143.96 50.1204C144.576 49.7938 145.276 49.6304 146.06 49.6304C146.788 49.6304 147.427 49.7798 147.978 50.0784C148.538 50.3678 148.963 50.7971 149.252 51.3664L147.908 52.1504C147.684 51.7958 147.409 51.5344 147.082 51.3664C146.765 51.1984 146.419 51.1144 146.046 51.1144C145.617 51.1144 145.229 51.2078 144.884 51.3944C144.539 51.5811 144.268 51.8518 144.072 52.2064C143.876 52.5518 143.778 52.9671 143.778 53.4524C143.778 53.9378 143.876 54.3578 144.072 54.7124C144.268 55.0578 144.539 55.3238 144.884 55.5104C145.229 55.6971 145.617 55.7904 146.046 55.7904C146.419 55.7904 146.765 55.7064 147.082 55.5384C147.409 55.3704 147.684 55.1091 147.908 54.7544L149.252 55.5384C148.963 56.0984 148.538 56.5324 147.978 56.8404C147.427 57.1391 146.788 57.2884 146.06 57.2884ZM153.861 57.2884C153.096 57.2884 152.415 57.1251 151.817 56.7984C151.22 56.4624 150.749 56.0051 150.403 55.4264C150.058 54.8478 149.885 54.1898 149.885 53.4524C149.885 52.7058 150.058 52.0478 150.403 51.4784C150.749 50.8998 151.22 50.4471 151.817 50.1204C152.415 49.7938 153.096 49.6304 153.861 49.6304C154.636 49.6304 155.322 49.7938 155.919 50.1204C156.526 50.4471 156.997 50.8951 157.333 51.4644C157.679 52.0338 157.851 52.6964 157.851 53.4524C157.851 54.1898 157.679 54.8478 157.333 55.4264C156.997 56.0051 156.526 56.4624 155.919 56.7984C155.322 57.1251 154.636 57.2884 153.861 57.2884ZM153.861 55.7904C154.291 55.7904 154.673 55.6971 155.009 55.5104C155.345 55.3238 155.607 55.0531 155.793 54.6984C155.989 54.3438 156.087 53.9284 156.087 53.4524C156.087 52.9671 155.989 52.5518 155.793 52.2064C155.607 51.8518 155.345 51.5811 155.009 51.3944C154.673 51.2078 154.295 51.1144 153.875 51.1144C153.446 51.1144 153.063 51.2078 152.727 51.3944C152.401 51.5811 152.139 51.8518 151.943 52.2064C151.747 52.5518 151.649 52.9671 151.649 53.4524C151.649 53.9284 151.747 54.3438 151.943 54.6984C152.139 55.0531 152.401 55.3238 152.727 55.5104C153.063 55.6971 153.441 55.7904 153.861 55.7904ZM163.613 49.6304C164.21 49.6304 164.742 49.7471 165.209 49.9804C165.685 50.2138 166.058 50.5731 166.329 51.0584C166.6 51.5344 166.735 52.1504 166.735 52.9064V57.1904H164.985V53.1304C164.985 52.4678 164.826 51.9731 164.509 51.6464C164.201 51.3198 163.767 51.1564 163.207 51.1564C162.796 51.1564 162.432 51.2404 162.115 51.4084C161.798 51.5764 161.55 51.8284 161.373 52.1644C161.205 52.4911 161.121 52.9064 161.121 53.4104V57.1904H159.371V49.7144H161.037V51.7304L160.743 51.1144C161.004 50.6384 161.382 50.2744 161.877 50.0224C162.381 49.7611 162.96 49.6304 163.613 49.6304ZM171.615 57.2884C170.794 57.2884 170.159 57.0784 169.711 56.6584C169.263 56.2291 169.039 55.5991 169.039 54.7684V48.0624H170.789V54.7264C170.789 55.0811 170.878 55.3564 171.055 55.5524C171.242 55.7484 171.498 55.8464 171.825 55.8464C172.217 55.8464 172.544 55.7438 172.805 55.5384L173.295 56.7844C173.09 56.9524 172.838 57.0784 172.539 57.1624C172.24 57.2464 171.932 57.2884 171.615 57.2884ZM167.807 51.1704V49.7704H172.791V51.1704H167.807ZM177.848 57.2884C177.018 57.2884 176.29 57.1251 175.664 56.7984C175.048 56.4624 174.568 56.0051 174.222 55.4264C173.886 54.8478 173.718 54.1898 173.718 53.4524C173.718 52.7058 173.882 52.0478 174.208 51.4784C174.544 50.8998 175.002 50.4471 175.58 50.1204C176.168 49.7938 176.836 49.6304 177.582 49.6304C178.31 49.6304 178.959 49.7891 179.528 50.1064C180.098 50.4238 180.546 50.8718 180.872 51.4504C181.199 52.0291 181.362 52.7104 181.362 53.4944C181.362 53.5691 181.358 53.6531 181.348 53.7464C181.348 53.8398 181.344 53.9284 181.334 54.0124H175.104V52.8504H180.41L179.724 53.2144C179.734 52.7851 179.645 52.4071 179.458 52.0804C179.272 51.7538 179.015 51.4971 178.688 51.3104C178.371 51.1238 178.002 51.0304 177.582 51.0304C177.153 51.0304 176.775 51.1238 176.448 51.3104C176.131 51.4971 175.879 51.7584 175.692 52.0944C175.515 52.4211 175.426 52.8084 175.426 53.2564V53.5364C175.426 53.9844 175.529 54.3811 175.734 54.7264C175.94 55.0718 176.229 55.3378 176.602 55.5244C176.976 55.7111 177.405 55.8044 177.89 55.8044C178.31 55.8044 178.688 55.7391 179.024 55.6084C179.36 55.4778 179.659 55.2724 179.92 54.9924L180.858 56.0704C180.522 56.4624 180.098 56.7658 179.584 56.9804C179.08 57.1858 178.502 57.2884 177.848 57.2884ZM187.131 49.6304C187.729 49.6304 188.261 49.7471 188.727 49.9804C189.203 50.2138 189.577 50.5731 189.847 51.0584C190.118 51.5344 190.253 52.1504 190.253 52.9064V57.1904H188.503V53.1304C188.503 52.4678 188.345 51.9731 188.027 51.6464C187.719 51.3198 187.285 51.1564 186.725 51.1564C186.315 51.1564 185.951 51.2404 185.633 51.4084C185.316 51.5764 185.069 51.8284 184.891 52.1644C184.723 52.4911 184.639 52.9064 184.639 53.4104V57.1904H182.889V49.7144H184.555V51.7304L184.261 51.1144C184.523 50.6384 184.901 50.2744 185.395 50.0224C185.899 49.7611 186.478 49.6304 187.131 49.6304ZM192.319 57.1904V49.7144H194.069V57.1904H192.319ZM193.201 48.4824C192.875 48.4824 192.604 48.3798 192.389 48.1744C192.184 47.9691 192.081 47.7218 192.081 47.4324C192.081 47.1338 192.184 46.8864 192.389 46.6904C192.604 46.4851 192.875 46.3824 193.201 46.3824C193.528 46.3824 193.794 46.4804 193.999 46.6764C194.214 46.8631 194.321 47.1011 194.321 47.3904C194.321 47.6984 194.219 47.9598 194.013 48.1744C193.808 48.3798 193.537 48.4824 193.201 48.4824ZM199.376 57.2884C198.658 57.2884 198.009 57.1298 197.43 56.8124C196.861 56.4858 196.413 56.0378 196.086 55.4684C195.76 54.8991 195.596 54.2271 195.596 53.4524C195.596 52.6778 195.76 52.0058 196.086 51.4364C196.413 50.8671 196.861 50.4238 197.43 50.1064C198.009 49.7891 198.658 49.6304 199.376 49.6304C200.002 49.6304 200.562 49.7704 201.056 50.0504C201.551 50.3211 201.943 50.7364 202.232 51.2964C202.522 51.8564 202.666 52.5751 202.666 53.4524C202.666 54.3204 202.526 55.0391 202.246 55.6084C201.966 56.1684 201.579 56.5884 201.084 56.8684C200.59 57.1484 200.02 57.2884 199.376 57.2884ZM199.586 55.7904C200.006 55.7904 200.38 55.6971 200.706 55.5104C201.042 55.3238 201.308 55.0531 201.504 54.6984C201.71 54.3438 201.812 53.9284 201.812 53.4524C201.812 52.9671 201.71 52.5518 201.504 52.2064C201.308 51.8518 201.042 51.5811 200.706 51.3944C200.38 51.2078 200.006 51.1144 199.586 51.1144C199.166 51.1144 198.788 51.2078 198.452 51.3944C198.126 51.5811 197.86 51.8518 197.654 52.2064C197.458 52.5518 197.36 52.9671 197.36 53.4524C197.36 53.9284 197.458 54.3438 197.654 54.6984C197.86 55.0531 198.126 55.3238 198.452 55.5104C198.788 55.6971 199.166 55.7904 199.586 55.7904ZM201.854 57.1904V55.4264L201.924 53.4384L201.784 51.4504V46.8024H203.52V57.1904H201.854ZM209.03 57.2884C208.264 57.2884 207.583 57.1251 206.986 56.7984C206.388 56.4624 205.917 56.0051 205.572 55.4264C205.226 54.8478 205.054 54.1898 205.054 53.4524C205.054 52.7058 205.226 52.0478 205.572 51.4784C205.917 50.8998 206.388 50.4471 206.986 50.1204C207.583 49.7938 208.264 49.6304 209.03 49.6304C209.804 49.6304 210.49 49.7938 211.088 50.1204C211.694 50.4471 212.166 50.8951 212.502 51.4644C212.847 52.0338 213.02 52.6964 213.02 53.4524C213.02 54.1898 212.847 54.8478 212.502 55.4264C212.166 56.0051 211.694 56.4624 211.088 56.7984C210.49 57.1251 209.804 57.2884 209.03 57.2884ZM209.03 55.7904C209.459 55.7904 209.842 55.6971 210.178 55.5104C210.514 55.3238 210.775 55.0531 210.962 54.6984C211.158 54.3438 211.256 53.9284 211.256 53.4524C211.256 52.9671 211.158 52.5518 210.962 52.2064C210.775 51.8518 210.514 51.5811 210.178 51.3944C209.842 51.2078 209.464 51.1144 209.044 51.1144C208.614 51.1144 208.232 51.2078 207.896 51.3944C207.569 51.5811 207.308 51.8518 207.112 52.2064C206.916 52.5518 206.818 52.9671 206.818 53.4524C206.818 53.9284 206.916 54.3438 207.112 54.6984C207.308 55.0531 207.569 55.3238 207.896 55.5104C208.232 55.6971 208.61 55.7904 209.03 55.7904ZM221.418 57.2884C220.699 57.2884 220.051 57.1298 219.472 56.8124C218.903 56.4858 218.455 56.0378 218.128 55.4684C217.801 54.8991 217.638 54.2271 217.638 53.4524C217.638 52.6778 217.801 52.0058 218.128 51.4364C218.455 50.8671 218.903 50.4238 219.472 50.1064C220.051 49.7891 220.699 49.6304 221.418 49.6304C222.043 49.6304 222.603 49.7704 223.098 50.0504C223.593 50.3211 223.985 50.7364 224.274 51.2964C224.563 51.8564 224.708 52.5751 224.708 53.4524C224.708 54.3204 224.568 55.0391 224.288 55.6084C224.008 56.1684 223.621 56.5884 223.126 56.8684C222.631 57.1484 222.062 57.2884 221.418 57.2884ZM221.628 55.7904C222.048 55.7904 222.421 55.6971 222.748 55.5104C223.084 55.3238 223.35 55.0531 223.546 54.6984C223.751 54.3438 223.854 53.9284 223.854 53.4524C223.854 52.9671 223.751 52.5518 223.546 52.2064C223.35 51.8518 223.084 51.5811 222.748 51.3944C222.421 51.2078 222.048 51.1144 221.628 51.1144C221.208 51.1144 220.83 51.2078 220.494 51.3944C220.167 51.5811 219.901 51.8518 219.696 52.2064C219.5 52.5518 219.402 52.9671 219.402 53.4524C219.402 53.9284 219.5 54.3438 219.696 54.6984C219.901 55.0531 220.167 55.3238 220.494 55.5104C220.83 55.6971 221.208 55.7904 221.628 55.7904ZM223.896 57.1904V55.4264L223.966 53.4384L223.826 51.4504V46.8024H225.562V57.1904H223.896ZM231.225 57.2884C230.395 57.2884 229.667 57.1251 229.041 56.7984C228.425 56.4624 227.945 56.0051 227.599 55.4264C227.263 54.8478 227.095 54.1898 227.095 53.4524C227.095 52.7058 227.259 52.0478 227.585 51.4784C227.921 50.8998 228.379 50.4471 228.957 50.1204C229.545 49.7938 230.213 49.6304 230.959 49.6304C231.687 49.6304 232.336 49.7891 232.905 50.1064C233.475 50.4238 233.923 50.8718 234.249 51.4504C234.576 52.0291 234.739 52.7104 234.739 53.4944C234.739 53.5691 234.735 53.6531 234.725 53.7464C234.725 53.8398 234.721 53.9284 234.711 54.0124H228.481V52.8504H233.787L233.101 53.2144C233.111 52.7851 233.022 52.4071 232.835 52.0804C232.649 51.7538 232.392 51.4971 232.065 51.3104C231.748 51.1238 231.379 51.0304 230.959 51.0304C230.53 51.0304 230.152 51.1238 229.825 51.3104C229.508 51.4971 229.256 51.7584 229.069 52.0944C228.892 52.4211 228.803 52.8084 228.803 53.2564V53.5364C228.803 53.9844 228.906 54.3811 229.111 54.7264C229.317 55.0718 229.606 55.3378 229.979 55.5244C230.353 55.7111 230.782 55.8044 231.267 55.8044C231.687 55.8044 232.065 55.7391 232.401 55.6084C232.737 55.4778 233.036 55.2724 233.297 54.9924L234.235 56.0704C233.899 56.4624 233.475 56.7658 232.961 56.9804C232.457 57.1858 231.879 57.2884 231.225 57.2884ZM242.796 57.2884C241.974 57.2884 241.34 57.0784 240.892 56.6584C240.444 56.2291 240.22 55.5991 240.22 54.7684V48.0624H241.97V54.7264C241.97 55.0811 242.058 55.3564 242.236 55.5524C242.422 55.7484 242.679 55.8464 243.006 55.8464C243.398 55.8464 243.724 55.7438 243.986 55.5384L244.476 56.7844C244.27 56.9524 244.018 57.0784 243.72 57.1624C243.421 57.2464 243.113 57.2884 242.796 57.2884ZM238.988 51.1704V49.7704H243.972V51.1704H238.988ZM248.925 57.2884C248.29 57.2884 247.73 57.1718 247.245 56.9384C246.76 56.6958 246.382 56.3318 246.111 55.8464C245.84 55.3518 245.705 54.7311 245.705 53.9844V49.7144H247.455V53.7464C247.455 54.4184 247.604 54.9224 247.903 55.2584C248.211 55.5851 248.645 55.7484 249.205 55.7484C249.616 55.7484 249.97 55.6644 250.269 55.4964C250.577 55.3284 250.815 55.0764 250.983 54.7404C251.16 54.4044 251.249 53.9891 251.249 53.4944V49.7144H252.999V57.1904H251.333V55.1744L251.627 55.7904C251.375 56.2758 251.006 56.6491 250.521 56.9104C250.036 57.1624 249.504 57.2884 248.925 57.2884ZM262.366 57.2884C261.535 57.2884 260.807 57.1251 260.182 56.7984C259.566 56.4624 259.085 56.0051 258.74 55.4264C258.404 54.8478 258.236 54.1898 258.236 53.4524C258.236 52.7058 258.399 52.0478 258.726 51.4784C259.062 50.8998 259.519 50.4471 260.098 50.1204C260.686 49.7938 261.353 49.6304 262.1 49.6304C262.828 49.6304 263.476 49.7891 264.046 50.1064C264.615 50.4238 265.063 50.8718 265.39 51.4504C265.716 52.0291 265.88 52.7104 265.88 53.4944C265.88 53.5691 265.875 53.6531 265.866 53.7464C265.866 53.8398 265.861 53.9284 265.852 54.0124H259.622V52.8504H264.928L264.242 53.2144C264.251 52.7851 264.162 52.4071 263.976 52.0804C263.789 51.7538 263.532 51.4971 263.206 51.3104C262.888 51.1238 262.52 51.0304 262.1 51.0304C261.67 51.0304 261.292 51.1238 260.966 51.3104C260.648 51.4971 260.396 51.7584 260.21 52.0944C260.032 52.4211 259.944 52.8084 259.944 53.2564V53.5364C259.944 53.9844 260.046 54.3811 260.252 54.7264C260.457 55.0718 260.746 55.3378 261.12 55.5244C261.493 55.7111 261.922 55.8044 262.408 55.8044C262.828 55.8044 263.206 55.7391 263.542 55.6084C263.878 55.4778 264.176 55.2724 264.438 54.9924L265.376 56.0704C265.04 56.4624 264.615 56.7658 264.102 56.9804C263.598 57.1858 263.019 57.2884 262.366 57.2884ZM276.843 49.6304C277.44 49.6304 277.967 49.7471 278.425 49.9804C278.891 50.2138 279.255 50.5731 279.517 51.0584C279.778 51.5344 279.909 52.1504 279.909 52.9064V57.1904H278.159V53.1304C278.159 52.4678 278.014 51.9731 277.725 51.6464C277.435 51.3198 277.02 51.1564 276.479 51.1564C276.096 51.1564 275.755 51.2404 275.457 51.4084C275.167 51.5764 274.939 51.8238 274.771 52.1504C274.612 52.4771 274.533 52.8924 274.533 53.3964V57.1904H272.783V53.1304C272.783 52.4678 272.638 51.9731 272.349 51.6464C272.059 51.3198 271.644 51.1564 271.103 51.1564C270.72 51.1564 270.379 51.2404 270.081 51.4084C269.791 51.5764 269.563 51.8238 269.395 52.1504C269.236 52.4771 269.157 52.8924 269.157 53.3964V57.1904H267.407V49.7144H269.073V51.7024L268.779 51.1144C269.031 50.6291 269.395 50.2604 269.871 50.0084C270.356 49.7564 270.907 49.6304 271.523 49.6304C272.223 49.6304 272.829 49.8031 273.343 50.1484C273.865 50.4938 274.211 51.0164 274.379 51.7164L273.693 51.4784C273.935 50.9184 274.337 50.4704 274.897 50.1344C275.457 49.7984 276.105 49.6304 276.843 49.6304ZM286.597 57.1904V55.6784L286.499 55.3564V52.7104C286.499 52.1971 286.345 51.8004 286.037 51.5204C285.729 51.2311 285.262 51.0864 284.637 51.0864C284.217 51.0864 283.802 51.1518 283.391 51.2824C282.99 51.4131 282.649 51.5951 282.369 51.8284L281.683 50.5544C282.084 50.2464 282.56 50.0178 283.111 49.8684C283.671 49.7098 284.25 49.6304 284.847 49.6304C285.93 49.6304 286.765 49.8918 287.353 50.4144C287.95 50.9278 288.249 51.7258 288.249 52.8084V57.1904H286.597ZM284.245 57.2884C283.685 57.2884 283.195 57.1951 282.775 57.0084C282.355 56.8124 282.028 56.5464 281.795 56.2104C281.571 55.8651 281.459 55.4778 281.459 55.0484C281.459 54.6284 281.557 54.2504 281.753 53.9144C281.958 53.5784 282.29 53.3124 282.747 53.1164C283.204 52.9204 283.811 52.8224 284.567 52.8224H286.737V53.9844H284.693C284.096 53.9844 283.694 54.0824 283.489 54.2784C283.284 54.4651 283.181 54.6984 283.181 54.9784C283.181 55.2958 283.307 55.5478 283.559 55.7344C283.811 55.9211 284.161 56.0144 284.609 56.0144C285.038 56.0144 285.421 55.9164 285.757 55.7204C286.102 55.5244 286.35 55.2351 286.499 54.8524L286.793 55.9024C286.625 56.3411 286.322 56.6818 285.883 56.9244C285.454 57.1671 284.908 57.2884 284.245 57.2884ZM290.341 57.1904V49.7144H292.091V57.1904H290.341ZM291.223 48.4824C290.896 48.4824 290.625 48.3798 290.411 48.1744C290.205 47.9691 290.103 47.7218 290.103 47.4324C290.103 47.1338 290.205 46.8864 290.411 46.6904C290.625 46.4851 290.896 46.3824 291.223 46.3824C291.549 46.3824 291.815 46.4804 292.021 46.6764C292.235 46.8631 292.343 47.1011 292.343 47.3904C292.343 47.6984 292.24 47.9598 292.035 48.1744C291.829 48.3798 291.559 48.4824 291.223 48.4824ZM294.234 57.1904V46.8024H295.984V57.1904H294.234Z" fill="#C7C7C7"/>
<path d="M63.9175 74.5464H68.3575V75.3024H63.9175V74.5464ZM64.0135 78.4224H69.0655V79.1904H63.1255V70.7904H68.8855V71.5584H64.0135V78.4224ZM70.9009 79.1904V70.2864H71.7529V79.1904H70.9009ZM79.7361 79.2504C79.1121 79.2504 78.5521 79.1144 78.0561 78.8424C77.5681 78.5624 77.1841 78.1824 76.9041 77.7024C76.6241 77.2144 76.4841 76.6584 76.4841 76.0344C76.4841 75.4024 76.6241 74.8464 76.9041 74.3664C77.1841 73.8864 77.5681 73.5104 78.0561 73.2384C78.5521 72.9664 79.1121 72.8304 79.7361 72.8304C80.2721 72.8304 80.7561 72.9344 81.1881 73.1424C81.6201 73.3504 81.9601 73.6624 82.2081 74.0784L81.5721 74.5104C81.3561 74.1904 81.0881 73.9544 80.7681 73.8024C80.4481 73.6504 80.1001 73.5744 79.7241 73.5744C79.2761 73.5744 78.8721 73.6784 78.5121 73.8864C78.1521 74.0864 77.8681 74.3704 77.6601 74.7384C77.4521 75.1064 77.3481 75.5384 77.3481 76.0344C77.3481 76.5304 77.4521 76.9624 77.6601 77.3304C77.8681 77.6984 78.1521 77.9864 78.5121 78.1944C78.8721 78.3944 79.2761 78.4944 79.7241 78.4944C80.1001 78.4944 80.4481 78.4184 80.7681 78.2664C81.0881 78.1144 81.3561 77.8824 81.5721 77.5704L82.2081 78.0024C81.9601 78.4104 81.6201 78.7224 81.1881 78.9384C80.7561 79.1464 80.2721 79.2504 79.7361 79.2504ZM86.2724 79.2504C85.6644 79.2504 85.1164 79.1144 84.6284 78.8424C84.1484 78.5624 83.7684 78.1824 83.4884 77.7024C83.2084 77.2144 83.0684 76.6584 83.0684 76.0344C83.0684 75.4024 83.2084 74.8464 83.4884 74.3664C83.7684 73.8864 84.1484 73.5104 84.6284 73.2384C85.1084 72.9664 85.6564 72.8304 86.2724 72.8304C86.8964 72.8304 87.4484 72.9664 87.9284 73.2384C88.4164 73.5104 88.7964 73.8864 89.0684 74.3664C89.3484 74.8464 89.4884 75.4024 89.4884 76.0344C89.4884 76.6584 89.3484 77.2144 89.0684 77.7024C88.7964 78.1824 88.4164 78.5624 87.9284 78.8424C87.4404 79.1144 86.8884 79.2504 86.2724 79.2504ZM86.2724 78.4944C86.7284 78.4944 87.1324 78.3944 87.4844 78.1944C87.8364 77.9864 88.1124 77.6984 88.3124 77.3304C88.5204 76.9544 88.6244 76.5224 88.6244 76.0344C88.6244 75.5384 88.5204 75.1064 88.3124 74.7384C88.1124 74.3704 87.8364 74.0864 87.4844 73.8864C87.1324 73.6784 86.7324 73.5744 86.2844 73.5744C85.8364 73.5744 85.4364 73.6784 85.0844 73.8864C84.7324 74.0864 84.4524 74.3704 84.2444 74.7384C84.0364 75.1064 83.9324 75.5384 83.9324 76.0344C83.9324 76.5224 84.0364 76.9544 84.2444 77.3304C84.4524 77.6984 84.7324 77.9864 85.0844 78.1944C85.4364 78.3944 85.8324 78.4944 86.2724 78.4944ZM94.3718 72.8304C94.8838 72.8304 95.3318 72.9304 95.7158 73.1304C96.1078 73.3224 96.4118 73.6184 96.6278 74.0184C96.8518 74.4184 96.9638 74.9224 96.9638 75.5304V79.1904H96.1118V75.6144C96.1118 74.9504 95.9438 74.4504 95.6078 74.1144C95.2798 73.7704 94.8158 73.5984 94.2158 73.5984C93.7678 73.5984 93.3758 73.6904 93.0398 73.8744C92.7118 74.0504 92.4558 74.3104 92.2718 74.6544C92.0958 74.9904 92.0078 75.3984 92.0078 75.8784V79.1904H91.1558V72.8904H91.9718V74.6184L91.8398 74.2944C92.0398 73.8384 92.3598 73.4824 92.7998 73.2264C93.2398 72.9624 93.7638 72.8304 94.3718 72.8304ZM101.185 79.2504C100.593 79.2504 100.137 79.0904 99.8172 78.7704C99.4972 78.4504 99.3372 77.9984 99.3372 77.4144V71.4984H100.189V77.3664C100.189 77.7344 100.281 78.0184 100.465 78.2184C100.657 78.4184 100.929 78.5184 101.281 78.5184C101.657 78.5184 101.969 78.4104 102.217 78.1944L102.517 78.8064C102.349 78.9584 102.145 79.0704 101.905 79.1424C101.673 79.2144 101.433 79.2504 101.185 79.2504ZM98.2092 73.5984V72.8904H102.109V73.5984H98.2092ZM106.45 79.2504C105.794 79.2504 105.218 79.1144 104.722 78.8424C104.226 78.5624 103.838 78.1824 103.558 77.7024C103.278 77.2144 103.138 76.6584 103.138 76.0344C103.138 75.4104 103.27 74.8584 103.534 74.3784C103.806 73.8984 104.174 73.5224 104.638 73.2504C105.11 72.9704 105.638 72.8304 106.222 72.8304C106.814 72.8304 107.338 72.9664 107.794 73.2384C108.258 73.5024 108.622 73.8784 108.886 74.3664C109.15 74.8464 109.282 75.4024 109.282 76.0344C109.282 76.0744 109.278 76.1184 109.27 76.1664C109.27 76.2064 109.27 76.2504 109.27 76.2984H103.786V75.6624H108.814L108.478 75.9144C108.478 75.4584 108.378 75.0544 108.178 74.7024C107.986 74.3424 107.722 74.0624 107.386 73.8624C107.05 73.6624 106.662 73.5624 106.222 73.5624C105.79 73.5624 105.402 73.6624 105.058 73.8624C104.714 74.0624 104.446 74.3424 104.254 74.7024C104.062 75.0624 103.966 75.4744 103.966 75.9384V76.0704C103.966 76.5504 104.07 76.9744 104.278 77.3424C104.494 77.7024 104.79 77.9864 105.166 78.1944C105.55 78.3944 105.986 78.4944 106.474 78.4944C106.858 78.4944 107.214 78.4264 107.542 78.2904C107.878 78.1544 108.166 77.9464 108.406 77.6664L108.886 78.2184C108.606 78.5544 108.254 78.8104 107.83 78.9864C107.414 79.1624 106.954 79.2504 106.45 79.2504ZM114.16 72.8304C114.672 72.8304 115.12 72.9304 115.504 73.1304C115.896 73.3224 116.2 73.6184 116.416 74.0184C116.64 74.4184 116.752 74.9224 116.752 75.5304V79.1904H115.9V75.6144C115.9 74.9504 115.732 74.4504 115.396 74.1144C115.068 73.7704 114.604 73.5984 114.004 73.5984C113.556 73.5984 113.164 73.6904 112.828 73.8744C112.5 74.0504 112.244 74.3104 112.06 74.6544C111.884 74.9904 111.796 75.3984 111.796 75.8784V79.1904H110.944V72.8904H111.76V74.6184L111.628 74.2944C111.828 73.8384 112.148 73.4824 112.588 73.2264C113.028 72.9624 113.552 72.8304 114.16 72.8304ZM118.981 79.1904V72.8904H119.833V79.1904H118.981ZM119.413 71.4984C119.237 71.4984 119.089 71.4384 118.969 71.3184C118.849 71.1984 118.789 71.0544 118.789 70.8864C118.789 70.7184 118.849 70.5784 118.969 70.4664C119.089 70.3464 119.237 70.2864 119.413 70.2864C119.589 70.2864 119.737 70.3424 119.857 70.4544C119.977 70.5664 120.037 70.7064 120.037 70.8744C120.037 71.0504 119.977 71.1984 119.857 71.3184C119.745 71.4384 119.597 71.4984 119.413 71.4984ZM124.64 79.2504C124.04 79.2504 123.5 79.1144 123.02 78.8424C122.548 78.5704 122.176 78.1944 121.904 77.7144C121.632 77.2264 121.496 76.6664 121.496 76.0344C121.496 75.3944 121.632 74.8344 121.904 74.3544C122.176 73.8744 122.548 73.5024 123.02 73.2384C123.5 72.9664 124.04 72.8304 124.64 72.8304C125.192 72.8304 125.684 72.9544 126.116 73.2024C126.556 73.4504 126.904 73.8144 127.16 74.2944C127.424 74.7664 127.556 75.3464 127.556 76.0344C127.556 76.7144 127.428 77.2944 127.172 77.7744C126.916 78.2544 126.568 78.6224 126.128 78.8784C125.696 79.1264 125.2 79.2504 124.64 79.2504ZM124.7 78.4944C125.148 78.4944 125.548 78.3944 125.9 78.1944C126.26 77.9864 126.54 77.6984 126.74 77.3304C126.948 76.9544 127.052 76.5224 127.052 76.0344C127.052 75.5384 126.948 75.1064 126.74 74.7384C126.54 74.3704 126.26 74.0864 125.9 73.8864C125.548 73.6784 125.148 73.5744 124.7 73.5744C124.26 73.5744 123.864 73.6784 123.512 73.8864C123.16 74.0864 122.88 74.3704 122.672 74.7384C122.464 75.1064 122.36 75.5384 122.36 76.0344C122.36 76.5224 122.464 76.9544 122.672 77.3304C122.88 77.6984 123.16 77.9864 123.512 78.1944C123.864 78.3944 124.26 78.4944 124.7 78.4944ZM127.076 79.1904V77.2944L127.16 76.0224L127.04 74.7504V70.2864H127.892V79.1904H127.076ZM132.761 79.2504C132.153 79.2504 131.605 79.1144 131.117 78.8424C130.637 78.5624 130.257 78.1824 129.977 77.7024C129.697 77.2144 129.557 76.6584 129.557 76.0344C129.557 75.4024 129.697 74.8464 129.977 74.3664C130.257 73.8864 130.637 73.5104 131.117 73.2384C131.597 72.9664 132.145 72.8304 132.761 72.8304C133.385 72.8304 133.937 72.9664 134.417 73.2384C134.905 73.5104 135.285 73.8864 135.557 74.3664C135.837 74.8464 135.977 75.4024 135.977 76.0344C135.977 76.6584 135.837 77.2144 135.557 77.7024C135.285 78.1824 134.905 78.5624 134.417 78.8424C133.929 79.1144 133.377 79.2504 132.761 79.2504ZM132.761 78.4944C133.217 78.4944 133.621 78.3944 133.973 78.1944C134.325 77.9864 134.601 77.6984 134.801 77.3304C135.009 76.9544 135.113 76.5224 135.113 76.0344C135.113 75.5384 135.009 75.1064 134.801 74.7384C134.601 74.3704 134.325 74.0864 133.973 73.8864C133.621 73.6784 133.221 73.5744 132.773 73.5744C132.325 73.5744 131.925 73.6784 131.573 73.8864C131.221 74.0864 130.941 74.3704 130.733 74.7384C130.525 75.1064 130.421 75.5384 130.421 76.0344C130.421 76.5224 130.525 76.9544 130.733 77.3304C130.941 77.6984 131.221 77.9864 131.573 78.1944C131.925 78.3944 132.321 78.4944 132.761 78.4944ZM143.221 79.2504C142.621 79.2504 142.081 79.1144 141.601 78.8424C141.129 78.5704 140.757 78.1944 140.485 77.7144C140.213 77.2344 140.077 76.6744 140.077 76.0344C140.077 75.4024 140.213 74.8464 140.485 74.3664C140.757 73.8784 141.129 73.5024 141.601 73.2384C142.081 72.9664 142.621 72.8304 143.221 72.8304C143.781 72.8304 144.277 72.9544 144.709 73.2024C145.149 73.4504 145.497 73.8144 145.753 74.2944C146.009 74.7664 146.137 75.3464 146.137 76.0344C146.137 76.7224 146.005 77.3064 145.741 77.7864C145.485 78.2584 145.137 78.6224 144.697 78.8784C144.265 79.1264 143.773 79.2504 143.221 79.2504ZM143.281 78.4944C143.729 78.4944 144.129 78.3944 144.481 78.1944C144.841 77.9864 145.121 77.6984 145.321 77.3304C145.529 76.9544 145.633 76.5224 145.633 76.0344C145.633 75.5464 145.529 75.1184 145.321 74.7504C145.121 74.3824 144.841 74.0944 144.481 73.8864C144.129 73.6784 143.729 73.5744 143.281 73.5744C142.841 73.5744 142.445 73.6784 142.093 73.8864C141.741 74.0944 141.461 74.3824 141.253 74.7504C141.045 75.1184 140.941 75.5464 140.941 76.0344C140.941 76.5224 141.045 76.9544 141.253 77.3304C141.461 77.6984 141.741 77.9864 142.093 78.1944C142.445 78.3944 142.841 78.4944 143.281 78.4944ZM145.621 81.5184V77.3184L145.741 76.0464L145.657 74.7864V72.8904H146.473V81.5184H145.621ZM151.377 79.2504C150.841 79.2504 150.373 79.1504 149.973 78.9504C149.573 78.7504 149.261 78.4504 149.037 78.0504C148.821 77.6504 148.713 77.1504 148.713 76.5504V72.8904H149.565V76.4544C149.565 77.1264 149.729 77.6344 150.057 77.9784C150.393 78.3144 150.861 78.4824 151.461 78.4824C151.901 78.4824 152.281 78.3944 152.601 78.2184C152.929 78.0344 153.177 77.7704 153.345 77.4264C153.521 77.0824 153.609 76.6704 153.609 76.1904V72.8904H154.461V79.1904H153.645V77.4624L153.777 77.7744C153.577 78.2384 153.265 78.6024 152.841 78.8664C152.425 79.1224 151.937 79.2504 151.377 79.2504ZM159.44 79.2504C158.784 79.2504 158.208 79.1144 157.712 78.8424C157.216 78.5624 156.828 78.1824 156.548 77.7024C156.268 77.2144 156.128 76.6584 156.128 76.0344C156.128 75.4104 156.26 74.8584 156.524 74.3784C156.796 73.8984 157.164 73.5224 157.628 73.2504C158.1 72.9704 158.628 72.8304 159.212 72.8304C159.804 72.8304 160.328 72.9664 160.784 73.2384C161.248 73.5024 161.612 73.8784 161.876 74.3664C162.14 74.8464 162.272 75.4024 162.272 76.0344C162.272 76.0744 162.268 76.1184 162.26 76.1664C162.26 76.2064 162.26 76.2504 162.26 76.2984H156.776V75.6624H161.804L161.468 75.9144C161.468 75.4584 161.368 75.0544 161.168 74.7024C160.976 74.3424 160.712 74.0624 160.376 73.8624C160.04 73.6624 159.652 73.5624 159.212 73.5624C158.78 73.5624 158.392 73.6624 158.048 73.8624C157.704 74.0624 157.436 74.3424 157.244 74.7024C157.052 75.0624 156.956 75.4744 156.956 75.9384V76.0704C156.956 76.5504 157.06 76.9744 157.268 77.3424C157.484 77.7024 157.78 77.9864 158.156 78.1944C158.54 78.3944 158.976 78.4944 159.464 78.4944C159.848 78.4944 160.204 78.4264 160.532 78.2904C160.868 78.1544 161.156 77.9464 161.396 77.6664L161.876 78.2184C161.596 78.5544 161.244 78.8104 160.82 78.9864C160.404 79.1624 159.944 79.2504 159.44 79.2504ZM169.679 79.2504C169.023 79.2504 168.447 79.1144 167.951 78.8424C167.455 78.5624 167.067 78.1824 166.787 77.7024C166.507 77.2144 166.367 76.6584 166.367 76.0344C166.367 75.4104 166.499 74.8584 166.763 74.3784C167.035 73.8984 167.403 73.5224 167.867 73.2504C168.339 72.9704 168.867 72.8304 169.451 72.8304C170.043 72.8304 170.567 72.9664 171.023 73.2384C171.487 73.5024 171.851 73.8784 172.115 74.3664C172.379 74.8464 172.511 75.4024 172.511 76.0344C172.511 76.0744 172.507 76.1184 172.499 76.1664C172.499 76.2064 172.499 76.2504 172.499 76.2984H167.015V75.6624H172.043L171.707 75.9144C171.707 75.4584 171.607 75.0544 171.407 74.7024C171.215 74.3424 170.951 74.0624 170.615 73.8624C170.279 73.6624 169.891 73.5624 169.451 73.5624C169.019 73.5624 168.631 73.6624 168.287 73.8624C167.943 74.0624 167.675 74.3424 167.483 74.7024C167.291 75.0624 167.195 75.4744 167.195 75.9384V76.0704C167.195 76.5504 167.299 76.9744 167.507 77.3424C167.723 77.7024 168.019 77.9864 168.395 78.1944C168.779 78.3944 169.215 78.4944 169.703 78.4944C170.087 78.4944 170.443 78.4264 170.771 78.2904C171.107 78.1544 171.395 77.9464 171.635 77.6664L172.115 78.2184C171.835 78.5544 171.483 78.8104 171.059 78.9864C170.643 79.1624 170.183 79.2504 169.679 79.2504ZM175.865 79.2504C175.345 79.2504 174.853 79.1784 174.389 79.0344C173.925 78.8824 173.561 78.6944 173.297 78.4704L173.681 77.7984C173.937 77.9904 174.265 78.1584 174.665 78.3024C175.065 78.4384 175.485 78.5064 175.925 78.5064C176.525 78.5064 176.957 78.4144 177.221 78.2304C177.485 78.0384 177.617 77.7864 177.617 77.4744C177.617 77.2424 177.541 77.0624 177.389 76.9344C177.245 76.7984 177.053 76.6984 176.813 76.6344C176.573 76.5624 176.305 76.5024 176.009 76.4544C175.713 76.4064 175.417 76.3504 175.121 76.2864C174.833 76.2224 174.569 76.1304 174.329 76.0104C174.089 75.8824 173.893 75.7104 173.741 75.4944C173.597 75.2784 173.525 74.9904 173.525 74.6304C173.525 74.2864 173.621 73.9784 173.813 73.7064C174.005 73.4344 174.285 73.2224 174.653 73.0704C175.029 72.9104 175.485 72.8304 176.021 72.8304C176.429 72.8304 176.837 72.8864 177.245 72.9984C177.653 73.1024 177.989 73.2424 178.253 73.4184L177.881 74.1024C177.601 73.9104 177.301 73.7744 176.981 73.6944C176.661 73.6064 176.341 73.5624 176.021 73.5624C175.453 73.5624 175.033 73.6624 174.761 73.8624C174.497 74.0544 174.365 74.3024 174.365 74.6064C174.365 74.8464 174.437 75.0344 174.581 75.1704C174.733 75.3064 174.929 75.4144 175.169 75.4944C175.417 75.5664 175.685 75.6264 175.973 75.6744C176.269 75.7224 176.561 75.7824 176.849 75.8544C177.145 75.9184 177.413 76.0104 177.653 76.1304C177.901 76.2424 178.097 76.4064 178.241 76.6224C178.393 76.8304 178.469 77.1064 178.469 77.4504C178.469 77.8184 178.365 78.1384 178.157 78.4104C177.957 78.6744 177.661 78.8824 177.269 79.0344C176.885 79.1784 176.417 79.2504 175.865 79.2504ZM182.576 79.2504C181.952 79.2504 181.392 79.1144 180.896 78.8424C180.408 78.5624 180.024 78.1824 179.744 77.7024C179.464 77.2144 179.324 76.6584 179.324 76.0344C179.324 75.4024 179.464 74.8464 179.744 74.3664C180.024 73.8864 180.408 73.5104 180.896 73.2384C181.392 72.9664 181.952 72.8304 182.576 72.8304C183.112 72.8304 183.596 72.9344 184.028 73.1424C184.46 73.3504 184.8 73.6624 185.048 74.0784L184.412 74.5104C184.196 74.1904 183.928 73.9544 183.608 73.8024C183.288 73.6504 182.94 73.5744 182.564 73.5744C182.116 73.5744 181.712 73.6784 181.352 73.8864C180.992 74.0864 180.708 74.3704 180.5 74.7384C180.292 75.1064 180.188 75.5384 180.188 76.0344C180.188 76.5304 180.292 76.9624 180.5 77.3304C180.708 77.6984 180.992 77.9864 181.352 78.1944C181.712 78.3944 182.116 78.4944 182.564 78.4944C182.94 78.4944 183.288 78.4184 183.608 78.2664C183.928 78.1144 184.196 77.8824 184.412 77.5704L185.048 78.0024C184.8 78.4104 184.46 78.7224 184.028 78.9384C183.596 79.1464 183.112 79.2504 182.576 79.2504ZM186.65 79.1904V72.8904H187.466V74.6064L187.382 74.3064C187.558 73.8264 187.854 73.4624 188.27 73.2144C188.686 72.9584 189.202 72.8304 189.818 72.8304V73.6584C189.786 73.6584 189.754 73.6584 189.722 73.6584C189.69 73.6504 189.658 73.6464 189.626 73.6464C188.962 73.6464 188.442 73.8504 188.066 74.2584C187.69 74.6584 187.502 75.2304 187.502 75.9744V79.1904H186.65ZM191.301 79.1904V72.8904H192.153V79.1904H191.301ZM191.733 71.4984C191.557 71.4984 191.409 71.4384 191.289 71.3184C191.169 71.1984 191.109 71.0544 191.109 70.8864C191.109 70.7184 191.169 70.5784 191.289 70.4664C191.409 70.3464 191.557 70.2864 191.733 70.2864C191.909 70.2864 192.057 70.3424 192.177 70.4544C192.297 70.5664 192.357 70.7064 192.357 70.8744C192.357 71.0504 192.297 71.1984 192.177 71.3184C192.065 71.4384 191.917 71.4984 191.733 71.4984ZM197.703 79.2504C197.151 79.2504 196.655 79.1264 196.215 78.8784C195.775 78.6224 195.427 78.2544 195.171 77.7744C194.915 77.2944 194.787 76.7144 194.787 76.0344C194.787 75.3464 194.915 74.7664 195.171 74.2944C195.435 73.8144 195.787 73.4504 196.227 73.2024C196.667 72.9544 197.159 72.8304 197.703 72.8304C198.303 72.8304 198.839 72.9664 199.311 73.2384C199.791 73.5024 200.167 73.8744 200.439 74.3544C200.711 74.8344 200.847 75.3944 200.847 76.0344C200.847 76.6664 200.711 77.2264 200.439 77.7144C200.167 78.1944 199.791 78.5704 199.311 78.8424C198.839 79.1144 198.303 79.2504 197.703 79.2504ZM194.451 79.1904V70.2864H195.303V74.7504L195.183 76.0224L195.267 77.2944V79.1904H194.451ZM197.643 78.4944C198.091 78.4944 198.491 78.3944 198.843 78.1944C199.195 77.9864 199.475 77.6984 199.683 77.3304C199.891 76.9544 199.995 76.5224 199.995 76.0344C199.995 75.5384 199.891 75.1064 199.683 74.7384C199.475 74.3704 199.195 74.0864 198.843 73.8864C198.491 73.6784 198.091 73.5744 197.643 73.5744C197.195 73.5744 196.791 73.6784 196.431 73.8864C196.079 74.0864 195.799 74.3704 195.591 74.7384C195.391 75.1064 195.291 75.5384 195.291 76.0344C195.291 76.5224 195.391 76.9544 195.591 77.3304C195.799 77.6984 196.079 77.9864 196.431 78.1944C196.791 78.3944 197.195 78.4944 197.643 78.4944ZM206.425 79.1904V77.7984L206.389 77.5704V75.2424C206.389 74.7064 206.237 74.2944 205.933 74.0064C205.637 73.7184 205.193 73.5744 204.601 73.5744C204.193 73.5744 203.805 73.6424 203.437 73.7784C203.069 73.9144 202.757 74.0944 202.501 74.3184L202.117 73.6824C202.437 73.4104 202.821 73.2024 203.269 73.0584C203.717 72.9064 204.189 72.8304 204.685 72.8304C205.501 72.8304 206.129 73.0344 206.569 73.4424C207.017 73.8424 207.241 74.4544 207.241 75.2784V79.1904H206.425ZM204.253 79.2504C203.781 79.2504 203.369 79.1744 203.017 79.0224C202.673 78.8624 202.409 78.6464 202.225 78.3744C202.041 78.0944 201.949 77.7744 201.949 77.4144C201.949 77.0864 202.025 76.7904 202.177 76.5264C202.337 76.2544 202.593 76.0384 202.945 75.8784C203.305 75.7104 203.785 75.6264 204.385 75.6264H206.557V76.2624H204.409C203.801 76.2624 203.377 76.3704 203.137 76.5864C202.905 76.8024 202.789 77.0704 202.789 77.3904C202.789 77.7504 202.929 78.0384 203.209 78.2544C203.489 78.4704 203.881 78.5784 204.385 78.5784C204.865 78.5784 205.277 78.4704 205.621 78.2544C205.973 78.0304 206.229 77.7104 206.389 77.2944L206.581 77.8824C206.421 78.2984 206.141 78.6304 205.741 78.8784C205.349 79.1264 204.853 79.2504 204.253 79.2504ZM211.175 79.2504C210.655 79.2504 210.163 79.1784 209.699 79.0344C209.235 78.8824 208.871 78.6944 208.607 78.4704L208.991 77.7984C209.247 77.9904 209.575 78.1584 209.975 78.3024C210.375 78.4384 210.795 78.5064 211.235 78.5064C211.835 78.5064 212.267 78.4144 212.531 78.2304C212.795 78.0384 212.927 77.7864 212.927 77.4744C212.927 77.2424 212.851 77.0624 212.699 76.9344C212.555 76.7984 212.363 76.6984 212.123 76.6344C211.883 76.5624 211.615 76.5024 211.319 76.4544C211.023 76.4064 210.727 76.3504 210.431 76.2864C210.143 76.2224 209.879 76.1304 209.639 76.0104C209.399 75.8824 209.203 75.7104 209.051 75.4944C208.907 75.2784 208.835 74.9904 208.835 74.6304C208.835 74.2864 208.931 73.9784 209.123 73.7064C209.315 73.4344 209.595 73.2224 209.963 73.0704C210.339 72.9104 210.795 72.8304 211.331 72.8304C211.739 72.8304 212.147 72.8864 212.555 72.9984C212.963 73.1024 213.299 73.2424 213.563 73.4184L213.191 74.1024C212.911 73.9104 212.611 73.7744 212.291 73.6944C211.971 73.6064 211.651 73.5624 211.331 73.5624C210.763 73.5624 210.343 73.6624 210.071 73.8624C209.807 74.0544 209.675 74.3024 209.675 74.6064C209.675 74.8464 209.747 75.0344 209.891 75.1704C210.043 75.3064 210.239 75.4144 210.479 75.4944C210.727 75.5664 210.995 75.6264 211.283 75.6744C211.579 75.7224 211.871 75.7824 212.159 75.8544C212.455 75.9184 212.723 76.0104 212.963 76.1304C213.211 76.2424 213.407 76.4064 213.551 76.6224C213.703 76.8304 213.779 77.1064 213.779 77.4504C213.779 77.8184 213.675 78.1384 213.467 78.4104C213.267 78.6744 212.971 78.8824 212.579 79.0344C212.195 79.1784 211.727 79.2504 211.175 79.2504ZM222.287 79.1904V77.7984L222.251 77.5704V75.2424C222.251 74.7064 222.099 74.2944 221.795 74.0064C221.499 73.7184 221.055 73.5744 220.463 73.5744C220.055 73.5744 219.667 73.6424 219.299 73.7784C218.931 73.9144 218.619 74.0944 218.363 74.3184L217.979 73.6824C218.299 73.4104 218.683 73.2024 219.131 73.0584C219.579 72.9064 220.051 72.8304 220.547 72.8304C221.363 72.8304 221.991 73.0344 222.431 73.4424C222.879 73.8424 223.103 74.4544 223.103 75.2784V79.1904H222.287ZM220.115 79.2504C219.643 79.2504 219.231 79.1744 218.879 79.0224C218.535 78.8624 218.271 78.6464 218.087 78.3744C217.903 78.0944 217.811 77.7744 217.811 77.4144C217.811 77.0864 217.887 76.7904 218.039 76.5264C218.199 76.2544 218.455 76.0384 218.807 75.8784C219.167 75.7104 219.647 75.6264 220.247 75.6264H222.419V76.2624H220.271C219.663 76.2624 219.239 76.3704 218.999 76.5864C218.767 76.8024 218.651 77.0704 218.651 77.3904C218.651 77.7504 218.791 78.0384 219.071 78.2544C219.351 78.4704 219.743 78.5784 220.247 78.5784C220.727 78.5784 221.139 78.4704 221.483 78.2544C221.835 78.0304 222.091 77.7104 222.251 77.2944L222.443 77.8824C222.283 78.2984 222.003 78.6304 221.603 78.8784C221.211 79.1264 220.715 79.2504 220.115 79.2504ZM228.597 79.2504C228.053 79.2504 227.561 79.1264 227.121 78.8784C226.681 78.6224 226.329 78.2584 226.065 77.7864C225.809 77.3064 225.681 76.7224 225.681 76.0344C225.681 75.3464 225.809 74.7664 226.065 74.2944C226.321 73.8144 226.669 73.4504 227.109 73.2024C227.549 72.9544 228.045 72.8304 228.597 72.8304C229.197 72.8304 229.733 72.9664 230.205 73.2384C230.685 73.5024 231.061 73.8784 231.333 74.3664C231.605 74.8464 231.741 75.4024 231.741 76.0344C231.741 76.6744 231.605 77.2344 231.333 77.7144C231.061 78.1944 230.685 78.5704 230.205 78.8424C229.733 79.1144 229.197 79.2504 228.597 79.2504ZM225.345 81.5184V72.8904H226.161V74.7864L226.077 76.0464L226.197 77.3184V81.5184H225.345ZM228.537 78.4944C228.985 78.4944 229.385 78.3944 229.737 78.1944C230.089 77.9864 230.369 77.6984 230.577 77.3304C230.785 76.9544 230.889 76.5224 230.889 76.0344C230.889 75.5464 230.785 75.1184 230.577 74.7504C230.369 74.3824 230.089 74.0944 229.737 73.8864C229.385 73.6784 228.985 73.5744 228.537 73.5744C228.089 73.5744 227.685 73.6784 227.325 73.8864C226.973 74.0944 226.693 74.3824 226.485 74.7504C226.285 75.1184 226.185 75.5464 226.185 76.0344C226.185 76.5224 226.285 76.9544 226.485 77.3304C226.693 77.6984 226.973 77.9864 227.325 78.1944C227.685 78.3944 228.089 78.4944 228.537 78.4944ZM237.319 79.1904V77.7984L237.283 77.5704V75.2424C237.283 74.7064 237.131 74.2944 236.827 74.0064C236.531 73.7184 236.087 73.5744 235.495 73.5744C235.087 73.5744 234.699 73.6424 234.331 73.7784C233.963 73.9144 233.651 74.0944 233.395 74.3184L233.011 73.6824C233.331 73.4104 233.715 73.2024 234.163 73.0584C234.611 72.9064 235.083 72.8304 235.579 72.8304C236.395 72.8304 237.023 73.0344 237.463 73.4424C237.911 73.8424 238.135 74.4544 238.135 75.2784V79.1904H237.319ZM235.147 79.2504C234.675 79.2504 234.263 79.1744 233.911 79.0224C233.567 78.8624 233.303 78.6464 233.119 78.3744C232.935 78.0944 232.843 77.7744 232.843 77.4144C232.843 77.0864 232.919 76.7904 233.071 76.5264C233.231 76.2544 233.487 76.0384 233.839 75.8784C234.199 75.7104 234.679 75.6264 235.279 75.6264H237.451V76.2624H235.303C234.695 76.2624 234.271 76.3704 234.031 76.5864C233.799 76.8024 233.683 77.0704 233.683 77.3904C233.683 77.7504 233.823 78.0384 234.103 78.2544C234.383 78.4704 234.775 78.5784 235.279 78.5784C235.759 78.5784 236.171 78.4704 236.515 78.2544C236.867 78.0304 237.123 77.7104 237.283 77.2944L237.475 77.8824C237.315 78.2984 237.035 78.6304 236.635 78.8784C236.243 79.1264 235.747 79.2504 235.147 79.2504ZM240.377 79.1904V72.8904H241.193V74.6064L241.109 74.3064C241.285 73.8264 241.581 73.4624 241.997 73.2144C242.413 72.9584 242.929 72.8304 243.545 72.8304V73.6584C243.513 73.6584 243.481 73.6584 243.449 73.6584C243.417 73.6504 243.385 73.6464 243.353 73.6464C242.689 73.6464 242.169 73.8504 241.793 74.2584C241.417 74.6584 241.229 75.2304 241.229 75.9744V79.1904H240.377ZM247.645 79.2504C246.989 79.2504 246.413 79.1144 245.917 78.8424C245.421 78.5624 245.033 78.1824 244.753 77.7024C244.473 77.2144 244.333 76.6584 244.333 76.0344C244.333 75.4104 244.465 74.8584 244.729 74.3784C245.001 73.8984 245.369 73.5224 245.833 73.2504C246.305 72.9704 246.833 72.8304 247.417 72.8304C248.009 72.8304 248.533 72.9664 248.989 73.2384C249.453 73.5024 249.817 73.8784 250.081 74.3664C250.345 74.8464 250.477 75.4024 250.477 76.0344C250.477 76.0744 250.473 76.1184 250.465 76.1664C250.465 76.2064 250.465 76.2504 250.465 76.2984H244.981V75.6624H250.009L249.673 75.9144C249.673 75.4584 249.573 75.0544 249.373 74.7024C249.181 74.3424 248.917 74.0624 248.581 73.8624C248.245 73.6624 247.857 73.5624 247.417 73.5624C246.985 73.5624 246.597 73.6624 246.253 73.8624C245.909 74.0624 245.641 74.3424 245.449 74.7024C245.257 75.0624 245.161 75.4744 245.161 75.9384V76.0704C245.161 76.5504 245.265 76.9744 245.473 77.3424C245.689 77.7024 245.985 77.9864 246.361 78.1944C246.745 78.3944 247.181 78.4944 247.669 78.4944C248.053 78.4944 248.409 78.4264 248.737 78.2904C249.073 78.1544 249.361 77.9464 249.601 77.6664L250.081 78.2184C249.801 78.5544 249.449 78.8104 249.025 78.9864C248.609 79.1624 248.149 79.2504 247.645 79.2504ZM254.755 79.2504C254.131 79.2504 253.571 79.1144 253.075 78.8424C252.587 78.5624 252.203 78.1824 251.923 77.7024C251.643 77.2144 251.503 76.6584 251.503 76.0344C251.503 75.4024 251.643 74.8464 251.923 74.3664C252.203 73.8864 252.587 73.5104 253.075 73.2384C253.571 72.9664 254.131 72.8304 254.755 72.8304C255.291 72.8304 255.775 72.9344 256.207 73.1424C256.639 73.3504 256.979 73.6624 257.227 74.0784L256.591 74.5104C256.375 74.1904 256.107 73.9544 255.787 73.8024C255.467 73.6504 255.119 73.5744 254.743 73.5744C254.295 73.5744 253.891 73.6784 253.531 73.8864C253.171 74.0864 252.887 74.3704 252.679 74.7384C252.471 75.1064 252.367 75.5384 252.367 76.0344C252.367 76.5304 252.471 76.9624 252.679 77.3304C252.887 77.6984 253.171 77.9864 253.531 78.1944C253.891 78.3944 254.295 78.4944 254.743 78.4944C255.119 78.4944 255.467 78.4184 255.787 78.2664C256.107 78.1144 256.375 77.8824 256.591 77.5704L257.227 78.0024C256.979 78.4104 256.639 78.7224 256.207 78.9384C255.775 79.1464 255.291 79.2504 254.755 79.2504ZM261.4 79.2504C260.744 79.2504 260.168 79.1144 259.672 78.8424C259.176 78.5624 258.788 78.1824 258.508 77.7024C258.228 77.2144 258.088 76.6584 258.088 76.0344C258.088 75.4104 258.22 74.8584 258.484 74.3784C258.756 73.8984 259.124 73.5224 259.588 73.2504C260.06 72.9704 260.588 72.8304 261.172 72.8304C261.764 72.8304 262.288 72.9664 262.744 73.2384C263.208 73.5024 263.572 73.8784 263.836 74.3664C264.1 74.8464 264.232 75.4024 264.232 76.0344C264.232 76.0744 264.228 76.1184 264.22 76.1664C264.22 76.2064 264.22 76.2504 264.22 76.2984H258.736V75.6624H263.764L263.428 75.9144C263.428 75.4584 263.328 75.0544 263.128 74.7024C262.936 74.3424 262.672 74.0624 262.336 73.8624C262 73.6624 261.612 73.5624 261.172 73.5624C260.74 73.5624 260.352 73.6624 260.008 73.8624C259.664 74.0624 259.396 74.3424 259.204 74.7024C259.012 75.0624 258.916 75.4744 258.916 75.9384V76.0704C258.916 76.5504 259.02 76.9744 259.228 77.3424C259.444 77.7024 259.74 77.9864 260.116 78.1944C260.5 78.3944 260.936 78.4944 261.424 78.4944C261.808 78.4944 262.164 78.4264 262.492 78.2904C262.828 78.1544 263.116 77.9464 263.356 77.6664L263.836 78.2184C263.556 78.5544 263.204 78.8104 262.78 78.9864C262.364 79.1624 261.904 79.2504 261.4 79.2504ZM265.894 79.1904V72.8904H266.71V74.6064L266.626 74.3064C266.802 73.8264 267.098 73.4624 267.514 73.2144C267.93 72.9584 268.446 72.8304 269.062 72.8304V73.6584C269.03 73.6584 268.998 73.6584 268.966 73.6584C268.934 73.6504 268.902 73.6464 268.87 73.6464C268.206 73.6464 267.686 73.8504 267.31 74.2584C266.934 74.6584 266.746 75.2304 266.746 75.9744V79.1904H265.894ZM274.024 79.1904V77.7984L273.988 77.5704V75.2424C273.988 74.7064 273.836 74.2944 273.532 74.0064C273.236 73.7184 272.792 73.5744 272.2 73.5744C271.792 73.5744 271.404 73.6424 271.036 73.7784C270.668 73.9144 270.356 74.0944 270.1 74.3184L269.716 73.6824C270.036 73.4104 270.42 73.2024 270.868 73.0584C271.316 72.9064 271.788 72.8304 272.284 72.8304C273.1 72.8304 273.728 73.0344 274.168 73.4424C274.616 73.8424 274.84 74.4544 274.84 75.2784V79.1904H274.024ZM271.852 79.2504C271.38 79.2504 270.968 79.1744 270.616 79.0224C270.272 78.8624 270.008 78.6464 269.824 78.3744C269.64 78.0944 269.548 77.7744 269.548 77.4144C269.548 77.0864 269.624 76.7904 269.776 76.5264C269.936 76.2544 270.192 76.0384 270.544 75.8784C270.904 75.7104 271.384 75.6264 271.984 75.6264H274.156V76.2624H272.008C271.4 76.2624 270.976 76.3704 270.736 76.5864C270.504 76.8024 270.388 77.0704 270.388 77.3904C270.388 77.7504 270.528 78.0384 270.808 78.2544C271.088 78.4704 271.48 78.5784 271.984 78.5784C272.464 78.5784 272.876 78.4704 273.22 78.2544C273.572 78.0304 273.828 77.7104 273.988 77.2944L274.18 77.8824C274.02 78.2984 273.74 78.6304 273.34 78.8784C272.948 79.1264 272.452 79.2504 271.852 79.2504ZM271.528 71.9064L273.172 70.4184H274.312L272.368 71.9064H271.528ZM284.098 79.1904V77.7984L284.062 77.5704V75.2424C284.062 74.7064 283.91 74.2944 283.606 74.0064C283.31 73.7184 282.866 73.5744 282.274 73.5744C281.866 73.5744 281.478 73.6424 281.11 73.7784C280.742 73.9144 280.43 74.0944 280.174 74.3184L279.79 73.6824C280.11 73.4104 280.494 73.2024 280.942 73.0584C281.39 72.9064 281.862 72.8304 282.358 72.8304C283.174 72.8304 283.802 73.0344 284.242 73.4424C284.69 73.8424 284.914 74.4544 284.914 75.2784V79.1904H284.098ZM281.926 79.2504C281.454 79.2504 281.042 79.1744 280.69 79.0224C280.346 78.8624 280.082 78.6464 279.898 78.3744C279.714 78.0944 279.622 77.7744 279.622 77.4144C279.622 77.0864 279.698 76.7904 279.85 76.5264C280.01 76.2544 280.266 76.0384 280.618 75.8784C280.978 75.7104 281.458 75.6264 282.058 75.6264H284.23V76.2624H282.082C281.474 76.2624 281.05 76.3704 280.81 76.5864C280.578 76.8024 280.462 77.0704 280.462 77.3904C280.462 77.7504 280.602 78.0384 280.882 78.2544C281.162 78.4704 281.554 78.5784 282.058 78.5784C282.538 78.5784 282.95 78.4704 283.294 78.2544C283.646 78.0304 283.902 77.7104 284.062 77.2944L284.254 77.8824C284.094 78.2984 283.814 78.6304 283.414 78.8784C283.022 79.1264 282.526 79.2504 281.926 79.2504ZM289.665 79.2504C289.065 79.2504 288.525 79.1144 288.045 78.8424C287.573 78.5704 287.201 78.1944 286.929 77.7144C286.657 77.2344 286.521 76.6744 286.521 76.0344C286.521 75.4024 286.657 74.8464 286.929 74.3664C287.201 73.8784 287.573 73.5024 288.045 73.2384C288.525 72.9664 289.065 72.8304 289.665 72.8304C290.225 72.8304 290.721 72.9544 291.153 73.2024C291.593 73.4504 291.941 73.8144 292.197 74.2944C292.453 74.7664 292.581 75.3464 292.581 76.0344C292.581 76.7224 292.449 77.3064 292.185 77.7864C291.929 78.2584 291.581 78.6224 291.141 78.8784C290.709 79.1264 290.217 79.2504 289.665 79.2504ZM289.725 78.4944C290.173 78.4944 290.573 78.3944 290.925 78.1944C291.285 77.9864 291.565 77.6984 291.765 77.3304C291.973 76.9544 292.077 76.5224 292.077 76.0344C292.077 75.5464 291.973 75.1184 291.765 74.7504C291.565 74.3824 291.285 74.0944 290.925 73.8864C290.573 73.6784 290.173 73.5744 289.725 73.5744C289.285 73.5744 288.889 73.6784 288.537 73.8864C288.185 74.0944 287.905 74.3824 287.697 74.7504C287.489 75.1184 287.385 75.5464 287.385 76.0344C287.385 76.5224 287.489 76.9544 287.697 77.3304C287.905 77.6984 288.185 77.9864 288.537 78.1944C288.889 78.3944 289.285 78.4944 289.725 78.4944ZM292.065 81.5184V77.3184L292.185 76.0464L292.101 74.7864V72.8904H292.917V81.5184H292.065ZM297.821 79.2504C297.285 79.2504 296.817 79.1504 296.417 78.9504C296.017 78.7504 295.705 78.4504 295.481 78.0504C295.265 77.6504 295.157 77.1504 295.157 76.5504V72.8904H296.009V76.4544C296.009 77.1264 296.173 77.6344 296.501 77.9784C296.837 78.3144 297.305 78.4824 297.905 78.4824C298.345 78.4824 298.725 78.3944 299.045 78.2184C299.373 78.0344 299.621 77.7704 299.789 77.4264C299.965 77.0824 300.053 76.6704 300.053 76.1904V72.8904H300.905V79.1904H300.089V77.4624L300.221 77.7744C300.021 78.2384 299.709 78.6024 299.285 78.8664C298.869 79.1224 298.381 79.2504 297.821 79.2504ZM303.208 79.1904V72.8904H304.06V79.1904H303.208ZM302.86 71.9064L304.504 70.4184H305.644L303.7 71.9064H302.86Z" fill="#C7C7C7"/>
</svg>
