<svg width="120" height="120" viewBox="0 0 120 120" fill="none" xmlns="http://www.w3.org/2000/svg">
<g opacity="0.85">
<path d="M114.4 98.2952C114.4 99.6527 101.822 100.751 86.3024 100.751C70.7834 100.751 58.2051 99.6527 58.2051 98.2952C58.2051 96.9376 70.7834 95.8398 86.3024 95.8398C101.814 95.8398 114.4 96.9376 114.4 98.2952Z" fill="black" fill-opacity="0.15"/>
</g>
<path d="M12.3076 41.6523H107.719C108.517 41.653 109.287 41.9903 109.856 42.5957C110.427 43.2016 110.749 44.0266 110.75 44.8896V55.4727C110.749 56.3354 110.426 57.1598 109.856 57.7656C109.287 58.3711 108.517 58.7093 107.719 58.71H12.3076C11.9098 58.7125 11.5147 58.6309 11.1455 58.4707C10.7766 58.3106 10.4399 58.0742 10.1553 57.7744C9.8704 57.4742 9.64286 57.116 9.4873 56.7207C9.37061 56.4241 9.29605 56.1111 9.26562 55.792L9.25 55.4717V44.8906C9.25103 44.4614 9.33184 44.0368 9.4873 43.6416C9.64286 43.2463 9.8704 42.8881 10.1553 42.5879C10.44 42.2879 10.7764 42.0508 11.1455 41.8906C11.5147 41.7305 11.9098 41.6498 12.3076 41.6523Z" fill="white" stroke="#C7C7C7" stroke-width="0.5"/>
<path d="M72.8987 47.024C72.8997 49.9537 72.3575 52.8549 71.303 55.5618C70.2486 58.2687 68.7027 60.7283 66.7535 62.7999C64.8044 64.8715 62.4903 66.5146 59.9434 67.6353C57.3966 68.756 54.6669 69.3323 51.9104 69.3312C50.8867 69.3333 49.8648 69.2428 48.8555 69.0607C43.8742 68.2898 39.3204 65.6387 36.0273 61.5921C32.7342 57.5456 30.9219 52.3742 30.9219 47.024C30.9219 41.6738 32.7342 36.5024 36.0273 32.4559C39.3204 28.4094 43.8742 25.7582 48.8555 24.9874C49.8648 24.8053 50.8867 24.7148 51.9104 24.7168C54.6669 24.7158 57.3966 25.2921 59.9434 26.4128C62.4903 27.5334 64.8044 29.1765 66.7535 31.2482C68.7027 33.3198 70.2486 35.7793 71.3031 38.4862C72.3575 41.1931 72.8997 44.0943 72.8987 47.024Z" fill="#EBF3FC"/>
<path d="M66.7889 47.0249C66.7853 52.374 64.9718 57.5434 61.6794 61.5891C58.387 65.6348 53.8353 68.287 48.8555 69.0615C43.8742 68.2907 39.3204 65.6395 36.0273 61.593C32.7342 57.5465 30.9219 52.3751 30.9219 47.0249C30.9219 41.6747 32.7342 36.5033 36.0273 32.4568C39.3204 28.4103 43.8742 25.7591 48.8555 24.9883C53.8353 25.7628 58.387 28.415 61.6794 32.4607C64.9718 36.5065 66.7854 41.6758 66.7889 47.0249Z" fill="white"/>
<path d="M51.9248 21.25C58.3345 21.2649 64.4805 23.9808 69.0137 28.8076C73.5475 33.6351 76.0974 40.1798 76.0996 47.0068L76.084 47.8828C75.9355 52.2553 74.7151 56.5158 72.5371 60.2383L72.4395 60.4043L72.5752 60.54L92.6016 80.7393V80.7402C93.459 81.6217 93.9557 82.8315 93.9795 84.1055C94.0032 85.3793 93.5516 86.6091 92.7275 87.5264L92.7217 87.5322L92.7168 87.54C92.5904 87.7027 92.4426 87.8443 92.2793 87.9619L92.2617 87.9756C91.4194 88.7045 90.3574 89.0785 89.2773 89.0293C88.1974 88.9801 87.169 88.5113 86.3877 87.708L86.3857 87.7061L66.5352 67.6934L66.377 67.5342L66.2021 67.6738C62.6128 70.5242 58.348 72.2525 53.8877 72.667C49.4273 73.0814 44.9454 72.1651 40.9463 70.0205C36.9472 67.8758 33.5879 64.5868 31.248 60.5215C28.9081 56.456 27.6805 51.7758 27.7051 47.0078C27.7377 40.1824 30.3039 33.6492 34.8408 28.8271C39.3771 24.0059 45.5167 21.2849 51.9248 21.25ZM51.9248 25.8477C47.1851 25.837 42.602 27.6371 39.0107 30.916C35.8917 33.7177 33.661 37.4697 32.6182 41.6611C31.5752 45.853 31.7704 50.2842 33.1777 54.3545C34.5851 58.425 37.137 61.9398 40.4902 64.4199C43.8437 66.9001 47.8359 68.2247 51.9248 68.2129C57.2124 68.2012 62.2767 65.9609 66.0068 61.9883C69.7365 58.016 71.8291 52.636 71.8291 47.0303C71.829 41.4247 69.7365 36.0455 66.0068 32.0732C62.2767 28.1004 57.2125 25.8593 51.9248 25.8477Z" fill="white" stroke="#C4C4C4" stroke-width="0.5"/>
<path d="M103.532 95.2472C103.364 95.5504 103.165 95.8328 102.938 96.089C102.712 96.4197 102.598 96.6001 102.598 96.6001C102.162 97.096 101.668 97.5304 101.128 97.8928C99.841 98.7459 98.3251 99.1229 96.8159 98.9653C95.3067 98.8076 93.8889 98.124 92.7832 97.021L87.522 91.8801L72.1343 76.8784C71.4046 76.1574 70.9716 75.1598 70.9292 74.1018C70.8868 73.0438 71.2385 72.0107 71.908 71.2264L74.0861 68.7011L75.2741 67.3482L76.2075 66.2659C76.5398 65.8755 76.9418 65.5592 77.3901 65.3355C77.8385 65.1117 78.3242 64.985 78.8191 64.9626C79.3139 64.9402 79.808 65.0226 80.2726 65.2051C80.7372 65.3876 81.1631 65.6664 81.5253 66.0254L97.3938 81.5082L102.174 86.168C103.318 87.3058 104.072 88.816 104.318 90.4602C104.564 92.1044 104.287 93.7887 103.532 95.2472Z" fill="#8FBBFB"/>
<path d="M111 44.8897V55.4721C111 56.3968 110.654 57.2835 110.038 57.9373C109.423 58.5912 108.589 58.9588 107.719 58.9595H94.2266V41.4023H107.719C108.589 41.403 109.423 41.7707 110.038 42.4245C110.654 43.0784 111 43.965 111 44.8897Z" fill="#679EEF"/>
<path d="M107.959 54.4365L104.607 51.0553C105 50.3842 105.208 49.6099 105.209 48.8196C105.209 47.6667 104.778 46.5609 104.012 45.7449C103.245 44.9289 102.206 44.4693 101.121 44.4668C100.036 44.4726 98.9979 44.9331 98.2311 45.7482C97.4642 46.5632 97.0309 47.667 97.0255 48.8196C97.0213 49.6249 97.2286 50.4155 97.624 51.1025C98.0194 51.7895 98.5872 52.3456 99.2637 52.7084C99.9402 53.0712 100.698 53.2262 101.453 53.1561C102.208 53.086 102.93 52.7934 103.537 52.3114L106.859 55.661C106.997 55.8028 107.179 55.886 107.371 55.8947C107.563 55.9035 107.751 55.8371 107.9 55.7083C107.93 55.6863 107.958 55.6597 107.981 55.6293C108.127 55.4677 108.206 55.2515 108.202 55.028C108.197 54.8045 108.11 54.5919 107.959 54.4365ZM101.121 52.3273C100.446 52.3292 99.7863 52.1104 99.2321 51.7005C98.6778 51.2906 98.2557 50.7094 98.0228 50.0359C97.7899 49.3623 97.7575 48.6288 97.9301 47.935C98.1028 47.2412 98.472 46.6207 98.9877 46.1575C99.5813 45.6155 100.338 45.3183 101.121 45.3201C101.995 45.3201 102.834 45.6893 103.452 46.3463C104.07 47.0034 104.417 47.8945 104.417 48.8237C104.417 49.7529 104.07 50.6441 103.452 51.3011C102.834 51.9582 101.995 52.3273 101.121 52.3273Z" fill="white"/>
<path d="M103.531 95.2469C103.363 95.5501 103.164 95.8324 102.937 96.0887C102.711 96.4194 102.598 96.5997 102.598 96.5997C102.162 97.0956 101.667 97.5301 101.127 97.8925C99.8404 98.7455 98.3245 99.1226 96.8153 98.9649C95.3062 98.8072 93.8884 98.1237 92.7826 97.0206L88.2852 92.6313L95.781 83.492L97.3933 81.5078L102.174 86.1677C103.317 87.3055 104.071 88.8157 104.317 90.4599C104.563 92.104 104.287 93.7884 103.531 95.2469Z" fill="#679EEF"/>
<path d="M77.5439 67.0361C78.2882 67.1167 78.9897 67.4561 79.5381 68.0049L79.54 68.0068L95.4092 83.4902L100.189 88.1504C101.292 89.2487 102.022 90.7082 102.26 92.2998C102.498 93.8901 102.231 95.5191 101.503 96.9287C101.349 97.2062 101.167 97.4646 100.962 97.7002C99.7285 98.5093 98.2817 98.8663 96.8418 98.7158C95.3913 98.5643 94.0264 97.9067 92.96 96.8428L92.958 96.8418L87.6963 91.7002L72.3086 76.6982C71.6264 76.0235 71.2186 75.0871 71.1787 74.0908C71.1388 73.0939 71.4712 72.1226 72.0986 71.3877L72.0977 71.3867L74.2734 68.8643L74.2744 68.8652L75.4365 67.541C76.0704 67.1338 76.8096 66.9567 77.5439 67.0361Z" fill="#D2E4FF" stroke="#C4C4C4" stroke-width="0.5"/>
<path d="M100.187 88.1484V88.1494C101.291 89.248 102.022 90.7081 102.26 92.3008C102.498 93.8913 102.23 95.5199 101.502 96.9297C101.348 97.2083 101.164 97.4668 100.958 97.7031C99.7255 98.5106 98.2802 98.867 96.8418 98.7168C95.3913 98.5652 94.0255 97.9077 92.959 96.8438L92.957 96.8418L88.624 92.6123L95.8008 83.8613L100.187 88.1484Z" fill="#C1D4F0" stroke="#C4C4C4" stroke-width="0.5"/>
<path d="M85.2737 86.3118C85.1853 86.3122 85.1 86.2771 85.0348 86.2135L73.4938 74.9954C73.4246 74.928 73.3834 74.8342 73.3792 74.7345C73.3751 74.6349 73.4084 74.5375 73.4718 74.4639C73.5352 74.3904 73.6235 74.3466 73.7173 74.3422C73.8111 74.3378 73.9026 74.3732 73.9719 74.4405L85.5128 85.6586C85.5654 85.7098 85.6023 85.7766 85.6186 85.8504C85.6348 85.9242 85.6297 86.0016 85.6038 86.0722C85.578 86.1429 85.5327 86.2036 85.4738 86.2463C85.4149 86.2891 85.3452 86.3119 85.2739 86.3118H85.2737Z" fill="#EBF3FC"/>
<path d="M88.7209 89.6591C88.6328 89.6594 88.5479 89.6242 88.4833 89.5607L85.9502 87.1107C85.9157 87.0777 85.8877 87.0378 85.8678 86.9932C85.8479 86.9486 85.8366 86.9002 85.8344 86.8509C85.8322 86.8017 85.8392 86.7524 85.8551 86.706C85.8709 86.6596 85.8953 86.6171 85.9267 86.5808C85.99 86.5077 86.0779 86.4641 86.1712 86.4594C86.2645 86.4547 86.3559 86.4894 86.4253 86.5558L88.9584 89.0058C89.011 89.0569 89.0478 89.1236 89.0641 89.1973C89.0804 89.271 89.0754 89.3482 89.0497 89.4188C89.024 89.4894 88.9789 89.5501 88.9202 89.593C88.8615 89.6358 88.792 89.6589 88.7208 89.6591H88.7209Z" fill="white"/>
<path d="M58.9766 55.0312C58.6484 55.3594 58.0469 55.3594 57.7188 55.0312L50.5 47.7578L43.2266 55.0312C42.8984 55.3594 42.2969 55.3594 41.9688 55.0312C41.6406 54.7031 41.6406 54.1016 41.9688 53.7734L49.2422 46.5L41.9688 39.2812C41.6406 38.9531 41.6406 38.3516 41.9688 38.0234C42.2969 37.6953 42.8984 37.6953 43.2266 38.0234L50.5 45.2969L57.7188 38.0234C58.0469 37.6953 58.6484 37.6953 58.9766 38.0234C59.3047 38.3516 59.3047 38.9531 58.9766 39.2812L51.7031 46.5L58.9766 53.7734C59.3047 54.1016 59.3047 54.7031 58.9766 55.0312Z" fill="#679EEF"/>
</svg>
