<svg width="134" height="131" viewBox="0 0 134 131" fill="none" xmlns="http://www.w3.org/2000/svg">
<g clip-path="url(#clip0_1831_42679)">
<path d="M123.294 39.7704C122.189 38.5098 120.851 37.4829 119.356 36.7484C117.861 36.0139 116.239 35.5862 114.581 35.4897C112.924 35.3932 111.264 35.6298 109.697 36.186C108.129 36.7422 106.685 37.607 105.446 38.7312C105.446 38.7312 102.666 41.2523 98.3628 45.1606C97.7694 42.1249 96.1069 39.4141 93.6873 37.5372C91.2678 35.6603 88.2578 34.7466 85.2228 34.9676C87.3608 33.1539 89.4457 31.3859 91.3894 29.7389C93.9654 27.5559 95.5832 24.4214 95.8871 21.025C96.191 17.6286 95.156 14.2485 93.0098 11.6284C91.9471 10.331 90.6436 9.25922 89.1737 8.47426C87.7038 7.68929 86.0963 7.2065 84.443 7.05345C81.104 6.74435 77.781 7.79711 75.205 9.98015C75.205 9.98015 60.5142 22.4306 45.822 34.9373C38.4659 41.2 31.1098 47.477 25.593 52.2158C12.964 63.0636 11.9316 63.9503 11.9316 70.0767C11.9343 73.0848 12.975 75.9965 14.8723 78.3041C16.7695 80.6116 19.4029 82.1685 22.3131 82.7033C9.88981 92.7999 9.08447 93.6969 9.08447 99.7867C9.08442 102.313 9.81613 104.784 11.1882 106.89C12.5604 108.996 14.5121 110.644 16.7996 111.629C19.0872 112.614 21.6092 112.891 24.0508 112.426C26.4923 111.962 28.7452 110.776 30.5281 109.016C32.0581 107.694 37.8688 102.962 45.7147 96.6178C45.6099 97.4905 45.5634 98.3694 45.5753 99.2485C45.5752 101.841 46.3458 104.374 47.7859 106.513C49.226 108.652 51.2683 110.299 53.6448 111.237C56.0214 112.174 58.6211 112.359 61.1028 111.767C63.5845 111.175 65.8323 109.834 67.5511 107.919C71.3272 104.232 102.863 75.5299 122.272 57.9248C124.775 55.6552 126.288 52.4674 126.48 49.0628C126.671 45.6582 125.525 42.3156 123.294 39.7704Z" fill="#D6E8F5"/>
<path d="M108.237 31.2669C108.014 31.4726 107.72 31.5797 107.419 31.5648C107.118 31.5499 106.836 31.4142 106.634 31.1874L104.619 28.9223C104.417 28.695 104.312 28.3953 104.327 28.0892C104.342 27.783 104.476 27.4955 104.7 27.2899C104.923 27.0842 105.218 26.9773 105.519 26.9927C105.82 27.008 106.102 27.1443 106.305 27.3716L108.319 29.6368C108.521 29.8641 108.625 30.1636 108.61 30.4693C108.594 30.775 108.46 31.0619 108.237 31.2669V31.2669Z" fill="#3B80F4"/>
<path d="M113.66 37.3656C113.438 37.5712 113.143 37.6784 112.843 37.6635C112.542 37.6486 112.26 37.5128 112.058 37.2861L110.043 35.021C109.841 34.7936 109.736 34.4939 109.751 34.1878C109.766 33.8816 109.9 33.5941 110.124 33.3885C110.347 33.1829 110.642 33.076 110.943 33.0913C111.244 33.1066 111.526 33.2429 111.728 33.4703L113.743 35.7355C113.945 35.9628 114.049 36.2622 114.034 36.5679C114.018 36.8736 113.884 37.1605 113.66 37.3656V37.3656Z" fill="#3B80F4"/>
<path d="M114.063 29.3908L111.83 31.4454C111.72 31.5478 111.591 31.6271 111.451 31.6787C111.31 31.7302 111.161 31.753 111.012 31.7458C110.863 31.7386 110.717 31.7015 110.582 31.6366C110.447 31.5717 110.326 31.4803 110.225 31.3677C110.125 31.2551 110.048 31.1234 109.998 30.9804C109.948 30.8373 109.926 30.6855 109.934 30.5339C109.942 30.3823 109.979 30.2337 110.044 30.0967C110.108 29.9597 110.199 29.8371 110.31 29.7357L112.543 27.6812C112.766 27.4761 113.059 27.3695 113.36 27.3847C113.66 27.4 113.942 27.536 114.143 27.7627C114.345 27.9894 114.45 28.2883 114.435 28.5937C114.42 28.899 114.286 29.1857 114.063 29.3908V29.3908Z" fill="#3B80F4"/>
<path d="M108.052 34.9222L105.819 36.9766C105.709 37.0782 105.58 37.1566 105.44 37.2075C105.3 37.2583 105.151 37.2806 105.002 37.273C104.854 37.2655 104.708 37.2282 104.573 37.1633C104.439 37.0985 104.318 37.0073 104.219 36.895C104.119 36.7828 104.042 36.6516 103.992 36.509C103.942 36.3664 103.92 36.2153 103.927 36.0641C103.935 35.9129 103.971 35.7647 104.035 35.6279C104.099 35.4911 104.188 35.3684 104.299 35.2669L106.532 33.2123C106.642 33.1108 106.771 33.0324 106.911 32.9815C107.051 32.9307 107.2 32.9084 107.349 32.916C107.497 32.9236 107.643 32.9609 107.777 33.0258C107.912 33.0906 108.033 33.1818 108.132 33.2941C108.232 33.4063 108.309 33.5375 108.359 33.6801C108.409 33.8227 108.431 33.9739 108.424 34.125C108.416 34.2762 108.38 34.4244 108.316 34.5612C108.252 34.698 108.162 34.8206 108.052 34.9222L108.052 34.9222Z" fill="#3B80F4"/>
<path d="M10.6748 43.9956C10.4911 44.1437 10.2573 44.212 10.0243 44.1856C9.79129 44.1591 9.57803 44.04 9.43099 43.8543L7.76483 41.9808C7.67537 41.9021 7.60337 41.8049 7.5536 41.6957C7.50383 41.5865 7.47742 41.4678 7.47612 41.3475C7.47483 41.2272 7.49867 41.1079 7.54607 40.9977C7.59347 40.8874 7.66336 40.7886 7.7511 40.7079C7.83884 40.6272 7.94243 40.5663 8.05503 40.5294C8.16762 40.4924 8.28665 40.4802 8.40423 40.4935C8.52182 40.5069 8.63527 40.5454 8.7371 40.6067C8.83892 40.668 8.92679 40.7506 8.99489 40.849L10.6611 42.7226C10.8281 42.89 10.9232 43.1178 10.9258 43.3562C10.9284 43.5947 10.8381 43.8245 10.6748 43.9956V43.9956Z" fill="#3B80F4"/>
<path d="M15.1608 49.0396C14.9771 49.1878 14.7433 49.2561 14.5103 49.2297C14.2773 49.2032 14.064 49.0841 13.917 48.8984L12.2508 47.0249C12.1613 46.9461 12.0893 46.849 12.0395 46.7398C11.9897 46.6306 11.9633 46.5119 11.962 46.3915C11.9607 46.2712 11.9845 46.1519 12.0319 46.0417C12.0793 45.9314 12.1492 45.8326 12.2369 45.7518C12.3247 45.6711 12.4283 45.6102 12.5409 45.5733C12.6535 45.5363 12.7726 45.5241 12.8902 45.5375C13.0078 45.5508 13.1212 45.5894 13.2231 45.6508C13.3249 45.7121 13.4128 45.7947 13.4808 45.8931L15.1471 47.7667C15.314 47.9341 15.4092 48.1618 15.4117 48.4003C15.4143 48.6387 15.3241 48.8686 15.1608 49.0396V49.0396Z" fill="#3B80F4"/>
<path d="M15.0934 42.8127L13.4639 44.3123C13.2753 44.4472 13.0448 44.5073 12.8157 44.4813C12.5866 44.4553 12.3747 44.345 12.2201 44.1711C12.0654 43.9972 11.9787 43.7718 11.9761 43.5373C11.9736 43.3028 12.0554 43.0755 12.2063 42.8982L13.836 41.3986C14.0245 41.2637 14.2551 41.2036 14.4842 41.2296C14.7133 41.2556 14.9251 41.3659 15.0798 41.5398C15.2344 41.7137 15.3212 41.9391 15.3237 42.1736C15.3263 42.4081 15.2444 42.6354 15.0936 42.8127H15.0934Z" fill="#3B80F4"/>
<path d="M10.7057 46.8499L9.07609 48.3493C8.88756 48.4842 8.65703 48.5443 8.42795 48.5183C8.19887 48.4922 7.98705 48.3819 7.83241 48.208C7.67778 48.0341 7.591 47.8087 7.58844 47.5743C7.58588 47.3398 7.6677 47.1125 7.8185 46.9352L9.44824 45.4356C9.63679 45.3007 9.86733 45.2406 10.0964 45.2667C10.3255 45.2927 10.5373 45.4031 10.6919 45.577C10.8466 45.7509 10.9333 45.9763 10.9358 46.2108C10.9384 46.4452 10.8565 46.6725 10.7057 46.8499V46.8499Z" fill="#3B80F4"/>
<path d="M109.981 86.1048C109.844 86.2306 109.664 86.2962 109.481 86.2871C109.297 86.2779 109.124 86.1949 109 86.0562L107.768 84.6707C107.646 84.5314 107.583 84.3486 107.593 84.1623C107.603 83.9759 107.684 83.8011 107.821 83.6758C107.957 83.5506 108.136 83.4853 108.319 83.4939C108.502 83.5026 108.675 83.5846 108.799 83.7222L110.031 85.1077C110.154 85.2468 110.218 85.4299 110.209 85.6169C110.199 85.8039 110.117 85.9794 109.981 86.1048Z" fill="#3B80F4"/>
<path d="M113.298 89.8349C113.161 89.9607 112.982 90.0263 112.798 90.0172C112.614 90.008 112.441 89.925 112.317 89.7863L111.085 88.4008C110.963 88.2615 110.9 88.0787 110.91 87.8923C110.919 87.7059 111.001 87.531 111.137 87.4058C111.274 87.2806 111.453 87.2152 111.636 87.2239C111.819 87.2326 111.992 87.3147 112.116 87.4523L113.348 88.8379C113.472 88.9769 113.535 89.1601 113.526 89.347C113.517 89.534 113.434 89.7095 113.298 89.8349V89.8349Z" fill="#3B80F4"/>
<path d="M113.545 84.957L112.179 86.2137C112.111 86.2758 112.032 86.3238 111.947 86.3549C111.861 86.386 111.77 86.3996 111.679 86.395C111.588 86.3904 111.499 86.3676 111.417 86.3279C111.334 86.2882 111.261 86.2325 111.2 86.1638C111.139 86.0951 111.091 86.0149 111.061 85.9277C111.03 85.8405 111.017 85.748 111.021 85.6555C111.026 85.5631 111.048 85.4724 111.087 85.3887C111.126 85.3051 111.181 85.23 111.249 85.1679L112.614 83.9112C112.751 83.7858 112.931 83.7205 113.114 83.7299C113.298 83.7392 113.47 83.8224 113.594 83.9611C113.717 84.0997 113.781 84.2826 113.772 84.4693C113.763 84.6561 113.681 84.8315 113.545 84.957V84.957Z" fill="#3B80F4"/>
<path d="M109.868 88.3407L108.502 89.5973C108.434 89.6594 108.356 89.7074 108.27 89.7385C108.184 89.7696 108.093 89.7832 108.002 89.7786C107.911 89.7739 107.822 89.7511 107.74 89.7115C107.658 89.6718 107.584 89.616 107.523 89.5474C107.462 89.4787 107.415 89.3985 107.384 89.3113C107.353 89.2241 107.34 89.1316 107.345 89.0391C107.349 88.9466 107.372 88.856 107.411 88.7723C107.45 88.6887 107.504 88.6136 107.572 88.5515L108.938 87.2948C109.005 87.2319 109.084 87.1832 109.17 87.1516C109.256 87.1199 109.347 87.1058 109.439 87.1101C109.53 87.1145 109.619 87.1372 109.702 87.1769C109.785 87.2166 109.859 87.2726 109.92 87.3415C109.982 87.4105 110.029 87.4911 110.06 87.5788C110.09 87.6664 110.103 87.7594 110.098 87.8522C110.093 87.9451 110.071 88.0361 110.031 88.1199C109.991 88.2037 109.936 88.2787 109.868 88.3407V88.3407Z" fill="#3B80F4"/>
<path d="M36.4253 104.354L38.1342 103.995C38.3058 103.957 38.4593 103.86 38.5693 103.721C38.6793 103.582 38.7393 103.408 38.7393 103.23C38.7393 103.051 38.6793 102.878 38.5693 102.739C38.4593 102.599 38.3058 102.503 38.1342 102.464L36.4253 102.106C35.5961 101.927 34.8369 101.505 34.2426 100.89C33.6483 100.275 33.2452 99.496 33.0837 98.6497L32.7372 96.8822C32.7051 96.7064 32.6135 96.5476 32.4783 96.4332C32.3432 96.3189 32.1729 96.2563 31.9971 96.2563C31.8213 96.2563 31.6511 96.3189 31.5159 96.4332C31.3807 96.5476 31.2891 96.7064 31.257 96.8822L30.9105 98.6497C30.749 99.496 30.3459 100.275 29.7516 100.89C29.1573 101.505 28.3981 101.927 27.5689 102.106L25.86 102.464C25.6885 102.503 25.535 102.599 25.4249 102.739C25.3149 102.878 25.2549 103.051 25.2549 103.23C25.2549 103.408 25.3149 103.582 25.4249 103.721C25.535 103.86 25.6885 103.957 25.86 103.995L27.5689 104.354C28.3981 104.532 29.1573 104.955 29.7516 105.57C30.3459 106.184 30.749 106.963 30.9105 107.81L31.257 109.577C31.2891 109.753 31.3807 109.912 31.5159 110.026C31.6511 110.14 31.8213 110.203 31.9971 110.203C32.1729 110.203 32.3432 110.14 32.4783 110.026C32.6135 109.912 32.7051 109.753 32.7372 109.577L33.0837 107.81C33.2453 106.963 33.6483 106.184 34.2426 105.57C34.8369 104.955 35.5961 104.532 36.4253 104.354V104.354Z" fill="#3B80F4"/>
<path d="M36.7356 20.7345L38.564 20.351C38.7475 20.31 38.9118 20.2065 39.0295 20.0575C39.1472 19.9086 39.2114 19.7232 39.2114 19.532C39.2114 19.3409 39.1472 19.1555 39.0295 19.0066C38.9118 18.8576 38.7475 18.7541 38.564 18.713L36.7356 18.3295C35.8483 18.1387 35.036 17.6862 34.4001 17.0285C33.7643 16.3708 33.333 15.5371 33.1602 14.6316L32.7894 12.7405C32.755 12.5525 32.6569 12.3827 32.5123 12.2604C32.3677 12.1382 32.1856 12.0713 31.9976 12.0713C31.8095 12.0713 31.6274 12.1382 31.4828 12.2604C31.3382 12.3827 31.2402 12.5525 31.2057 12.7405L30.8349 14.6316C30.6621 15.5371 30.2308 16.3708 29.595 17.0285C28.9591 17.6862 28.1468 18.1387 27.2596 18.3295L25.4311 18.713C25.2476 18.7541 25.0834 18.8576 24.9656 19.0066C24.8479 19.1555 24.7837 19.3409 24.7837 19.532C24.7837 19.7232 24.8479 19.9086 24.9656 20.0575C25.0834 20.2065 25.2476 20.31 25.4311 20.351L27.2596 20.7345C28.1468 20.9254 28.9591 21.3779 29.595 22.0356C30.2308 22.6932 30.6621 23.5269 30.8349 24.4324L31.2057 26.3236C31.2402 26.5116 31.3382 26.6814 31.4828 26.8037C31.6274 26.9259 31.8095 26.9928 31.9976 26.9928C32.1856 26.9928 32.3677 26.9259 32.5123 26.8037C32.6569 26.6814 32.755 26.5116 32.7894 26.3236L33.1602 24.4324C33.333 23.5269 33.7643 22.6933 34.4002 22.0356C35.036 21.3779 35.8483 20.9254 36.7356 20.7345V20.7345Z" fill="#3B80F4"/>
<path d="M88.7607 120.619L89.7485 120.412C89.8477 120.39 89.9364 120.334 90 120.253C90.0636 120.173 90.0982 120.073 90.0982 119.969C90.0982 119.866 90.0636 119.766 90 119.685C89.9364 119.605 89.8477 119.549 89.7485 119.527L88.7607 119.32C88.2814 119.217 87.8425 118.972 87.499 118.617C87.1554 118.261 86.9224 117.811 86.8291 117.322L86.6288 116.3C86.6102 116.199 86.5573 116.107 86.4791 116.041C86.401 115.975 86.3026 115.938 86.201 115.938C86.0994 115.938 86.001 115.975 85.9228 116.041C85.8447 116.107 85.7917 116.199 85.7732 116.3L85.5729 117.322C85.4795 117.811 85.2465 118.261 84.903 118.617C84.5594 118.972 84.1206 119.217 83.6413 119.32L82.6534 119.527C82.5543 119.549 82.4656 119.605 82.402 119.685C82.3384 119.766 82.3037 119.866 82.3037 119.969C82.3037 120.073 82.3384 120.173 82.402 120.253C82.4656 120.334 82.5543 120.39 82.6534 120.412L83.6413 120.619C84.1206 120.722 84.5594 120.967 84.903 121.322C85.2465 121.677 85.4795 122.128 85.5729 122.617L85.7732 123.638C85.7917 123.74 85.8447 123.832 85.9228 123.898C86.001 123.964 86.0994 124 86.201 124C86.3026 124 86.401 123.964 86.4791 123.898C86.5573 123.832 86.6102 123.74 86.6288 123.638L86.8291 122.617C86.9225 122.128 87.1555 121.677 87.499 121.322C87.8425 120.967 88.2814 120.722 88.7607 120.619V120.619Z" fill="#3B80F4"/>
<path d="M67.0016 96.2552L26.5576 55.1909H107.446L67.0016 96.2552Z" fill="#7CB2FF"/>
<path d="M67.0012 96.2587L53.3115 55.1909H80.6908L67.0012 96.2587Z" fill="#5890E7"/>
<path d="M107.446 55.1909H26.5576L40.2126 31.9536H93.7873L107.446 55.1909Z" fill="#65A0E5"/>
<path d="M107.446 55.1909H80.4829L93.9642 31.9536L107.446 55.1909Z" fill="#99BDE8"/>
<path d="M80.4827 55.1909H53.52L67.0014 31.9536L80.4827 55.1909Z" fill="#99BDE8"/>
<path d="M53.5203 55.1909H26.5576L40.039 31.9536L53.5203 55.1909Z" fill="#99BDE8"/>
</g>
<defs>
<clipPath id="clip0_1831_42679">
<rect width="119" height="117" fill="white" transform="translate(7.5 7)"/>
</clipPath>
</defs>
</svg>
