<svg width="99" height="24" viewBox="0 0 99 24" fill="none" xmlns="http://www.w3.org/2000/svg">
<path d="M6.11841 10.6973C6.37132 10.32 6.49777 9.86075 6.49777 9.31954C6.49777 8.77834 6.37431 8.32373 6.12664 7.93406C5.87897 7.54439 5.52805 7.24441 5.07236 7.03489C4.61668 6.82536 4.07645 6.72021 3.45091 6.72021H0V14.5267H2.01877V11.8547H3.05285L4.58002 14.5267H6.78286L5.04992 11.5547C5.51009 11.3583 5.86625 11.0723 6.11766 10.6973H6.11841ZM2.01877 8.24023H3.01394C3.31548 8.24023 3.56988 8.28043 3.77715 8.36006C3.98366 8.44047 4.14005 8.55954 4.2463 8.71881C4.35255 8.8773 4.40568 9.07755 4.40568 9.31954C4.40568 9.56154 4.35255 9.75869 4.2463 9.91255C4.14005 10.0664 3.98441 10.1808 3.77939 10.2558C3.57437 10.3308 3.31922 10.3679 3.01469 10.3679H2.01952V8.241L2.01877 8.24023Z" fill="white"/>
<path d="M7.60376 14.5257H13.4281V12.9933H9.62253V11.3891H13.1303V9.85281H9.62253V8.25162H13.4281V6.71924H7.60376V14.5257Z" fill="white"/>
<path d="M20.5933 10.7482C20.377 10.5549 20.1107 10.3887 19.7934 10.2487C19.4762 10.1088 19.1118 9.99744 18.698 9.91316L17.9797 9.76085C17.7896 9.72297 17.6183 9.67813 17.4656 9.6271C17.313 9.57607 17.1835 9.51731 17.0758 9.45005C16.968 9.38278 16.8865 9.30469 16.8311 9.21578C16.775 9.12687 16.7503 9.02404 16.7555 8.9073C16.7585 8.76504 16.8034 8.63824 16.8902 8.52768C16.977 8.41712 17.108 8.32975 17.2815 8.26636C17.4559 8.20296 17.6729 8.17126 17.934 8.17126C18.3283 8.17126 18.6321 8.24935 18.8454 8.40552C19.0586 8.5617 19.1791 8.77973 19.206 9.05961H21.1395C21.1343 8.57407 20.9996 8.14729 20.7354 7.7785C20.4713 7.40971 20.1009 7.12364 19.6243 6.91876C19.1469 6.71387 18.585 6.61182 17.9378 6.61182C17.2905 6.61182 16.7398 6.71387 16.2452 6.91721C15.7506 7.12055 15.363 7.40352 15.0824 7.7669C14.8026 8.13028 14.6634 8.55397 14.6664 9.03641C14.6634 9.62864 14.8707 10.0979 15.2867 10.4451C15.7027 10.7922 16.2722 11.0427 16.9957 11.1981L17.8689 11.3883C18.1735 11.4548 18.4241 11.526 18.6217 11.604C18.8192 11.6814 18.9651 11.7734 19.0601 11.8785C19.1552 11.9844 19.2038 12.1105 19.2068 12.2581C19.2038 12.4158 19.1507 12.5558 19.0482 12.6772C18.9449 12.7993 18.7975 12.8944 18.6052 12.9632C18.4136 13.032 18.1817 13.0661 17.9101 13.0661C17.6138 13.0661 17.3534 13.0228 17.1289 12.9369C16.9044 12.8504 16.7286 12.7236 16.6006 12.5558C16.4727 12.388 16.4009 12.1785 16.3844 11.9264H14.4509C14.4592 12.5365 14.6073 13.0413 14.8954 13.4395C15.1835 13.8384 15.5875 14.1361 16.1068 14.3317C16.6261 14.5273 17.2359 14.6247 17.934 14.6247C18.6321 14.6247 19.2247 14.5312 19.7186 14.3425C20.2117 14.1547 20.591 13.8841 20.8544 13.5307C21.1186 13.1774 21.2517 12.7545 21.254 12.2612C21.251 11.9489 21.1941 11.6667 21.0826 11.4146C20.9711 11.1633 20.8073 10.9407 20.591 10.7474L20.5933 10.7482Z" fill="white"/>
<path d="M29.067 6.71924H22.0066V8.25162H24.5439V14.5257H26.5342V8.25162H29.067V6.71924Z" fill="white"/>
<path d="M31.4698 6.71924L28.6511 14.5257H30.821L31.371 12.8866H34.2555L34.8062 14.5257H36.9761L34.1575 6.71924H31.4698ZM31.8514 11.454L32.7792 8.6869H32.8443L33.7744 11.454H31.8514Z" fill="white"/>
<path d="M42.9321 11.5908C42.9321 11.8599 42.8678 12.1004 42.7398 12.3114C42.6119 12.5225 42.4345 12.6879 42.2078 12.807C41.9803 12.9261 41.7162 12.9864 41.4139 12.9864C41.1116 12.9864 40.8475 12.9261 40.6185 12.807C40.3903 12.6872 40.2122 12.5225 40.0858 12.3114C39.9593 12.1004 39.8957 11.8599 39.8957 11.5908V6.71924H37.877V11.7548C37.877 12.3369 38.0236 12.8426 38.3177 13.2732C38.6117 13.7046 39.0233 14.0371 39.5538 14.2721C40.0843 14.5072 40.7038 14.6247 41.4139 14.6247C42.124 14.6247 42.7316 14.5072 43.2621 14.2721C43.7926 14.0371 44.2056 13.7046 44.5019 13.2732C44.7982 12.8426 44.9464 12.3362 44.9464 11.7548V6.71924H42.9314V11.5908H42.9321Z" fill="white"/>
<path d="M52.3308 10.6973C52.5837 10.32 52.7102 9.86075 52.7102 9.31954C52.7102 8.77834 52.586 8.32373 52.339 7.93406C52.0914 7.54439 51.7397 7.24441 51.2848 7.03489C50.8291 6.82536 50.2881 6.72021 49.6626 6.72021H46.2124V14.5267H48.2312V11.8547H49.266L50.7932 14.5267H52.996L51.2631 11.5547C51.7232 11.3576 52.0794 11.0723 52.3316 10.6973H52.3308ZM48.2304 8.24023H49.2256C49.5271 8.24023 49.7823 8.28043 49.9888 8.36006C50.1953 8.44047 50.3517 8.55954 50.4572 8.71881C50.5635 8.8773 50.6158 9.07755 50.6158 9.31954C50.6158 9.56154 50.5627 9.75869 50.4572 9.91255C50.351 10.0664 50.1953 10.1808 49.9903 10.2558C49.7845 10.3308 49.5294 10.3679 49.2248 10.3679H48.2297V8.241L48.2304 8.24023Z" fill="white"/>
<path d="M56.2703 6.71924L53.4517 14.5257H55.6223L56.1723 12.8866H59.0568L59.6075 14.5257H61.7781L58.9595 6.71924H56.2718H56.2703ZM56.6519 11.454L57.5797 8.6869H57.6448L58.5749 11.454H56.6519Z" fill="white"/>
<path d="M67.7733 11.2174H67.7044L64.4166 6.71924H62.6785V14.5257H64.698V10.0206H64.7504L68.0748 14.5257H69.7883V6.71924H67.7733V11.2174Z" fill="white"/>
<path d="M70.7795 8.25162H73.3168V14.5257H75.3072V8.25162H77.8408V6.71924H70.7795V8.25162Z" fill="white"/>
<path d="M80.2981 12.9541C80.0848 12.7624 79.8394 12.6665 79.5618 12.6665C79.2677 12.6665 79.0171 12.7624 78.809 12.9541C78.601 13.1466 78.4985 13.377 78.5008 13.6461C78.4985 13.9206 78.6003 14.1548 78.809 14.3481C79.0171 14.5406 79.2677 14.6373 79.5618 14.6373C79.7496 14.6373 79.9224 14.5924 80.0818 14.5043C80.2404 14.4154 80.3699 14.2955 80.4687 14.1455C80.5682 13.9955 80.619 13.8293 80.6213 13.6461C80.619 13.377 80.5106 13.1466 80.2973 12.9541H80.2981Z" fill="white"/>
<path d="M81.8015 5.80944C83.2284 5.88676 87.2375 6.09628 89.0108 6.09628C90.7842 6.09628 94.7267 5.88985 96.1888 5.81099C96.399 5.79939 96.4896 5.53034 96.3317 5.3873C95.9089 5.00382 95.1682 4.40076 94.1707 3.8526C92.1063 2.71839 90.1354 2.59701 90.1354 2.59701C90.1354 2.59701 90.4722 1.49063 90.5694 0.942469C90.6046 0.744543 90.3262 0 88.9323 0C88.1272 0 87.3759 0.48863 87.4582 0.981126C87.5345 1.43651 87.9064 2.58773 87.9064 2.58773C87.9064 2.58773 85.9475 2.75705 84.041 3.75132C82.953 4.31881 82.1202 4.99995 81.6668 5.41127C81.5179 5.54657 81.6024 5.79939 81.8 5.81022L81.8015 5.80944Z" fill="#EE781F"/>
<path d="M98.5913 8.04464L98.5502 7.90161C98.4185 7.44081 97.9493 7.17794 97.5034 7.31401L96.5546 7.60394L96.3077 6.30273C96.3077 6.30273 91.8885 6.60272 89.019 6.60272C86.1495 6.60272 81.6742 6.30273 81.6742 6.30273L81.4333 7.5792L80.5638 7.31324C80.1179 7.17717 79.6495 7.44004 79.517 7.90083L79.4759 8.04387C79.3442 8.50466 79.5986 8.98865 80.0445 9.1255L81.2073 9.48115C81.2328 10.4491 81.3443 12.2452 81.8127 13.4057C82.0364 13.96 82.7779 17 89.2001 17C95.0963 17 96.1206 14.0157 96.3077 13.5123C96.7619 12.29 96.8128 10.4862 96.8015 9.49816L98.0227 9.12473C98.4686 8.98865 98.723 8.50389 98.5913 8.04309V8.04464Z" fill="#EE781F"/>
<path d="M87.5719 7.58249C87.1866 7.36988 86.7294 7.26318 86.2004 7.26318H83.2822V14.564H84.9897V12.2972H86.1495C86.6897 12.2972 87.1566 12.1936 87.5502 11.9871C87.9438 11.7807 88.2468 11.4892 88.4593 11.1119C88.6726 10.7354 88.7788 10.2947 88.7788 9.79138C88.7788 9.28806 88.6741 8.84969 88.4646 8.47084C88.2558 8.092 87.958 7.79588 87.5727 7.58327L87.5719 7.58249ZM86.8731 10.3774C86.7833 10.5452 86.6516 10.6751 86.478 10.7679C86.3044 10.8606 86.0889 10.907 85.8315 10.907H84.989V8.68655H85.8315C86.0867 8.68655 86.3014 8.73139 86.4765 8.82185C86.6516 8.91231 86.784 9.03988 86.8731 9.20533C86.9629 9.37079 87.0077 9.56562 87.0077 9.79215C87.0077 10.0187 86.9629 10.2112 86.8731 10.379V10.3774Z" fill="white"/>
<path d="M94.7365 8.69681V7.26416H89.8108V14.5642H94.7365V13.1316H91.5175V11.6309H94.4851V10.1944H91.5175V8.69681H94.7365Z" fill="white"/>
<path d="M23.7746 22.484C23.8332 22.484 23.8852 22.5067 23.9306 22.552L24.3546 23.012C24.1199 23.3027 23.8306 23.5253 23.4866 23.68C23.1452 23.8347 22.7346 23.912 22.2546 23.912C21.8252 23.912 21.4386 23.8387 21.0946 23.692C20.7532 23.5453 20.4612 23.3413 20.2186 23.08C19.9759 22.8187 19.7892 22.5067 19.6586 22.144C19.5306 21.7813 19.4666 21.3853 19.4666 20.956C19.4666 20.5213 19.5359 20.124 19.6746 19.764C19.8132 19.4013 20.0079 19.0893 20.2586 18.828C20.5119 18.5667 20.8132 18.364 21.1626 18.22C21.5119 18.0733 21.8986 18 22.3226 18C22.7439 18 23.1172 18.0693 23.4426 18.208C23.7706 18.3467 24.0492 18.528 24.2786 18.752L23.9186 19.252C23.8972 19.284 23.8692 19.312 23.8346 19.336C23.8026 19.36 23.7572 19.372 23.6986 19.372C23.6586 19.372 23.6172 19.3613 23.5746 19.34C23.5319 19.316 23.4852 19.288 23.4346 19.256C23.3839 19.2213 23.3252 19.184 23.2586 19.144C23.1919 19.104 23.1146 19.068 23.0266 19.036C22.9386 19.0013 22.8359 18.9733 22.7186 18.952C22.6039 18.928 22.4706 18.916 22.3186 18.916C22.0599 18.916 21.8226 18.9627 21.6066 19.056C21.3932 19.1467 21.2092 19.28 21.0546 19.456C20.8999 19.6293 20.7799 19.8427 20.6946 20.096C20.6092 20.3467 20.5666 20.6333 20.5666 20.956C20.5666 21.2813 20.6119 21.5707 20.7026 21.824C20.7959 22.0773 20.9212 22.2907 21.0786 22.464C21.2359 22.6373 21.4212 22.7707 21.6346 22.864C21.8479 22.9547 22.0772 23 22.3226 23C22.4692 23 22.6012 22.992 22.7186 22.976C22.8386 22.96 22.9479 22.9347 23.0466 22.9C23.1479 22.8653 23.2426 22.8213 23.3306 22.768C23.4212 22.712 23.5106 22.644 23.5986 22.564C23.6252 22.54 23.6532 22.5213 23.6826 22.508C23.7119 22.492 23.7426 22.484 23.7746 22.484Z" fill="white"/>
<path d="M32.5529 20.956C32.5529 21.38 32.4823 21.7733 32.3409 22.136C32.2023 22.496 32.0049 22.808 31.7489 23.072C31.4929 23.336 31.1849 23.5427 30.8249 23.692C30.4649 23.8387 30.0649 23.912 29.6249 23.912C29.1876 23.912 28.7889 23.8387 28.4289 23.692C28.0689 23.5427 27.7596 23.336 27.5009 23.072C27.2449 22.808 27.0463 22.496 26.9049 22.136C26.7636 21.7733 26.6929 21.38 26.6929 20.956C26.6929 20.532 26.7636 20.14 26.9049 19.78C27.0463 19.4173 27.2449 19.104 27.5009 18.84C27.7596 18.576 28.0689 18.3707 28.4289 18.224C28.7889 18.0747 29.1876 18 29.6249 18C29.9183 18 30.1943 18.0347 30.4529 18.104C30.7116 18.1707 30.9489 18.2667 31.1649 18.392C31.3809 18.5147 31.5743 18.6653 31.7449 18.844C31.9183 19.02 32.0649 19.2173 32.1849 19.436C32.3049 19.6547 32.3956 19.892 32.4569 20.148C32.5209 20.404 32.5529 20.6733 32.5529 20.956ZM31.4529 20.956C31.4529 20.6387 31.4103 20.3547 31.3249 20.104C31.2396 19.8507 31.1183 19.636 30.9609 19.46C30.8036 19.284 30.6116 19.1493 30.3849 19.056C30.1609 18.9627 29.9076 18.916 29.6249 18.916C29.3423 18.916 29.0876 18.9627 28.8609 19.056C28.6369 19.1493 28.4449 19.284 28.2849 19.46C28.1276 19.636 28.0063 19.8507 27.9209 20.104C27.8356 20.3547 27.7929 20.6387 27.7929 20.956C27.7929 21.2733 27.8356 21.5587 27.9209 21.812C28.0063 22.0627 28.1276 22.276 28.2849 22.452C28.4449 22.6253 28.6369 22.7587 28.8609 22.852C29.0876 22.9453 29.3423 22.992 29.6249 22.992C29.9076 22.992 30.1609 22.9453 30.3849 22.852C30.6116 22.7587 30.8036 22.6253 30.9609 22.452C31.1183 22.276 31.2396 22.0627 31.3249 21.812C31.4103 21.5587 31.4529 21.2733 31.4529 20.956Z" fill="white"/>
<path d="M40.3192 18.064V23.848H39.7672C39.6818 23.848 39.6098 23.8347 39.5512 23.808C39.4952 23.7787 39.4405 23.7307 39.3872 23.664L36.3672 19.808C36.3832 19.984 36.3912 20.1467 36.3912 20.296V23.848H35.4432V18.064H36.0072C36.0525 18.064 36.0912 18.0667 36.1232 18.072C36.1578 18.0747 36.1872 18.0827 36.2112 18.096C36.2378 18.1067 36.2632 18.124 36.2872 18.148C36.3112 18.1693 36.3378 18.1987 36.3672 18.236L39.3992 22.108C39.3912 22.0147 39.3845 21.9227 39.3792 21.832C39.3738 21.7413 39.3712 21.6573 39.3712 21.58V18.064H40.3192Z" fill="white"/>
<path d="M47.3504 18.948H45.6064V23.848H44.5304V18.948H42.7864V18.064H47.3504V18.948Z" fill="white"/>
<path d="M52.6007 21.664L51.8967 19.74C51.8621 19.6547 51.8261 19.5533 51.7887 19.436C51.7514 19.3187 51.7141 19.192 51.6767 19.056C51.6421 19.192 51.6061 19.32 51.5687 19.44C51.5314 19.5573 51.4954 19.66 51.4607 19.748L50.7607 21.664H52.6007ZM54.5007 23.848H53.6687C53.5754 23.848 53.4994 23.8253 53.4407 23.78C53.3821 23.732 53.3381 23.6733 53.3087 23.604L52.8767 22.424H50.4807L50.0487 23.604C50.0274 23.6653 49.9861 23.7213 49.9247 23.772C49.8634 23.8227 49.7874 23.848 49.6967 23.848H48.8567L51.1327 18.064H52.2287L54.5007 23.848Z" fill="white"/>
<path d="M58.9431 23.008C59.1431 23.008 59.3111 22.984 59.4471 22.936C59.5831 22.888 59.6911 22.824 59.7711 22.744C59.8538 22.664 59.9124 22.5707 59.9471 22.464C59.9844 22.3573 60.0031 22.244 60.0031 22.124C60.0031 21.9987 59.9831 21.8867 59.9431 21.788C59.9031 21.6867 59.8404 21.6013 59.7551 21.532C59.6698 21.46 59.5591 21.4053 59.4231 21.368C59.2898 21.3307 59.1284 21.312 58.9391 21.312H57.8551V23.008H58.9431ZM57.8551 18.896V20.568H58.7111C59.0791 20.568 59.3564 20.5013 59.5431 20.368C59.7324 20.2347 59.8271 20.0227 59.8271 19.732C59.8271 19.4307 59.7418 19.216 59.5711 19.088C59.4004 18.96 59.1338 18.896 58.7711 18.896H57.8551ZM58.7711 18.064C59.1498 18.064 59.4738 18.1 59.7431 18.172C60.0124 18.244 60.2324 18.3467 60.4031 18.48C60.5764 18.6133 60.7031 18.7747 60.7831 18.964C60.8631 19.1533 60.9031 19.3667 60.9031 19.604C60.9031 19.74 60.8831 19.8707 60.8431 19.996C60.8031 20.1187 60.7404 20.2347 60.6551 20.344C60.5724 20.4507 60.4658 20.548 60.3351 20.636C60.2071 20.724 60.0538 20.7987 59.8751 20.86C60.6698 21.0387 61.0671 21.468 61.0671 22.148C61.0671 22.3933 61.0204 22.62 60.9271 22.828C60.8338 23.036 60.6978 23.216 60.5191 23.368C60.3404 23.5173 60.1204 23.6347 59.8591 23.72C59.5978 23.8053 59.2991 23.848 58.9631 23.848H56.7791V18.064H58.7711Z" fill="white"/>
<path d="M65.07 23.848H63.99V18.064H65.07V23.848Z" fill="white"/>
<path d="M71.6984 22.96V23.848H68.3104V18.064H69.3864V22.96H71.6984Z" fill="white"/>
<path d="M75.2497 23.848H74.1697V18.064H75.2497V23.848Z" fill="white"/>
<path d="M83.626 20.956C83.626 21.38 83.5554 21.7693 83.414 22.124C83.2727 22.4787 83.0741 22.784 82.8181 23.04C82.562 23.296 82.2541 23.4947 81.8941 23.636C81.534 23.7773 81.134 23.848 80.694 23.848H78.49V18.064H80.694C81.134 18.064 81.534 18.136 81.8941 18.28C82.2541 18.4213 82.562 18.62 82.8181 18.876C83.0741 19.1293 83.2727 19.4333 83.414 19.788C83.5554 20.1427 83.626 20.532 83.626 20.956ZM82.522 20.956C82.522 20.6387 82.4794 20.3547 82.3941 20.104C82.3114 19.8507 82.19 19.6373 82.03 19.464C81.8727 19.288 81.6807 19.1533 81.454 19.06C81.23 18.9667 80.9767 18.92 80.694 18.92H79.57V22.992H80.694C80.9767 22.992 81.23 22.9453 81.454 22.852C81.6807 22.7587 81.8727 22.6253 82.03 22.452C82.19 22.276 82.3114 22.0627 82.3941 21.812C82.4794 21.5587 82.522 21.2733 82.522 20.956Z" fill="white"/>
<path d="M89.3117 21.664L88.6077 19.74C88.573 19.6547 88.537 19.5533 88.4997 19.436C88.4623 19.3187 88.425 19.192 88.3877 19.056C88.353 19.192 88.317 19.32 88.2797 19.44C88.2423 19.5573 88.2063 19.66 88.1717 19.748L87.4717 21.664H89.3117ZM91.2117 23.848H90.3797C90.2863 23.848 90.2103 23.8253 90.1517 23.78C90.093 23.732 90.049 23.6733 90.0197 23.604L89.5877 22.424H87.1917L86.7597 23.604C86.7383 23.6653 86.697 23.7213 86.6357 23.772C86.5743 23.8227 86.4983 23.848 86.4077 23.848H85.5677L87.8437 18.064H88.9397L91.2117 23.848Z" fill="white"/>
<path d="M98.626 20.956C98.626 21.38 98.5554 21.7693 98.414 22.124C98.2727 22.4787 98.074 22.784 97.818 23.04C97.562 23.296 97.2541 23.4947 96.8941 23.636C96.534 23.7773 96.134 23.848 95.694 23.848H93.4901V18.064H95.694C96.134 18.064 96.534 18.136 96.8941 18.28C97.2541 18.4213 97.562 18.62 97.818 18.876C98.074 19.1293 98.2727 19.4333 98.414 19.788C98.5554 20.1427 98.626 20.532 98.626 20.956ZM97.522 20.956C97.522 20.6387 97.4794 20.3547 97.3941 20.104C97.3114 19.8507 97.1901 19.6373 97.0301 19.464C96.8727 19.288 96.6807 19.1533 96.454 19.06C96.23 18.9667 95.9767 18.92 95.694 18.92H94.57V22.992H95.694C95.9767 22.992 96.23 22.9453 96.454 22.852C96.6807 22.7587 96.8727 22.6253 97.0301 22.452C97.1901 22.276 97.3114 22.0627 97.3941 21.812C97.4794 21.5587 97.522 21.2733 97.522 20.956Z" fill="white"/>
</svg>
