<?xml version="1.0" encoding="UTF-8"?>
<svg id="Capa_1" xmlns="http://www.w3.org/2000/svg" version="1.1" viewBox="0 0 1080 268.82">
  <!-- Generator: Adobe Illustrator 30.0.0, SVG Export Plug-In . SVG Version: 2.1.1 Build 123)  -->
  <defs>
    <style>
      .st0 {
        fill: #4c5b5f;
      }

      .st1 {
        fill: #fff;
      }

      .st2 {
        fill: #ee781f;
      }
    </style>
  </defs>
  <path class="st0" d="M99.94,121.53c2.58-3.84,3.86-8.52,3.86-14.04s-1.26-10.14-3.78-14.11c-2.52-3.97-6.1-7.03-10.74-9.16-4.64-2.13-10.15-3.21-16.52-3.21h-35.16v79.53h20.57v-27.22h10.53l15.56,27.22h22.44l-17.65-30.28c4.69-2,8.32-4.91,10.88-8.73h0ZM58.17,96.5h10.14c3.07,0,5.66.41,7.78,1.22,2.1.82,3.7,2.03,4.78,3.65,1.08,1.61,1.62,3.65,1.62,6.12s-.54,4.47-1.62,6.04c-1.08,1.57-2.67,2.73-4.76,3.5-2.09.76-4.69,1.14-7.79,1.14h-10.14v-21.67h0Z"/>
  <path class="st0" d="M115.06,160.54h59.34v-15.61h-38.77v-16.34h35.74v-15.65h-35.74v-16.31h38.77v-15.61h-59.34v79.53Z"/>
  <path class="st0" d="M247.4,122.05c-2.2-1.97-4.92-3.66-8.15-5.09-3.23-1.43-6.94-2.56-11.16-3.42l-7.32-1.55c-1.94-.39-3.68-.84-5.24-1.36-1.56-.52-2.87-1.12-3.97-1.8-1.1-.69-1.93-1.48-2.49-2.39-.57-.91-.82-1.95-.77-3.14.03-1.45.49-2.74,1.37-3.87.88-1.13,2.22-2.02,3.99-2.66,1.78-.65,3.99-.97,6.65-.97,4.02,0,7.11.8,9.28,2.39,2.17,1.59,3.4,3.81,3.67,6.66h19.7c-.05-4.95-1.43-9.29-4.12-13.05-2.69-3.76-6.46-6.67-11.32-8.76-4.86-2.09-10.59-3.13-17.18-3.13s-12.2,1.04-17.24,3.11c-5.04,2.07-8.99,4.95-11.85,8.66-2.85,3.7-4.27,8.02-4.24,12.93-.03,6.03,2.08,10.81,6.32,14.35,4.24,3.54,10.04,6.09,17.41,7.67l8.9,1.94c3.1.68,5.66,1.4,7.67,2.2,2.01.79,3.5,1.72,4.47,2.8.97,1.08,1.46,2.36,1.49,3.87-.03,1.61-.57,3.03-1.62,4.27-1.05,1.24-2.55,2.21-4.51,2.91-1.95.7-4.31,1.05-7.08,1.05-3.02,0-5.67-.44-7.96-1.32-2.29-.88-4.08-2.17-5.38-3.88-1.3-1.71-2.04-3.84-2.2-6.41h-19.7c.08,6.21,1.59,11.36,4.53,15.41,2.94,4.06,7.05,7.1,12.34,9.09,5.29,1.99,11.5,2.98,18.62,2.98s13.15-.95,18.18-2.87c5.02-1.91,8.89-4.67,11.57-8.27,2.69-3.6,4.05-7.91,4.07-12.93-.03-3.18-.61-6.06-1.75-8.62-1.14-2.56-2.81-4.83-5.01-6.8h.02Z"/>
  <path class="st0" d="M333.72,81.01h-71.93v15.61h25.85v63.92h20.28v-63.92h25.8v-15.61Z"/>
  <path class="st0" d="M358.19,81.01l-28.71,79.53h22.11l5.6-16.7h29.39l5.61,16.7h22.11l-28.72-79.53h-27.38ZM362.08,129.24l9.45-28.19h.66l9.47,28.19h-19.59Z"/>
  <path class="st0" d="M474.97,130.64c0,2.74-.66,5.19-1.96,7.34-1.3,2.15-3.11,3.84-5.42,5.05-2.32,1.21-5.01,1.83-8.09,1.83s-5.77-.61-8.1-1.83c-2.32-1.22-4.14-2.9-5.43-5.05-1.29-2.15-1.94-4.6-1.94-7.34v-49.63h-20.57v51.3c0,5.93,1.49,11.08,4.49,15.47,3,4.39,7.19,7.78,12.59,10.18,5.4,2.4,11.72,3.59,18.95,3.59s13.42-1.2,18.83-3.59c5.4-2.39,9.61-5.78,12.63-10.18,3.02-4.39,4.53-9.55,4.53-15.47v-51.3h-20.53v49.63Z"/>
  <path class="st0" d="M570.73,121.53c2.58-3.84,3.87-8.52,3.87-14.04s-1.27-10.14-3.78-14.11c-2.52-3.97-6.11-7.03-10.74-9.16-4.64-2.13-10.15-3.21-16.53-3.21h-35.15v79.53h20.57v-27.22h10.54l15.56,27.22h22.44l-17.65-30.28c4.69-2.01,8.32-4.91,10.89-8.73h0ZM528.96,96.5h10.14c3.07,0,5.67.41,7.78,1.22,2.1.82,3.7,2.03,4.77,3.65,1.08,1.61,1.62,3.65,1.62,6.12s-.54,4.47-1.62,6.04c-1.08,1.57-2.67,2.73-4.76,3.5-2.1.76-4.7,1.14-7.8,1.14h-10.14v-21.67h0Z"/>
  <path class="st0" d="M610.85,81.01l-28.71,79.53h22.11l5.6-16.7h29.39l5.61,16.7h22.11l-28.72-79.53h-27.4ZM614.74,129.24l9.45-28.19h.66l9.48,28.19h-19.59Z"/>
  <path class="st0" d="M728.04,126.83h-.7l-33.49-45.83h-17.71v79.53h20.57v-45.9h.53l33.87,45.9h17.46v-79.53h-20.53v45.83Z"/>
  <path class="st0" d="M758.67,96.62h25.85v63.92h20.28v-63.92h25.81v-15.61h-71.94v15.61Z"/>
  <path class="st1" d="M855.63,144.52c-2.17-1.95-4.67-2.93-7.5-2.93-3,0-5.55.98-7.67,2.93-2.12,1.96-3.16,4.31-3.14,7.05-.02,2.8,1.01,5.18,3.14,7.15,2.12,1.96,4.67,2.95,7.67,2.95,1.91,0,3.67-.46,5.3-1.35,1.62-.91,2.94-2.13,3.94-3.66,1.01-1.53,1.53-3.22,1.56-5.09-.02-2.74-1.13-5.09-3.3-7.05h0Z"/>
  <path class="st2" d="M870.96,71.73c14.54.79,55.38,2.92,73.45,2.92s58.23-2.1,73.12-2.91c2.14-.12,3.06-2.86,1.46-4.32-4.31-3.91-11.85-10.05-22.01-15.63-21.03-11.55-41.11-12.79-41.11-12.79,0,0,3.43-11.27,4.42-16.86.36-2.02-2.48-9.6-16.68-9.6-8.2,0-15.86,4.98-15.02,10,.78,4.64,4.57,16.37,4.57,16.37,0,0-19.96,1.72-39.38,11.85-11.08,5.78-19.57,12.72-24.19,16.91-1.52,1.38-.66,3.95,1.36,4.06h.02Z"/>
  <path class="st2" d="M1042.01,94.5l-.42-1.46c-1.34-4.69-6.12-7.37-10.66-5.99l-9.66,2.95-2.52-13.26s-45.02,3.06-74.25,3.06-74.83-3.06-74.83-3.06l-2.46,13-8.86-2.71c-4.54-1.39-9.32,1.29-10.66,5.99l-.42,1.46c-1.34,4.69,1.25,9.62,5.79,11.02l11.85,3.62c.26,9.86,1.39,28.16,6.17,39.98,2.28,5.65,9.83,36.62,75.26,36.62,60.07,0,70.5-30.4,72.41-35.53,4.63-12.45,5.15-30.83,5.03-40.89l12.44-3.8c4.54-1.39,7.14-6.32,5.79-11.02v.02Z"/>
  <path class="st1" d="M929.73,89.79c-3.93-2.17-8.58-3.25-13.97-3.25h-29.73v74.38h17.4v-23.09h11.82c5.5,0,10.26-1.06,14.27-3.16,4.01-2.1,7.1-5.07,9.26-8.92,2.17-3.84,3.25-8.33,3.25-13.45s-1.07-9.59-3.2-13.45c-2.13-3.86-5.16-6.88-9.09-9.04h0ZM922.61,118.26c-.91,1.71-2.26,3.03-4.03,3.98s-3.96,1.42-6.59,1.42h-8.58v-22.62h8.58c2.6,0,4.79.46,6.57,1.38,1.78.92,3.13,2.22,4.04,3.91.91,1.69,1.37,3.67,1.37,5.98s-.46,4.27-1.37,5.98v-.02Z"/>
  <path class="st1" d="M1002.73,101.14v-14.6h-50.18v74.37h50.18v-14.59h-32.79v-15.29h30.23v-14.63h-30.23v-15.26h32.79Z"/>
  <path class="st0" d="M279.81,241.61c.6,0,1.13.23,1.59.69l4.32,4.69c-2.39,2.96-5.34,5.23-8.84,6.81-3.48,1.58-7.66,2.36-12.55,2.36-4.37,0-8.31-.75-11.82-2.24-3.48-1.49-6.45-3.57-8.92-6.23-2.47-2.66-4.37-5.84-5.7-9.54-1.3-3.7-1.96-7.73-1.96-12.1s.71-8.48,2.12-12.14c1.41-3.7,3.4-6.87,5.95-9.54,2.58-2.66,5.65-4.73,9.21-6.19,3.56-1.49,7.5-2.24,11.82-2.24s8.1.71,11.41,2.12c3.34,1.41,6.18,3.26,8.52,5.54l-3.67,5.09c-.22.33-.5.61-.86.86-.33.24-.79.37-1.39.37-.41,0-.83-.11-1.26-.33-.44-.24-.91-.53-1.43-.86-.52-.35-1.11-.73-1.79-1.14-.68-.41-1.47-.77-2.36-1.1-.9-.35-1.94-.64-3.14-.86-1.17-.24-2.53-.37-4.07-.37-2.64,0-5.05.48-7.25,1.43-2.17.92-4.05,2.28-5.62,4.07-1.58,1.77-2.8,3.94-3.67,6.52-.87,2.55-1.3,5.47-1.3,8.76s.46,6.26,1.39,8.84c.95,2.58,2.23,4.75,3.83,6.52,1.6,1.77,3.49,3.12,5.66,4.07,2.17.92,4.51,1.39,7.01,1.39,1.49,0,2.84-.08,4.03-.24,1.22-.16,2.34-.42,3.34-.77,1.03-.35,2-.8,2.89-1.34.92-.57,1.83-1.26,2.73-2.08.27-.24.56-.44.86-.57.3-.16.61-.24.94-.24Z"/>
  <path class="st0" d="M369.24,226.04c0,4.32-.72,8.33-2.16,12.02-1.41,3.67-3.42,6.85-6.03,9.54-2.61,2.69-5.75,4.8-9.41,6.32-3.67,1.49-7.74,2.24-12.22,2.24s-8.52-.75-12.18-2.24c-3.67-1.52-6.82-3.63-9.45-6.32-2.61-2.69-4.63-5.87-6.07-9.54-1.44-3.7-2.16-7.7-2.16-12.02s.72-8.31,2.16-11.98c1.44-3.7,3.46-6.89,6.07-9.58,2.63-2.69,5.79-4.78,9.45-6.28,3.67-1.52,7.73-2.28,12.18-2.28,2.99,0,5.8.35,8.44,1.06,2.63.68,5.05,1.66,7.25,2.93,2.2,1.25,4.17,2.78,5.91,4.6,1.77,1.79,3.26,3.8,4.48,6.03,1.22,2.23,2.15,4.65,2.77,7.25.65,2.61.98,5.35.98,8.23ZM358.03,226.04c0-3.23-.44-6.13-1.3-8.68-.87-2.58-2.11-4.77-3.71-6.56-1.6-1.79-3.56-3.17-5.87-4.12-2.28-.95-4.86-1.43-7.74-1.43s-5.47.48-7.78,1.43c-2.28.95-4.24,2.32-5.87,4.12-1.6,1.79-2.84,3.98-3.71,6.56-.87,2.55-1.3,5.45-1.3,8.68s.43,6.14,1.3,8.72c.87,2.55,2.1,4.73,3.71,6.52,1.63,1.77,3.59,3.12,5.87,4.07,2.31.95,4.9,1.43,7.78,1.43s5.46-.48,7.74-1.43c2.31-.95,4.26-2.31,5.87-4.07,1.6-1.79,2.84-3.97,3.71-6.52.87-2.58,1.3-5.49,1.3-8.72Z"/>
  <path class="st0" d="M448.36,196.58v58.92h-5.62c-.87,0-1.6-.14-2.2-.41-.57-.3-1.13-.79-1.67-1.47l-30.77-39.28c.16,1.79.24,3.45.24,4.97v36.19h-9.66v-58.92h5.75c.46,0,.86.03,1.18.08.35.03.65.11.9.24.27.11.53.29.77.53.24.22.52.52.82.9l30.89,39.45c-.08-.95-.15-1.89-.2-2.81-.05-.92-.08-1.78-.08-2.57v-35.82h9.66Z"/>
  <path class="st0" d="M519.99,205.58h-17.77v49.92h-10.96v-49.92h-17.77v-9.01h46.5v9.01Z"/>
  <path class="st0" d="M573.48,233.25l-7.17-19.6c-.35-.87-.72-1.9-1.1-3.1-.38-1.19-.76-2.49-1.14-3.87-.35,1.39-.72,2.69-1.1,3.91-.38,1.19-.75,2.24-1.1,3.14l-7.13,19.52h18.75ZM592.83,255.5h-8.48c-.95,0-1.73-.23-2.32-.69-.6-.49-1.05-1.09-1.34-1.79l-4.4-12.02h-24.41l-4.4,12.02c-.22.62-.64,1.19-1.26,1.71-.63.52-1.4.77-2.32.77h-8.56l23.19-58.92h11.17l23.15,58.92Z"/>
  <path class="st0" d="M638.09,246.94c2.04,0,3.75-.24,5.13-.73,1.39-.49,2.49-1.14,3.3-1.96.84-.81,1.44-1.77,1.79-2.85.38-1.09.57-2.24.57-3.46s-.2-2.42-.61-3.42c-.41-1.03-1.05-1.9-1.92-2.61-.87-.73-2-1.29-3.38-1.67-1.36-.38-3-.57-4.93-.57h-11.04v17.28h11.08ZM627.01,205.05v17.03h8.72c3.75,0,6.57-.68,8.48-2.04,1.93-1.36,2.89-3.52,2.89-6.48s-.87-5.26-2.61-6.56c-1.74-1.3-4.46-1.96-8.15-1.96h-9.33ZM636.34,196.58c3.86,0,7.16.37,9.9,1.1,2.74.73,4.98,1.78,6.72,3.14,1.77,1.36,3.06,3,3.87,4.93.81,1.93,1.22,4.1,1.22,6.52,0,1.39-.2,2.72-.61,3.99-.41,1.25-1.05,2.43-1.92,3.55-.84,1.09-1.93,2.08-3.26,2.97-1.3.9-2.87,1.66-4.69,2.28,8.09,1.82,12.14,6.19,12.14,13.12,0,2.5-.48,4.81-1.43,6.93-.95,2.12-2.34,3.95-4.16,5.5-1.82,1.52-4.06,2.72-6.72,3.59-2.66.87-5.71,1.3-9.13,1.3h-22.25v-58.92h20.29Z"/>
  <path class="st0" d="M700.51,255.5h-11v-58.92h11v58.92Z"/>
  <path class="st0" d="M768.03,246.45v9.05h-34.52v-58.92h10.96v49.88h23.55Z"/>
  <path class="st0" d="M804.21,255.5h-11v-58.92h11v58.92Z"/>
  <path class="st0" d="M889.55,226.04c0,4.32-.72,8.29-2.16,11.9-1.44,3.61-3.46,6.72-6.07,9.33-2.61,2.61-5.75,4.63-9.41,6.07s-7.74,2.16-12.23,2.16h-22.45v-58.92h22.45c4.48,0,8.56.73,12.23,2.2,3.67,1.44,6.81,3.46,9.41,6.07,2.61,2.58,4.63,5.68,6.07,9.29,1.44,3.61,2.16,7.58,2.16,11.9ZM878.3,226.04c0-3.23-.44-6.13-1.3-8.68-.84-2.58-2.08-4.75-3.71-6.52-1.6-1.79-3.56-3.17-5.87-4.12-2.28-.95-4.86-1.43-7.74-1.43h-11.45v41.48h11.45c2.88,0,5.46-.48,7.74-1.43,2.31-.95,4.27-2.31,5.87-4.07,1.63-1.79,2.87-3.97,3.71-6.52.87-2.58,1.3-5.49,1.3-8.72Z"/>
  <path class="st0" d="M947.47,233.25l-7.17-19.6c-.35-.87-.72-1.9-1.1-3.1s-.76-2.49-1.14-3.87c-.35,1.39-.72,2.69-1.1,3.91-.38,1.19-.75,2.24-1.1,3.14l-7.13,19.52h18.74ZM966.83,255.5h-8.48c-.95,0-1.72-.23-2.32-.69-.6-.49-1.05-1.09-1.34-1.79l-4.4-12.02h-24.41l-4.4,12.02c-.22.62-.64,1.19-1.26,1.71-.62.52-1.4.77-2.32.77h-8.56l23.19-58.92h11.17l23.15,58.92Z"/>
  <path class="st0" d="M1042.36,226.04c0,4.32-.72,8.29-2.16,11.9-1.44,3.61-3.46,6.72-6.07,9.33-2.61,2.61-5.75,4.63-9.41,6.07s-7.74,2.16-12.23,2.16h-22.45v-58.92h22.45c4.48,0,8.56.73,12.23,2.2,3.67,1.44,6.81,3.46,9.41,6.07,2.61,2.58,4.63,5.68,6.07,9.29,1.44,3.61,2.16,7.58,2.16,11.9ZM1031.11,226.04c0-3.23-.44-6.13-1.3-8.68-.84-2.58-2.08-4.75-3.71-6.52-1.6-1.79-3.56-3.17-5.87-4.12-2.28-.95-4.86-1.43-7.74-1.43h-11.45v41.48h11.45c2.88,0,5.46-.48,7.74-1.43,2.31-.95,4.27-2.31,5.87-4.07,1.63-1.79,2.87-3.97,3.71-6.52.87-2.58,1.3-5.49,1.3-8.72Z"/>
</svg>